%TF.GenerationSoftware,KiCad,Pcbnew,10.0.4-10.0.4~ubuntu24.04.1*%
%TF.CreationDate,2026-06-21T13:29:14+00:00*%
%TF.ProjectId,flight_computer,666c6967-6874-45f6-936f-6d7075746572,A*%
%TF.SameCoordinates,Original*%
%TF.FileFunction,Copper,L4,Bot*%
%TF.FilePolarity,Positive*%
%FSLAX46Y46*%
G04 Gerber Fmt 4.6, Leading zero omitted, Abs format (unit mm)*
G04 Created by KiCad (PCBNEW 10.0.4-10.0.4~ubuntu24.04.1) date 2026-06-21 13:29:14*
%MOMM*%
%LPD*%
G01*
G04 APERTURE LIST*
%TA.AperFunction,ComponentPad*%
%ADD10C,0.500000*%
%TD*%
%TA.AperFunction,ComponentPad*%
%ADD11C,1.000000*%
%TD*%
%TA.AperFunction,ComponentPad*%
%ADD12C,2.100000*%
%TD*%
%TA.AperFunction,SMDPad,CuDef*%
%ADD13R,4.200000X1.350000*%
%TD*%
%TA.AperFunction,ComponentPad*%
%ADD14C,1.620000*%
%TD*%
%TA.AperFunction,ComponentPad*%
%ADD15C,3.010000*%
%TD*%
%TA.AperFunction,ComponentPad*%
%ADD16O,1.000000X2.100000*%
%TD*%
%TA.AperFunction,ComponentPad*%
%ADD17O,1.000000X1.800000*%
%TD*%
%TA.AperFunction,ComponentPad*%
%ADD18C,2.020000*%
%TD*%
%TA.AperFunction,ViaPad*%
%ADD19C,0.600000*%
%TD*%
%TA.AperFunction,ViaPad*%
%ADD20C,6.350000*%
%TD*%
%TA.AperFunction,Conductor*%
%ADD21C,0.300000*%
%TD*%
%TA.AperFunction,Conductor*%
%ADD22C,0.200000*%
%TD*%
G04 APERTURE END LIST*
D10*
%TO.P,U4,17,EP_17*%
%TO.N,GND*%
X152652000Y-73837000D03*
X152652000Y-72677000D03*
X152072000Y-73257000D03*
X151492000Y-73837000D03*
X151492000Y-72677000D03*
%TD*%
D11*
%TO.P,J2,1,1_1*%
%TO.N,Net-(J2-Pad1)*%
X109146000Y-75934000D03*
%TO.P,J2,2,2_2*%
%TO.N,Net-(U16-EN)*%
X109146000Y-77184000D03*
%TD*%
D12*
%TO.P,J4,1,1_1*%
%TO.N,Net-(J3-Pad2)*%
X108511000Y-120628000D03*
%TO.P,J4,2,2_2*%
%TO.N,Net-(J4-Pad2)*%
X108511000Y-125708000D03*
%TD*%
D11*
%TO.P,J3,1,1_1*%
%TO.N,/Power/VSENSE*%
X109146000Y-82538000D03*
%TO.P,J3,2,2_2*%
%TO.N,Net-(J3-Pad2)*%
X109146000Y-83788000D03*
%TD*%
D13*
%TO.P,J12,2,2_2*%
%TO.N,GND*%
X198486000Y-129803000D03*
X198486000Y-124153000D03*
%TD*%
D14*
%TO.P,J1,1,1_1*%
%TO.N,VIN*%
X113591000Y-68788000D03*
%TO.P,J1,2,2_2*%
%TO.N,GND*%
X113591000Y-65788000D03*
D15*
%TO.P,J1,MP,MP_MP*%
%TO.N,CHASSIS*%
X109271000Y-63638000D03*
X109271000Y-70938000D03*
%TD*%
D10*
%TO.P,U3,17,EP_17*%
%TO.N,GND*%
X152652000Y-61645000D03*
X152652000Y-60485000D03*
X152072000Y-61065000D03*
X151492000Y-61645000D03*
X151492000Y-60485000D03*
%TD*%
D11*
%TO.P,J8,1,1_1*%
%TO.N,+3.3V*%
X144776000Y-136249000D03*
%TO.P,J8,2,2_2*%
%TO.N,SWD.SWDIO*%
X146026000Y-136249000D03*
%TO.P,J8,3,3_3*%
%TO.N,SWD.SWCLK*%
X147276000Y-136249000D03*
%TO.P,J8,4,4_4*%
%TO.N,SWD.SWO*%
X148526000Y-136249000D03*
%TO.P,J8,5,5_5*%
%TO.N,SWD.NRST*%
X149776000Y-136249000D03*
%TO.P,J8,6,6_6*%
%TO.N,USART2.TX*%
X151026000Y-136249000D03*
%TO.P,J8,7,7_7*%
%TO.N,USART2.RX*%
X152276000Y-136249000D03*
%TO.P,J8,8,8_8*%
%TO.N,GND*%
X153526000Y-136249000D03*
%TD*%
D12*
%TO.P,J5,1,1_1*%
%TO.N,Net-(J3-Pad2)*%
X108511000Y-110468000D03*
%TO.P,J5,2,2_2*%
%TO.N,Net-(J5-Pad2)*%
X108511000Y-115548000D03*
%TD*%
D16*
%TO.P,J9,SH,SH_SH*%
%TO.N,CHASSIS*%
X133020000Y-133963000D03*
D17*
X133020000Y-138143000D03*
D16*
X141660000Y-133963000D03*
D17*
X141660000Y-138143000D03*
%TD*%
D18*
%TO.P,J11,1,1_1*%
%TO.N,+3.3V*%
X161597000Y-131042000D03*
%TO.P,J11,2,2_2*%
%TO.N,Net-(J11-Pad2)*%
X161597000Y-128502000D03*
%TO.P,J11,3,3_3*%
%TO.N,GND*%
X161597000Y-125962000D03*
%TD*%
D12*
%TO.P,J7,1,1_1*%
%TO.N,Net-(J3-Pad2)*%
X108511000Y-90148000D03*
%TO.P,J7,2,2_2*%
%TO.N,Net-(J7-Pad2)*%
X108511000Y-95228000D03*
%TD*%
%TO.P,J6,1,1_1*%
%TO.N,Net-(J3-Pad2)*%
X108511000Y-100308000D03*
%TO.P,J6,2,2_2*%
%TO.N,Net-(J6-Pad2)*%
X108511000Y-105388000D03*
%TD*%
D18*
%TO.P,J10,1,1_1*%
%TO.N,SWD.NRST*%
X156517000Y-125962000D03*
%TO.P,J10,2,2_2*%
%TO.N,GND*%
X156517000Y-128502000D03*
%TD*%
D19*
%TO.N,GND*%
X118163000Y-64748000D03*
X190680000Y-125962000D03*
X146611000Y-77956000D03*
X196014000Y-124438000D03*
X165661000Y-72876000D03*
X186870000Y-126597000D03*
X193728000Y-125962000D03*
X128196000Y-121644000D03*
X186870000Y-127994000D03*
X170360000Y-71225000D03*
X119433000Y-113516000D03*
X170360000Y-74781000D03*
X124132000Y-55985000D03*
X140515000Y-128502000D03*
X114988000Y-60938000D03*
X119433000Y-122660000D03*
X119433000Y-93196000D03*
X152961000Y-129391000D03*
X168709000Y-72876000D03*
X189283000Y-84306000D03*
X186743000Y-86465000D03*
X146611000Y-65764000D03*
X185219000Y-114532003D03*
X148135000Y-65764000D03*
X150858276Y-58787165D03*
X193728000Y-127994000D03*
X159565000Y-84433000D03*
X163756000Y-90656000D03*
X175186000Y-74527000D03*
X126545000Y-104626000D03*
X147881000Y-129391000D03*
X146865000Y-68939000D03*
X151691000Y-125327000D03*
X129720000Y-63351000D03*
X167185000Y-72876000D03*
X143436000Y-82782000D03*
X182298000Y-74908000D03*
X192966000Y-127994000D03*
X196014000Y-127994000D03*
X184584000Y-71225000D03*
X188394000Y-126597000D03*
X135181000Y-128502000D03*
X163756000Y-98403000D03*
X126799000Y-99678843D03*
X147373000Y-77956000D03*
X119306000Y-58398000D03*
X132387000Y-65383000D03*
X196014000Y-130280000D03*
X189156000Y-126597000D03*
X192204000Y-127994000D03*
X116512000Y-60938000D03*
X153469000Y-62970000D03*
X187632000Y-126597000D03*
X146865000Y-56747000D03*
X194490000Y-127994000D03*
X124132000Y-58144000D03*
X190680000Y-87481000D03*
X191442000Y-127994000D03*
X126545000Y-90910000D03*
X172512983Y-87103000D03*
X186997000Y-122787000D03*
X187632000Y-127994000D03*
X147373000Y-65764000D03*
X146611000Y-125327000D03*
X186108000Y-127994000D03*
X186997000Y-117072000D03*
X134165000Y-132312000D03*
X126542460Y-111230000D03*
X149278000Y-114786000D03*
X196014000Y-125962000D03*
X165534000Y-104626000D03*
X163756000Y-88370000D03*
X138229000Y-70336000D03*
X126672000Y-124946000D03*
X184076000Y-73765000D03*
X126799000Y-119993000D03*
X126799000Y-117453000D03*
X143944000Y-85322000D03*
X176710000Y-73765000D03*
X117528000Y-77702000D03*
X191442000Y-125962000D03*
X153469000Y-75162000D03*
X187759000Y-117072000D03*
X193601000Y-116310003D03*
X134292000Y-100816000D03*
X174170000Y-118723000D03*
X141404000Y-102340000D03*
X170614000Y-92561000D03*
X167312000Y-99419000D03*
X189918000Y-127994000D03*
X139118000Y-130280000D03*
X190680000Y-127994000D03*
X189156000Y-127994000D03*
X170988983Y-87103000D03*
X151620276Y-58787165D03*
X151620276Y-70979165D03*
X195252000Y-127994000D03*
X196014000Y-123676000D03*
X196014000Y-128756000D03*
X167947000Y-72876000D03*
X115750000Y-60938000D03*
X158549000Y-106531000D03*
X126799000Y-97138843D03*
X189918000Y-125962000D03*
X140515000Y-132312000D03*
X196014000Y-129518000D03*
X186108000Y-126597000D03*
X117274000Y-60938000D03*
X166042000Y-90656000D03*
X178234000Y-87100000D03*
X166423000Y-72876000D03*
X121211000Y-65637000D03*
X175694000Y-118723000D03*
X150858276Y-70979165D03*
X148897000Y-65764000D03*
X142547000Y-108817000D03*
X174932000Y-118723000D03*
X188394000Y-127994000D03*
X196014000Y-125200000D03*
X166550000Y-88370000D03*
X192966000Y-125962000D03*
X184838000Y-82401000D03*
X148897000Y-77956000D03*
X185346000Y-86465000D03*
X147627000Y-68939000D03*
X176456000Y-85830000D03*
X150421000Y-129391000D03*
X149151000Y-125327000D03*
X172646000Y-74781000D03*
X191315000Y-116310003D03*
X119433000Y-102345843D03*
X182298000Y-75670000D03*
X128069000Y-94217843D03*
X128069000Y-101329843D03*
X138737000Y-103229000D03*
X128196000Y-114532000D03*
X114226000Y-60938000D03*
X145341000Y-129391000D03*
X188521000Y-117072000D03*
X162867000Y-103102000D03*
X147627000Y-56747000D03*
X192204000Y-125962000D03*
X148135000Y-77956000D03*
%TO.N,SENSE_A*%
X146230000Y-94974000D03*
X124132000Y-124057000D03*
%TO.N,+3.3V*%
X141658000Y-106277000D03*
X163756000Y-96879000D03*
X163756000Y-86846000D03*
X155628000Y-55223000D03*
X146357000Y-86211000D03*
X158041000Y-84433000D03*
X158930000Y-65891000D03*
X157914000Y-55223000D03*
X161216000Y-65891000D03*
X140642000Y-71225000D03*
X144452000Y-132439000D03*
X180266000Y-73765000D03*
X163756000Y-92180000D03*
X170360000Y-78337000D03*
X159692000Y-65891000D03*
X160454000Y-65891000D03*
X157406000Y-65891000D03*
X140769000Y-72622000D03*
X160073000Y-106531000D03*
X175186000Y-78337000D03*
X131371000Y-58144000D03*
X155247000Y-66145000D03*
X190680000Y-85703000D03*
X173281000Y-126089000D03*
X174678000Y-87100000D03*
X142547000Y-103737000D03*
X173281000Y-127232000D03*
X166550000Y-86592000D03*
X158168000Y-65891000D03*
X148643000Y-81639000D03*
X151437000Y-63351000D03*
X142801000Y-116183000D03*
X189283000Y-80750000D03*
X172512983Y-83166000D03*
X180520000Y-71225000D03*
X165534000Y-99800000D03*
X150929000Y-81639000D03*
X172646000Y-78337000D03*
%TO.N,I2C2.SDA*%
X182933000Y-121771000D03*
X148643000Y-85068000D03*
%TO.N,I2C2.SCL*%
X182933000Y-120628000D03*
X150929000Y-85195000D03*
%TO.N,~{GNSS_SAFEBOOT}*%
X182933000Y-119485000D03*
%TO.N,~{MAG_CS}*%
X168201000Y-81258000D03*
%TO.N,SPI1.SCLK*%
X157152000Y-79353000D03*
X169725000Y-79353000D03*
X157152000Y-81258000D03*
X175186000Y-79353000D03*
X175186000Y-81258000D03*
X169718983Y-81258000D03*
%TO.N,~{PREC_ACCEL_CS}*%
X180266000Y-78718000D03*
%TO.N,SPI1.MISO*%
X183822000Y-84560000D03*
X177726000Y-81258000D03*
X181028000Y-79988000D03*
X156263000Y-81258000D03*
X166423000Y-81258000D03*
X177726000Y-79988000D03*
X166423000Y-79988000D03*
X182552000Y-84560000D03*
X166423000Y-78718000D03*
X156263000Y-79988000D03*
X181028000Y-78718000D03*
%TO.N,SPI1.MOSI*%
X167185000Y-80623000D03*
X181917000Y-78718000D03*
X183822000Y-83798000D03*
X181917000Y-83798000D03*
X181917000Y-80623000D03*
X167185000Y-78718000D03*
%TO.N,+5V*%
X151564000Y-75543000D03*
X161216000Y-78083000D03*
X135181000Y-55985000D03*
X158168000Y-78083000D03*
X160454000Y-78083000D03*
X157914000Y-67415000D03*
X155247000Y-78337000D03*
X158930000Y-78083000D03*
X157406000Y-78083000D03*
X155628000Y-67415000D03*
X159692000Y-78083000D03*
%TO.N,SWD.NRST*%
X150171061Y-102182000D03*
X150167000Y-123930000D03*
%TO.N,SENSE_B*%
X124132000Y-110341000D03*
X146230000Y-94212000D03*
%TO.N,SENSE_C*%
X146230000Y-93196000D03*
X124132000Y-103737000D03*
%TO.N,SENSE_D*%
X146230000Y-92434000D03*
X124132000Y-91799000D03*
%TO.N,SWD.SWO*%
X153215000Y-124692000D03*
X148262000Y-124692000D03*
D20*
%TO.N,CHASSIS*%
X195506000Y-135614000D03*
X195506000Y-55604000D03*
X109776000Y-131804000D03*
X109776000Y-58144000D03*
D19*
%TO.N,Net-(U16-EN)*%
X128450000Y-63351000D03*
%TO.N,VUSB*%
X137340000Y-134979000D03*
X136578000Y-130280000D03*
%TO.N,Net-(Q6B-D)*%
X193601000Y-123676003D03*
X191315000Y-123676003D03*
%TD*%
%TO.N,SENSE_A*%
D21*
X136324000Y-94974000D02*
X129847000Y-101451000D01*
X126672000Y-124057000D02*
X124132000Y-124057000D01*
X146230000Y-94974000D02*
X136324000Y-94974000D01*
X129847000Y-120882000D02*
X126672000Y-124057000D01*
X129847000Y-101451000D02*
X129847000Y-120882000D01*
%TO.N,+3.3V*%
X154231000Y-66145000D02*
X151437000Y-63351000D01*
X155628000Y-55223000D02*
X157914000Y-55223000D01*
X155628000Y-55223000D02*
X155628000Y-65764000D01*
X155247000Y-66145000D02*
X154231000Y-66145000D01*
X155628000Y-65764000D02*
X155247000Y-66145000D01*
%TO.N,I2C2.SDA*%
X148643000Y-98276000D02*
X148643000Y-85068000D01*
X182933000Y-121771000D02*
X172138000Y-121771000D01*
X172138000Y-121771000D02*
X148643000Y-98276000D01*
%TO.N,I2C2.SCL*%
X171757000Y-120628000D02*
X150929000Y-99800000D01*
X182933000Y-120628000D02*
X171757000Y-120628000D01*
X150929000Y-99800000D02*
X150929000Y-85195000D01*
%TO.N,SPI1.SCLK*%
D22*
X169718983Y-81258000D02*
X169725000Y-81251983D01*
X169725000Y-81251983D02*
X169725000Y-79353000D01*
D21*
X157152000Y-81258000D02*
X157152000Y-79353000D01*
X175186000Y-81258000D02*
X175186000Y-79353000D01*
%TO.N,SPI1.MISO*%
D22*
X183822000Y-84560000D02*
X182552000Y-84560000D01*
D21*
X181028000Y-78718000D02*
X181028000Y-79988000D01*
D22*
X166423000Y-78718000D02*
X166423000Y-79988000D01*
D21*
X156263000Y-81258000D02*
X156263000Y-79988000D01*
X177726000Y-81258000D02*
X177726000Y-79988000D01*
D22*
X166423000Y-81258000D02*
X166423000Y-79988000D01*
%TO.N,SPI1.MOSI*%
X167185000Y-78718000D02*
X167185000Y-80623000D01*
D21*
X181917000Y-78718000D02*
X181917000Y-80623000D01*
D22*
X183822000Y-83798000D02*
X181917000Y-83798000D01*
%TO.N,+5V*%
D21*
X155628000Y-77956000D02*
X155247000Y-78337000D01*
X155247000Y-78337000D02*
X154358000Y-78337000D01*
X154358000Y-78337000D02*
X151564000Y-75543000D01*
X155628000Y-67415000D02*
X146659111Y-67415000D01*
X146602835Y-67406835D02*
X135181000Y-55985000D01*
X155628000Y-67415000D02*
X155628000Y-77956000D01*
X155628000Y-67415000D02*
X157914000Y-67415000D01*
%TO.N,SWD.NRST*%
X154485000Y-123930000D02*
X156517000Y-125962000D01*
X150167000Y-123930000D02*
X154485000Y-123930000D01*
X150167000Y-123930000D02*
X150167000Y-102186061D01*
X150167000Y-102186061D02*
X150171061Y-102182000D01*
%TO.N,SENSE_B*%
X136324000Y-94212000D02*
X129339000Y-101197000D01*
X129339000Y-105134000D02*
X124132000Y-110341000D01*
X146230000Y-94212000D02*
X136324000Y-94212000D01*
X129339000Y-101197000D02*
X129339000Y-105134000D01*
%TO.N,SENSE_C*%
X146230000Y-93196000D02*
X136578000Y-93196000D01*
X128831000Y-101451000D02*
X126545000Y-103737000D01*
X136578000Y-93196000D02*
X128831000Y-100943000D01*
X128831000Y-100943000D02*
X128831000Y-101451000D01*
X126545000Y-103737000D02*
X124132000Y-103737000D01*
%TO.N,SENSE_D*%
X146230000Y-92434000D02*
X124767000Y-92434000D01*
X124767000Y-92434000D02*
X124132000Y-91799000D01*
%TO.N,SWD.SWO*%
X153215000Y-124692000D02*
X148262000Y-124692000D01*
%TO.N,Net-(U16-EN)*%
X114617000Y-77184000D02*
X128450000Y-63351000D01*
X109146000Y-77184000D02*
X114617000Y-77184000D01*
%TO.N,VUSB*%
X137340000Y-131042000D02*
X136578000Y-130280000D01*
X137340000Y-134979000D02*
X137340000Y-131042000D01*
%TO.N,Net-(Q6B-D)*%
X193601000Y-123676003D02*
X191315000Y-123676003D01*
%TD*%
%TA.AperFunction,Conductor*%
%TO.N,CHASSIS*%
G36*
X200128539Y-50944185D02*
G01*
X200174294Y-50996989D01*
X200185500Y-51048500D01*
X200185500Y-122790000D01*
X200165815Y-122857039D01*
X200113011Y-122902794D01*
X200061500Y-122914000D01*
X196710000Y-122914000D01*
X196642961Y-122894315D01*
X196597206Y-122841511D01*
X196586000Y-122790000D01*
X196586000Y-58784000D01*
X192450000Y-58784000D01*
X192382961Y-58764315D01*
X192337206Y-58711511D01*
X192326000Y-58660000D01*
X192326000Y-54524000D01*
X112956000Y-54524000D01*
X112956000Y-61200000D01*
X112936315Y-61267039D01*
X112883511Y-61312794D01*
X112832000Y-61324000D01*
X108696000Y-61324000D01*
X108696000Y-65005000D01*
X108676315Y-65072039D01*
X108623511Y-65117794D01*
X108572000Y-65129000D01*
X105220500Y-65129000D01*
X105153461Y-65109315D01*
X105107706Y-65056511D01*
X105096500Y-65005000D01*
X105096500Y-51048500D01*
X105116185Y-50981461D01*
X105168989Y-50935706D01*
X105220500Y-50924500D01*
X200061500Y-50924500D01*
X200128539Y-50944185D01*
G37*
%TD.AperFunction*%
%TD*%
%TA.AperFunction,Conductor*%
%TO.N,CHASSIS*%
G36*
X108236207Y-69466685D02*
G01*
X108281962Y-69519489D01*
X108292786Y-69580729D01*
X108290925Y-69604372D01*
X108613090Y-69926537D01*
X108485995Y-70018878D01*
X108351878Y-70152995D01*
X108259537Y-70280090D01*
X107937372Y-69957925D01*
X107855515Y-70070594D01*
X107737252Y-70302695D01*
X107656751Y-70550452D01*
X107616000Y-70807743D01*
X107616000Y-71068256D01*
X107656751Y-71325547D01*
X107737252Y-71573304D01*
X107855515Y-71805405D01*
X107937372Y-71918073D01*
X108259536Y-71595908D01*
X108351878Y-71723005D01*
X108485995Y-71857122D01*
X108613088Y-71949461D01*
X108290924Y-72271626D01*
X108290925Y-72271627D01*
X108403587Y-72353480D01*
X108628295Y-72467976D01*
X108679091Y-72515951D01*
X108696000Y-72578461D01*
X108696000Y-74342638D01*
X108676315Y-74409677D01*
X108659681Y-74430319D01*
X107696000Y-75393999D01*
X107696000Y-77694000D01*
X108659681Y-78657681D01*
X108693166Y-78719004D01*
X108696000Y-78745362D01*
X108696000Y-80942638D01*
X108676315Y-81009677D01*
X108659681Y-81030319D01*
X107696000Y-81993999D01*
X107696000Y-84294000D01*
X108659681Y-85257681D01*
X108693166Y-85319004D01*
X108696000Y-85345362D01*
X108696000Y-87242638D01*
X108676315Y-87309677D01*
X108659681Y-87330319D01*
X106696000Y-89293999D01*
X106696000Y-126493999D01*
X106696001Y-126494002D01*
X108659545Y-128457768D01*
X108693027Y-128519093D01*
X108695859Y-128545233D01*
X108695999Y-128627789D01*
X108695999Y-128627788D01*
X108696000Y-128627789D01*
X112831891Y-128624110D01*
X112898947Y-128643735D01*
X112944748Y-128696498D01*
X112956000Y-128748110D01*
X112956000Y-136694000D01*
X143144638Y-136694000D01*
X143211677Y-136713685D01*
X143232319Y-136730319D01*
X144196000Y-137694000D01*
X154096000Y-137694000D01*
X155059681Y-136730319D01*
X155121004Y-136696834D01*
X155147362Y-136694000D01*
X192326000Y-136694000D01*
X192326000Y-132558000D01*
X192345685Y-132490961D01*
X192398489Y-132445206D01*
X192450000Y-132434000D01*
X196586000Y-132434000D01*
X196586000Y-131166000D01*
X196605685Y-131098961D01*
X196658489Y-131053206D01*
X196710000Y-131042000D01*
X200061500Y-131042000D01*
X200128539Y-131061685D01*
X200174294Y-131114489D01*
X200185500Y-131166000D01*
X200185500Y-140169500D01*
X200165815Y-140236539D01*
X200113011Y-140282294D01*
X200061500Y-140293500D01*
X105220500Y-140293500D01*
X105153461Y-140273815D01*
X105107706Y-140221011D01*
X105096500Y-140169500D01*
X105096500Y-137678976D01*
X132370000Y-137678976D01*
X132370000Y-137893000D01*
X132720000Y-137893000D01*
X132720000Y-138393000D01*
X132370000Y-138393000D01*
X132370000Y-138607023D01*
X132394977Y-138732590D01*
X132394979Y-138732598D01*
X132443978Y-138850891D01*
X132443978Y-138850892D01*
X132515110Y-138957349D01*
X132515116Y-138957356D01*
X132605643Y-139047883D01*
X132605650Y-139047889D01*
X132712108Y-139119021D01*
X132769999Y-139143000D01*
X132770000Y-139143000D01*
X132770000Y-138709988D01*
X132779940Y-138727205D01*
X132835795Y-138783060D01*
X132904204Y-138822556D01*
X132980504Y-138843000D01*
X133059496Y-138843000D01*
X133135796Y-138822556D01*
X133204205Y-138783060D01*
X133260060Y-138727205D01*
X133270000Y-138709988D01*
X133270000Y-139143000D01*
X133327891Y-139119021D01*
X133327892Y-139119021D01*
X133434349Y-139047889D01*
X133434356Y-139047883D01*
X133524883Y-138957356D01*
X133524889Y-138957349D01*
X133596021Y-138850892D01*
X133596021Y-138850891D01*
X133645020Y-138732598D01*
X133645022Y-138732590D01*
X133669999Y-138607023D01*
X133670000Y-138607020D01*
X133670000Y-138393000D01*
X133320000Y-138393000D01*
X133320000Y-137893000D01*
X133670000Y-137893000D01*
X133670000Y-137678980D01*
X133669999Y-137678976D01*
X141010000Y-137678976D01*
X141010000Y-137893000D01*
X141360000Y-137893000D01*
X141360000Y-138393000D01*
X141010000Y-138393000D01*
X141010000Y-138607023D01*
X141034977Y-138732590D01*
X141034979Y-138732598D01*
X141083978Y-138850891D01*
X141083978Y-138850892D01*
X141155110Y-138957349D01*
X141155116Y-138957356D01*
X141245643Y-139047883D01*
X141245650Y-139047889D01*
X141352108Y-139119021D01*
X141409999Y-139143000D01*
X141410000Y-139143000D01*
X141410000Y-138709988D01*
X141419940Y-138727205D01*
X141475795Y-138783060D01*
X141544204Y-138822556D01*
X141620504Y-138843000D01*
X141699496Y-138843000D01*
X141775796Y-138822556D01*
X141844205Y-138783060D01*
X141900060Y-138727205D01*
X141910000Y-138709988D01*
X141910000Y-139143000D01*
X141967891Y-139119021D01*
X141967892Y-139119021D01*
X142074349Y-139047889D01*
X142074356Y-139047883D01*
X142164883Y-138957356D01*
X142164889Y-138957349D01*
X142236021Y-138850892D01*
X142236021Y-138850891D01*
X142285020Y-138732598D01*
X142285022Y-138732590D01*
X142309999Y-138607023D01*
X142310000Y-138607020D01*
X142310000Y-138393000D01*
X141960000Y-138393000D01*
X141960000Y-137893000D01*
X142310000Y-137893000D01*
X142310000Y-137678980D01*
X142309999Y-137678976D01*
X142285022Y-137553409D01*
X142285020Y-137553401D01*
X142236021Y-137435108D01*
X142236021Y-137435107D01*
X142164889Y-137328650D01*
X142164883Y-137328643D01*
X142074353Y-137238113D01*
X141967896Y-137166981D01*
X141967888Y-137166977D01*
X141910000Y-137142997D01*
X141910000Y-137576011D01*
X141900060Y-137558795D01*
X141844205Y-137502940D01*
X141775796Y-137463444D01*
X141699496Y-137443000D01*
X141620504Y-137443000D01*
X141544204Y-137463444D01*
X141475795Y-137502940D01*
X141419940Y-137558795D01*
X141410000Y-137576011D01*
X141410000Y-137142998D01*
X141409999Y-137142997D01*
X141352111Y-137166977D01*
X141352103Y-137166981D01*
X141245646Y-137238113D01*
X141155116Y-137328643D01*
X141155110Y-137328650D01*
X141083978Y-137435107D01*
X141083978Y-137435108D01*
X141034979Y-137553401D01*
X141034977Y-137553409D01*
X141010000Y-137678976D01*
X133669999Y-137678976D01*
X133645022Y-137553409D01*
X133645020Y-137553401D01*
X133596021Y-137435108D01*
X133596021Y-137435107D01*
X133524889Y-137328650D01*
X133524883Y-137328643D01*
X133434353Y-137238113D01*
X133327896Y-137166981D01*
X133327888Y-137166977D01*
X133270000Y-137142997D01*
X133270000Y-137576011D01*
X133260060Y-137558795D01*
X133204205Y-137502940D01*
X133135796Y-137463444D01*
X133059496Y-137443000D01*
X132980504Y-137443000D01*
X132904204Y-137463444D01*
X132835795Y-137502940D01*
X132779940Y-137558795D01*
X132770000Y-137576011D01*
X132770000Y-137142998D01*
X132769999Y-137142997D01*
X132712111Y-137166977D01*
X132712103Y-137166981D01*
X132605646Y-137238113D01*
X132515116Y-137328643D01*
X132515110Y-137328650D01*
X132443978Y-137435107D01*
X132443978Y-137435108D01*
X132394979Y-137553401D01*
X132394977Y-137553409D01*
X132370000Y-137678976D01*
X105096500Y-137678976D01*
X105096500Y-69571000D01*
X105116185Y-69503961D01*
X105168989Y-69458206D01*
X105220500Y-69447000D01*
X108169168Y-69447000D01*
X108236207Y-69466685D01*
G37*
%TD.AperFunction*%
%TD*%
%TA.AperFunction,Conductor*%
%TO.N,GND*%
G36*
X155302073Y-54699185D02*
G01*
X155347828Y-54751989D01*
X155357772Y-54821147D01*
X155328747Y-54884703D01*
X155322715Y-54891181D01*
X155267517Y-54946378D01*
X155267513Y-54946383D01*
X155267511Y-54946387D01*
X155208201Y-55049114D01*
X155177500Y-55163691D01*
X155177500Y-55282309D01*
X155208201Y-55396886D01*
X155267511Y-55499613D01*
X155267513Y-55499615D01*
X155278574Y-55510676D01*
X155299723Y-55538927D01*
X155312331Y-55562016D01*
X155327500Y-55621445D01*
X155327500Y-65552670D01*
X155322475Y-65587614D01*
X155318070Y-65602612D01*
X155280327Y-65661355D01*
X155278958Y-65662542D01*
X155224097Y-65690018D01*
X155216539Y-65691663D01*
X155190168Y-65694500D01*
X155187691Y-65694500D01*
X155096728Y-65718873D01*
X155096723Y-65718874D01*
X155073114Y-65725201D01*
X155073112Y-65725201D01*
X155073112Y-65725202D01*
X155051947Y-65737421D01*
X155051939Y-65737425D01*
X154970386Y-65784511D01*
X154970383Y-65784513D01*
X154959326Y-65795570D01*
X154959325Y-65795572D01*
X154959322Y-65795574D01*
X154931071Y-65816724D01*
X154907984Y-65829331D01*
X154848555Y-65844500D01*
X154424663Y-65844500D01*
X154389727Y-65839477D01*
X154364485Y-65832065D01*
X154311740Y-65800769D01*
X151936426Y-63425455D01*
X151936421Y-63425450D01*
X151915274Y-63397199D01*
X151902667Y-63374110D01*
X151887500Y-63314685D01*
X151887500Y-63291693D01*
X151887500Y-63291691D01*
X151856799Y-63177114D01*
X151797489Y-63074387D01*
X151713613Y-62990511D01*
X151610886Y-62931201D01*
X151496309Y-62900500D01*
X151496306Y-62900500D01*
X151377691Y-62900500D01*
X151286728Y-62924873D01*
X151286723Y-62924874D01*
X151263114Y-62931201D01*
X151263112Y-62931201D01*
X151263112Y-62931202D01*
X151241947Y-62943421D01*
X151241939Y-62943425D01*
X151160386Y-62990511D01*
X151160378Y-62990517D01*
X151076517Y-63074378D01*
X151076513Y-63074383D01*
X151076511Y-63074387D01*
X151017201Y-63177114D01*
X150986500Y-63291691D01*
X150986500Y-63410309D01*
X151017201Y-63524886D01*
X151076511Y-63627613D01*
X151160387Y-63711489D01*
X151263114Y-63770799D01*
X151377691Y-63801500D01*
X151393337Y-63801500D01*
X151428269Y-63806521D01*
X151453513Y-63813934D01*
X151506259Y-63845230D01*
X154046489Y-66385460D01*
X154115012Y-66425022D01*
X154191438Y-66445500D01*
X154841206Y-66445500D01*
X154876138Y-66450521D01*
X154901382Y-66457934D01*
X154954128Y-66489230D01*
X154970387Y-66505489D01*
X155073114Y-66564799D01*
X155187691Y-66595500D01*
X155187694Y-66595500D01*
X155306306Y-66595500D01*
X155306309Y-66595500D01*
X155420886Y-66564799D01*
X155523613Y-66505489D01*
X155607489Y-66421613D01*
X155666799Y-66318886D01*
X155697500Y-66204309D01*
X155697500Y-66188661D01*
X155701546Y-66157242D01*
X155702003Y-66155493D01*
X155705729Y-66142807D01*
X155706826Y-66137081D01*
X155707873Y-66133086D01*
X155723839Y-66106557D01*
X155737995Y-66079029D01*
X155740104Y-66076865D01*
X155868460Y-65948511D01*
X155871222Y-65943727D01*
X155908021Y-65879989D01*
X155920963Y-65831691D01*
X156955500Y-65831691D01*
X156955500Y-65950309D01*
X156986201Y-66064886D01*
X157045511Y-66167613D01*
X157129387Y-66251489D01*
X157232114Y-66310799D01*
X157346691Y-66341500D01*
X157346694Y-66341500D01*
X157465306Y-66341500D01*
X157465309Y-66341500D01*
X157579886Y-66310799D01*
X157682613Y-66251489D01*
X157686715Y-66247386D01*
X157714964Y-66226239D01*
X157728688Y-66218745D01*
X157796946Y-66203894D01*
X157798756Y-66204023D01*
X157856953Y-66223389D01*
X157863471Y-66227578D01*
X157884106Y-66244208D01*
X157891387Y-66251489D01*
X157994114Y-66310799D01*
X158108691Y-66341500D01*
X158108694Y-66341500D01*
X158227306Y-66341500D01*
X158227309Y-66341500D01*
X158341886Y-66310799D01*
X158444613Y-66251489D01*
X158448715Y-66247386D01*
X158476964Y-66226239D01*
X158490688Y-66218745D01*
X158558946Y-66203894D01*
X158560756Y-66204023D01*
X158618953Y-66223389D01*
X158625471Y-66227578D01*
X158646106Y-66244208D01*
X158653387Y-66251489D01*
X158756114Y-66310799D01*
X158870691Y-66341500D01*
X158870694Y-66341500D01*
X158989306Y-66341500D01*
X158989309Y-66341500D01*
X159103886Y-66310799D01*
X159206613Y-66251489D01*
X159210715Y-66247386D01*
X159238964Y-66226239D01*
X159252688Y-66218745D01*
X159320946Y-66203894D01*
X159322756Y-66204023D01*
X159380953Y-66223389D01*
X159387471Y-66227578D01*
X159408106Y-66244208D01*
X159415387Y-66251489D01*
X159518114Y-66310799D01*
X159632691Y-66341500D01*
X159632694Y-66341500D01*
X159751306Y-66341500D01*
X159751309Y-66341500D01*
X159865886Y-66310799D01*
X159968613Y-66251489D01*
X159972715Y-66247386D01*
X160000964Y-66226239D01*
X160014688Y-66218745D01*
X160082946Y-66203894D01*
X160084756Y-66204023D01*
X160142953Y-66223389D01*
X160149471Y-66227578D01*
X160170106Y-66244208D01*
X160177387Y-66251489D01*
X160280114Y-66310799D01*
X160394691Y-66341500D01*
X160394694Y-66341500D01*
X160513306Y-66341500D01*
X160513309Y-66341500D01*
X160627886Y-66310799D01*
X160730613Y-66251489D01*
X160734715Y-66247386D01*
X160762964Y-66226239D01*
X160776688Y-66218745D01*
X160844946Y-66203894D01*
X160846756Y-66204023D01*
X160904953Y-66223389D01*
X160911471Y-66227578D01*
X160932106Y-66244208D01*
X160939387Y-66251489D01*
X161042114Y-66310799D01*
X161156691Y-66341500D01*
X161156694Y-66341500D01*
X161275306Y-66341500D01*
X161275309Y-66341500D01*
X161389886Y-66310799D01*
X161492613Y-66251489D01*
X161576489Y-66167613D01*
X161635799Y-66064886D01*
X161666500Y-65950309D01*
X161666500Y-65831691D01*
X161635799Y-65717114D01*
X161576489Y-65614387D01*
X161492613Y-65530511D01*
X161389886Y-65471201D01*
X161275309Y-65440500D01*
X161275306Y-65440500D01*
X161156691Y-65440500D01*
X161065728Y-65464873D01*
X161065723Y-65464874D01*
X161042114Y-65471201D01*
X161042112Y-65471201D01*
X161042112Y-65471202D01*
X161020946Y-65483422D01*
X161020937Y-65483426D01*
X160939393Y-65530507D01*
X160939380Y-65530515D01*
X160939379Y-65530517D01*
X160935279Y-65534616D01*
X160913848Y-65550658D01*
X160907031Y-65555761D01*
X160893314Y-65563251D01*
X160825062Y-65578105D01*
X160823254Y-65577976D01*
X160765031Y-65558600D01*
X160758528Y-65554420D01*
X160737901Y-65537797D01*
X160730620Y-65530517D01*
X160730615Y-65530513D01*
X160730613Y-65530511D01*
X160627886Y-65471201D01*
X160513309Y-65440500D01*
X160513306Y-65440500D01*
X160394691Y-65440500D01*
X160303728Y-65464873D01*
X160303723Y-65464874D01*
X160280114Y-65471201D01*
X160280112Y-65471201D01*
X160280112Y-65471202D01*
X160258946Y-65483422D01*
X160258937Y-65483426D01*
X160177393Y-65530507D01*
X160177380Y-65530515D01*
X160177379Y-65530517D01*
X160173279Y-65534616D01*
X160151848Y-65550658D01*
X160145031Y-65555761D01*
X160131314Y-65563251D01*
X160063062Y-65578105D01*
X160061254Y-65577976D01*
X160003031Y-65558600D01*
X159996528Y-65554420D01*
X159975901Y-65537797D01*
X159968620Y-65530517D01*
X159968615Y-65530513D01*
X159968613Y-65530511D01*
X159865886Y-65471201D01*
X159751309Y-65440500D01*
X159751306Y-65440500D01*
X159632691Y-65440500D01*
X159541728Y-65464873D01*
X159541723Y-65464874D01*
X159518114Y-65471201D01*
X159518112Y-65471201D01*
X159518112Y-65471202D01*
X159496946Y-65483422D01*
X159496937Y-65483426D01*
X159415393Y-65530507D01*
X159415380Y-65530515D01*
X159415379Y-65530517D01*
X159411279Y-65534616D01*
X159389848Y-65550658D01*
X159383031Y-65555761D01*
X159369314Y-65563251D01*
X159301062Y-65578105D01*
X159299254Y-65577976D01*
X159241031Y-65558600D01*
X159234528Y-65554420D01*
X159213901Y-65537797D01*
X159206620Y-65530517D01*
X159206615Y-65530513D01*
X159206613Y-65530511D01*
X159103886Y-65471201D01*
X158989309Y-65440500D01*
X158989306Y-65440500D01*
X158870691Y-65440500D01*
X158779728Y-65464873D01*
X158779723Y-65464874D01*
X158756114Y-65471201D01*
X158756112Y-65471201D01*
X158756112Y-65471202D01*
X158734946Y-65483422D01*
X158734937Y-65483426D01*
X158653393Y-65530507D01*
X158653380Y-65530515D01*
X158653379Y-65530517D01*
X158649279Y-65534616D01*
X158627848Y-65550658D01*
X158621031Y-65555761D01*
X158607314Y-65563251D01*
X158539062Y-65578105D01*
X158537254Y-65577976D01*
X158479031Y-65558600D01*
X158472528Y-65554420D01*
X158451901Y-65537797D01*
X158444620Y-65530517D01*
X158444615Y-65530513D01*
X158444613Y-65530511D01*
X158341886Y-65471201D01*
X158227309Y-65440500D01*
X158227306Y-65440500D01*
X158108691Y-65440500D01*
X158017728Y-65464873D01*
X158017723Y-65464874D01*
X157994114Y-65471201D01*
X157994112Y-65471201D01*
X157994112Y-65471202D01*
X157972946Y-65483422D01*
X157972937Y-65483426D01*
X157891393Y-65530507D01*
X157891380Y-65530515D01*
X157891379Y-65530517D01*
X157887279Y-65534616D01*
X157865848Y-65550658D01*
X157859031Y-65555761D01*
X157845314Y-65563251D01*
X157777062Y-65578105D01*
X157775254Y-65577976D01*
X157717031Y-65558600D01*
X157710528Y-65554420D01*
X157689901Y-65537797D01*
X157682620Y-65530517D01*
X157682615Y-65530513D01*
X157682613Y-65530511D01*
X157579886Y-65471201D01*
X157465309Y-65440500D01*
X157465306Y-65440500D01*
X157346691Y-65440500D01*
X157255728Y-65464873D01*
X157255723Y-65464874D01*
X157232114Y-65471201D01*
X157232112Y-65471201D01*
X157232112Y-65471202D01*
X157210947Y-65483421D01*
X157210939Y-65483425D01*
X157129386Y-65530511D01*
X157129378Y-65530517D01*
X157045517Y-65614378D01*
X157045513Y-65614383D01*
X157045511Y-65614387D01*
X156986201Y-65717114D01*
X156955500Y-65831691D01*
X155920963Y-65831691D01*
X155928500Y-65803562D01*
X155928500Y-55665329D01*
X155933523Y-55630393D01*
X155935249Y-55624517D01*
X155937927Y-55615394D01*
X155947557Y-55600404D01*
X155952567Y-55583324D01*
X155975672Y-55556644D01*
X155977041Y-55555457D01*
X156031920Y-55527977D01*
X156039479Y-55526333D01*
X156065832Y-55523500D01*
X157508206Y-55523500D01*
X157543138Y-55528521D01*
X157568382Y-55535934D01*
X157621128Y-55567230D01*
X157637387Y-55583489D01*
X157740114Y-55642799D01*
X157854691Y-55673500D01*
X157854694Y-55673500D01*
X157973306Y-55673500D01*
X157973309Y-55673500D01*
X158087886Y-55642799D01*
X158190613Y-55583489D01*
X158274489Y-55499613D01*
X158333799Y-55396886D01*
X158364500Y-55282309D01*
X158364500Y-55163691D01*
X158333799Y-55049114D01*
X158274489Y-54946387D01*
X158219283Y-54891181D01*
X158185798Y-54829858D01*
X158190782Y-54760166D01*
X158232654Y-54704233D01*
X158298118Y-54679816D01*
X158306964Y-54679500D01*
X192046500Y-54679500D01*
X192113539Y-54699185D01*
X192159294Y-54751989D01*
X192170500Y-54803500D01*
X192170500Y-58660008D01*
X192174054Y-58693055D01*
X192185260Y-58744566D01*
X192219686Y-58813342D01*
X192265436Y-58866139D01*
X192270422Y-58871623D01*
X192339145Y-58913513D01*
X192339150Y-58913516D01*
X192406189Y-58933201D01*
X192450000Y-58939500D01*
X196306500Y-58939500D01*
X196373539Y-58959185D01*
X196419294Y-59011989D01*
X196430500Y-59063500D01*
X196430500Y-122790008D01*
X196434054Y-122823055D01*
X196445260Y-122874566D01*
X196479686Y-122943342D01*
X196525436Y-122996139D01*
X196530422Y-123001623D01*
X196585179Y-123035000D01*
X196599150Y-123043516D01*
X196666189Y-123063201D01*
X196710000Y-123069500D01*
X196710003Y-123069500D01*
X200061500Y-123069500D01*
X200128539Y-123089185D01*
X200174294Y-123141989D01*
X200185500Y-123193500D01*
X200185500Y-130762500D01*
X200165815Y-130829539D01*
X200113011Y-130875294D01*
X200061500Y-130886500D01*
X196709991Y-130886500D01*
X196676944Y-130890054D01*
X196625433Y-130901260D01*
X196556657Y-130935686D01*
X196503860Y-130981436D01*
X196498376Y-130986422D01*
X196456486Y-131055145D01*
X196456483Y-131055151D01*
X196436799Y-131122187D01*
X196436797Y-131122197D01*
X196430500Y-131165996D01*
X196430500Y-132154500D01*
X196410815Y-132221539D01*
X196358011Y-132267294D01*
X196306500Y-132278500D01*
X192449991Y-132278500D01*
X192416944Y-132282054D01*
X192365433Y-132293260D01*
X192296657Y-132327686D01*
X192243860Y-132373436D01*
X192238376Y-132378422D01*
X192196486Y-132447145D01*
X192196483Y-132447151D01*
X192176799Y-132514187D01*
X192176797Y-132514197D01*
X192170500Y-132557996D01*
X192170500Y-136414500D01*
X192150815Y-136481539D01*
X192098011Y-136527294D01*
X192046500Y-136538500D01*
X155147362Y-136538500D01*
X155130754Y-136539390D01*
X155130745Y-136539390D01*
X155130739Y-136539391D01*
X155130733Y-136539391D01*
X155130702Y-136539394D01*
X155104380Y-136542224D01*
X155104378Y-136542225D01*
X155046483Y-136560354D01*
X155046473Y-136560358D01*
X154985163Y-136593836D01*
X154985155Y-136593841D01*
X154949733Y-136620357D01*
X154949715Y-136620373D01*
X154067909Y-137502181D01*
X154006586Y-137535666D01*
X153980228Y-137538500D01*
X144311772Y-137538500D01*
X144244733Y-137518815D01*
X144224091Y-137502181D01*
X143342289Y-136620379D01*
X143342283Y-136620373D01*
X143342274Y-136620364D01*
X143342260Y-136620351D01*
X143342248Y-136620340D01*
X143329910Y-136609257D01*
X143329883Y-136609234D01*
X143309250Y-136592607D01*
X143309245Y-136592604D01*
X143255482Y-136564481D01*
X143188454Y-136544800D01*
X143188440Y-136544797D01*
X143144641Y-136538500D01*
X143144638Y-136538500D01*
X113235500Y-136538500D01*
X113226814Y-136535949D01*
X113217853Y-136537238D01*
X113193812Y-136526259D01*
X113168461Y-136518815D01*
X113162533Y-136511974D01*
X113154297Y-136508213D01*
X113140007Y-136485978D01*
X113122706Y-136466011D01*
X113120418Y-136455496D01*
X113116523Y-136449435D01*
X113111500Y-136414500D01*
X113111500Y-136286622D01*
X144120237Y-136286622D01*
X144150494Y-136438726D01*
X144150495Y-136438732D01*
X144150502Y-136438753D01*
X144199529Y-136557118D01*
X144199534Y-136557128D01*
X144270724Y-136663670D01*
X144270725Y-136663671D01*
X144270730Y-136663677D01*
X144361321Y-136754268D01*
X144361327Y-136754273D01*
X144361331Y-136754276D01*
X144467866Y-136825461D01*
X144467872Y-136825464D01*
X144467873Y-136825465D01*
X144581362Y-136872473D01*
X144581947Y-136872724D01*
X144582141Y-136872884D01*
X144585053Y-136874261D01*
X144586252Y-136874499D01*
X144586256Y-136874501D01*
X144586259Y-136874501D01*
X144586260Y-136874501D01*
X144586261Y-136874502D01*
X144683899Y-136893924D01*
X144711927Y-136899500D01*
X144840071Y-136899500D01*
X144840073Y-136899500D01*
X144924615Y-136882682D01*
X144965744Y-136874501D01*
X145084127Y-136825465D01*
X145190669Y-136754276D01*
X145281276Y-136663669D01*
X145287994Y-136653614D01*
X145311572Y-136627365D01*
X145322223Y-136618463D01*
X145386281Y-136590575D01*
X145455249Y-136601745D01*
X145459985Y-136604011D01*
X145509569Y-136646975D01*
X145520723Y-136663668D01*
X145520726Y-136663672D01*
X145520728Y-136663674D01*
X145520730Y-136663677D01*
X145611321Y-136754268D01*
X145611327Y-136754273D01*
X145611331Y-136754276D01*
X145717866Y-136825461D01*
X145717872Y-136825464D01*
X145717873Y-136825465D01*
X145831362Y-136872473D01*
X145831947Y-136872724D01*
X145832141Y-136872884D01*
X145835053Y-136874261D01*
X145836252Y-136874499D01*
X145836256Y-136874501D01*
X145836259Y-136874501D01*
X145836260Y-136874501D01*
X145836261Y-136874502D01*
X145933899Y-136893924D01*
X145961927Y-136899500D01*
X146090071Y-136899500D01*
X146090073Y-136899500D01*
X146174615Y-136882682D01*
X146215744Y-136874501D01*
X146334127Y-136825465D01*
X146440669Y-136754276D01*
X146531276Y-136663669D01*
X146537994Y-136653614D01*
X146561572Y-136627365D01*
X146572223Y-136618463D01*
X146636281Y-136590575D01*
X146705249Y-136601745D01*
X146709985Y-136604011D01*
X146759569Y-136646975D01*
X146770723Y-136663668D01*
X146770726Y-136663672D01*
X146770728Y-136663674D01*
X146770730Y-136663677D01*
X146861321Y-136754268D01*
X146861327Y-136754273D01*
X146861331Y-136754276D01*
X146967866Y-136825461D01*
X146967872Y-136825464D01*
X146967873Y-136825465D01*
X147081362Y-136872473D01*
X147081947Y-136872724D01*
X147082141Y-136872884D01*
X147085053Y-136874261D01*
X147086252Y-136874499D01*
X147086256Y-136874501D01*
X147086259Y-136874501D01*
X147086260Y-136874501D01*
X147086261Y-136874502D01*
X147183899Y-136893924D01*
X147211927Y-136899500D01*
X147340071Y-136899500D01*
X147340073Y-136899500D01*
X147424615Y-136882682D01*
X147465744Y-136874501D01*
X147584127Y-136825465D01*
X147690669Y-136754276D01*
X147781276Y-136663669D01*
X147787994Y-136653614D01*
X147811572Y-136627365D01*
X147822223Y-136618463D01*
X147886281Y-136590575D01*
X147955249Y-136601745D01*
X147959985Y-136604011D01*
X148009569Y-136646975D01*
X148020723Y-136663668D01*
X148020726Y-136663672D01*
X148020728Y-136663674D01*
X148020730Y-136663677D01*
X148111321Y-136754268D01*
X148111327Y-136754273D01*
X148111331Y-136754276D01*
X148217866Y-136825461D01*
X148217872Y-136825464D01*
X148217873Y-136825465D01*
X148331362Y-136872473D01*
X148331947Y-136872724D01*
X148332141Y-136872884D01*
X148335053Y-136874261D01*
X148336252Y-136874499D01*
X148336256Y-136874501D01*
X148336259Y-136874501D01*
X148336260Y-136874501D01*
X148336261Y-136874502D01*
X148433899Y-136893924D01*
X148461927Y-136899500D01*
X148590071Y-136899500D01*
X148590073Y-136899500D01*
X148674615Y-136882682D01*
X148715744Y-136874501D01*
X148834127Y-136825465D01*
X148940669Y-136754276D01*
X149031276Y-136663669D01*
X149037994Y-136653614D01*
X149061572Y-136627365D01*
X149072223Y-136618463D01*
X149136281Y-136590575D01*
X149205249Y-136601745D01*
X149209985Y-136604011D01*
X149259569Y-136646975D01*
X149270723Y-136663668D01*
X149270726Y-136663672D01*
X149270728Y-136663674D01*
X149270730Y-136663677D01*
X149361321Y-136754268D01*
X149361327Y-136754273D01*
X149361331Y-136754276D01*
X149467866Y-136825461D01*
X149467872Y-136825464D01*
X149467873Y-136825465D01*
X149581362Y-136872473D01*
X149581947Y-136872724D01*
X149582141Y-136872884D01*
X149585053Y-136874261D01*
X149586252Y-136874499D01*
X149586256Y-136874501D01*
X149586259Y-136874501D01*
X149586260Y-136874501D01*
X149586261Y-136874502D01*
X149683899Y-136893924D01*
X149711927Y-136899500D01*
X149840071Y-136899500D01*
X149840073Y-136899500D01*
X149924615Y-136882682D01*
X149965744Y-136874501D01*
X150084127Y-136825465D01*
X150190669Y-136754276D01*
X150281276Y-136663669D01*
X150287994Y-136653614D01*
X150311572Y-136627365D01*
X150322223Y-136618463D01*
X150386281Y-136590575D01*
X150455249Y-136601745D01*
X150459985Y-136604011D01*
X150509569Y-136646975D01*
X150520723Y-136663668D01*
X150520726Y-136663672D01*
X150520728Y-136663674D01*
X150520730Y-136663677D01*
X150611321Y-136754268D01*
X150611327Y-136754273D01*
X150611331Y-136754276D01*
X150717866Y-136825461D01*
X150717872Y-136825464D01*
X150717873Y-136825465D01*
X150831362Y-136872473D01*
X150831947Y-136872724D01*
X150832141Y-136872884D01*
X150835053Y-136874261D01*
X150836252Y-136874499D01*
X150836256Y-136874501D01*
X150836259Y-136874501D01*
X150836260Y-136874501D01*
X150836261Y-136874502D01*
X150933899Y-136893924D01*
X150961927Y-136899500D01*
X151090071Y-136899500D01*
X151090073Y-136899500D01*
X151174615Y-136882682D01*
X151215744Y-136874501D01*
X151334127Y-136825465D01*
X151440669Y-136754276D01*
X151531276Y-136663669D01*
X151537994Y-136653614D01*
X151561572Y-136627365D01*
X151572223Y-136618463D01*
X151636281Y-136590575D01*
X151705249Y-136601745D01*
X151709985Y-136604011D01*
X151759569Y-136646975D01*
X151770723Y-136663668D01*
X151770726Y-136663672D01*
X151770728Y-136663674D01*
X151770730Y-136663677D01*
X151861321Y-136754268D01*
X151861327Y-136754273D01*
X151861331Y-136754276D01*
X151967866Y-136825461D01*
X151967872Y-136825464D01*
X151967873Y-136825465D01*
X152081362Y-136872473D01*
X152081947Y-136872724D01*
X152082141Y-136872884D01*
X152085053Y-136874261D01*
X152086252Y-136874499D01*
X152086256Y-136874501D01*
X152086259Y-136874501D01*
X152086260Y-136874501D01*
X152086261Y-136874502D01*
X152183899Y-136893924D01*
X152211927Y-136899500D01*
X152340071Y-136899500D01*
X152340073Y-136899500D01*
X152424615Y-136882682D01*
X152465744Y-136874501D01*
X152584127Y-136825465D01*
X152690669Y-136754276D01*
X152781276Y-136663669D01*
X152852465Y-136557127D01*
X152901501Y-136438744D01*
X152926500Y-136313069D01*
X152926500Y-136184931D01*
X152926500Y-136184928D01*
X152926500Y-136184925D01*
X152901295Y-136058220D01*
X152899724Y-136054947D01*
X152899473Y-136054362D01*
X152852465Y-135940873D01*
X152852464Y-135940872D01*
X152852461Y-135940866D01*
X152781276Y-135834331D01*
X152781274Y-135834328D01*
X152781273Y-135834327D01*
X152781268Y-135834321D01*
X152690677Y-135743730D01*
X152690671Y-135743725D01*
X152690670Y-135743724D01*
X152584127Y-135672534D01*
X152584128Y-135672534D01*
X152584118Y-135672529D01*
X152465753Y-135623502D01*
X152465733Y-135623495D01*
X152465725Y-135623493D01*
X152340074Y-135598500D01*
X152340071Y-135598500D01*
X152340069Y-135598500D01*
X152211931Y-135598500D01*
X152211929Y-135598500D01*
X152211926Y-135598500D01*
X152086273Y-135623493D01*
X152086265Y-135623495D01*
X152086245Y-135623502D01*
X151967880Y-135672529D01*
X151967870Y-135672534D01*
X151861328Y-135743724D01*
X151770725Y-135834328D01*
X151770715Y-135834342D01*
X151764005Y-135844385D01*
X151764002Y-135844387D01*
X151764003Y-135844387D01*
X151740417Y-135870643D01*
X151729769Y-135879541D01*
X151665704Y-135907424D01*
X151596734Y-135896245D01*
X151596732Y-135896243D01*
X151592007Y-135893982D01*
X151542434Y-135851028D01*
X151531283Y-135834342D01*
X151531278Y-135834334D01*
X151531273Y-135834327D01*
X151440672Y-135743726D01*
X151440671Y-135743725D01*
X151440670Y-135743724D01*
X151334127Y-135672534D01*
X151334128Y-135672534D01*
X151334118Y-135672529D01*
X151215753Y-135623502D01*
X151215733Y-135623495D01*
X151215725Y-135623493D01*
X151090074Y-135598500D01*
X151090071Y-135598500D01*
X151090069Y-135598500D01*
X150961931Y-135598500D01*
X150961929Y-135598500D01*
X150961926Y-135598500D01*
X150836273Y-135623493D01*
X150836265Y-135623495D01*
X150836245Y-135623502D01*
X150717880Y-135672529D01*
X150717870Y-135672534D01*
X150611328Y-135743724D01*
X150520725Y-135834328D01*
X150520715Y-135834342D01*
X150514005Y-135844385D01*
X150514002Y-135844387D01*
X150514003Y-135844387D01*
X150490417Y-135870643D01*
X150479769Y-135879541D01*
X150415704Y-135907424D01*
X150346734Y-135896245D01*
X150346732Y-135896243D01*
X150342007Y-135893982D01*
X150292434Y-135851028D01*
X150281283Y-135834342D01*
X150281278Y-135834334D01*
X150281273Y-135834327D01*
X150190672Y-135743726D01*
X150190671Y-135743725D01*
X150190670Y-135743724D01*
X150084127Y-135672534D01*
X150084128Y-135672534D01*
X150084118Y-135672529D01*
X149965753Y-135623502D01*
X149965733Y-135623495D01*
X149965725Y-135623493D01*
X149840074Y-135598500D01*
X149840071Y-135598500D01*
X149840069Y-135598500D01*
X149711931Y-135598500D01*
X149711929Y-135598500D01*
X149711926Y-135598500D01*
X149586273Y-135623493D01*
X149586265Y-135623495D01*
X149586245Y-135623502D01*
X149467880Y-135672529D01*
X149467870Y-135672534D01*
X149361328Y-135743724D01*
X149270725Y-135834328D01*
X149270715Y-135834342D01*
X149264005Y-135844385D01*
X149264002Y-135844387D01*
X149264003Y-135844387D01*
X149240417Y-135870643D01*
X149229769Y-135879541D01*
X149165704Y-135907424D01*
X149096734Y-135896245D01*
X149096732Y-135896243D01*
X149092007Y-135893982D01*
X149042434Y-135851028D01*
X149031283Y-135834342D01*
X149031278Y-135834334D01*
X149031273Y-135834327D01*
X148940672Y-135743726D01*
X148940671Y-135743725D01*
X148940670Y-135743724D01*
X148834127Y-135672534D01*
X148834128Y-135672534D01*
X148834118Y-135672529D01*
X148715753Y-135623502D01*
X148715733Y-135623495D01*
X148715725Y-135623493D01*
X148590074Y-135598500D01*
X148590071Y-135598500D01*
X148590069Y-135598500D01*
X148461931Y-135598500D01*
X148461929Y-135598500D01*
X148461926Y-135598500D01*
X148336273Y-135623493D01*
X148336265Y-135623495D01*
X148336245Y-135623502D01*
X148217880Y-135672529D01*
X148217870Y-135672534D01*
X148111328Y-135743724D01*
X148020725Y-135834328D01*
X148020715Y-135834342D01*
X148014005Y-135844385D01*
X148014002Y-135844387D01*
X148014003Y-135844387D01*
X147990417Y-135870643D01*
X147979769Y-135879541D01*
X147915704Y-135907424D01*
X147846734Y-135896245D01*
X147846732Y-135896243D01*
X147842007Y-135893982D01*
X147792434Y-135851028D01*
X147781283Y-135834342D01*
X147781278Y-135834334D01*
X147781273Y-135834327D01*
X147690672Y-135743726D01*
X147690671Y-135743725D01*
X147690670Y-135743724D01*
X147584127Y-135672534D01*
X147584128Y-135672534D01*
X147584118Y-135672529D01*
X147465753Y-135623502D01*
X147465733Y-135623495D01*
X147465725Y-135623493D01*
X147340074Y-135598500D01*
X147340071Y-135598500D01*
X147340069Y-135598500D01*
X147211931Y-135598500D01*
X147211929Y-135598500D01*
X147211926Y-135598500D01*
X147086273Y-135623493D01*
X147086265Y-135623495D01*
X147086245Y-135623502D01*
X146967880Y-135672529D01*
X146967870Y-135672534D01*
X146861328Y-135743724D01*
X146770725Y-135834328D01*
X146770715Y-135834342D01*
X146764005Y-135844385D01*
X146764002Y-135844387D01*
X146764003Y-135844387D01*
X146740417Y-135870643D01*
X146729769Y-135879541D01*
X146665704Y-135907424D01*
X146596734Y-135896245D01*
X146596732Y-135896243D01*
X146592007Y-135893982D01*
X146542434Y-135851028D01*
X146531283Y-135834342D01*
X146531278Y-135834334D01*
X146531273Y-135834327D01*
X146440672Y-135743726D01*
X146440671Y-135743725D01*
X146440670Y-135743724D01*
X146334127Y-135672534D01*
X146334128Y-135672534D01*
X146334118Y-135672529D01*
X146215753Y-135623502D01*
X146215733Y-135623495D01*
X146215725Y-135623493D01*
X146090074Y-135598500D01*
X146090071Y-135598500D01*
X146090069Y-135598500D01*
X145961931Y-135598500D01*
X145961929Y-135598500D01*
X145961926Y-135598500D01*
X145836273Y-135623493D01*
X145836265Y-135623495D01*
X145836245Y-135623502D01*
X145717880Y-135672529D01*
X145717870Y-135672534D01*
X145611328Y-135743724D01*
X145520725Y-135834328D01*
X145520715Y-135834342D01*
X145514005Y-135844385D01*
X145514002Y-135844387D01*
X145514003Y-135844387D01*
X145490417Y-135870643D01*
X145479769Y-135879541D01*
X145415704Y-135907424D01*
X145346734Y-135896245D01*
X145346732Y-135896243D01*
X145342007Y-135893982D01*
X145292434Y-135851028D01*
X145281283Y-135834342D01*
X145281278Y-135834334D01*
X145281273Y-135834327D01*
X145190672Y-135743726D01*
X145190671Y-135743725D01*
X145190670Y-135743724D01*
X145084127Y-135672534D01*
X145084128Y-135672534D01*
X145084118Y-135672529D01*
X144965753Y-135623502D01*
X144965733Y-135623495D01*
X144965725Y-135623493D01*
X144840074Y-135598500D01*
X144840071Y-135598500D01*
X144840069Y-135598500D01*
X144711931Y-135598500D01*
X144711929Y-135598500D01*
X144711926Y-135598500D01*
X144586273Y-135623493D01*
X144586265Y-135623495D01*
X144586245Y-135623502D01*
X144467880Y-135672529D01*
X144467870Y-135672534D01*
X144361328Y-135743724D01*
X144361327Y-135743725D01*
X144361321Y-135743730D01*
X144270730Y-135834321D01*
X144270725Y-135834327D01*
X144270724Y-135834328D01*
X144199534Y-135940870D01*
X144199529Y-135940880D01*
X144150502Y-136059245D01*
X144150495Y-136059265D01*
X144150493Y-136059273D01*
X144125500Y-136184923D01*
X144125500Y-136268702D01*
X144120237Y-136286622D01*
X113111500Y-136286622D01*
X113111500Y-134550622D01*
X132364237Y-134550622D01*
X132394494Y-134702726D01*
X132394495Y-134702732D01*
X132394502Y-134702753D01*
X132443529Y-134821118D01*
X132443534Y-134821128D01*
X132514724Y-134927670D01*
X132514725Y-134927671D01*
X132514730Y-134927677D01*
X132605321Y-135018268D01*
X132605327Y-135018273D01*
X132605331Y-135018276D01*
X132711866Y-135089461D01*
X132711872Y-135089464D01*
X132711873Y-135089465D01*
X132825362Y-135136473D01*
X132825947Y-135136724D01*
X132826141Y-135136884D01*
X132829053Y-135138261D01*
X132830252Y-135138499D01*
X132830256Y-135138501D01*
X132830259Y-135138501D01*
X132830260Y-135138501D01*
X132830261Y-135138502D01*
X132902571Y-135152886D01*
X132955927Y-135163500D01*
X133084071Y-135163500D01*
X133084073Y-135163500D01*
X133168615Y-135146682D01*
X133209744Y-135138501D01*
X133328127Y-135089465D01*
X133434669Y-135018276D01*
X133525276Y-134927669D01*
X133596465Y-134821127D01*
X133598438Y-134816365D01*
X133629821Y-134740598D01*
X133645501Y-134702744D01*
X133650300Y-134678614D01*
X133656473Y-134666812D01*
X133662040Y-134645334D01*
X133666874Y-134636093D01*
X133679252Y-134623264D01*
X133682683Y-134616706D01*
X133693106Y-134607073D01*
X133699793Y-134601568D01*
X133700461Y-134601282D01*
X133715386Y-134585815D01*
X133763245Y-134574504D01*
X133764061Y-134574157D01*
X133764443Y-134574221D01*
X133783383Y-134569746D01*
X133825377Y-134584558D01*
X133832946Y-134585843D01*
X133835425Y-134588103D01*
X133849273Y-134592988D01*
X133878276Y-134627170D01*
X133884579Y-134632916D01*
X133885232Y-134635367D01*
X133887794Y-134638387D01*
X133889649Y-134642120D01*
X133898378Y-134665206D01*
X133903717Y-134685131D01*
X133903719Y-134685136D01*
X133913881Y-134702738D01*
X133935740Y-134740598D01*
X133979485Y-134816365D01*
X134086635Y-134923515D01*
X134217865Y-134999281D01*
X134364234Y-135038500D01*
X134364236Y-135038500D01*
X134515764Y-135038500D01*
X134515766Y-135038500D01*
X134662135Y-134999281D01*
X134793365Y-134923515D01*
X134900515Y-134816365D01*
X134976281Y-134685135D01*
X135015500Y-134538766D01*
X135015500Y-134387234D01*
X134976281Y-134240865D01*
X134900515Y-134109635D01*
X134793365Y-134002485D01*
X134727750Y-133964602D01*
X134662136Y-133926719D01*
X134570934Y-133902282D01*
X134570934Y-133902281D01*
X134515767Y-133887500D01*
X134515766Y-133887500D01*
X134364234Y-133887500D01*
X134217859Y-133926720D01*
X134217857Y-133926721D01*
X134086645Y-134002478D01*
X134086631Y-134002487D01*
X134086626Y-134002491D01*
X133979491Y-134109626D01*
X133979487Y-134109631D01*
X133910800Y-134228600D01*
X133899272Y-134240068D01*
X133892715Y-134252629D01*
X133888980Y-134256345D01*
X133880797Y-134264147D01*
X133868910Y-134270274D01*
X133864860Y-134274304D01*
X133855947Y-134279389D01*
X133847208Y-134281461D01*
X133818693Y-134296161D01*
X133794835Y-134293882D01*
X133787963Y-134295512D01*
X133779044Y-134292373D01*
X133749140Y-134289517D01*
X133731475Y-134275635D01*
X133722055Y-134272320D01*
X133713865Y-134261795D01*
X133694273Y-134246398D01*
X133693915Y-134245896D01*
X133685276Y-134225054D01*
X133679147Y-134217178D01*
X133678349Y-134208343D01*
X133672585Y-134194437D01*
X133672213Y-134192222D01*
X133670500Y-134171684D01*
X133670500Y-133348925D01*
X133645295Y-133222220D01*
X133643724Y-133218947D01*
X133643473Y-133218362D01*
X133596465Y-133104873D01*
X133596464Y-133104872D01*
X133596461Y-133104866D01*
X133525276Y-132998331D01*
X133525273Y-132998327D01*
X133525268Y-132998321D01*
X133434677Y-132907730D01*
X133434671Y-132907725D01*
X133434670Y-132907724D01*
X133328127Y-132836534D01*
X133328128Y-132836534D01*
X133328118Y-132836529D01*
X133209753Y-132787502D01*
X133209733Y-132787495D01*
X133209725Y-132787493D01*
X133084074Y-132762500D01*
X133084071Y-132762500D01*
X133084069Y-132762500D01*
X132955931Y-132762500D01*
X132955929Y-132762500D01*
X132955926Y-132762500D01*
X132830273Y-132787493D01*
X132830265Y-132787495D01*
X132830245Y-132787502D01*
X132711880Y-132836529D01*
X132711870Y-132836534D01*
X132605328Y-132907724D01*
X132605327Y-132907725D01*
X132605321Y-132907730D01*
X132514730Y-132998321D01*
X132514725Y-132998327D01*
X132514724Y-132998328D01*
X132443534Y-133104870D01*
X132443529Y-133104880D01*
X132394502Y-133223245D01*
X132394495Y-133223265D01*
X132394493Y-133223273D01*
X132369500Y-133348923D01*
X132369500Y-134532702D01*
X132364237Y-134550622D01*
X113111500Y-134550622D01*
X113111500Y-130220691D01*
X136127500Y-130220691D01*
X136127500Y-130339309D01*
X136158201Y-130453886D01*
X136217511Y-130556613D01*
X136301387Y-130640489D01*
X136404114Y-130699799D01*
X136518691Y-130730500D01*
X136534337Y-130730500D01*
X136569269Y-130735521D01*
X136594513Y-130742934D01*
X136647259Y-130774230D01*
X136990573Y-131117544D01*
X137011723Y-131145796D01*
X137024331Y-131168885D01*
X137039500Y-131228314D01*
X137039500Y-134573206D01*
X137039499Y-134573208D01*
X137039500Y-134573209D01*
X137034476Y-134608143D01*
X137027064Y-134633384D01*
X136995769Y-134686128D01*
X136979513Y-134702383D01*
X136951588Y-134750750D01*
X136920201Y-134805114D01*
X136889500Y-134919691D01*
X136889500Y-135038309D01*
X136920201Y-135152886D01*
X136979511Y-135255613D01*
X137063387Y-135339489D01*
X137166114Y-135398799D01*
X137280691Y-135429500D01*
X137280694Y-135429500D01*
X137399306Y-135429500D01*
X137399309Y-135429500D01*
X137513886Y-135398799D01*
X137616613Y-135339489D01*
X137700489Y-135255613D01*
X137759799Y-135152886D01*
X137790500Y-135038309D01*
X137790500Y-134919691D01*
X137759799Y-134805114D01*
X137700489Y-134702387D01*
X137689425Y-134691323D01*
X137669643Y-134665511D01*
X137668961Y-134664327D01*
X137662115Y-134651789D01*
X137658542Y-134646230D01*
X137657037Y-134643615D01*
X137649525Y-134612486D01*
X137640500Y-134581746D01*
X137640500Y-134387234D01*
X139654500Y-134387234D01*
X139654500Y-134538767D01*
X139658191Y-134552541D01*
X139664763Y-134577069D01*
X139693719Y-134685136D01*
X139731602Y-134750750D01*
X139769485Y-134816365D01*
X139876635Y-134923515D01*
X140007865Y-134999281D01*
X140154234Y-135038500D01*
X140154236Y-135038500D01*
X140305764Y-135038500D01*
X140305766Y-135038500D01*
X140452135Y-134999281D01*
X140583365Y-134923515D01*
X140690515Y-134816365D01*
X140766281Y-134685135D01*
X140775954Y-134649031D01*
X140782895Y-134637642D01*
X140789850Y-134616582D01*
X140795277Y-134607679D01*
X140808464Y-134595691D01*
X140812316Y-134589372D01*
X140823320Y-134580460D01*
X140830353Y-134575401D01*
X140831058Y-134575153D01*
X140846978Y-134560682D01*
X140895395Y-134552541D01*
X140896270Y-134552234D01*
X140896665Y-134552327D01*
X140915881Y-134549097D01*
X140956756Y-134566602D01*
X140964248Y-134568382D01*
X140966588Y-134570813D01*
X140980108Y-134576603D01*
X141006777Y-134612560D01*
X141012705Y-134618718D01*
X141013199Y-134621219D01*
X141015571Y-134624417D01*
X141016721Y-134627170D01*
X141017178Y-134628262D01*
X141024378Y-134651867D01*
X141027092Y-134665511D01*
X141034495Y-134702732D01*
X141034497Y-134702739D01*
X141034499Y-134702744D01*
X141076901Y-134805112D01*
X141083535Y-134821129D01*
X141154724Y-134927670D01*
X141154725Y-134927671D01*
X141154730Y-134927677D01*
X141245321Y-135018268D01*
X141245327Y-135018273D01*
X141245331Y-135018276D01*
X141351866Y-135089461D01*
X141351872Y-135089464D01*
X141351873Y-135089465D01*
X141465362Y-135136473D01*
X141465947Y-135136724D01*
X141466141Y-135136884D01*
X141469053Y-135138261D01*
X141470252Y-135138499D01*
X141470256Y-135138501D01*
X141470259Y-135138501D01*
X141470260Y-135138501D01*
X141470261Y-135138502D01*
X141542571Y-135152886D01*
X141595927Y-135163500D01*
X141724071Y-135163500D01*
X141724073Y-135163500D01*
X141808615Y-135146682D01*
X141849744Y-135138501D01*
X141968127Y-135089465D01*
X142074669Y-135018276D01*
X142165276Y-134927669D01*
X142236465Y-134821127D01*
X142285501Y-134702744D01*
X142302479Y-134617394D01*
X142310500Y-134577071D01*
X142310500Y-133348928D01*
X142310500Y-133348925D01*
X142285295Y-133222220D01*
X142283724Y-133218947D01*
X142283473Y-133218362D01*
X142236465Y-133104873D01*
X142236464Y-133104872D01*
X142236461Y-133104866D01*
X142165276Y-132998331D01*
X142165273Y-132998327D01*
X142165268Y-132998321D01*
X142074677Y-132907730D01*
X142074671Y-132907725D01*
X142074670Y-132907724D01*
X141968127Y-132836534D01*
X141968128Y-132836534D01*
X141968118Y-132836529D01*
X141849753Y-132787502D01*
X141849733Y-132787495D01*
X141849725Y-132787493D01*
X141724074Y-132762500D01*
X141724071Y-132762500D01*
X141724069Y-132762500D01*
X141595931Y-132762500D01*
X141595929Y-132762500D01*
X141595926Y-132762500D01*
X141470273Y-132787493D01*
X141470265Y-132787495D01*
X141470245Y-132787502D01*
X141351880Y-132836529D01*
X141351870Y-132836534D01*
X141245328Y-132907724D01*
X141245327Y-132907725D01*
X141245321Y-132907730D01*
X141154730Y-132998321D01*
X141154725Y-132998327D01*
X141154724Y-132998328D01*
X141083534Y-133104870D01*
X141083529Y-133104880D01*
X141034502Y-133223245D01*
X141034495Y-133223265D01*
X141034493Y-133223273D01*
X141009500Y-133348923D01*
X141009500Y-134188868D01*
X141009497Y-134188882D01*
X141009500Y-134188889D01*
X141004471Y-134223823D01*
X141002749Y-134229684D01*
X140964965Y-134288455D01*
X140901405Y-134317470D01*
X140832248Y-134307515D01*
X140779461Y-134261766D01*
X140770544Y-134247890D01*
X140770099Y-134247198D01*
X140767030Y-134242162D01*
X140738197Y-134192222D01*
X140690515Y-134109635D01*
X140583365Y-134002485D01*
X140517750Y-133964602D01*
X140452136Y-133926719D01*
X140360934Y-133902282D01*
X140360934Y-133902281D01*
X140305767Y-133887500D01*
X140305766Y-133887500D01*
X140154234Y-133887500D01*
X140007859Y-133926720D01*
X140007857Y-133926721D01*
X139876645Y-134002478D01*
X139876631Y-134002487D01*
X139876626Y-134002491D01*
X139769491Y-134109626D01*
X139769487Y-134109631D01*
X139769478Y-134109645D01*
X139693718Y-134240861D01*
X139677764Y-134300410D01*
X139677764Y-134300411D01*
X139654500Y-134387234D01*
X137640500Y-134387234D01*
X137640500Y-132379691D01*
X144001500Y-132379691D01*
X144001500Y-132498309D01*
X144032201Y-132612886D01*
X144091511Y-132715613D01*
X144175387Y-132799489D01*
X144278114Y-132858799D01*
X144392691Y-132889500D01*
X144392694Y-132889500D01*
X144511306Y-132889500D01*
X144511309Y-132889500D01*
X144625886Y-132858799D01*
X144728613Y-132799489D01*
X144812489Y-132715613D01*
X144871799Y-132612886D01*
X144902500Y-132498309D01*
X144902500Y-132379691D01*
X144871799Y-132265114D01*
X144812489Y-132162387D01*
X144728613Y-132078511D01*
X144625886Y-132019201D01*
X144511309Y-131988500D01*
X144511306Y-131988500D01*
X144392691Y-131988500D01*
X144301728Y-132012873D01*
X144301723Y-132012874D01*
X144278114Y-132019201D01*
X144278112Y-132019201D01*
X144278112Y-132019202D01*
X144256947Y-132031421D01*
X144256939Y-132031425D01*
X144175386Y-132078511D01*
X144175378Y-132078517D01*
X144091517Y-132162378D01*
X144091513Y-132162383D01*
X144091507Y-132162392D01*
X144068352Y-132202499D01*
X144032201Y-132265113D01*
X144032201Y-132265114D01*
X144001500Y-132379691D01*
X137640500Y-132379691D01*
X137640500Y-131002439D01*
X137640498Y-131002430D01*
X137638380Y-130994524D01*
X137638359Y-130994448D01*
X137620022Y-130926012D01*
X137580460Y-130857489D01*
X137077421Y-130354450D01*
X137056274Y-130326199D01*
X137043667Y-130303110D01*
X137028500Y-130243685D01*
X137028500Y-130220693D01*
X137028500Y-130220691D01*
X136997799Y-130106114D01*
X136938489Y-130003387D01*
X136854613Y-129919511D01*
X136751886Y-129860201D01*
X136637309Y-129829500D01*
X136637306Y-129829500D01*
X136518691Y-129829500D01*
X136427728Y-129853873D01*
X136427723Y-129853874D01*
X136404114Y-129860201D01*
X136404112Y-129860201D01*
X136404112Y-129860202D01*
X136382947Y-129872421D01*
X136382939Y-129872425D01*
X136301386Y-129919511D01*
X136301378Y-129919517D01*
X136217517Y-130003378D01*
X136217513Y-130003383D01*
X136217507Y-130003392D01*
X136173309Y-130079944D01*
X136173307Y-130079950D01*
X136166177Y-130092300D01*
X136158201Y-130106114D01*
X136127500Y-130220691D01*
X113111500Y-130220691D01*
X113111500Y-128748117D01*
X113111500Y-128748110D01*
X113107931Y-128714987D01*
X113096679Y-128663375D01*
X113062177Y-128594563D01*
X113016376Y-128541800D01*
X113011393Y-128536328D01*
X112942624Y-128494495D01*
X112875568Y-128474870D01*
X112875565Y-128474869D01*
X112831758Y-128468610D01*
X112831753Y-128468609D01*
X108918218Y-128472090D01*
X108851161Y-128452465D01*
X108812214Y-128410667D01*
X160436500Y-128410667D01*
X160436500Y-128593332D01*
X160465075Y-128773747D01*
X160465075Y-128773748D01*
X160465076Y-128773751D01*
X160467203Y-128780298D01*
X160467205Y-128780306D01*
X160521524Y-128947481D01*
X160604452Y-129110234D01*
X160711821Y-129258015D01*
X160840985Y-129387179D01*
X160988766Y-129494548D01*
X161151523Y-129577477D01*
X161325249Y-129633924D01*
X161406149Y-129646736D01*
X161418450Y-129652568D01*
X161439864Y-129657161D01*
X161446146Y-129660139D01*
X161459450Y-129672004D01*
X161469280Y-129676664D01*
X161475030Y-129685898D01*
X161498292Y-129706644D01*
X161517017Y-129773957D01*
X161496378Y-129840709D01*
X161465535Y-129867051D01*
X161456766Y-129877594D01*
X161451099Y-129879382D01*
X161444548Y-129884978D01*
X161439160Y-129887439D01*
X161407040Y-129897121D01*
X161334893Y-129908548D01*
X161334887Y-129908548D01*
X161332247Y-129908967D01*
X161325249Y-129910075D01*
X161151515Y-129966525D01*
X160988764Y-130049452D01*
X160929790Y-130092300D01*
X160840982Y-130156823D01*
X160840980Y-130156825D01*
X160840979Y-130156825D01*
X160711825Y-130285979D01*
X160711825Y-130285980D01*
X160711823Y-130285982D01*
X160711821Y-130285985D01*
X160604452Y-130433764D01*
X160521525Y-130596515D01*
X160465075Y-130770249D01*
X160463549Y-130779888D01*
X160463548Y-130779889D01*
X160436500Y-130950666D01*
X160436500Y-130950667D01*
X160436500Y-131133332D01*
X160465075Y-131313747D01*
X160465075Y-131313748D01*
X160465076Y-131313751D01*
X160467203Y-131320298D01*
X160467205Y-131320306D01*
X160521524Y-131487481D01*
X160604452Y-131650234D01*
X160711821Y-131798015D01*
X160840985Y-131927179D01*
X160988766Y-132034548D01*
X161151523Y-132117477D01*
X161325249Y-132173924D01*
X161505667Y-132202500D01*
X161505668Y-132202500D01*
X161688332Y-132202500D01*
X161688333Y-132202500D01*
X161868751Y-132173924D01*
X162042477Y-132117477D01*
X162205234Y-132034548D01*
X162353015Y-131927179D01*
X162482179Y-131798015D01*
X162589548Y-131650234D01*
X162672477Y-131487477D01*
X162728924Y-131313751D01*
X162757500Y-131133333D01*
X162757500Y-130950667D01*
X162728924Y-130770249D01*
X162672477Y-130596523D01*
X162589548Y-130433766D01*
X162482179Y-130285985D01*
X162353015Y-130156821D01*
X162205234Y-130049452D01*
X162042481Y-129966524D01*
X161882266Y-129914466D01*
X161882250Y-129914462D01*
X161868751Y-129910076D01*
X161868749Y-129910075D01*
X161868747Y-129910075D01*
X161854368Y-129907797D01*
X161854358Y-129907795D01*
X161800175Y-129899213D01*
X161790253Y-129897642D01*
X161790157Y-129897626D01*
X161787808Y-129897254D01*
X161754137Y-129886839D01*
X161747860Y-129883864D01*
X161735195Y-129872571D01*
X161719762Y-129865523D01*
X161709658Y-129849800D01*
X161695711Y-129837364D01*
X161691162Y-129821018D01*
X161681989Y-129806744D01*
X161681989Y-129788056D01*
X161676979Y-129770052D01*
X161681990Y-129753840D01*
X161681991Y-129736874D01*
X161692094Y-129721153D01*
X161697614Y-129703299D01*
X161710818Y-129692020D01*
X161719767Y-129678097D01*
X161749452Y-129659019D01*
X161754850Y-129656554D01*
X161786955Y-129646879D01*
X161868751Y-129633924D01*
X162042477Y-129577477D01*
X162205234Y-129494548D01*
X162353015Y-129387179D01*
X162482179Y-129258015D01*
X162589548Y-129110234D01*
X162672477Y-128947477D01*
X162728924Y-128773751D01*
X162757500Y-128593333D01*
X162757500Y-128410667D01*
X162728924Y-128230249D01*
X162672477Y-128056523D01*
X162589548Y-127893766D01*
X162482179Y-127745985D01*
X162353015Y-127616821D01*
X162205234Y-127509452D01*
X162203585Y-127508612D01*
X162042481Y-127426524D01*
X161882278Y-127374470D01*
X161882264Y-127374466D01*
X161868751Y-127370076D01*
X161868749Y-127370075D01*
X161868747Y-127370075D01*
X161854350Y-127367794D01*
X161854343Y-127367793D01*
X161742778Y-127350123D01*
X161729166Y-127347967D01*
X161688336Y-127341500D01*
X161688333Y-127341500D01*
X161505667Y-127341500D01*
X161505664Y-127341500D01*
X161474299Y-127346468D01*
X161463843Y-127348124D01*
X161334893Y-127368548D01*
X161334887Y-127368548D01*
X161331873Y-127369026D01*
X161325249Y-127370075D01*
X161151515Y-127426525D01*
X160988764Y-127509452D01*
X160904448Y-127570711D01*
X160840982Y-127616823D01*
X160840980Y-127616825D01*
X160840979Y-127616825D01*
X160711825Y-127745979D01*
X160711825Y-127745980D01*
X160711823Y-127745982D01*
X160711821Y-127745985D01*
X160604452Y-127893764D01*
X160521525Y-128056515D01*
X160465075Y-128230249D01*
X160463556Y-128239838D01*
X160463529Y-128240010D01*
X160436500Y-128410667D01*
X108812214Y-128410667D01*
X108809273Y-128407511D01*
X108796030Y-128383255D01*
X108796028Y-128383252D01*
X108769506Y-128347819D01*
X108769501Y-128347814D01*
X108769498Y-128347810D01*
X107594511Y-127172691D01*
X172830500Y-127172691D01*
X172830500Y-127291309D01*
X172861201Y-127405886D01*
X172920511Y-127508613D01*
X173004387Y-127592489D01*
X173107114Y-127651799D01*
X173221691Y-127682500D01*
X173221694Y-127682500D01*
X173340306Y-127682500D01*
X173340309Y-127682500D01*
X173454886Y-127651799D01*
X173557613Y-127592489D01*
X173641489Y-127508613D01*
X173700799Y-127405886D01*
X173731500Y-127291309D01*
X173731500Y-127172691D01*
X173700799Y-127058114D01*
X173641489Y-126955387D01*
X173557613Y-126871511D01*
X173454886Y-126812201D01*
X173340309Y-126781500D01*
X173340307Y-126781500D01*
X173335735Y-126780275D01*
X173278414Y-126745336D01*
X173263675Y-126763189D01*
X173260145Y-126764800D01*
X173258710Y-126766380D01*
X173226265Y-126780274D01*
X173122882Y-126807976D01*
X173106267Y-126810163D01*
X173092974Y-126820364D01*
X173004386Y-126871511D01*
X173004378Y-126871517D01*
X172920517Y-126955378D01*
X172920513Y-126955383D01*
X172920511Y-126955387D01*
X172861201Y-127058114D01*
X172830500Y-127172691D01*
X107594511Y-127172691D01*
X106887814Y-126465914D01*
X106854332Y-126404589D01*
X106851500Y-126378238D01*
X106851500Y-125613507D01*
X107310500Y-125613507D01*
X107310500Y-125802491D01*
X107328338Y-125915114D01*
X107340059Y-125989118D01*
X107398454Y-126168836D01*
X107446376Y-126262887D01*
X107484240Y-126337199D01*
X107595310Y-126490073D01*
X107728927Y-126623690D01*
X107815229Y-126686393D01*
X107881796Y-126734757D01*
X107881797Y-126734757D01*
X107881801Y-126734760D01*
X107961347Y-126775290D01*
X108043722Y-126817263D01*
X108045320Y-126818199D01*
X108049037Y-126819999D01*
X108051021Y-126820985D01*
X108054775Y-126822043D01*
X108146497Y-126851846D01*
X108229881Y-126878940D01*
X108416514Y-126908500D01*
X108416519Y-126908500D01*
X108605485Y-126908500D01*
X108605486Y-126908500D01*
X108792118Y-126878940D01*
X108814982Y-126871511D01*
X108971832Y-126820547D01*
X109140199Y-126734760D01*
X109293073Y-126623690D01*
X109426690Y-126490073D01*
X109537760Y-126337199D01*
X109623547Y-126168832D01*
X109681940Y-125989118D01*
X109693661Y-125915114D01*
X109711500Y-125802486D01*
X109711500Y-125613513D01*
X109681940Y-125426881D01*
X109623545Y-125247163D01*
X109537759Y-125078800D01*
X109518642Y-125052488D01*
X109426690Y-124925927D01*
X109293073Y-124792310D01*
X109140199Y-124681240D01*
X109044917Y-124632691D01*
X147811500Y-124632691D01*
X147811500Y-124751309D01*
X147842201Y-124865886D01*
X147901511Y-124968613D01*
X147985387Y-125052489D01*
X148088114Y-125111799D01*
X148202691Y-125142500D01*
X148202694Y-125142500D01*
X148321306Y-125142500D01*
X148321309Y-125142500D01*
X148435886Y-125111799D01*
X148538613Y-125052489D01*
X148549683Y-125041418D01*
X148577928Y-125020275D01*
X148601020Y-125007667D01*
X148660445Y-124992500D01*
X152809206Y-124992500D01*
X152844138Y-124997521D01*
X152869382Y-125004934D01*
X152922128Y-125036230D01*
X152938387Y-125052489D01*
X153041114Y-125111799D01*
X153155691Y-125142500D01*
X153155694Y-125142500D01*
X153274306Y-125142500D01*
X153274309Y-125142500D01*
X153388886Y-125111799D01*
X153491613Y-125052489D01*
X153575489Y-124968613D01*
X153634799Y-124865886D01*
X153665500Y-124751309D01*
X153665500Y-124632691D01*
X153634799Y-124518114D01*
X153585043Y-124431937D01*
X153571928Y-124399174D01*
X153568656Y-124385687D01*
X153571980Y-124315896D01*
X153612505Y-124258984D01*
X153613801Y-124257965D01*
X153666986Y-124233686D01*
X153671913Y-124232737D01*
X153695360Y-124230500D01*
X154291337Y-124230500D01*
X154326269Y-124235521D01*
X154351513Y-124242934D01*
X154404259Y-124274230D01*
X155434416Y-125304387D01*
X155455568Y-125332643D01*
X155463060Y-125346364D01*
X155477911Y-125414630D01*
X155477169Y-125425011D01*
X155463970Y-125472464D01*
X155441524Y-125516516D01*
X155441520Y-125516525D01*
X155385075Y-125690247D01*
X155383549Y-125699889D01*
X155383548Y-125699889D01*
X155356500Y-125870666D01*
X155356500Y-125870667D01*
X155356500Y-126053332D01*
X155385075Y-126233747D01*
X155385075Y-126233748D01*
X155385076Y-126233751D01*
X155387203Y-126240298D01*
X155387205Y-126240306D01*
X155441524Y-126407481D01*
X155493149Y-126508799D01*
X155524452Y-126570234D01*
X155631821Y-126718015D01*
X155760985Y-126847179D01*
X155908766Y-126954548D01*
X156071523Y-127037477D01*
X156245249Y-127093924D01*
X156425667Y-127122500D01*
X156425668Y-127122500D01*
X156608332Y-127122500D01*
X156608333Y-127122500D01*
X156788751Y-127093924D01*
X156962477Y-127037477D01*
X157125234Y-126954548D01*
X157273015Y-126847179D01*
X157402179Y-126718015D01*
X157509548Y-126570234D01*
X157592477Y-126407477D01*
X157648924Y-126233751D01*
X157677500Y-126053333D01*
X157677500Y-126029691D01*
X172830500Y-126029691D01*
X172830500Y-126148309D01*
X172861201Y-126262886D01*
X172920511Y-126365613D01*
X173004387Y-126449489D01*
X173107114Y-126508799D01*
X173221691Y-126539500D01*
X173221696Y-126539500D01*
X173226264Y-126540724D01*
X173228873Y-126542314D01*
X173231927Y-126542387D01*
X173258514Y-126560381D01*
X173283584Y-126575662D01*
X173298325Y-126557810D01*
X173335735Y-126540725D01*
X173340307Y-126539500D01*
X173340309Y-126539500D01*
X173454886Y-126508799D01*
X173557613Y-126449489D01*
X173641489Y-126365613D01*
X173700799Y-126262886D01*
X173731500Y-126148309D01*
X173731500Y-126029691D01*
X173700799Y-125915114D01*
X173641489Y-125812387D01*
X173557613Y-125728511D01*
X173454886Y-125669201D01*
X173340309Y-125638500D01*
X173340306Y-125638500D01*
X173221691Y-125638500D01*
X173130728Y-125662873D01*
X173130723Y-125662874D01*
X173107114Y-125669201D01*
X173107112Y-125669201D01*
X173107112Y-125669202D01*
X173085947Y-125681421D01*
X173085939Y-125681425D01*
X173004386Y-125728511D01*
X173004378Y-125728517D01*
X172920517Y-125812378D01*
X172920513Y-125812383D01*
X172861202Y-125915112D01*
X172861201Y-125915114D01*
X172830500Y-126029691D01*
X157677500Y-126029691D01*
X157677500Y-125870667D01*
X157648924Y-125690249D01*
X157592477Y-125516523D01*
X157509548Y-125353766D01*
X157402179Y-125205985D01*
X157273015Y-125076821D01*
X157125234Y-124969452D01*
X157123578Y-124968608D01*
X156962481Y-124886524D01*
X156802278Y-124834470D01*
X156802264Y-124834466D01*
X156788751Y-124830076D01*
X156788749Y-124830075D01*
X156788747Y-124830075D01*
X156774350Y-124827794D01*
X156774343Y-124827793D01*
X156662778Y-124810123D01*
X156649166Y-124807967D01*
X156608336Y-124801500D01*
X156608333Y-124801500D01*
X156425667Y-124801500D01*
X156425664Y-124801500D01*
X156394299Y-124806468D01*
X156383843Y-124808124D01*
X156254893Y-124828548D01*
X156254888Y-124828548D01*
X156251792Y-124829039D01*
X156245247Y-124830075D01*
X156071525Y-124886520D01*
X156071521Y-124886522D01*
X156031853Y-124906734D01*
X155998446Y-124918118D01*
X155983083Y-124921003D01*
X155913570Y-124914033D01*
X155912425Y-124913568D01*
X155903922Y-124910117D01*
X155862871Y-124882900D01*
X154684932Y-123704961D01*
X154669513Y-123689542D01*
X154669511Y-123689540D01*
X154659557Y-123683793D01*
X154600991Y-123649980D01*
X154600990Y-123649979D01*
X154600988Y-123649978D01*
X154600986Y-123649977D01*
X154575511Y-123643151D01*
X154575511Y-123643150D01*
X154524563Y-123629500D01*
X154524562Y-123629500D01*
X154524560Y-123629500D01*
X150609330Y-123629500D01*
X150609325Y-123629499D01*
X150609323Y-123629500D01*
X150574389Y-123624475D01*
X150559390Y-123620070D01*
X150554135Y-123616694D01*
X190864500Y-123616694D01*
X190864500Y-123735312D01*
X190895201Y-123849889D01*
X190954511Y-123952616D01*
X191038387Y-124036492D01*
X191141114Y-124095802D01*
X191255691Y-124126503D01*
X191255694Y-124126503D01*
X191374306Y-124126503D01*
X191374309Y-124126503D01*
X191488886Y-124095802D01*
X191591613Y-124036492D01*
X191602683Y-124025421D01*
X191630928Y-124004278D01*
X191654020Y-123991670D01*
X191713445Y-123976503D01*
X193195206Y-123976503D01*
X193230138Y-123981524D01*
X193255382Y-123988937D01*
X193308128Y-124020233D01*
X193324387Y-124036492D01*
X193427114Y-124095802D01*
X193541691Y-124126503D01*
X193541694Y-124126503D01*
X193660306Y-124126503D01*
X193660309Y-124126503D01*
X193774886Y-124095802D01*
X193877613Y-124036492D01*
X193961489Y-123952616D01*
X194020799Y-123849889D01*
X194051500Y-123735312D01*
X194051500Y-123616694D01*
X194020799Y-123502117D01*
X193961489Y-123399390D01*
X193877613Y-123315514D01*
X193774886Y-123256204D01*
X193660309Y-123225503D01*
X193660306Y-123225503D01*
X193541691Y-123225503D01*
X193450728Y-123249876D01*
X193450723Y-123249877D01*
X193427114Y-123256204D01*
X193427112Y-123256204D01*
X193427112Y-123256205D01*
X193405947Y-123268424D01*
X193405939Y-123268428D01*
X193324386Y-123315514D01*
X193324383Y-123315516D01*
X193313326Y-123326573D01*
X193313325Y-123326575D01*
X193313322Y-123326577D01*
X193285071Y-123347727D01*
X193261984Y-123360334D01*
X193202555Y-123375503D01*
X191720794Y-123375503D01*
X191685858Y-123370480D01*
X191660616Y-123363068D01*
X191607871Y-123331772D01*
X191591615Y-123315516D01*
X191591613Y-123315514D01*
X191488886Y-123256204D01*
X191374309Y-123225503D01*
X191374306Y-123225503D01*
X191255691Y-123225503D01*
X191164728Y-123249876D01*
X191164723Y-123249877D01*
X191141114Y-123256204D01*
X191141112Y-123256204D01*
X191141112Y-123256205D01*
X191119947Y-123268424D01*
X191119939Y-123268428D01*
X191038386Y-123315514D01*
X191038378Y-123315520D01*
X190954517Y-123399381D01*
X190954513Y-123399386D01*
X190954511Y-123399390D01*
X190895201Y-123502117D01*
X190864500Y-123616694D01*
X150554135Y-123616694D01*
X150500644Y-123582327D01*
X150500615Y-123582293D01*
X150500614Y-123582293D01*
X150500613Y-123582291D01*
X150499457Y-123580958D01*
X150471977Y-123526083D01*
X150470332Y-123518521D01*
X150467500Y-123492168D01*
X150467500Y-102591854D01*
X150472522Y-102556921D01*
X150479934Y-102531676D01*
X150511288Y-102478874D01*
X150511941Y-102478222D01*
X150531550Y-102458613D01*
X150590860Y-102355886D01*
X150621561Y-102241309D01*
X150621561Y-102122691D01*
X150590860Y-102008114D01*
X150531550Y-101905387D01*
X150447674Y-101821511D01*
X150344947Y-101762201D01*
X150230370Y-101731500D01*
X150230367Y-101731500D01*
X150111752Y-101731500D01*
X150020789Y-101755873D01*
X150020784Y-101755874D01*
X149997175Y-101762201D01*
X149997173Y-101762201D01*
X149997173Y-101762202D01*
X149976008Y-101774421D01*
X149976000Y-101774425D01*
X149894447Y-101821511D01*
X149894439Y-101821517D01*
X149810578Y-101905378D01*
X149810574Y-101905383D01*
X149751263Y-102008112D01*
X149751262Y-102008114D01*
X149720561Y-102122691D01*
X149720561Y-102241309D01*
X149751262Y-102355886D01*
X149810572Y-102458613D01*
X149810574Y-102458615D01*
X149817574Y-102465615D01*
X149838723Y-102493866D01*
X149851331Y-102516955D01*
X149866500Y-102576384D01*
X149866500Y-123524206D01*
X149861476Y-123559143D01*
X149854064Y-123584384D01*
X149822769Y-123637128D01*
X149806513Y-123653383D01*
X149749878Y-123751477D01*
X149747201Y-123756114D01*
X149716500Y-123870691D01*
X149716500Y-123989309D01*
X149745035Y-124095802D01*
X149747202Y-124103888D01*
X149760258Y-124126501D01*
X149760259Y-124126503D01*
X149796954Y-124190061D01*
X149810071Y-124222824D01*
X149813343Y-124236310D01*
X149812495Y-124254119D01*
X149813427Y-124257961D01*
X149812134Y-124261695D01*
X149810020Y-124306101D01*
X149769493Y-124363016D01*
X149769479Y-124363027D01*
X149768202Y-124364031D01*
X149715038Y-124388308D01*
X149710116Y-124389257D01*
X149686640Y-124391500D01*
X148667794Y-124391500D01*
X148667793Y-124391499D01*
X148667793Y-124391500D01*
X148632858Y-124386477D01*
X148607616Y-124379065D01*
X148554871Y-124347769D01*
X148538615Y-124331513D01*
X148538613Y-124331511D01*
X148435886Y-124272201D01*
X148321309Y-124241500D01*
X148321306Y-124241500D01*
X148202691Y-124241500D01*
X148111728Y-124265873D01*
X148111723Y-124265874D01*
X148088114Y-124272201D01*
X148088112Y-124272201D01*
X148088112Y-124272202D01*
X148066947Y-124284421D01*
X148066939Y-124284425D01*
X147985386Y-124331511D01*
X147985378Y-124331517D01*
X147901517Y-124415378D01*
X147901513Y-124415383D01*
X147866054Y-124476799D01*
X147842201Y-124518114D01*
X147811500Y-124632691D01*
X109044917Y-124632691D01*
X108971836Y-124595454D01*
X108792118Y-124537059D01*
X108792112Y-124537058D01*
X108605491Y-124507500D01*
X108605486Y-124507500D01*
X108605481Y-124507500D01*
X108416519Y-124507500D01*
X108416514Y-124507500D01*
X108416509Y-124507500D01*
X108229886Y-124537058D01*
X108229884Y-124537058D01*
X108229881Y-124537059D01*
X108050163Y-124595454D01*
X107977082Y-124632691D01*
X107881799Y-124681240D01*
X107794579Y-124744610D01*
X107794578Y-124744610D01*
X107740794Y-124783686D01*
X107733419Y-124787816D01*
X107590817Y-124930418D01*
X107586688Y-124937792D01*
X107568424Y-124962932D01*
X107564297Y-124968613D01*
X107535922Y-125007667D01*
X107484240Y-125078799D01*
X107484236Y-125078807D01*
X107398454Y-125247163D01*
X107340059Y-125426881D01*
X107340058Y-125426884D01*
X107340058Y-125426886D01*
X107310500Y-125613507D01*
X106851500Y-125613507D01*
X106851500Y-120533507D01*
X107310500Y-120533507D01*
X107310500Y-120722491D01*
X107339344Y-120904605D01*
X107340059Y-120909118D01*
X107398454Y-121088836D01*
X107484240Y-121257199D01*
X107595310Y-121410073D01*
X107728927Y-121543690D01*
X107815229Y-121606393D01*
X107881796Y-121654757D01*
X107881797Y-121654757D01*
X107881801Y-121654760D01*
X107961347Y-121695290D01*
X108043722Y-121737263D01*
X108045320Y-121738199D01*
X108049037Y-121739999D01*
X108051021Y-121740985D01*
X108054775Y-121742043D01*
X108146497Y-121771846D01*
X108229881Y-121798940D01*
X108416514Y-121828500D01*
X108416519Y-121828500D01*
X108605485Y-121828500D01*
X108605486Y-121828500D01*
X108792118Y-121798940D01*
X108971832Y-121740547D01*
X109140199Y-121654760D01*
X109293073Y-121543690D01*
X109426690Y-121410073D01*
X109537760Y-121257199D01*
X109623547Y-121088832D01*
X109681940Y-120909118D01*
X109682654Y-120904612D01*
X109711500Y-120722486D01*
X109711500Y-120533513D01*
X109681940Y-120346881D01*
X109636880Y-120208202D01*
X109636880Y-120208201D01*
X109636880Y-120208200D01*
X109631911Y-120192911D01*
X109623547Y-120167168D01*
X109623545Y-120167165D01*
X109623545Y-120167163D01*
X109621301Y-120162760D01*
X109620993Y-120161969D01*
X109620263Y-120160722D01*
X109537759Y-119998800D01*
X109426690Y-119845927D01*
X109293073Y-119712310D01*
X109140199Y-119601240D01*
X108971836Y-119515454D01*
X108792118Y-119457059D01*
X108792112Y-119457058D01*
X108605491Y-119427500D01*
X108605486Y-119427500D01*
X108605481Y-119427500D01*
X108416519Y-119427500D01*
X108416514Y-119427500D01*
X108416509Y-119427500D01*
X108229886Y-119457058D01*
X108229884Y-119457058D01*
X108229881Y-119457059D01*
X108050163Y-119515454D01*
X107959178Y-119561813D01*
X107881807Y-119601236D01*
X107881794Y-119601244D01*
X107802457Y-119658885D01*
X107802458Y-119658886D01*
X107740798Y-119703685D01*
X107733417Y-119707818D01*
X107590818Y-119850417D01*
X107586685Y-119857798D01*
X107552538Y-119904797D01*
X107552537Y-119904796D01*
X107484244Y-119998794D01*
X107484240Y-119998800D01*
X107398454Y-120167163D01*
X107340059Y-120346881D01*
X107340059Y-120346883D01*
X107340058Y-120346886D01*
X107310500Y-120533507D01*
X106851500Y-120533507D01*
X106851500Y-115453507D01*
X107310500Y-115453507D01*
X107310500Y-115642491D01*
X107340058Y-115829112D01*
X107340059Y-115829118D01*
X107398454Y-116008836D01*
X107437960Y-116086371D01*
X107456975Y-116123690D01*
X107484238Y-116177196D01*
X107484240Y-116177199D01*
X107595310Y-116330073D01*
X107728927Y-116463690D01*
X107881801Y-116574760D01*
X107936827Y-116602797D01*
X108050163Y-116660545D01*
X108051036Y-116660990D01*
X108054790Y-116662049D01*
X108091169Y-116673869D01*
X108146495Y-116691845D01*
X108146496Y-116691846D01*
X108167343Y-116698619D01*
X108229881Y-116718940D01*
X108416514Y-116748500D01*
X108416519Y-116748500D01*
X108605485Y-116748500D01*
X108605486Y-116748500D01*
X108792118Y-116718940D01*
X108971832Y-116660547D01*
X109140199Y-116574760D01*
X109293073Y-116463690D01*
X109426690Y-116330073D01*
X109537760Y-116177199D01*
X109623547Y-116008832D01*
X109681940Y-115829118D01*
X109697243Y-115732500D01*
X109711500Y-115642486D01*
X109711500Y-115453513D01*
X109681940Y-115266881D01*
X109623545Y-115087163D01*
X109537759Y-114918800D01*
X109426690Y-114765927D01*
X109293073Y-114632310D01*
X109140199Y-114521240D01*
X108971836Y-114435454D01*
X108792118Y-114377059D01*
X108792112Y-114377058D01*
X108605491Y-114347500D01*
X108605486Y-114347500D01*
X108605481Y-114347500D01*
X108416519Y-114347500D01*
X108416514Y-114347500D01*
X108416509Y-114347500D01*
X108229886Y-114377058D01*
X108229884Y-114377058D01*
X108229881Y-114377059D01*
X108050163Y-114435454D01*
X107965981Y-114478347D01*
X107881799Y-114521240D01*
X107794579Y-114584610D01*
X107794578Y-114584610D01*
X107740794Y-114623686D01*
X107733419Y-114627816D01*
X107590816Y-114770419D01*
X107586686Y-114777794D01*
X107547610Y-114831578D01*
X107547610Y-114831579D01*
X107484240Y-114918799D01*
X107441347Y-115002981D01*
X107398454Y-115087163D01*
X107340059Y-115266881D01*
X107340058Y-115266884D01*
X107340058Y-115266886D01*
X107310500Y-115453507D01*
X106851500Y-115453507D01*
X106851500Y-110373507D01*
X107310500Y-110373507D01*
X107310500Y-110562491D01*
X107332515Y-110701486D01*
X107340059Y-110749118D01*
X107398454Y-110928836D01*
X107484240Y-111097199D01*
X107595310Y-111250073D01*
X107728927Y-111383690D01*
X107815229Y-111446393D01*
X107881796Y-111494757D01*
X107881797Y-111494757D01*
X107881801Y-111494760D01*
X107961347Y-111535290D01*
X108043722Y-111577263D01*
X108045320Y-111578199D01*
X108049037Y-111579999D01*
X108051021Y-111580985D01*
X108054775Y-111582043D01*
X108146497Y-111611846D01*
X108229881Y-111638940D01*
X108416514Y-111668500D01*
X108416519Y-111668500D01*
X108605485Y-111668500D01*
X108605486Y-111668500D01*
X108792118Y-111638940D01*
X108971832Y-111580547D01*
X109140199Y-111494760D01*
X109293073Y-111383690D01*
X109426690Y-111250073D01*
X109537760Y-111097199D01*
X109623547Y-110928832D01*
X109681940Y-110749118D01*
X109702768Y-110617615D01*
X109702769Y-110617612D01*
X109711500Y-110562485D01*
X109711500Y-110373513D01*
X109696957Y-110281693D01*
X109681940Y-110186881D01*
X109623545Y-110007163D01*
X109537759Y-109838800D01*
X109426690Y-109685927D01*
X109293073Y-109552310D01*
X109140199Y-109441240D01*
X108971836Y-109355454D01*
X108792118Y-109297059D01*
X108792112Y-109297058D01*
X108605491Y-109267500D01*
X108605486Y-109267500D01*
X108605481Y-109267500D01*
X108416519Y-109267500D01*
X108416514Y-109267500D01*
X108416509Y-109267500D01*
X108229886Y-109297058D01*
X108229884Y-109297058D01*
X108229881Y-109297059D01*
X108050163Y-109355454D01*
X107965981Y-109398347D01*
X107881799Y-109441240D01*
X107794579Y-109504610D01*
X107794578Y-109504610D01*
X107740794Y-109543686D01*
X107733419Y-109547816D01*
X107590816Y-109690419D01*
X107586686Y-109697794D01*
X107547610Y-109751578D01*
X107547610Y-109751579D01*
X107484240Y-109838799D01*
X107442254Y-109921201D01*
X107398454Y-110007163D01*
X107340059Y-110186881D01*
X107340058Y-110186884D01*
X107340058Y-110186886D01*
X107310500Y-110373507D01*
X106851500Y-110373507D01*
X106851500Y-105293507D01*
X107310500Y-105293507D01*
X107310500Y-105482491D01*
X107331437Y-105614681D01*
X107340059Y-105669118D01*
X107398454Y-105848836D01*
X107475672Y-106000384D01*
X107484240Y-106017199D01*
X107595310Y-106170073D01*
X107728927Y-106303690D01*
X107815229Y-106366393D01*
X107881796Y-106414757D01*
X107881797Y-106414757D01*
X107881801Y-106414760D01*
X107961347Y-106455290D01*
X108043722Y-106497263D01*
X108045320Y-106498199D01*
X108049037Y-106499999D01*
X108051021Y-106500985D01*
X108054775Y-106502043D01*
X108146497Y-106531846D01*
X108229881Y-106558940D01*
X108416514Y-106588500D01*
X108416519Y-106588500D01*
X108605485Y-106588500D01*
X108605486Y-106588500D01*
X108792118Y-106558940D01*
X108971832Y-106500547D01*
X109140199Y-106414760D01*
X109293073Y-106303690D01*
X109426690Y-106170073D01*
X109537760Y-106017199D01*
X109623547Y-105848832D01*
X109681940Y-105669118D01*
X109686237Y-105641987D01*
X109711500Y-105482486D01*
X109711500Y-105293513D01*
X109681940Y-105106881D01*
X109623545Y-104927163D01*
X109537759Y-104758800D01*
X109426690Y-104605927D01*
X109293073Y-104472310D01*
X109140199Y-104361240D01*
X108971836Y-104275454D01*
X108792118Y-104217059D01*
X108792112Y-104217058D01*
X108605491Y-104187500D01*
X108605486Y-104187500D01*
X108605481Y-104187500D01*
X108416519Y-104187500D01*
X108416514Y-104187500D01*
X108416509Y-104187500D01*
X108229886Y-104217058D01*
X108229884Y-104217058D01*
X108229881Y-104217059D01*
X108050163Y-104275454D01*
X107965981Y-104318347D01*
X107881799Y-104361240D01*
X107794579Y-104424610D01*
X107794578Y-104424610D01*
X107740794Y-104463686D01*
X107733419Y-104467816D01*
X107590816Y-104610419D01*
X107586686Y-104617794D01*
X107547610Y-104671578D01*
X107547610Y-104671579D01*
X107484240Y-104758799D01*
X107441347Y-104842981D01*
X107398454Y-104927163D01*
X107340059Y-105106881D01*
X107340058Y-105106884D01*
X107340058Y-105106886D01*
X107310500Y-105293507D01*
X106851500Y-105293507D01*
X106851500Y-100213507D01*
X107310500Y-100213507D01*
X107310500Y-100402491D01*
X107340058Y-100589112D01*
X107340059Y-100589118D01*
X107398454Y-100768836D01*
X107467038Y-100903438D01*
X107484240Y-100937199D01*
X107595310Y-101090073D01*
X107728927Y-101223690D01*
X107799779Y-101275167D01*
X107881796Y-101334757D01*
X107881800Y-101334759D01*
X107881801Y-101334760D01*
X107896415Y-101342206D01*
X108043722Y-101417263D01*
X108045307Y-101418192D01*
X108049025Y-101419993D01*
X108051022Y-101420986D01*
X108054790Y-101422049D01*
X108091169Y-101433869D01*
X108146495Y-101451845D01*
X108146496Y-101451846D01*
X108167343Y-101458619D01*
X108229881Y-101478940D01*
X108416514Y-101508500D01*
X108416519Y-101508500D01*
X108605485Y-101508500D01*
X108605486Y-101508500D01*
X108792118Y-101478940D01*
X108971832Y-101420547D01*
X109140199Y-101334760D01*
X109293073Y-101223690D01*
X109426690Y-101090073D01*
X109537760Y-100937199D01*
X109623547Y-100768832D01*
X109681940Y-100589118D01*
X109711500Y-100402486D01*
X109711500Y-100213513D01*
X109681940Y-100026881D01*
X109623545Y-99847163D01*
X109537759Y-99678800D01*
X109426690Y-99525927D01*
X109293073Y-99392310D01*
X109140199Y-99281240D01*
X108971836Y-99195454D01*
X108792118Y-99137059D01*
X108792112Y-99137058D01*
X108605491Y-99107500D01*
X108605486Y-99107500D01*
X108605481Y-99107500D01*
X108416519Y-99107500D01*
X108416514Y-99107500D01*
X108416509Y-99107500D01*
X108229886Y-99137058D01*
X108229884Y-99137058D01*
X108229881Y-99137059D01*
X108050163Y-99195454D01*
X107965981Y-99238347D01*
X107881799Y-99281240D01*
X107794579Y-99344610D01*
X107794578Y-99344610D01*
X107740794Y-99383686D01*
X107733419Y-99387816D01*
X107590816Y-99530419D01*
X107586685Y-99537796D01*
X107484241Y-99678796D01*
X107484241Y-99678797D01*
X107467401Y-99711848D01*
X107398454Y-99847163D01*
X107340059Y-100026881D01*
X107340058Y-100026884D01*
X107340058Y-100026886D01*
X107310500Y-100213507D01*
X106851500Y-100213507D01*
X106851500Y-95133507D01*
X107310500Y-95133507D01*
X107310500Y-95322491D01*
X107326657Y-95424500D01*
X107340059Y-95509118D01*
X107398454Y-95688836D01*
X107484240Y-95857199D01*
X107595310Y-96010073D01*
X107728927Y-96143690D01*
X107815229Y-96206393D01*
X107881796Y-96254757D01*
X107881797Y-96254757D01*
X107881801Y-96254760D01*
X107961347Y-96295290D01*
X108043722Y-96337263D01*
X108045320Y-96338199D01*
X108049037Y-96339999D01*
X108051021Y-96340985D01*
X108054775Y-96342043D01*
X108146497Y-96371846D01*
X108229881Y-96398940D01*
X108416514Y-96428500D01*
X108416519Y-96428500D01*
X108605485Y-96428500D01*
X108605486Y-96428500D01*
X108792118Y-96398940D01*
X108971832Y-96340547D01*
X109140199Y-96254760D01*
X109293073Y-96143690D01*
X109426690Y-96010073D01*
X109537760Y-95857199D01*
X109623547Y-95688832D01*
X109681940Y-95509118D01*
X109695342Y-95424500D01*
X109711500Y-95322486D01*
X109711500Y-95133513D01*
X109681940Y-94946881D01*
X109623545Y-94767163D01*
X109537759Y-94598800D01*
X109537758Y-94598798D01*
X109526317Y-94583051D01*
X109518643Y-94572489D01*
X109426690Y-94445927D01*
X109293073Y-94312310D01*
X109140199Y-94201240D01*
X108971836Y-94115454D01*
X108792118Y-94057059D01*
X108792112Y-94057058D01*
X108605491Y-94027500D01*
X108605486Y-94027500D01*
X108605481Y-94027500D01*
X108416519Y-94027500D01*
X108416514Y-94027500D01*
X108416509Y-94027500D01*
X108229886Y-94057058D01*
X108229884Y-94057058D01*
X108229881Y-94057059D01*
X108050163Y-94115454D01*
X107977082Y-94152691D01*
X107881799Y-94201240D01*
X107794579Y-94264610D01*
X107794578Y-94264610D01*
X107740794Y-94303686D01*
X107733419Y-94307816D01*
X107590817Y-94450418D01*
X107586688Y-94457792D01*
X107568424Y-94482932D01*
X107564297Y-94488613D01*
X107524268Y-94543706D01*
X107484240Y-94598799D01*
X107473765Y-94619358D01*
X107398454Y-94767163D01*
X107340059Y-94946881D01*
X107340058Y-94946884D01*
X107340058Y-94946886D01*
X107310500Y-95133507D01*
X106851500Y-95133507D01*
X106851500Y-91739691D01*
X123681500Y-91739691D01*
X123681500Y-91858309D01*
X123712201Y-91972886D01*
X123771511Y-92075613D01*
X123855387Y-92159489D01*
X123958114Y-92218799D01*
X124072691Y-92249500D01*
X124088337Y-92249500D01*
X124123269Y-92254521D01*
X124148513Y-92261934D01*
X124201259Y-92293230D01*
X124582489Y-92674460D01*
X124651012Y-92714022D01*
X124727438Y-92734500D01*
X124806562Y-92734500D01*
X136298432Y-92734500D01*
X136333359Y-92739521D01*
X136344212Y-92742707D01*
X136402993Y-92780477D01*
X136432022Y-92844031D01*
X136422083Y-92913190D01*
X136422081Y-92913193D01*
X136419817Y-92918151D01*
X136394702Y-92954325D01*
X128590545Y-100758481D01*
X128590544Y-100758483D01*
X128590526Y-100758508D01*
X128551485Y-100826130D01*
X128551010Y-100826936D01*
X128550977Y-100827014D01*
X128530500Y-100903437D01*
X128530500Y-101257337D01*
X128530499Y-101257339D01*
X128530500Y-101257340D01*
X128525476Y-101292274D01*
X128518064Y-101317515D01*
X128486769Y-101370259D01*
X126469455Y-103387573D01*
X126441204Y-103408722D01*
X126418116Y-103421330D01*
X126358686Y-103436500D01*
X124537794Y-103436500D01*
X124537793Y-103436499D01*
X124537793Y-103436500D01*
X124502858Y-103431477D01*
X124477616Y-103424065D01*
X124424871Y-103392769D01*
X124408615Y-103376513D01*
X124408613Y-103376511D01*
X124305886Y-103317201D01*
X124191309Y-103286500D01*
X124191306Y-103286500D01*
X124072691Y-103286500D01*
X123981728Y-103310873D01*
X123981723Y-103310874D01*
X123958114Y-103317201D01*
X123958112Y-103317201D01*
X123958112Y-103317202D01*
X123936947Y-103329421D01*
X123936939Y-103329425D01*
X123855386Y-103376511D01*
X123855378Y-103376517D01*
X123771517Y-103460378D01*
X123771513Y-103460383D01*
X123771511Y-103460387D01*
X123712201Y-103563114D01*
X123681500Y-103677691D01*
X123681500Y-103796309D01*
X123712201Y-103910886D01*
X123771511Y-104013613D01*
X123855387Y-104097489D01*
X123958114Y-104156799D01*
X124072691Y-104187500D01*
X124072694Y-104187500D01*
X124191306Y-104187500D01*
X124191309Y-104187500D01*
X124305886Y-104156799D01*
X124408613Y-104097489D01*
X124419683Y-104086418D01*
X124447928Y-104065275D01*
X124471020Y-104052667D01*
X124530445Y-104037500D01*
X126584560Y-104037500D01*
X126584562Y-104037500D01*
X126660989Y-104017021D01*
X126729511Y-103977460D01*
X126785460Y-103921511D01*
X128814214Y-101892756D01*
X128842457Y-101871612D01*
X128852391Y-101866188D01*
X128920661Y-101851335D01*
X128986126Y-101875749D01*
X129027999Y-101931681D01*
X129028001Y-101931685D01*
X129030682Y-101938873D01*
X129038500Y-101982207D01*
X129038500Y-104940337D01*
X129033476Y-104975274D01*
X129026064Y-105000515D01*
X128994769Y-105053259D01*
X124206455Y-109841573D01*
X124178204Y-109862722D01*
X124155116Y-109875330D01*
X124095686Y-109890500D01*
X124072691Y-109890500D01*
X123981728Y-109914873D01*
X123981723Y-109914874D01*
X123958114Y-109921201D01*
X123958112Y-109921201D01*
X123958112Y-109921202D01*
X123936947Y-109933421D01*
X123936939Y-109933425D01*
X123855386Y-109980511D01*
X123855378Y-109980517D01*
X123771517Y-110064378D01*
X123771513Y-110064383D01*
X123771511Y-110064387D01*
X123712201Y-110167114D01*
X123681500Y-110281691D01*
X123681500Y-110400309D01*
X123712201Y-110514886D01*
X123771511Y-110617613D01*
X123855387Y-110701489D01*
X123958114Y-110760799D01*
X124072691Y-110791500D01*
X124072694Y-110791500D01*
X124191306Y-110791500D01*
X124191309Y-110791500D01*
X124305886Y-110760799D01*
X124408613Y-110701489D01*
X124492489Y-110617613D01*
X124551799Y-110514886D01*
X124582500Y-110400309D01*
X124582500Y-110384662D01*
X124587522Y-110349729D01*
X124594934Y-110324484D01*
X124626228Y-110271742D01*
X129322214Y-105575756D01*
X129350457Y-105554612D01*
X129360391Y-105549188D01*
X129428661Y-105534335D01*
X129494126Y-105558749D01*
X129535999Y-105614681D01*
X129536001Y-105614685D01*
X129538682Y-105621873D01*
X129546500Y-105665207D01*
X129546500Y-120688337D01*
X129546499Y-120688339D01*
X129546500Y-120688340D01*
X129541476Y-120723274D01*
X129534064Y-120748515D01*
X129502769Y-120801259D01*
X126596455Y-123707573D01*
X126568204Y-123728722D01*
X126545116Y-123741330D01*
X126485686Y-123756500D01*
X124537794Y-123756500D01*
X124537793Y-123756499D01*
X124537793Y-123756500D01*
X124502858Y-123751477D01*
X124477616Y-123744065D01*
X124424871Y-123712769D01*
X124408615Y-123696513D01*
X124408613Y-123696511D01*
X124305886Y-123637201D01*
X124191309Y-123606500D01*
X124191306Y-123606500D01*
X124072691Y-123606500D01*
X123981728Y-123630873D01*
X123981723Y-123630874D01*
X123958114Y-123637201D01*
X123958112Y-123637201D01*
X123958112Y-123637202D01*
X123936947Y-123649421D01*
X123936939Y-123649425D01*
X123855386Y-123696511D01*
X123855378Y-123696517D01*
X123771517Y-123780378D01*
X123771513Y-123780383D01*
X123731383Y-123849890D01*
X123712201Y-123883114D01*
X123681500Y-123997691D01*
X123681500Y-124116309D01*
X123712201Y-124230886D01*
X123771511Y-124333613D01*
X123855387Y-124417489D01*
X123958114Y-124476799D01*
X124072691Y-124507500D01*
X124072694Y-124507500D01*
X124191306Y-124507500D01*
X124191309Y-124507500D01*
X124305886Y-124476799D01*
X124408613Y-124417489D01*
X124419683Y-124406418D01*
X124447928Y-124385275D01*
X124471020Y-124372667D01*
X124530445Y-124357500D01*
X126711560Y-124357500D01*
X126711562Y-124357500D01*
X126787989Y-124337021D01*
X126856511Y-124297460D01*
X126912460Y-124241511D01*
X130087460Y-121066511D01*
X130093499Y-121056049D01*
X130098263Y-121047800D01*
X130098263Y-121047799D01*
X130127021Y-120997989D01*
X130147500Y-120921562D01*
X130147500Y-116123691D01*
X142350500Y-116123691D01*
X142350500Y-116242309D01*
X142381201Y-116356886D01*
X142440511Y-116459613D01*
X142524387Y-116543489D01*
X142627114Y-116602799D01*
X142741691Y-116633500D01*
X142741694Y-116633500D01*
X142860306Y-116633500D01*
X142860309Y-116633500D01*
X142974886Y-116602799D01*
X143077613Y-116543489D01*
X143161489Y-116459613D01*
X143220799Y-116356886D01*
X143251500Y-116242309D01*
X143251500Y-116123691D01*
X143220799Y-116009114D01*
X143161489Y-115906387D01*
X143077613Y-115822511D01*
X142974886Y-115763201D01*
X142860309Y-115732500D01*
X142860306Y-115732500D01*
X142741691Y-115732500D01*
X142650728Y-115756873D01*
X142650723Y-115756874D01*
X142627114Y-115763201D01*
X142627112Y-115763201D01*
X142627112Y-115763202D01*
X142605947Y-115775421D01*
X142605939Y-115775425D01*
X142524386Y-115822511D01*
X142524378Y-115822517D01*
X142440517Y-115906378D01*
X142440513Y-115906383D01*
X142440507Y-115906392D01*
X142389207Y-115995247D01*
X142389206Y-115995249D01*
X142381362Y-116008836D01*
X142381201Y-116009114D01*
X142350500Y-116123691D01*
X130147500Y-116123691D01*
X130147500Y-106336305D01*
X141207499Y-106336305D01*
X141207500Y-106336308D01*
X141207500Y-106336309D01*
X141238201Y-106450886D01*
X141297511Y-106553613D01*
X141381387Y-106637489D01*
X141484114Y-106696799D01*
X141598691Y-106727500D01*
X141598694Y-106727500D01*
X141717306Y-106727500D01*
X141717309Y-106727500D01*
X141831886Y-106696799D01*
X141934613Y-106637489D01*
X142018489Y-106553613D01*
X142077799Y-106450886D01*
X142108500Y-106336309D01*
X142108500Y-106217691D01*
X142077799Y-106103114D01*
X142018489Y-106000387D01*
X141934613Y-105916511D01*
X141831886Y-105857201D01*
X141717309Y-105826500D01*
X141717306Y-105826500D01*
X141598691Y-105826500D01*
X141507728Y-105850873D01*
X141507723Y-105850874D01*
X141484114Y-105857201D01*
X141484112Y-105857201D01*
X141484112Y-105857202D01*
X141462947Y-105869421D01*
X141462939Y-105869425D01*
X141381386Y-105916511D01*
X141381378Y-105916517D01*
X141297517Y-106000378D01*
X141297513Y-106000383D01*
X141297512Y-106000385D01*
X141297511Y-106000387D01*
X141238201Y-106103114D01*
X141207500Y-106217691D01*
X141207500Y-106217693D01*
X141207500Y-106336304D01*
X141207499Y-106336305D01*
X130147500Y-106336305D01*
X130147500Y-103677691D01*
X142096500Y-103677691D01*
X142096500Y-103796309D01*
X142127201Y-103910886D01*
X142186511Y-104013613D01*
X142270387Y-104097489D01*
X142373114Y-104156799D01*
X142487691Y-104187500D01*
X142487694Y-104187500D01*
X142606306Y-104187500D01*
X142606309Y-104187500D01*
X142720886Y-104156799D01*
X142823613Y-104097489D01*
X142907489Y-104013613D01*
X142966799Y-103910886D01*
X142997500Y-103796309D01*
X142997500Y-103677691D01*
X142966799Y-103563114D01*
X142907489Y-103460387D01*
X142823613Y-103376511D01*
X142720886Y-103317201D01*
X142606309Y-103286500D01*
X142606306Y-103286500D01*
X142487691Y-103286500D01*
X142396728Y-103310873D01*
X142396723Y-103310874D01*
X142373114Y-103317201D01*
X142373112Y-103317201D01*
X142373112Y-103317202D01*
X142351947Y-103329421D01*
X142351939Y-103329425D01*
X142270386Y-103376511D01*
X142270378Y-103376517D01*
X142186517Y-103460378D01*
X142186513Y-103460383D01*
X142186511Y-103460387D01*
X142127201Y-103563114D01*
X142096500Y-103677691D01*
X130147500Y-103677691D01*
X130147500Y-101644662D01*
X130152522Y-101609729D01*
X130159934Y-101584484D01*
X130191228Y-101531742D01*
X136399547Y-95323423D01*
X136427797Y-95302275D01*
X136450889Y-95289667D01*
X136510314Y-95274500D01*
X145824206Y-95274500D01*
X145859138Y-95279521D01*
X145884382Y-95286934D01*
X145937128Y-95318230D01*
X145953387Y-95334489D01*
X146056114Y-95393799D01*
X146170691Y-95424500D01*
X146170694Y-95424500D01*
X146289306Y-95424500D01*
X146289309Y-95424500D01*
X146403886Y-95393799D01*
X146506613Y-95334489D01*
X146590489Y-95250613D01*
X146649799Y-95147886D01*
X146680500Y-95033309D01*
X146680500Y-94914691D01*
X146649799Y-94800114D01*
X146590489Y-94697387D01*
X146586390Y-94693288D01*
X146565238Y-94665032D01*
X146557746Y-94651311D01*
X146542894Y-94583051D01*
X146543023Y-94581242D01*
X146562389Y-94523047D01*
X146566582Y-94516523D01*
X146583202Y-94495899D01*
X146590489Y-94488613D01*
X146649799Y-94385886D01*
X146680500Y-94271309D01*
X146680500Y-94152691D01*
X146649799Y-94038114D01*
X146590489Y-93935387D01*
X146506613Y-93851511D01*
X146506610Y-93851509D01*
X146506606Y-93851506D01*
X146452555Y-93820299D01*
X146452554Y-93820299D01*
X146424811Y-93798482D01*
X146415236Y-93788440D01*
X146383220Y-93726337D01*
X146389860Y-93656788D01*
X146390480Y-93655239D01*
X146424363Y-93607663D01*
X146428157Y-93604375D01*
X146447355Y-93590701D01*
X146506613Y-93556489D01*
X146590489Y-93472613D01*
X146649799Y-93369886D01*
X146680500Y-93255309D01*
X146680500Y-93136691D01*
X146649799Y-93022114D01*
X146590489Y-92919387D01*
X146586390Y-92915288D01*
X146584821Y-92913193D01*
X146565238Y-92887032D01*
X146557746Y-92873311D01*
X146542894Y-92805051D01*
X146543023Y-92803242D01*
X146562389Y-92745047D01*
X146566582Y-92738523D01*
X146583202Y-92717899D01*
X146590489Y-92710613D01*
X146649799Y-92607886D01*
X146680500Y-92493309D01*
X146680500Y-92374691D01*
X146649799Y-92260114D01*
X146590489Y-92157387D01*
X146506613Y-92073511D01*
X146403886Y-92014201D01*
X146289309Y-91983500D01*
X146289306Y-91983500D01*
X146170691Y-91983500D01*
X146079728Y-92007873D01*
X146079723Y-92007874D01*
X146056114Y-92014201D01*
X146056112Y-92014201D01*
X146056112Y-92014202D01*
X146034947Y-92026421D01*
X146034939Y-92026425D01*
X145953386Y-92073511D01*
X145953383Y-92073513D01*
X145942326Y-92084570D01*
X145942325Y-92084572D01*
X145942322Y-92084574D01*
X145914071Y-92105724D01*
X145890984Y-92118331D01*
X145831555Y-92133500D01*
X124960663Y-92133500D01*
X124925727Y-92128477D01*
X124900485Y-92121065D01*
X124847740Y-92089769D01*
X124631426Y-91873455D01*
X124631421Y-91873450D01*
X124610274Y-91845199D01*
X124597667Y-91822110D01*
X124582500Y-91762685D01*
X124582500Y-91739693D01*
X124582500Y-91739691D01*
X124551799Y-91625114D01*
X124492489Y-91522387D01*
X124408613Y-91438511D01*
X124305886Y-91379201D01*
X124191309Y-91348500D01*
X124191306Y-91348500D01*
X124072691Y-91348500D01*
X123981728Y-91372873D01*
X123981723Y-91372874D01*
X123958114Y-91379201D01*
X123958112Y-91379201D01*
X123958112Y-91379202D01*
X123936947Y-91391421D01*
X123936939Y-91391425D01*
X123855386Y-91438511D01*
X123855378Y-91438517D01*
X123771517Y-91522378D01*
X123771513Y-91522383D01*
X123771511Y-91522387D01*
X123712201Y-91625114D01*
X123681500Y-91739691D01*
X106851500Y-91739691D01*
X106851500Y-90053507D01*
X107310500Y-90053507D01*
X107310500Y-90242491D01*
X107340058Y-90429112D01*
X107340059Y-90429118D01*
X107398454Y-90608836D01*
X107484240Y-90777199D01*
X107595310Y-90930073D01*
X107728927Y-91063690D01*
X107815229Y-91126393D01*
X107881796Y-91174757D01*
X107881797Y-91174757D01*
X107881801Y-91174760D01*
X107961347Y-91215290D01*
X108043722Y-91257263D01*
X108045320Y-91258199D01*
X108049037Y-91259999D01*
X108051021Y-91260985D01*
X108054775Y-91262043D01*
X108146497Y-91291846D01*
X108229881Y-91318940D01*
X108416514Y-91348500D01*
X108416519Y-91348500D01*
X108605485Y-91348500D01*
X108605486Y-91348500D01*
X108792118Y-91318940D01*
X108971832Y-91260547D01*
X109140199Y-91174760D01*
X109293073Y-91063690D01*
X109426690Y-90930073D01*
X109537760Y-90777199D01*
X109623547Y-90608832D01*
X109681940Y-90429118D01*
X109711500Y-90242486D01*
X109711500Y-90053513D01*
X109681940Y-89866881D01*
X109623545Y-89687163D01*
X109537759Y-89518800D01*
X109426690Y-89365927D01*
X109293073Y-89232310D01*
X109140199Y-89121240D01*
X108971836Y-89035454D01*
X108792118Y-88977059D01*
X108792112Y-88977058D01*
X108605491Y-88947500D01*
X108605486Y-88947500D01*
X108605481Y-88947500D01*
X108416519Y-88947500D01*
X108416514Y-88947500D01*
X108416509Y-88947500D01*
X108229886Y-88977058D01*
X108229884Y-88977058D01*
X108229881Y-88977059D01*
X108050163Y-89035454D01*
X107965981Y-89078347D01*
X107881799Y-89121240D01*
X107794579Y-89184610D01*
X107794578Y-89184610D01*
X107740794Y-89223686D01*
X107733419Y-89227816D01*
X107590816Y-89370419D01*
X107586686Y-89377794D01*
X107547610Y-89431578D01*
X107547610Y-89431579D01*
X107484240Y-89518799D01*
X107441347Y-89602981D01*
X107398454Y-89687163D01*
X107340059Y-89866881D01*
X107340058Y-89866884D01*
X107340058Y-89866886D01*
X107310500Y-90053507D01*
X106851500Y-90053507D01*
X106851500Y-89409771D01*
X106871185Y-89342732D01*
X106887819Y-89322090D01*
X108769631Y-87440279D01*
X108769632Y-87440278D01*
X108780742Y-87427910D01*
X108780761Y-87427889D01*
X108797395Y-87407247D01*
X108825516Y-87353488D01*
X108845201Y-87286449D01*
X108851500Y-87242638D01*
X108851500Y-86151691D01*
X145906500Y-86151691D01*
X145906500Y-86270309D01*
X145937201Y-86384886D01*
X145996511Y-86487613D01*
X146080387Y-86571489D01*
X146183114Y-86630799D01*
X146297691Y-86661500D01*
X146297694Y-86661500D01*
X146416306Y-86661500D01*
X146416309Y-86661500D01*
X146530886Y-86630799D01*
X146633613Y-86571489D01*
X146717489Y-86487613D01*
X146776799Y-86384886D01*
X146807500Y-86270309D01*
X146807500Y-86151691D01*
X146776799Y-86037114D01*
X146717489Y-85934387D01*
X146633613Y-85850511D01*
X146530886Y-85791201D01*
X146416309Y-85760500D01*
X146416306Y-85760500D01*
X146297691Y-85760500D01*
X146206728Y-85784873D01*
X146206723Y-85784874D01*
X146183114Y-85791201D01*
X146183112Y-85791201D01*
X146183112Y-85791202D01*
X146161947Y-85803421D01*
X146161939Y-85803425D01*
X146080386Y-85850511D01*
X146080378Y-85850517D01*
X145996517Y-85934378D01*
X145996513Y-85934383D01*
X145996507Y-85934392D01*
X145970400Y-85979612D01*
X145937201Y-86037113D01*
X145937201Y-86037114D01*
X145906500Y-86151691D01*
X108851500Y-86151691D01*
X108851500Y-85345362D01*
X108850609Y-85328739D01*
X108847775Y-85302381D01*
X108829645Y-85244481D01*
X108796160Y-85183158D01*
X108796158Y-85183155D01*
X108769642Y-85147733D01*
X108769626Y-85147715D01*
X108630602Y-85008691D01*
X148192500Y-85008691D01*
X148192500Y-85127309D01*
X148223201Y-85241886D01*
X148282511Y-85344613D01*
X148282513Y-85344615D01*
X148293574Y-85355676D01*
X148314723Y-85383927D01*
X148327331Y-85407016D01*
X148342500Y-85466445D01*
X148342500Y-98315563D01*
X148356150Y-98366509D01*
X148356151Y-98366509D01*
X148356152Y-98366513D01*
X148362979Y-98391990D01*
X148362980Y-98391991D01*
X148362981Y-98391995D01*
X148363003Y-98392048D01*
X148363489Y-98392873D01*
X148400689Y-98457307D01*
X148402074Y-98459882D01*
X148402458Y-98460429D01*
X148402540Y-98460511D01*
X171953489Y-122011460D01*
X172022012Y-122051022D01*
X172098438Y-122071500D01*
X172177562Y-122071500D01*
X182527206Y-122071500D01*
X182562138Y-122076521D01*
X182587382Y-122083934D01*
X182640128Y-122115230D01*
X182656387Y-122131489D01*
X182759114Y-122190799D01*
X182873691Y-122221500D01*
X182873694Y-122221500D01*
X182992306Y-122221500D01*
X182992309Y-122221500D01*
X183106886Y-122190799D01*
X183209613Y-122131489D01*
X183293489Y-122047613D01*
X183352799Y-121944886D01*
X183383500Y-121830309D01*
X183383500Y-121711691D01*
X183352799Y-121597114D01*
X183293489Y-121494387D01*
X183209613Y-121410511D01*
X183106886Y-121351201D01*
X182992309Y-121320500D01*
X182992307Y-121320500D01*
X182987735Y-121319275D01*
X182930414Y-121284336D01*
X182915675Y-121302189D01*
X182912145Y-121303800D01*
X182910710Y-121305380D01*
X182878265Y-121319274D01*
X182774882Y-121346976D01*
X182758267Y-121349163D01*
X182744974Y-121359364D01*
X182656386Y-121410511D01*
X182656383Y-121410513D01*
X182645326Y-121421570D01*
X182645325Y-121421572D01*
X182645322Y-121421574D01*
X182617071Y-121442724D01*
X182593984Y-121455331D01*
X182534555Y-121470500D01*
X172331663Y-121470500D01*
X172296727Y-121465477D01*
X172271485Y-121458065D01*
X172218740Y-121426769D01*
X171944759Y-121152788D01*
X171923610Y-121124538D01*
X171918188Y-121114608D01*
X171903335Y-121046338D01*
X171927749Y-120980873D01*
X171983679Y-120939001D01*
X171987558Y-120937554D01*
X171990894Y-120936311D01*
X172034208Y-120928500D01*
X182527207Y-120928500D01*
X182543315Y-120930815D01*
X182559442Y-120932763D01*
X182560802Y-120933129D01*
X182574476Y-120937144D01*
X182580935Y-120938549D01*
X182583839Y-120939331D01*
X182639197Y-120971336D01*
X182639278Y-120971380D01*
X182656387Y-120988489D01*
X182759114Y-121047799D01*
X182873691Y-121078500D01*
X182873696Y-121078500D01*
X182878264Y-121079724D01*
X182880873Y-121081314D01*
X182883927Y-121081387D01*
X182910514Y-121099381D01*
X182935584Y-121114662D01*
X182950325Y-121096810D01*
X182987735Y-121079725D01*
X182992307Y-121078500D01*
X182992309Y-121078500D01*
X183106886Y-121047799D01*
X183209613Y-120988489D01*
X183293489Y-120904613D01*
X183352799Y-120801886D01*
X183383500Y-120687309D01*
X183383500Y-120568691D01*
X183352799Y-120454114D01*
X183293489Y-120351387D01*
X183209613Y-120267511D01*
X183106886Y-120208201D01*
X183091118Y-120203976D01*
X183003502Y-120180499D01*
X183003501Y-120180499D01*
X182992309Y-120177500D01*
X182873691Y-120177500D01*
X182862499Y-120180499D01*
X182862497Y-120180499D01*
X182774882Y-120203976D01*
X182758267Y-120206163D01*
X182744974Y-120216364D01*
X182656386Y-120267511D01*
X182656383Y-120267513D01*
X182645326Y-120278570D01*
X182645325Y-120278572D01*
X182645322Y-120278574D01*
X182617071Y-120299724D01*
X182593984Y-120312331D01*
X182534555Y-120327500D01*
X171950663Y-120327500D01*
X171915727Y-120322477D01*
X171890485Y-120315065D01*
X171837740Y-120283769D01*
X170979662Y-119425691D01*
X182482500Y-119425691D01*
X182482500Y-119544309D01*
X182513201Y-119658886D01*
X182572511Y-119761613D01*
X182656387Y-119845489D01*
X182745348Y-119896851D01*
X182759110Y-119904797D01*
X182759114Y-119904799D01*
X182873691Y-119935500D01*
X182992309Y-119935500D01*
X183106886Y-119904799D01*
X183209613Y-119845489D01*
X183293489Y-119761613D01*
X183352799Y-119658886D01*
X183383500Y-119544309D01*
X183383500Y-119425691D01*
X183352799Y-119311114D01*
X183293489Y-119208387D01*
X183209613Y-119124511D01*
X183106886Y-119065201D01*
X182992309Y-119034500D01*
X182992306Y-119034500D01*
X182873691Y-119034500D01*
X182782728Y-119058873D01*
X182782723Y-119058874D01*
X182759114Y-119065201D01*
X182759112Y-119065201D01*
X182759112Y-119065202D01*
X182737947Y-119077421D01*
X182737939Y-119077425D01*
X182656386Y-119124511D01*
X182656378Y-119124517D01*
X182572517Y-119208378D01*
X182572513Y-119208383D01*
X182572511Y-119208387D01*
X182513201Y-119311114D01*
X182482500Y-119425691D01*
X170979662Y-119425691D01*
X158025662Y-106471691D01*
X159622500Y-106471691D01*
X159622500Y-106590309D01*
X159653201Y-106704886D01*
X159712511Y-106807613D01*
X159796387Y-106891489D01*
X159899114Y-106950799D01*
X160013691Y-106981500D01*
X160013694Y-106981500D01*
X160132306Y-106981500D01*
X160132309Y-106981500D01*
X160246886Y-106950799D01*
X160349613Y-106891489D01*
X160433489Y-106807613D01*
X160492799Y-106704886D01*
X160523500Y-106590309D01*
X160523500Y-106471691D01*
X160492799Y-106357114D01*
X160433489Y-106254387D01*
X160349613Y-106170511D01*
X160246886Y-106111201D01*
X160132309Y-106080500D01*
X160132306Y-106080500D01*
X160013691Y-106080500D01*
X159922728Y-106104873D01*
X159922723Y-106104874D01*
X159899114Y-106111201D01*
X159899112Y-106111201D01*
X159899112Y-106111202D01*
X159877947Y-106123421D01*
X159877939Y-106123425D01*
X159796386Y-106170511D01*
X159796378Y-106170517D01*
X159712517Y-106254378D01*
X159712513Y-106254383D01*
X159712507Y-106254392D01*
X159672057Y-106324454D01*
X159672056Y-106324456D01*
X159665215Y-106336306D01*
X159653201Y-106357114D01*
X159622500Y-106471691D01*
X158025662Y-106471691D01*
X151294662Y-99740691D01*
X165083500Y-99740691D01*
X165083500Y-99859309D01*
X165114201Y-99973886D01*
X165173511Y-100076613D01*
X165257387Y-100160489D01*
X165360114Y-100219799D01*
X165474691Y-100250500D01*
X165474694Y-100250500D01*
X165593306Y-100250500D01*
X165593309Y-100250500D01*
X165707886Y-100219799D01*
X165810613Y-100160489D01*
X165894489Y-100076613D01*
X165953799Y-99973886D01*
X165984500Y-99859309D01*
X165984500Y-99740691D01*
X165953799Y-99626114D01*
X165894489Y-99523387D01*
X165810613Y-99439511D01*
X165707886Y-99380201D01*
X165593309Y-99349500D01*
X165593306Y-99349500D01*
X165474691Y-99349500D01*
X165383728Y-99373873D01*
X165383723Y-99373874D01*
X165360114Y-99380201D01*
X165360112Y-99380201D01*
X165360112Y-99380202D01*
X165338947Y-99392421D01*
X165338939Y-99392425D01*
X165257386Y-99439511D01*
X165257378Y-99439517D01*
X165173517Y-99523378D01*
X165173513Y-99523383D01*
X165126850Y-99604206D01*
X165114201Y-99626114D01*
X165083500Y-99740691D01*
X151294662Y-99740691D01*
X151278426Y-99724455D01*
X151257274Y-99696199D01*
X151244667Y-99673110D01*
X151229500Y-99613685D01*
X151229500Y-96819691D01*
X163305500Y-96819691D01*
X163305500Y-96938309D01*
X163336201Y-97052886D01*
X163395511Y-97155613D01*
X163479387Y-97239489D01*
X163582114Y-97298799D01*
X163696691Y-97329500D01*
X163696694Y-97329500D01*
X163815306Y-97329500D01*
X163815309Y-97329500D01*
X163929886Y-97298799D01*
X164032613Y-97239489D01*
X164116489Y-97155613D01*
X164175799Y-97052886D01*
X164206500Y-96938309D01*
X164206500Y-96819691D01*
X164175799Y-96705114D01*
X164116489Y-96602387D01*
X164032613Y-96518511D01*
X163929886Y-96459201D01*
X163815309Y-96428500D01*
X163815306Y-96428500D01*
X163696691Y-96428500D01*
X163605728Y-96452873D01*
X163605723Y-96452874D01*
X163582114Y-96459201D01*
X163582112Y-96459201D01*
X163582112Y-96459202D01*
X163560947Y-96471421D01*
X163560939Y-96471425D01*
X163479386Y-96518511D01*
X163479378Y-96518517D01*
X163395517Y-96602378D01*
X163395513Y-96602383D01*
X163395511Y-96602387D01*
X163336201Y-96705114D01*
X163305500Y-96819691D01*
X151229500Y-96819691D01*
X151229500Y-92120691D01*
X163305500Y-92120691D01*
X163305500Y-92239309D01*
X163336201Y-92353886D01*
X163395511Y-92456613D01*
X163479387Y-92540489D01*
X163582114Y-92599799D01*
X163696691Y-92630500D01*
X163696694Y-92630500D01*
X163815306Y-92630500D01*
X163815309Y-92630500D01*
X163929886Y-92599799D01*
X164032613Y-92540489D01*
X164116489Y-92456613D01*
X164175799Y-92353886D01*
X164206500Y-92239309D01*
X164206500Y-92120691D01*
X164175799Y-92006114D01*
X164116489Y-91903387D01*
X164032613Y-91819511D01*
X163929886Y-91760201D01*
X163815309Y-91729500D01*
X163815306Y-91729500D01*
X163696691Y-91729500D01*
X163605728Y-91753873D01*
X163605723Y-91753874D01*
X163582114Y-91760201D01*
X163582112Y-91760201D01*
X163582112Y-91760202D01*
X163560947Y-91772421D01*
X163560939Y-91772425D01*
X163479386Y-91819511D01*
X163479378Y-91819517D01*
X163395517Y-91903378D01*
X163395513Y-91903383D01*
X163395511Y-91903387D01*
X163336201Y-92006114D01*
X163305500Y-92120691D01*
X151229500Y-92120691D01*
X151229500Y-86905305D01*
X163305499Y-86905305D01*
X163305500Y-86905308D01*
X163305500Y-86905309D01*
X163336201Y-87019886D01*
X163395511Y-87122613D01*
X163479387Y-87206489D01*
X163582114Y-87265799D01*
X163696691Y-87296500D01*
X163696694Y-87296500D01*
X163815306Y-87296500D01*
X163815309Y-87296500D01*
X163929886Y-87265799D01*
X164032613Y-87206489D01*
X164116489Y-87122613D01*
X164175799Y-87019886D01*
X164206500Y-86905309D01*
X164206500Y-86786691D01*
X164175799Y-86672114D01*
X164163785Y-86651305D01*
X166099499Y-86651305D01*
X166099500Y-86651308D01*
X166099500Y-86651309D01*
X166130201Y-86765886D01*
X166189511Y-86868613D01*
X166273387Y-86952489D01*
X166376114Y-87011799D01*
X166490691Y-87042500D01*
X166490694Y-87042500D01*
X166609306Y-87042500D01*
X166609309Y-87042500D01*
X166616060Y-87040691D01*
X174227500Y-87040691D01*
X174227500Y-87159309D01*
X174258201Y-87273886D01*
X174317511Y-87376613D01*
X174401387Y-87460489D01*
X174504114Y-87519799D01*
X174618691Y-87550500D01*
X174618694Y-87550500D01*
X174737306Y-87550500D01*
X174737309Y-87550500D01*
X174851886Y-87519799D01*
X174954613Y-87460489D01*
X175038489Y-87376613D01*
X175097799Y-87273886D01*
X175128500Y-87159309D01*
X175128500Y-87040691D01*
X175097799Y-86926114D01*
X175038489Y-86823387D01*
X174954613Y-86739511D01*
X174851886Y-86680201D01*
X174737309Y-86649500D01*
X174737306Y-86649500D01*
X174618691Y-86649500D01*
X174527728Y-86673873D01*
X174527723Y-86673874D01*
X174504114Y-86680201D01*
X174504112Y-86680201D01*
X174504112Y-86680202D01*
X174482947Y-86692421D01*
X174482939Y-86692425D01*
X174401386Y-86739511D01*
X174401378Y-86739517D01*
X174317517Y-86823378D01*
X174317513Y-86823383D01*
X174317507Y-86823392D01*
X174277057Y-86893454D01*
X174277056Y-86893456D01*
X174270215Y-86905306D01*
X174258201Y-86926114D01*
X174227500Y-87040691D01*
X166616060Y-87040691D01*
X166723886Y-87011799D01*
X166826613Y-86952489D01*
X166910489Y-86868613D01*
X166969799Y-86765886D01*
X167000500Y-86651309D01*
X167000500Y-86532691D01*
X166969799Y-86418114D01*
X166910489Y-86315387D01*
X166826613Y-86231511D01*
X166723886Y-86172201D01*
X166609309Y-86141500D01*
X166609306Y-86141500D01*
X166490691Y-86141500D01*
X166399728Y-86165873D01*
X166399723Y-86165874D01*
X166376114Y-86172201D01*
X166376112Y-86172201D01*
X166376112Y-86172202D01*
X166354947Y-86184421D01*
X166354939Y-86184425D01*
X166273386Y-86231511D01*
X166273378Y-86231517D01*
X166189517Y-86315378D01*
X166189513Y-86315383D01*
X166189511Y-86315387D01*
X166130201Y-86418114D01*
X166099500Y-86532691D01*
X166099500Y-86532693D01*
X166099500Y-86651304D01*
X166099499Y-86651305D01*
X164163785Y-86651305D01*
X164116489Y-86569387D01*
X164032613Y-86485511D01*
X163929886Y-86426201D01*
X163815309Y-86395500D01*
X163815306Y-86395500D01*
X163696691Y-86395500D01*
X163605728Y-86419873D01*
X163605723Y-86419874D01*
X163582114Y-86426201D01*
X163582112Y-86426201D01*
X163582112Y-86426202D01*
X163560947Y-86438421D01*
X163560939Y-86438425D01*
X163479386Y-86485511D01*
X163479378Y-86485517D01*
X163395517Y-86569378D01*
X163395513Y-86569383D01*
X163395507Y-86569392D01*
X163355057Y-86639454D01*
X163355056Y-86639456D01*
X163348215Y-86651306D01*
X163336201Y-86672114D01*
X163305500Y-86786691D01*
X163305500Y-86797543D01*
X163305500Y-86905304D01*
X163305499Y-86905305D01*
X151229500Y-86905305D01*
X151229500Y-85643691D01*
X190229500Y-85643691D01*
X190229500Y-85762309D01*
X190260201Y-85876886D01*
X190319511Y-85979613D01*
X190403387Y-86063489D01*
X190506114Y-86122799D01*
X190620691Y-86153500D01*
X190620694Y-86153500D01*
X190739306Y-86153500D01*
X190739309Y-86153500D01*
X190853886Y-86122799D01*
X190956613Y-86063489D01*
X191040489Y-85979613D01*
X191099799Y-85876886D01*
X191130500Y-85762309D01*
X191130500Y-85643691D01*
X191099799Y-85529114D01*
X191040489Y-85426387D01*
X190956613Y-85342511D01*
X190853886Y-85283201D01*
X190739309Y-85252500D01*
X190739306Y-85252500D01*
X190620691Y-85252500D01*
X190529728Y-85276873D01*
X190529723Y-85276874D01*
X190506114Y-85283201D01*
X190506112Y-85283201D01*
X190506112Y-85283202D01*
X190484947Y-85295421D01*
X190484939Y-85295425D01*
X190403386Y-85342511D01*
X190403378Y-85342517D01*
X190319517Y-85426378D01*
X190319513Y-85426383D01*
X190319509Y-85426389D01*
X190319507Y-85426391D01*
X190286095Y-85484264D01*
X190286093Y-85484267D01*
X190279734Y-85495283D01*
X190260201Y-85529114D01*
X190229500Y-85643691D01*
X151229500Y-85643691D01*
X151229500Y-85600793D01*
X151234522Y-85565860D01*
X151241934Y-85540615D01*
X151273230Y-85487871D01*
X151289489Y-85471613D01*
X151348799Y-85368886D01*
X151379500Y-85254309D01*
X151379500Y-85135691D01*
X151348799Y-85021114D01*
X151289489Y-84918387D01*
X151205613Y-84834511D01*
X151102886Y-84775201D01*
X150988309Y-84744500D01*
X150988306Y-84744500D01*
X150869691Y-84744500D01*
X150778728Y-84768873D01*
X150778723Y-84768874D01*
X150755114Y-84775201D01*
X150755112Y-84775201D01*
X150755112Y-84775202D01*
X150733947Y-84787421D01*
X150733939Y-84787425D01*
X150652386Y-84834511D01*
X150652378Y-84834517D01*
X150568517Y-84918378D01*
X150568513Y-84918383D01*
X150533054Y-84979799D01*
X150509201Y-85021114D01*
X150478500Y-85135691D01*
X150478500Y-85254309D01*
X150509201Y-85368886D01*
X150568511Y-85471613D01*
X150568513Y-85471615D01*
X150579574Y-85482676D01*
X150600723Y-85510927D01*
X150613331Y-85534016D01*
X150628500Y-85593445D01*
X150628500Y-99519337D01*
X150623476Y-99554275D01*
X150620289Y-99565128D01*
X150582514Y-99623905D01*
X150518957Y-99652928D01*
X150449807Y-99642987D01*
X150442829Y-99639800D01*
X150406657Y-99614686D01*
X148992426Y-98200455D01*
X148992421Y-98200450D01*
X148971274Y-98172199D01*
X148958667Y-98149110D01*
X148943500Y-98089685D01*
X148943500Y-85473793D01*
X148948522Y-85438860D01*
X148955934Y-85413615D01*
X148987230Y-85360871D01*
X149003489Y-85344613D01*
X149062799Y-85241886D01*
X149093500Y-85127309D01*
X149093500Y-85008691D01*
X149062799Y-84894114D01*
X149003489Y-84791387D01*
X148919613Y-84707511D01*
X148816886Y-84648201D01*
X148702309Y-84617500D01*
X148702306Y-84617500D01*
X148583691Y-84617500D01*
X148492728Y-84641873D01*
X148492723Y-84641874D01*
X148469114Y-84648201D01*
X148469112Y-84648201D01*
X148469112Y-84648202D01*
X148447947Y-84660421D01*
X148447939Y-84660425D01*
X148366386Y-84707511D01*
X148366378Y-84707517D01*
X148282517Y-84791378D01*
X148282513Y-84791383D01*
X148282507Y-84791392D01*
X148256400Y-84836612D01*
X148223201Y-84894113D01*
X148223201Y-84894114D01*
X148192500Y-85008691D01*
X108630602Y-85008691D01*
X107887819Y-84265908D01*
X107854334Y-84204585D01*
X107851500Y-84178227D01*
X107851500Y-82575622D01*
X108490237Y-82575622D01*
X108520494Y-82727726D01*
X108520495Y-82727732D01*
X108520502Y-82727753D01*
X108569529Y-82846118D01*
X108569534Y-82846128D01*
X108640723Y-82952669D01*
X108640726Y-82952672D01*
X108731327Y-83043273D01*
X108731334Y-83043278D01*
X108741386Y-83049995D01*
X108767638Y-83073577D01*
X108773120Y-83080137D01*
X108776540Y-83084229D01*
X108804424Y-83148294D01*
X108793248Y-83217258D01*
X108790987Y-83221984D01*
X108748022Y-83271569D01*
X108731364Y-83282699D01*
X108731328Y-83282725D01*
X108640724Y-83373328D01*
X108569534Y-83479870D01*
X108569529Y-83479880D01*
X108520502Y-83598245D01*
X108520495Y-83598265D01*
X108520493Y-83598273D01*
X108495500Y-83723923D01*
X108495500Y-83807702D01*
X108490237Y-83825622D01*
X108520494Y-83977726D01*
X108520495Y-83977732D01*
X108520502Y-83977753D01*
X108569529Y-84096118D01*
X108569534Y-84096128D01*
X108640724Y-84202670D01*
X108640725Y-84202671D01*
X108640730Y-84202677D01*
X108731321Y-84293268D01*
X108731327Y-84293273D01*
X108731331Y-84293276D01*
X108837866Y-84364461D01*
X108837872Y-84364464D01*
X108837873Y-84364465D01*
X108951362Y-84411473D01*
X108951947Y-84411724D01*
X108952141Y-84411884D01*
X108955053Y-84413261D01*
X108956252Y-84413499D01*
X108956256Y-84413501D01*
X108956259Y-84413501D01*
X108956260Y-84413501D01*
X108956261Y-84413502D01*
X109053899Y-84432924D01*
X109081927Y-84438500D01*
X109210071Y-84438500D01*
X109210073Y-84438500D01*
X109294615Y-84421682D01*
X109335744Y-84413501D01*
X109431854Y-84373691D01*
X157590500Y-84373691D01*
X157590500Y-84492309D01*
X157621201Y-84606886D01*
X157680511Y-84709613D01*
X157764387Y-84793489D01*
X157867114Y-84852799D01*
X157981691Y-84883500D01*
X157981694Y-84883500D01*
X158100306Y-84883500D01*
X158100309Y-84883500D01*
X158214886Y-84852799D01*
X158317613Y-84793489D01*
X158401489Y-84709613D01*
X158460799Y-84606886D01*
X158491500Y-84492309D01*
X158491500Y-84373691D01*
X158460799Y-84259114D01*
X158401489Y-84156387D01*
X158317613Y-84072511D01*
X158214886Y-84013201D01*
X158100309Y-83982500D01*
X158100306Y-83982500D01*
X157981691Y-83982500D01*
X157890728Y-84006873D01*
X157890723Y-84006874D01*
X157867114Y-84013201D01*
X157867112Y-84013201D01*
X157867112Y-84013202D01*
X157845947Y-84025421D01*
X157845939Y-84025425D01*
X157764386Y-84072511D01*
X157764378Y-84072517D01*
X157680517Y-84156378D01*
X157680513Y-84156383D01*
X157680509Y-84156389D01*
X157680507Y-84156391D01*
X157635169Y-84234920D01*
X157635168Y-84234923D01*
X157627942Y-84247439D01*
X157621201Y-84259114D01*
X157590500Y-84373691D01*
X109431854Y-84373691D01*
X109454127Y-84364465D01*
X109560669Y-84293276D01*
X109564687Y-84289258D01*
X109576063Y-84277883D01*
X109651273Y-84202672D01*
X109651276Y-84202669D01*
X109722465Y-84096127D01*
X109771501Y-83977744D01*
X109795458Y-83857309D01*
X109795459Y-83857305D01*
X181466499Y-83857305D01*
X181466500Y-83857308D01*
X181466500Y-83857309D01*
X181497201Y-83971886D01*
X181556511Y-84074613D01*
X181640387Y-84158489D01*
X181743114Y-84217799D01*
X181857691Y-84248500D01*
X181857694Y-84248500D01*
X181977503Y-84248500D01*
X181980445Y-84248535D01*
X181984521Y-84248631D01*
X181984522Y-84248632D01*
X182008218Y-84249194D01*
X182074770Y-84270463D01*
X182119260Y-84324338D01*
X182119273Y-84324368D01*
X182119912Y-84325861D01*
X182129599Y-84383487D01*
X182129242Y-84388485D01*
X182125354Y-84411660D01*
X182124884Y-84413419D01*
X182124862Y-84413502D01*
X182101500Y-84500691D01*
X182101500Y-84619309D01*
X182132201Y-84733886D01*
X182191511Y-84836613D01*
X182275387Y-84920489D01*
X182378114Y-84979799D01*
X182492691Y-85010500D01*
X182492694Y-85010500D01*
X182611306Y-85010500D01*
X182611309Y-85010500D01*
X182725886Y-84979799D01*
X182828613Y-84920489D01*
X182889683Y-84859418D01*
X182917928Y-84838275D01*
X182941020Y-84825667D01*
X183000445Y-84810500D01*
X183366206Y-84810500D01*
X183401138Y-84815521D01*
X183426382Y-84822934D01*
X183479128Y-84854230D01*
X183545387Y-84920489D01*
X183648114Y-84979799D01*
X183762691Y-85010500D01*
X183762694Y-85010500D01*
X183881306Y-85010500D01*
X183881309Y-85010500D01*
X183995886Y-84979799D01*
X184098613Y-84920489D01*
X184182489Y-84836613D01*
X184241799Y-84733886D01*
X184272500Y-84619309D01*
X184272500Y-84500691D01*
X184241799Y-84386114D01*
X184182489Y-84283387D01*
X184178390Y-84279288D01*
X184177339Y-84277885D01*
X184157238Y-84251032D01*
X184149746Y-84237311D01*
X184134894Y-84169051D01*
X184135023Y-84167242D01*
X184154389Y-84109047D01*
X184158582Y-84102523D01*
X184175202Y-84081899D01*
X184182489Y-84074613D01*
X184241799Y-83971886D01*
X184272500Y-83857309D01*
X184272500Y-83738691D01*
X184241799Y-83624114D01*
X184182489Y-83521387D01*
X184098613Y-83437511D01*
X183995886Y-83378201D01*
X183881309Y-83347500D01*
X183881306Y-83347500D01*
X183762691Y-83347500D01*
X183671728Y-83371873D01*
X183671723Y-83371874D01*
X183648114Y-83378201D01*
X183648112Y-83378201D01*
X183648112Y-83378202D01*
X183626947Y-83390421D01*
X183626939Y-83390425D01*
X183545387Y-83437510D01*
X183484321Y-83498576D01*
X183460655Y-83516292D01*
X183456069Y-83519725D01*
X183432984Y-83532331D01*
X183373555Y-83547500D01*
X182372794Y-83547500D01*
X182337858Y-83542477D01*
X182312616Y-83535065D01*
X182259871Y-83503769D01*
X182193615Y-83437513D01*
X182193613Y-83437511D01*
X182090886Y-83378201D01*
X181976309Y-83347500D01*
X181976306Y-83347500D01*
X181857691Y-83347500D01*
X181766728Y-83371873D01*
X181766723Y-83371874D01*
X181743114Y-83378201D01*
X181743112Y-83378201D01*
X181743112Y-83378202D01*
X181721947Y-83390421D01*
X181721939Y-83390425D01*
X181640386Y-83437511D01*
X181640378Y-83437517D01*
X181556517Y-83521378D01*
X181556513Y-83521383D01*
X181556511Y-83521385D01*
X181526630Y-83573142D01*
X181519324Y-83585797D01*
X181497201Y-83624114D01*
X181466500Y-83738691D01*
X181466500Y-83750830D01*
X181466500Y-83857305D01*
X181466499Y-83857305D01*
X109795459Y-83857305D01*
X109796500Y-83852071D01*
X109796500Y-83723928D01*
X109796500Y-83723925D01*
X109771295Y-83597220D01*
X109769724Y-83593947D01*
X109769473Y-83593362D01*
X109722465Y-83479873D01*
X109722464Y-83479872D01*
X109722461Y-83479866D01*
X109651276Y-83373331D01*
X109651273Y-83373327D01*
X109651268Y-83373321D01*
X109560674Y-83282727D01*
X109550610Y-83276002D01*
X109525033Y-83253220D01*
X109524661Y-83252782D01*
X109519102Y-83246131D01*
X109518714Y-83245787D01*
X109515673Y-83242210D01*
X109503069Y-83213909D01*
X109488613Y-83186503D01*
X109488977Y-83182266D01*
X109487248Y-83178383D01*
X109491946Y-83147757D01*
X109493929Y-83124701D01*
X109492146Y-83124157D01*
X109492694Y-83122363D01*
X109494347Y-83119850D01*
X109494602Y-83116890D01*
X109494630Y-83116818D01*
X109495220Y-83115306D01*
X109496828Y-83115933D01*
X109497843Y-83109322D01*
X109500166Y-83106691D01*
X172062483Y-83106691D01*
X172062483Y-83225309D01*
X172093184Y-83339886D01*
X172152494Y-83442613D01*
X172236370Y-83526489D01*
X172339097Y-83585799D01*
X172453674Y-83616500D01*
X172453677Y-83616500D01*
X172572289Y-83616500D01*
X172572292Y-83616500D01*
X172686869Y-83585799D01*
X172789596Y-83526489D01*
X172873472Y-83442613D01*
X172932782Y-83339886D01*
X172963483Y-83225309D01*
X172963483Y-83106691D01*
X172932782Y-82992114D01*
X172873472Y-82889387D01*
X172789596Y-82805511D01*
X172686869Y-82746201D01*
X172572292Y-82715500D01*
X172572289Y-82715500D01*
X172453674Y-82715500D01*
X172362711Y-82739873D01*
X172362706Y-82739874D01*
X172339097Y-82746201D01*
X172339095Y-82746201D01*
X172339095Y-82746202D01*
X172317930Y-82758421D01*
X172317922Y-82758425D01*
X172236369Y-82805511D01*
X172236361Y-82805517D01*
X172152500Y-82889378D01*
X172152496Y-82889383D01*
X172152494Y-82889387D01*
X172093184Y-82992114D01*
X172062483Y-83106691D01*
X109500166Y-83106691D01*
X109511319Y-83094062D01*
X109531105Y-83063999D01*
X109542384Y-83055493D01*
X109560669Y-83043276D01*
X109560672Y-83043273D01*
X109593063Y-83010883D01*
X109651273Y-82952672D01*
X109651275Y-82952670D01*
X109651276Y-82952669D01*
X109722465Y-82846127D01*
X109771501Y-82727744D01*
X109796500Y-82602069D01*
X109796500Y-82473931D01*
X109796500Y-82473928D01*
X109796500Y-82473925D01*
X109771295Y-82347220D01*
X109769724Y-82343947D01*
X109769473Y-82343362D01*
X109722465Y-82229873D01*
X109722464Y-82229872D01*
X109722461Y-82229866D01*
X109651276Y-82123331D01*
X109651273Y-82123327D01*
X109651268Y-82123321D01*
X109560677Y-82032730D01*
X109560671Y-82032725D01*
X109560670Y-82032724D01*
X109454127Y-81961534D01*
X109454128Y-81961534D01*
X109454118Y-81961529D01*
X109335753Y-81912502D01*
X109335733Y-81912495D01*
X109335725Y-81912493D01*
X109210074Y-81887500D01*
X109210071Y-81887500D01*
X109210069Y-81887500D01*
X109081931Y-81887500D01*
X109081929Y-81887500D01*
X109081926Y-81887500D01*
X108956273Y-81912493D01*
X108956265Y-81912495D01*
X108956245Y-81912502D01*
X108837880Y-81961529D01*
X108837870Y-81961534D01*
X108731328Y-82032724D01*
X108731327Y-82032725D01*
X108731321Y-82032730D01*
X108640730Y-82123321D01*
X108640725Y-82123327D01*
X108640724Y-82123328D01*
X108569534Y-82229870D01*
X108569529Y-82229880D01*
X108520502Y-82348245D01*
X108520495Y-82348265D01*
X108520493Y-82348273D01*
X108495500Y-82473923D01*
X108495500Y-82557702D01*
X108490237Y-82575622D01*
X107851500Y-82575622D01*
X107851500Y-82109771D01*
X107871185Y-82042732D01*
X107887819Y-82022090D01*
X108330219Y-81579691D01*
X148192500Y-81579691D01*
X148192500Y-81698309D01*
X148223201Y-81812886D01*
X148282511Y-81915613D01*
X148366387Y-81999489D01*
X148469114Y-82058799D01*
X148583691Y-82089500D01*
X148583694Y-82089500D01*
X148702306Y-82089500D01*
X148702309Y-82089500D01*
X148816886Y-82058799D01*
X148919613Y-81999489D01*
X149003489Y-81915613D01*
X149062799Y-81812886D01*
X149093500Y-81698309D01*
X149093500Y-81579691D01*
X150478500Y-81579691D01*
X150478500Y-81698309D01*
X150509201Y-81812886D01*
X150568511Y-81915613D01*
X150652387Y-81999489D01*
X150755114Y-82058799D01*
X150869691Y-82089500D01*
X150869694Y-82089500D01*
X150988306Y-82089500D01*
X150988309Y-82089500D01*
X151102886Y-82058799D01*
X151205613Y-81999489D01*
X151289489Y-81915613D01*
X151348799Y-81812886D01*
X151379500Y-81698309D01*
X151379500Y-81579691D01*
X151348799Y-81465114D01*
X151289489Y-81362387D01*
X151205613Y-81278511D01*
X151102886Y-81219201D01*
X150988309Y-81188500D01*
X150988306Y-81188500D01*
X150869691Y-81188500D01*
X150778728Y-81212873D01*
X150778723Y-81212874D01*
X150755114Y-81219201D01*
X150755112Y-81219201D01*
X150755112Y-81219202D01*
X150733947Y-81231421D01*
X150733939Y-81231425D01*
X150652386Y-81278511D01*
X150652378Y-81278517D01*
X150568517Y-81362378D01*
X150568513Y-81362383D01*
X150568511Y-81362387D01*
X150509201Y-81465114D01*
X150478500Y-81579691D01*
X149093500Y-81579691D01*
X149062799Y-81465114D01*
X149003489Y-81362387D01*
X148919613Y-81278511D01*
X148816886Y-81219201D01*
X148702309Y-81188500D01*
X148702306Y-81188500D01*
X148583691Y-81188500D01*
X148492728Y-81212873D01*
X148492723Y-81212874D01*
X148469114Y-81219201D01*
X148469112Y-81219201D01*
X148469112Y-81219202D01*
X148447947Y-81231421D01*
X148447939Y-81231425D01*
X148366386Y-81278511D01*
X148366378Y-81278517D01*
X148282517Y-81362378D01*
X148282513Y-81362383D01*
X148282511Y-81362387D01*
X148223201Y-81465114D01*
X148192500Y-81579691D01*
X108330219Y-81579691D01*
X108426027Y-81483883D01*
X108769632Y-81140278D01*
X108780742Y-81127910D01*
X108780761Y-81127889D01*
X108797395Y-81107247D01*
X108825516Y-81053488D01*
X108827787Y-81045756D01*
X108833408Y-81026612D01*
X108845201Y-80986449D01*
X108851500Y-80942638D01*
X108851500Y-79928691D01*
X155812500Y-79928691D01*
X155812500Y-80047309D01*
X155843201Y-80161886D01*
X155902511Y-80264613D01*
X155902513Y-80264615D01*
X155913574Y-80275676D01*
X155934723Y-80303927D01*
X155946596Y-80325671D01*
X155947331Y-80327016D01*
X155962500Y-80386445D01*
X155962500Y-80852206D01*
X155957476Y-80887143D01*
X155950064Y-80912384D01*
X155918769Y-80965128D01*
X155902513Y-80981383D01*
X155902507Y-80981392D01*
X155876400Y-81026612D01*
X155843201Y-81084113D01*
X155843201Y-81084114D01*
X155812500Y-81198691D01*
X155812500Y-81317309D01*
X155843201Y-81431886D01*
X155902511Y-81534613D01*
X155986387Y-81618489D01*
X156089114Y-81677799D01*
X156203691Y-81708500D01*
X156203694Y-81708500D01*
X156322306Y-81708500D01*
X156322309Y-81708500D01*
X156436886Y-81677799D01*
X156539613Y-81618489D01*
X156607217Y-81550884D01*
X156635464Y-81529739D01*
X156649188Y-81522245D01*
X156717446Y-81507394D01*
X156719256Y-81507523D01*
X156777453Y-81526889D01*
X156783971Y-81531078D01*
X156804606Y-81547708D01*
X156875387Y-81618489D01*
X156978114Y-81677799D01*
X157092691Y-81708500D01*
X157092694Y-81708500D01*
X157211306Y-81708500D01*
X157211309Y-81708500D01*
X157325886Y-81677799D01*
X157428613Y-81618489D01*
X157512489Y-81534613D01*
X157571799Y-81431886D01*
X157602500Y-81317309D01*
X157602500Y-81198691D01*
X157571799Y-81084114D01*
X157512489Y-80981387D01*
X157501421Y-80970319D01*
X157480274Y-80942068D01*
X157467667Y-80918979D01*
X157452500Y-80859554D01*
X157452500Y-79758793D01*
X157457522Y-79723860D01*
X157464934Y-79698615D01*
X157496245Y-79645856D01*
X157498581Y-79643521D01*
X157512489Y-79629613D01*
X157571799Y-79526886D01*
X157602500Y-79412309D01*
X157602500Y-79293691D01*
X157571799Y-79179114D01*
X157512489Y-79076387D01*
X157428613Y-78992511D01*
X157325886Y-78933201D01*
X157211309Y-78902500D01*
X157211306Y-78902500D01*
X157092691Y-78902500D01*
X157001728Y-78926873D01*
X157001723Y-78926874D01*
X156978114Y-78933201D01*
X156978112Y-78933201D01*
X156978112Y-78933202D01*
X156956947Y-78945421D01*
X156956939Y-78945425D01*
X156875386Y-78992511D01*
X156875378Y-78992517D01*
X156791517Y-79076378D01*
X156791513Y-79076383D01*
X156738329Y-79168500D01*
X156732201Y-79179114D01*
X156701500Y-79293691D01*
X156701500Y-79293693D01*
X156701500Y-79412309D01*
X156717248Y-79471084D01*
X156721438Y-79506125D01*
X156721169Y-79517432D01*
X156699895Y-79583985D01*
X156646018Y-79628471D01*
X156576643Y-79636766D01*
X156576640Y-79636766D01*
X156569074Y-79635493D01*
X156527641Y-79620598D01*
X156436889Y-79568202D01*
X156436890Y-79568202D01*
X156417606Y-79563035D01*
X156322309Y-79537500D01*
X156322306Y-79537500D01*
X156203691Y-79537500D01*
X156112728Y-79561873D01*
X156112723Y-79561874D01*
X156089114Y-79568201D01*
X156089112Y-79568201D01*
X156089112Y-79568202D01*
X156067947Y-79580421D01*
X156067939Y-79580425D01*
X155986386Y-79627511D01*
X155986378Y-79627517D01*
X155902517Y-79711378D01*
X155902513Y-79711383D01*
X155846273Y-79808793D01*
X155843201Y-79814114D01*
X155812500Y-79928691D01*
X108851500Y-79928691D01*
X108851500Y-78745362D01*
X108850609Y-78728739D01*
X108848528Y-78709389D01*
X108847775Y-78702380D01*
X108847774Y-78702378D01*
X108846243Y-78697488D01*
X108829645Y-78644481D01*
X108828575Y-78642522D01*
X108796163Y-78583163D01*
X108796158Y-78583155D01*
X108769642Y-78547733D01*
X108769626Y-78547715D01*
X107887819Y-77665908D01*
X107854334Y-77604585D01*
X107851500Y-77578227D01*
X107851500Y-75971622D01*
X108490237Y-75971622D01*
X108520494Y-76123726D01*
X108520495Y-76123732D01*
X108520502Y-76123753D01*
X108569529Y-76242118D01*
X108569534Y-76242128D01*
X108640723Y-76348669D01*
X108640726Y-76348672D01*
X108731327Y-76439273D01*
X108731334Y-76439278D01*
X108741387Y-76445995D01*
X108749648Y-76453417D01*
X108767638Y-76469577D01*
X108773120Y-76476137D01*
X108776540Y-76480229D01*
X108804424Y-76544294D01*
X108793248Y-76613258D01*
X108790987Y-76617984D01*
X108748022Y-76667569D01*
X108731364Y-76678699D01*
X108731328Y-76678725D01*
X108640724Y-76769328D01*
X108569534Y-76875870D01*
X108569529Y-76875880D01*
X108520502Y-76994245D01*
X108520495Y-76994265D01*
X108520493Y-76994273D01*
X108495500Y-77119923D01*
X108495500Y-77203702D01*
X108490237Y-77221622D01*
X108520494Y-77373726D01*
X108520495Y-77373732D01*
X108520502Y-77373753D01*
X108569529Y-77492118D01*
X108569534Y-77492128D01*
X108640724Y-77598670D01*
X108640725Y-77598671D01*
X108640730Y-77598677D01*
X108731321Y-77689268D01*
X108731327Y-77689273D01*
X108731331Y-77689276D01*
X108837866Y-77760461D01*
X108837872Y-77760464D01*
X108837873Y-77760465D01*
X108951362Y-77807473D01*
X108951947Y-77807724D01*
X108952141Y-77807884D01*
X108955053Y-77809261D01*
X108956252Y-77809499D01*
X108956256Y-77809501D01*
X108956259Y-77809501D01*
X108956260Y-77809501D01*
X108956261Y-77809502D01*
X109053899Y-77828924D01*
X109081927Y-77834500D01*
X109210071Y-77834500D01*
X109210073Y-77834500D01*
X109294615Y-77817682D01*
X109335744Y-77809501D01*
X109454127Y-77760465D01*
X109560669Y-77689276D01*
X109651276Y-77598669D01*
X109680840Y-77554422D01*
X109704415Y-77528179D01*
X109720520Y-77514719D01*
X109774761Y-77488473D01*
X109781342Y-77487103D01*
X109806614Y-77484500D01*
X114656560Y-77484500D01*
X114656562Y-77484500D01*
X114732989Y-77464021D01*
X114801511Y-77424460D01*
X114857460Y-77368511D01*
X119663280Y-72562691D01*
X140318500Y-72562691D01*
X140318500Y-72681309D01*
X140349201Y-72795886D01*
X140408511Y-72898613D01*
X140492387Y-72982489D01*
X140595114Y-73041799D01*
X140709691Y-73072500D01*
X140709694Y-73072500D01*
X140828306Y-73072500D01*
X140828309Y-73072500D01*
X140942886Y-73041799D01*
X141045613Y-72982489D01*
X141129489Y-72898613D01*
X141188799Y-72795886D01*
X141219500Y-72681309D01*
X141219500Y-72562691D01*
X141188799Y-72448114D01*
X141129489Y-72345387D01*
X141045613Y-72261511D01*
X140942886Y-72202201D01*
X140828309Y-72171500D01*
X140828306Y-72171500D01*
X140709691Y-72171500D01*
X140618728Y-72195873D01*
X140618723Y-72195874D01*
X140595114Y-72202201D01*
X140595112Y-72202201D01*
X140595112Y-72202202D01*
X140573947Y-72214421D01*
X140573939Y-72214425D01*
X140492386Y-72261511D01*
X140492378Y-72261517D01*
X140408517Y-72345378D01*
X140408513Y-72345383D01*
X140408511Y-72345387D01*
X140349201Y-72448114D01*
X140318500Y-72562691D01*
X119663280Y-72562691D01*
X121060280Y-71165691D01*
X140191500Y-71165691D01*
X140191500Y-71284309D01*
X140222201Y-71398886D01*
X140281511Y-71501613D01*
X140365387Y-71585489D01*
X140468114Y-71644799D01*
X140582691Y-71675500D01*
X140582694Y-71675500D01*
X140701306Y-71675500D01*
X140701309Y-71675500D01*
X140815886Y-71644799D01*
X140918613Y-71585489D01*
X141002489Y-71501613D01*
X141061799Y-71398886D01*
X141092500Y-71284309D01*
X141092500Y-71165691D01*
X141061799Y-71051114D01*
X141002489Y-70948387D01*
X140918613Y-70864511D01*
X140815886Y-70805201D01*
X140701309Y-70774500D01*
X140701306Y-70774500D01*
X140582691Y-70774500D01*
X140491728Y-70798873D01*
X140491723Y-70798874D01*
X140468114Y-70805201D01*
X140468112Y-70805201D01*
X140468112Y-70805202D01*
X140446947Y-70817421D01*
X140446939Y-70817425D01*
X140365386Y-70864511D01*
X140365378Y-70864517D01*
X140281517Y-70948378D01*
X140281513Y-70948383D01*
X140281511Y-70948387D01*
X140222201Y-71051114D01*
X140191500Y-71165691D01*
X121060280Y-71165691D01*
X128375552Y-63850418D01*
X128403797Y-63829275D01*
X128426889Y-63816667D01*
X128486314Y-63801500D01*
X128509306Y-63801500D01*
X128509309Y-63801500D01*
X128623886Y-63770799D01*
X128726613Y-63711489D01*
X128810489Y-63627613D01*
X128869799Y-63524886D01*
X128900500Y-63410309D01*
X128900500Y-63291691D01*
X128869799Y-63177114D01*
X128810489Y-63074387D01*
X128726613Y-62990511D01*
X128623886Y-62931201D01*
X128509309Y-62900500D01*
X128509306Y-62900500D01*
X128390691Y-62900500D01*
X128299728Y-62924873D01*
X128299723Y-62924874D01*
X128276114Y-62931201D01*
X128276112Y-62931201D01*
X128276112Y-62931202D01*
X128254947Y-62943421D01*
X128254939Y-62943425D01*
X128173386Y-62990511D01*
X128173378Y-62990517D01*
X128089517Y-63074378D01*
X128089513Y-63074383D01*
X128089511Y-63074387D01*
X128030201Y-63177114D01*
X127999500Y-63291691D01*
X127999500Y-63291693D01*
X127999500Y-63307337D01*
X127999499Y-63307339D01*
X127999500Y-63307340D01*
X127994476Y-63342274D01*
X127987064Y-63367515D01*
X127955769Y-63420259D01*
X114541455Y-76834573D01*
X114513204Y-76855722D01*
X114490116Y-76868330D01*
X114430686Y-76883500D01*
X109811671Y-76883500D01*
X109811670Y-76883499D01*
X109811670Y-76883500D01*
X109776735Y-76878477D01*
X109756601Y-76872565D01*
X109704644Y-76842050D01*
X109699852Y-76837343D01*
X109683646Y-76817776D01*
X109651276Y-76769331D01*
X109651273Y-76769327D01*
X109651272Y-76769325D01*
X109560674Y-76678727D01*
X109550610Y-76672002D01*
X109524365Y-76648427D01*
X109520075Y-76643295D01*
X109515464Y-76637777D01*
X109487575Y-76573718D01*
X109497911Y-76509896D01*
X109497951Y-76509350D01*
X109498014Y-76509265D01*
X109498745Y-76504751D01*
X109501020Y-76499995D01*
X109529873Y-76466707D01*
X109539823Y-76453417D01*
X109543883Y-76450543D01*
X109543992Y-76450419D01*
X109544367Y-76450167D01*
X109545235Y-76449588D01*
X109560669Y-76439276D01*
X109651276Y-76348669D01*
X109722465Y-76242127D01*
X109771501Y-76123744D01*
X109779682Y-76082615D01*
X109788710Y-76037230D01*
X109796500Y-75998072D01*
X109796500Y-75869925D01*
X109771295Y-75743220D01*
X109769724Y-75739947D01*
X109769473Y-75739362D01*
X109722465Y-75625873D01*
X109722464Y-75625872D01*
X109722461Y-75625866D01*
X109651276Y-75519331D01*
X109651273Y-75519327D01*
X109651268Y-75519321D01*
X109560677Y-75428730D01*
X109560671Y-75428725D01*
X109560670Y-75428724D01*
X109454127Y-75357534D01*
X109454128Y-75357534D01*
X109454118Y-75357529D01*
X109335753Y-75308502D01*
X109335733Y-75308495D01*
X109335725Y-75308493D01*
X109210074Y-75283500D01*
X109210071Y-75283500D01*
X109210069Y-75283500D01*
X109081931Y-75283500D01*
X109081929Y-75283500D01*
X109081926Y-75283500D01*
X108956273Y-75308493D01*
X108956265Y-75308495D01*
X108956245Y-75308502D01*
X108837880Y-75357529D01*
X108837870Y-75357534D01*
X108731328Y-75428724D01*
X108731327Y-75428725D01*
X108731321Y-75428730D01*
X108640730Y-75519321D01*
X108640725Y-75519327D01*
X108640724Y-75519328D01*
X108569534Y-75625870D01*
X108569529Y-75625880D01*
X108520502Y-75744245D01*
X108520495Y-75744265D01*
X108520493Y-75744273D01*
X108495500Y-75869923D01*
X108495500Y-75953702D01*
X108490237Y-75971622D01*
X107851500Y-75971622D01*
X107851500Y-75509771D01*
X107871185Y-75442732D01*
X107887819Y-75422090D01*
X108769631Y-74540279D01*
X108769632Y-74540278D01*
X108780742Y-74527910D01*
X108780761Y-74527889D01*
X108797395Y-74507247D01*
X108825516Y-74453488D01*
X108845201Y-74386449D01*
X108851500Y-74342638D01*
X108851500Y-72692878D01*
X108871185Y-72625839D01*
X108923989Y-72580084D01*
X108993147Y-72570140D01*
X108994793Y-72570389D01*
X109140709Y-72593500D01*
X109140710Y-72593500D01*
X109401290Y-72593500D01*
X109401291Y-72593500D01*
X109658664Y-72552736D01*
X109906491Y-72472212D01*
X110138671Y-72353910D01*
X110349486Y-72200745D01*
X110533745Y-72016486D01*
X110686910Y-71805671D01*
X110805212Y-71573491D01*
X110885736Y-71325664D01*
X110926500Y-71068291D01*
X110926500Y-70807709D01*
X110885736Y-70550336D01*
X110885735Y-70550332D01*
X110885735Y-70550331D01*
X110849911Y-70440080D01*
X110805212Y-70302509D01*
X110805210Y-70302506D01*
X110805210Y-70302504D01*
X110802970Y-70298108D01*
X110802658Y-70297308D01*
X110801925Y-70296056D01*
X110762291Y-70218271D01*
X110762290Y-70218271D01*
X110686910Y-70070329D01*
X110667340Y-70043394D01*
X110533750Y-69859520D01*
X110533746Y-69859515D01*
X110533745Y-69859514D01*
X110533738Y-69859506D01*
X110349492Y-69675260D01*
X110349483Y-69675252D01*
X110349459Y-69675234D01*
X110149274Y-69529792D01*
X110149258Y-69529781D01*
X110138674Y-69522092D01*
X110138673Y-69522091D01*
X110138671Y-69522090D01*
X110132591Y-69518992D01*
X110132588Y-69518990D01*
X110066165Y-69485146D01*
X110017412Y-69460305D01*
X109906495Y-69403789D01*
X109895689Y-69400278D01*
X109658666Y-69323264D01*
X109480554Y-69295054D01*
X109401291Y-69282500D01*
X109401290Y-69282500D01*
X109140705Y-69282500D01*
X109044127Y-69297797D01*
X109012022Y-69302882D01*
X108883333Y-69323264D01*
X108883330Y-69323264D01*
X108635504Y-69403789D01*
X108635503Y-69403789D01*
X108549894Y-69447409D01*
X108481225Y-69460305D01*
X108416484Y-69434028D01*
X108399887Y-69418127D01*
X108387462Y-69403788D01*
X108353726Y-69364854D01*
X108348748Y-69359379D01*
X108348747Y-69359378D01*
X108348745Y-69359376D01*
X108280022Y-69317486D01*
X108280016Y-69317483D01*
X108212980Y-69297799D01*
X108212970Y-69297797D01*
X108169171Y-69291500D01*
X108169168Y-69291500D01*
X105220500Y-69291500D01*
X105153461Y-69271815D01*
X105107706Y-69219011D01*
X105096500Y-69167500D01*
X105096500Y-68856154D01*
X112625237Y-68856154D01*
X112667408Y-69068153D01*
X112667410Y-69068161D01*
X112667413Y-69068171D01*
X112667416Y-69068179D01*
X112667421Y-69068193D01*
X112729892Y-69219011D01*
X112739814Y-69242965D01*
X112739816Y-69242968D01*
X112821259Y-69364856D01*
X112844928Y-69400279D01*
X112844931Y-69400284D01*
X112844936Y-69400290D01*
X112978708Y-69534062D01*
X112978713Y-69534066D01*
X112978721Y-69534072D01*
X113136031Y-69639183D01*
X113136034Y-69639185D01*
X113136036Y-69639186D01*
X113136038Y-69639187D01*
X113170206Y-69653339D01*
X113310828Y-69711586D01*
X113310833Y-69711588D01*
X113310837Y-69711588D01*
X113310838Y-69711589D01*
X113311101Y-69711641D01*
X113311103Y-69711642D01*
X113311134Y-69711648D01*
X113496393Y-69748500D01*
X113685603Y-69748500D01*
X113685604Y-69748500D01*
X113710570Y-69743533D01*
X113810442Y-69723667D01*
X113871167Y-69711588D01*
X114045967Y-69639184D01*
X114203283Y-69534069D01*
X114337069Y-69400283D01*
X114442184Y-69242967D01*
X114442190Y-69242954D01*
X114514586Y-69068171D01*
X114514587Y-69068169D01*
X114514588Y-69068167D01*
X114551500Y-68882601D01*
X114551500Y-68693399D01*
X114551500Y-68693396D01*
X114551500Y-68693393D01*
X114514648Y-68508134D01*
X114514648Y-68508133D01*
X114514349Y-68506632D01*
X114512268Y-68502233D01*
X114442185Y-68333034D01*
X114442183Y-68333031D01*
X114337072Y-68175721D01*
X114337066Y-68175713D01*
X114337062Y-68175708D01*
X114203290Y-68041936D01*
X114203284Y-68041931D01*
X114203279Y-68041928D01*
X114203278Y-68041927D01*
X114045968Y-67936816D01*
X114045965Y-67936814D01*
X114045957Y-67936810D01*
X114045954Y-67936809D01*
X113871193Y-67864421D01*
X113871179Y-67864416D01*
X113871171Y-67864413D01*
X113871161Y-67864410D01*
X113871159Y-67864409D01*
X113871152Y-67864407D01*
X113685606Y-67827500D01*
X113685603Y-67827500D01*
X113685601Y-67827500D01*
X113496399Y-67827500D01*
X113496397Y-67827500D01*
X113496394Y-67827500D01*
X113310844Y-67864408D01*
X113310838Y-67864410D01*
X113310828Y-67864413D01*
X113310823Y-67864414D01*
X113310805Y-67864421D01*
X113136044Y-67936809D01*
X113136037Y-67936812D01*
X113136034Y-67936814D01*
X113136031Y-67936816D01*
X112978719Y-68041928D01*
X112978714Y-68041931D01*
X112978708Y-68041936D01*
X112844936Y-68175708D01*
X112844931Y-68175714D01*
X112844928Y-68175719D01*
X112739816Y-68333031D01*
X112739809Y-68333044D01*
X112667421Y-68507805D01*
X112667413Y-68507829D01*
X112667407Y-68507846D01*
X112630500Y-68693391D01*
X112630500Y-68838234D01*
X112625237Y-68856154D01*
X105096500Y-68856154D01*
X105096500Y-65408500D01*
X105116185Y-65341461D01*
X105168989Y-65295706D01*
X105220500Y-65284500D01*
X108571991Y-65284500D01*
X108572000Y-65284500D01*
X108605055Y-65280946D01*
X108656566Y-65269740D01*
X108720957Y-65237508D01*
X108789716Y-65225101D01*
X108814774Y-65230458D01*
X108883336Y-65252736D01*
X109140709Y-65293500D01*
X109140710Y-65293500D01*
X109401290Y-65293500D01*
X109401291Y-65293500D01*
X109658664Y-65252736D01*
X109906491Y-65172212D01*
X110138671Y-65053910D01*
X110349486Y-64900745D01*
X110533745Y-64716486D01*
X110686910Y-64505671D01*
X110805212Y-64273491D01*
X110885736Y-64025664D01*
X110926500Y-63768291D01*
X110926500Y-63507709D01*
X110885736Y-63250336D01*
X110885735Y-63250332D01*
X110885735Y-63250331D01*
X110807824Y-63010547D01*
X110807822Y-63010542D01*
X110805212Y-63002509D01*
X110805210Y-63002506D01*
X110805210Y-63002504D01*
X110802970Y-62998108D01*
X110802660Y-62997313D01*
X110801927Y-62996061D01*
X110765655Y-62924873D01*
X110753236Y-62900499D01*
X110753236Y-62900500D01*
X110686910Y-62770329D01*
X110667340Y-62743394D01*
X110533750Y-62559520D01*
X110533746Y-62559515D01*
X110533745Y-62559514D01*
X110533738Y-62559506D01*
X110349492Y-62375260D01*
X110349483Y-62375252D01*
X110349459Y-62375234D01*
X110149274Y-62229792D01*
X110149258Y-62229781D01*
X110138674Y-62222092D01*
X110138673Y-62222091D01*
X110138671Y-62222090D01*
X110132591Y-62218992D01*
X110132588Y-62218990D01*
X110066165Y-62185146D01*
X109906495Y-62103789D01*
X109906492Y-62103788D01*
X109658666Y-62023264D01*
X109487082Y-61996088D01*
X109401291Y-61982500D01*
X109401290Y-61982500D01*
X109140705Y-61982500D01*
X109012025Y-62002881D01*
X109012023Y-62002881D01*
X109012022Y-62002882D01*
X108994894Y-62005594D01*
X108925603Y-61996639D01*
X108872152Y-61951642D01*
X108851513Y-61884890D01*
X108851500Y-61883121D01*
X108851500Y-61603500D01*
X108871185Y-61536461D01*
X108923989Y-61490706D01*
X108975500Y-61479500D01*
X112831991Y-61479500D01*
X112832000Y-61479500D01*
X112865055Y-61475946D01*
X112916566Y-61464740D01*
X112985342Y-61430313D01*
X113038146Y-61384558D01*
X113043621Y-61379580D01*
X113085516Y-61310850D01*
X113105201Y-61243811D01*
X113111500Y-61200000D01*
X113111500Y-58084691D01*
X130920500Y-58084691D01*
X130920500Y-58203309D01*
X130951201Y-58317886D01*
X131010511Y-58420613D01*
X131094387Y-58504489D01*
X131197114Y-58563799D01*
X131311691Y-58594500D01*
X131311694Y-58594500D01*
X131430306Y-58594500D01*
X131430309Y-58594500D01*
X131544886Y-58563799D01*
X131647613Y-58504489D01*
X131731489Y-58420613D01*
X131790799Y-58317886D01*
X131821500Y-58203309D01*
X131821500Y-58084691D01*
X131790799Y-57970114D01*
X131731489Y-57867387D01*
X131647613Y-57783511D01*
X131544886Y-57724201D01*
X131430309Y-57693500D01*
X131430306Y-57693500D01*
X131311691Y-57693500D01*
X131220728Y-57717873D01*
X131220723Y-57717874D01*
X131197114Y-57724201D01*
X131197112Y-57724201D01*
X131197112Y-57724202D01*
X131175947Y-57736421D01*
X131175939Y-57736425D01*
X131094386Y-57783511D01*
X131094378Y-57783517D01*
X131010517Y-57867378D01*
X131010513Y-57867383D01*
X131010511Y-57867387D01*
X130951201Y-57970114D01*
X130920500Y-58084691D01*
X113111500Y-58084691D01*
X113111500Y-55925691D01*
X134730500Y-55925691D01*
X134730500Y-56044309D01*
X134761201Y-56158886D01*
X134820511Y-56261613D01*
X134904387Y-56345489D01*
X135007114Y-56404799D01*
X135121691Y-56435500D01*
X135137337Y-56435500D01*
X135172269Y-56440521D01*
X135197513Y-56447934D01*
X135250259Y-56479230D01*
X146418324Y-67647295D01*
X146486847Y-67686856D01*
X146563273Y-67707335D01*
X146564626Y-67707335D01*
X146580800Y-67708394D01*
X146596800Y-67710500D01*
X146612701Y-67713665D01*
X146616367Y-67714647D01*
X146619548Y-67715500D01*
X146619549Y-67715500D01*
X155185671Y-67715500D01*
X155220606Y-67720523D01*
X155235604Y-67724927D01*
X155294355Y-67762672D01*
X155294379Y-67762700D01*
X155294382Y-67762702D01*
X155294383Y-67762704D01*
X155295542Y-67764041D01*
X155323018Y-67818902D01*
X155324663Y-67826460D01*
X155327500Y-67852831D01*
X155327500Y-77744670D01*
X155327499Y-77744676D01*
X155327500Y-77744679D01*
X155322475Y-77779614D01*
X155318070Y-77794612D01*
X155280327Y-77853355D01*
X155280292Y-77853385D01*
X155280291Y-77853387D01*
X155280289Y-77853387D01*
X155278958Y-77854542D01*
X155224097Y-77882018D01*
X155216539Y-77883663D01*
X155190168Y-77886500D01*
X155187691Y-77886500D01*
X155096728Y-77910873D01*
X155096723Y-77910874D01*
X155073114Y-77917201D01*
X155073112Y-77917201D01*
X155073112Y-77917202D01*
X155051947Y-77929421D01*
X155051939Y-77929425D01*
X154970386Y-77976511D01*
X154970383Y-77976513D01*
X154959326Y-77987570D01*
X154959325Y-77987572D01*
X154959322Y-77987574D01*
X154931071Y-78008724D01*
X154907984Y-78021331D01*
X154848555Y-78036500D01*
X154551663Y-78036500D01*
X154516727Y-78031477D01*
X154491485Y-78024065D01*
X154438740Y-77992769D01*
X152063426Y-75617455D01*
X152063421Y-75617450D01*
X152042274Y-75589199D01*
X152029667Y-75566110D01*
X152014500Y-75506685D01*
X152014500Y-75483693D01*
X152014500Y-75483691D01*
X151983799Y-75369114D01*
X151924489Y-75266387D01*
X151840613Y-75182511D01*
X151737886Y-75123201D01*
X151623309Y-75092500D01*
X151623306Y-75092500D01*
X151504691Y-75092500D01*
X151413728Y-75116873D01*
X151413723Y-75116874D01*
X151390114Y-75123201D01*
X151390112Y-75123201D01*
X151390112Y-75123202D01*
X151368947Y-75135421D01*
X151368939Y-75135425D01*
X151287386Y-75182511D01*
X151287378Y-75182517D01*
X151203517Y-75266378D01*
X151203513Y-75266383D01*
X151203507Y-75266392D01*
X151179199Y-75308496D01*
X151144201Y-75369113D01*
X151144201Y-75369114D01*
X151113500Y-75483691D01*
X151113500Y-75602309D01*
X151144201Y-75716886D01*
X151203511Y-75819613D01*
X151287387Y-75903489D01*
X151390114Y-75962799D01*
X151504691Y-75993500D01*
X151520337Y-75993500D01*
X151555269Y-75998521D01*
X151580513Y-76005934D01*
X151633259Y-76037230D01*
X154173489Y-78577460D01*
X154232829Y-78611720D01*
X154236100Y-78613609D01*
X154242012Y-78617022D01*
X154242014Y-78617022D01*
X154242015Y-78617023D01*
X154264719Y-78623106D01*
X154318438Y-78637500D01*
X154397562Y-78637500D01*
X154841206Y-78637500D01*
X154876138Y-78642521D01*
X154901382Y-78649934D01*
X154954128Y-78681230D01*
X154970387Y-78697489D01*
X155073114Y-78756799D01*
X155187691Y-78787500D01*
X155187694Y-78787500D01*
X155306306Y-78787500D01*
X155306309Y-78787500D01*
X155420886Y-78756799D01*
X155523613Y-78697489D01*
X155562411Y-78658691D01*
X165972500Y-78658691D01*
X165972500Y-78777309D01*
X166003201Y-78891886D01*
X166062511Y-78994613D01*
X166062513Y-78994615D01*
X166123574Y-79055676D01*
X166144723Y-79083927D01*
X166151103Y-79095610D01*
X166156756Y-79105964D01*
X166157331Y-79107016D01*
X166172500Y-79166445D01*
X166172500Y-79532205D01*
X166167476Y-79567144D01*
X166160063Y-79592387D01*
X166128769Y-79645129D01*
X166062511Y-79711387D01*
X166010516Y-79801445D01*
X166003201Y-79814114D01*
X165972500Y-79928691D01*
X165972500Y-80047309D01*
X166003201Y-80161886D01*
X166062511Y-80264613D01*
X166062513Y-80264615D01*
X166123574Y-80325676D01*
X166144723Y-80353927D01*
X166156756Y-80375964D01*
X166157331Y-80377016D01*
X166172500Y-80436445D01*
X166172500Y-80802205D01*
X166167476Y-80837144D01*
X166160063Y-80862387D01*
X166128769Y-80915129D01*
X166062508Y-80981390D01*
X166036400Y-81026612D01*
X166003201Y-81084113D01*
X166003201Y-81084114D01*
X165972500Y-81198691D01*
X165972500Y-81317309D01*
X166003201Y-81431886D01*
X166062511Y-81534613D01*
X166146387Y-81618489D01*
X166249114Y-81677799D01*
X166363691Y-81708500D01*
X166363694Y-81708500D01*
X166482306Y-81708500D01*
X166482309Y-81708500D01*
X166596886Y-81677799D01*
X166699613Y-81618489D01*
X166783489Y-81534613D01*
X166842799Y-81431886D01*
X166873500Y-81317309D01*
X166873500Y-81198691D01*
X167750500Y-81198691D01*
X167750500Y-81317309D01*
X167781201Y-81431886D01*
X167840511Y-81534613D01*
X167924387Y-81618489D01*
X168027114Y-81677799D01*
X168141691Y-81708500D01*
X168141694Y-81708500D01*
X168260306Y-81708500D01*
X168260309Y-81708500D01*
X168374886Y-81677799D01*
X168477613Y-81618489D01*
X168561489Y-81534613D01*
X168620799Y-81431886D01*
X168651500Y-81317309D01*
X168651500Y-81198691D01*
X169268483Y-81198691D01*
X169268483Y-81317309D01*
X169299184Y-81431886D01*
X169358494Y-81534613D01*
X169442370Y-81618489D01*
X169545097Y-81677799D01*
X169659674Y-81708500D01*
X169659677Y-81708500D01*
X169778289Y-81708500D01*
X169778292Y-81708500D01*
X169892869Y-81677799D01*
X169995596Y-81618489D01*
X170079472Y-81534613D01*
X170138782Y-81431886D01*
X170169483Y-81317309D01*
X170169483Y-81198691D01*
X170138782Y-81084114D01*
X170079472Y-80981387D01*
X170024425Y-80926340D01*
X170024423Y-80926337D01*
X170024422Y-80926337D01*
X170003272Y-80898082D01*
X170002961Y-80897513D01*
X169990666Y-80874994D01*
X169975500Y-80815571D01*
X169975500Y-79808793D01*
X169980522Y-79773860D01*
X169987934Y-79748615D01*
X170019228Y-79695873D01*
X170048027Y-79667075D01*
X170085489Y-79629613D01*
X170144799Y-79526886D01*
X170175500Y-79412309D01*
X170175500Y-79293691D01*
X170144799Y-79179114D01*
X170085489Y-79076387D01*
X170001613Y-78992511D01*
X169898886Y-78933201D01*
X169784309Y-78902500D01*
X169784306Y-78902500D01*
X169665691Y-78902500D01*
X169574728Y-78926873D01*
X169574723Y-78926874D01*
X169551114Y-78933201D01*
X169551112Y-78933201D01*
X169551112Y-78933202D01*
X169529947Y-78945421D01*
X169529939Y-78945425D01*
X169448386Y-78992511D01*
X169448378Y-78992517D01*
X169364517Y-79076378D01*
X169364513Y-79076383D01*
X169311329Y-79168500D01*
X169305201Y-79179114D01*
X169274500Y-79293691D01*
X169274500Y-79412309D01*
X169305201Y-79526886D01*
X169364511Y-79629613D01*
X169364513Y-79629615D01*
X169425574Y-79690676D01*
X169446723Y-79718927D01*
X169458756Y-79740964D01*
X169459331Y-79742016D01*
X169474500Y-79801445D01*
X169474500Y-80796188D01*
X169469476Y-80831125D01*
X169462064Y-80856366D01*
X169430769Y-80909110D01*
X169358495Y-80981383D01*
X169358489Y-80981391D01*
X169314046Y-81058369D01*
X169314043Y-81058376D01*
X169306893Y-81070762D01*
X169299184Y-81084114D01*
X169268483Y-81198691D01*
X168651500Y-81198691D01*
X168620799Y-81084114D01*
X168561489Y-80981387D01*
X168477613Y-80897511D01*
X168374886Y-80838201D01*
X168260309Y-80807500D01*
X168260306Y-80807500D01*
X168141691Y-80807500D01*
X168050728Y-80831873D01*
X168050723Y-80831874D01*
X168027114Y-80838201D01*
X168027112Y-80838201D01*
X168027112Y-80838202D01*
X168005947Y-80850421D01*
X168005939Y-80850425D01*
X167924386Y-80897511D01*
X167924378Y-80897517D01*
X167840517Y-80981378D01*
X167840513Y-80981383D01*
X167840507Y-80981392D01*
X167814400Y-81026612D01*
X167781201Y-81084113D01*
X167781201Y-81084114D01*
X167750500Y-81198691D01*
X166873500Y-81198691D01*
X166873500Y-81197467D01*
X166873535Y-81194522D01*
X166874194Y-81166778D01*
X166895465Y-81100225D01*
X166949336Y-81055739D01*
X166950864Y-81055085D01*
X167008483Y-81045399D01*
X167013483Y-81045756D01*
X167036739Y-81049664D01*
X167125691Y-81073500D01*
X167125694Y-81073500D01*
X167244306Y-81073500D01*
X167244309Y-81073500D01*
X167358886Y-81042799D01*
X167461613Y-80983489D01*
X167545489Y-80899613D01*
X167604799Y-80796886D01*
X167635500Y-80682309D01*
X167635500Y-80563691D01*
X167604799Y-80449114D01*
X167545489Y-80346387D01*
X167484425Y-80285323D01*
X167484423Y-80285320D01*
X167484422Y-80285320D01*
X167463272Y-80257065D01*
X167461627Y-80254053D01*
X167453832Y-80239776D01*
X167450666Y-80233977D01*
X167435500Y-80174554D01*
X167435500Y-79173793D01*
X167440522Y-79138860D01*
X167440834Y-79137797D01*
X167447934Y-79113615D01*
X167479228Y-79060873D01*
X167506820Y-79033282D01*
X167545489Y-78994613D01*
X167604799Y-78891886D01*
X167635500Y-78777309D01*
X167635500Y-78658691D01*
X167604799Y-78544114D01*
X167545489Y-78441387D01*
X167461613Y-78357511D01*
X167358886Y-78298201D01*
X167282342Y-78277691D01*
X169909500Y-78277691D01*
X169909500Y-78396309D01*
X169940201Y-78510886D01*
X169999511Y-78613613D01*
X170083387Y-78697489D01*
X170186114Y-78756799D01*
X170300691Y-78787500D01*
X170300694Y-78787500D01*
X170419306Y-78787500D01*
X170419309Y-78787500D01*
X170533886Y-78756799D01*
X170636613Y-78697489D01*
X170720489Y-78613613D01*
X170779799Y-78510886D01*
X170810500Y-78396309D01*
X170810500Y-78277691D01*
X172195500Y-78277691D01*
X172195500Y-78396309D01*
X172226201Y-78510886D01*
X172285511Y-78613613D01*
X172369387Y-78697489D01*
X172472114Y-78756799D01*
X172586691Y-78787500D01*
X172586694Y-78787500D01*
X172705306Y-78787500D01*
X172705309Y-78787500D01*
X172819886Y-78756799D01*
X172922613Y-78697489D01*
X173006489Y-78613613D01*
X173065799Y-78510886D01*
X173096500Y-78396309D01*
X173096500Y-78277691D01*
X174735500Y-78277691D01*
X174735500Y-78396309D01*
X174766201Y-78510886D01*
X174825511Y-78613613D01*
X174909387Y-78697489D01*
X174929998Y-78709389D01*
X174963447Y-78728701D01*
X174991181Y-78750512D01*
X175000763Y-78760561D01*
X175008932Y-78776407D01*
X175011660Y-78779268D01*
X175012407Y-78783149D01*
X175032778Y-78822662D01*
X175026137Y-78892215D01*
X175026124Y-78892247D01*
X175025519Y-78893757D01*
X174991617Y-78941352D01*
X174987834Y-78944630D01*
X174968634Y-78958303D01*
X174909383Y-78992513D01*
X174909378Y-78992517D01*
X174825517Y-79076378D01*
X174825513Y-79076383D01*
X174772329Y-79168500D01*
X174766201Y-79179114D01*
X174735500Y-79293691D01*
X174735500Y-79412309D01*
X174766201Y-79526886D01*
X174825511Y-79629613D01*
X174825513Y-79629615D01*
X174836574Y-79640676D01*
X174857723Y-79668927D01*
X174862873Y-79678358D01*
X174869596Y-79690671D01*
X174870331Y-79692016D01*
X174885500Y-79751445D01*
X174885500Y-80852206D01*
X174880476Y-80887143D01*
X174873064Y-80912384D01*
X174841769Y-80965128D01*
X174825513Y-80981383D01*
X174825507Y-80981392D01*
X174799400Y-81026612D01*
X174766201Y-81084113D01*
X174766201Y-81084114D01*
X174735500Y-81198691D01*
X174735500Y-81317309D01*
X174766201Y-81431886D01*
X174825511Y-81534613D01*
X174909387Y-81618489D01*
X175012114Y-81677799D01*
X175126691Y-81708500D01*
X175126694Y-81708500D01*
X175245306Y-81708500D01*
X175245309Y-81708500D01*
X175359886Y-81677799D01*
X175462613Y-81618489D01*
X175546489Y-81534613D01*
X175605799Y-81431886D01*
X175636500Y-81317309D01*
X175636500Y-81198691D01*
X175605799Y-81084114D01*
X175546489Y-80981387D01*
X175535421Y-80970319D01*
X175514274Y-80942068D01*
X175501667Y-80918979D01*
X175486500Y-80859554D01*
X175486500Y-79928691D01*
X177275500Y-79928691D01*
X177275500Y-80047309D01*
X177306201Y-80161886D01*
X177365511Y-80264613D01*
X177365513Y-80264615D01*
X177376574Y-80275676D01*
X177397723Y-80303927D01*
X177409596Y-80325671D01*
X177410331Y-80327016D01*
X177425500Y-80386445D01*
X177425500Y-80852206D01*
X177420476Y-80887143D01*
X177413064Y-80912384D01*
X177381769Y-80965128D01*
X177365513Y-80981383D01*
X177365507Y-80981392D01*
X177339400Y-81026612D01*
X177306201Y-81084113D01*
X177306201Y-81084114D01*
X177275500Y-81198691D01*
X177275500Y-81317309D01*
X177306201Y-81431886D01*
X177365511Y-81534613D01*
X177449387Y-81618489D01*
X177552114Y-81677799D01*
X177666691Y-81708500D01*
X177666694Y-81708500D01*
X177785306Y-81708500D01*
X177785309Y-81708500D01*
X177899886Y-81677799D01*
X178002613Y-81618489D01*
X178086489Y-81534613D01*
X178145799Y-81431886D01*
X178176500Y-81317309D01*
X178176500Y-81198691D01*
X178145799Y-81084114D01*
X178086489Y-80981387D01*
X178075421Y-80970319D01*
X178054274Y-80942068D01*
X178041667Y-80918979D01*
X178026500Y-80859554D01*
X178026500Y-80393793D01*
X178031522Y-80358860D01*
X178032775Y-80354593D01*
X178038934Y-80333615D01*
X178070230Y-80280871D01*
X178086489Y-80264613D01*
X178145799Y-80161886D01*
X178176500Y-80047309D01*
X178176500Y-79928691D01*
X178145799Y-79814114D01*
X178086489Y-79711387D01*
X178002613Y-79627511D01*
X177899886Y-79568201D01*
X177785309Y-79537500D01*
X177785306Y-79537500D01*
X177666691Y-79537500D01*
X177575728Y-79561873D01*
X177575723Y-79561874D01*
X177552114Y-79568201D01*
X177552112Y-79568201D01*
X177552112Y-79568202D01*
X177530947Y-79580421D01*
X177530939Y-79580425D01*
X177449386Y-79627511D01*
X177449378Y-79627517D01*
X177365517Y-79711378D01*
X177365513Y-79711383D01*
X177309273Y-79808793D01*
X177306201Y-79814114D01*
X177275500Y-79928691D01*
X175486500Y-79928691D01*
X175486500Y-79758793D01*
X175491522Y-79723860D01*
X175498934Y-79698615D01*
X175530245Y-79645856D01*
X175532581Y-79643521D01*
X175546489Y-79629613D01*
X175605799Y-79526886D01*
X175636500Y-79412309D01*
X175636500Y-79293691D01*
X175605799Y-79179114D01*
X175546489Y-79076387D01*
X175462613Y-78992511D01*
X175462610Y-78992509D01*
X175462606Y-78992506D01*
X175408555Y-78961299D01*
X175408554Y-78961299D01*
X175380811Y-78939482D01*
X175371236Y-78929440D01*
X175339220Y-78867337D01*
X175345860Y-78797788D01*
X175346480Y-78796239D01*
X175380363Y-78748663D01*
X175384157Y-78745375D01*
X175403355Y-78731701D01*
X175462613Y-78697489D01*
X175501411Y-78658691D01*
X179815500Y-78658691D01*
X179815500Y-78777309D01*
X179846201Y-78891886D01*
X179905511Y-78994613D01*
X179989387Y-79078489D01*
X180092114Y-79137799D01*
X180206691Y-79168500D01*
X180206694Y-79168500D01*
X180325306Y-79168500D01*
X180325307Y-79168500D01*
X180325309Y-79168500D01*
X180439886Y-79137799D01*
X180439887Y-79137797D01*
X180442517Y-79137093D01*
X180447402Y-79134685D01*
X180447492Y-79134647D01*
X180454019Y-79129638D01*
X180526071Y-79088038D01*
X180558817Y-79074929D01*
X180572317Y-79071654D01*
X180642105Y-79074979D01*
X180698997Y-79115482D01*
X180699016Y-79115507D01*
X180699017Y-79115507D01*
X180699754Y-79116445D01*
X180700001Y-79116758D01*
X180724309Y-79169964D01*
X180725258Y-79174887D01*
X180727500Y-79198358D01*
X180727500Y-79582206D01*
X180727499Y-79582208D01*
X180727500Y-79582209D01*
X180722476Y-79617143D01*
X180715064Y-79642384D01*
X180683769Y-79695128D01*
X180667513Y-79711383D01*
X180611273Y-79808793D01*
X180608201Y-79814114D01*
X180577500Y-79928691D01*
X180577500Y-80047309D01*
X180608201Y-80161886D01*
X180667511Y-80264613D01*
X180751387Y-80348489D01*
X180854114Y-80407799D01*
X180968691Y-80438500D01*
X180968694Y-80438500D01*
X181087306Y-80438500D01*
X181087307Y-80438500D01*
X181087309Y-80438500D01*
X181201886Y-80407799D01*
X181201887Y-80407797D01*
X181204517Y-80407093D01*
X181209402Y-80404685D01*
X181209492Y-80404647D01*
X181216019Y-80399639D01*
X181289656Y-80357124D01*
X181322410Y-80344011D01*
X181333410Y-80341343D01*
X181403199Y-80344670D01*
X181460112Y-80385201D01*
X181486077Y-80450061D01*
X181486077Y-80450064D01*
X181486078Y-80450066D01*
X181486077Y-80450067D01*
X181486806Y-80457695D01*
X181483143Y-80501575D01*
X181466500Y-80563689D01*
X181466500Y-80563691D01*
X181466500Y-80682309D01*
X181497201Y-80796886D01*
X181556511Y-80899613D01*
X181640387Y-80983489D01*
X181743114Y-81042799D01*
X181857691Y-81073500D01*
X181857694Y-81073500D01*
X181976306Y-81073500D01*
X181976309Y-81073500D01*
X182090886Y-81042799D01*
X182193613Y-80983489D01*
X182277489Y-80899613D01*
X182336799Y-80796886D01*
X182365254Y-80690691D01*
X188832500Y-80690691D01*
X188832500Y-80809309D01*
X188863201Y-80923886D01*
X188922511Y-81026613D01*
X189006387Y-81110489D01*
X189109114Y-81169799D01*
X189223691Y-81200500D01*
X189223694Y-81200500D01*
X189342306Y-81200500D01*
X189342309Y-81200500D01*
X189456886Y-81169799D01*
X189559613Y-81110489D01*
X189643489Y-81026613D01*
X189702799Y-80923886D01*
X189733500Y-80809309D01*
X189733500Y-80690691D01*
X189702799Y-80576114D01*
X189643489Y-80473387D01*
X189559613Y-80389511D01*
X189456886Y-80330201D01*
X189342309Y-80299500D01*
X189342306Y-80299500D01*
X189223691Y-80299500D01*
X189132728Y-80323873D01*
X189132723Y-80323874D01*
X189109114Y-80330201D01*
X189109112Y-80330201D01*
X189109112Y-80330202D01*
X189087947Y-80342421D01*
X189087939Y-80342425D01*
X189006386Y-80389511D01*
X189006378Y-80389517D01*
X188922517Y-80473378D01*
X188922513Y-80473383D01*
X188870373Y-80563691D01*
X188863201Y-80576114D01*
X188832500Y-80690691D01*
X182365254Y-80690691D01*
X182367500Y-80682309D01*
X182367500Y-80563691D01*
X182336799Y-80449114D01*
X182277489Y-80346387D01*
X182266421Y-80335319D01*
X182245274Y-80307068D01*
X182232667Y-80283979D01*
X182217500Y-80224554D01*
X182217500Y-79123793D01*
X182222522Y-79088860D01*
X182229934Y-79063615D01*
X182261230Y-79010871D01*
X182277489Y-78994613D01*
X182336799Y-78891886D01*
X182367500Y-78777309D01*
X182367500Y-78658691D01*
X182336799Y-78544114D01*
X182277489Y-78441387D01*
X182193613Y-78357511D01*
X182090886Y-78298201D01*
X181976309Y-78267500D01*
X181976306Y-78267500D01*
X181857691Y-78267500D01*
X181766728Y-78291873D01*
X181766723Y-78291874D01*
X181743114Y-78298201D01*
X181743112Y-78298201D01*
X181743112Y-78298202D01*
X181721947Y-78310421D01*
X181721939Y-78310425D01*
X181640387Y-78357510D01*
X181572785Y-78425112D01*
X181553351Y-78439659D01*
X181544527Y-78446264D01*
X181530809Y-78453754D01*
X181462551Y-78468605D01*
X181462536Y-78468603D01*
X181462536Y-78468604D01*
X181462535Y-78468603D01*
X181460745Y-78468476D01*
X181402544Y-78449108D01*
X181396029Y-78444921D01*
X181375393Y-78428291D01*
X181304615Y-78357513D01*
X181304613Y-78357511D01*
X181201886Y-78298201D01*
X181087309Y-78267500D01*
X181087306Y-78267500D01*
X180968691Y-78267500D01*
X180877728Y-78291873D01*
X180877723Y-78291874D01*
X180854114Y-78298201D01*
X180854112Y-78298201D01*
X180854112Y-78298202D01*
X180832946Y-78310422D01*
X180832937Y-78310426D01*
X180751393Y-78357507D01*
X180751380Y-78357515D01*
X180751379Y-78357517D01*
X180747279Y-78361616D01*
X180725848Y-78377658D01*
X180719031Y-78382761D01*
X180705314Y-78390251D01*
X180637062Y-78405105D01*
X180635254Y-78404976D01*
X180577031Y-78385600D01*
X180570528Y-78381420D01*
X180549901Y-78364797D01*
X180542620Y-78357517D01*
X180542615Y-78357513D01*
X180542613Y-78357511D01*
X180439886Y-78298201D01*
X180325309Y-78267500D01*
X180325306Y-78267500D01*
X180206691Y-78267500D01*
X180115728Y-78291873D01*
X180115723Y-78291874D01*
X180092114Y-78298201D01*
X180092112Y-78298201D01*
X180092112Y-78298202D01*
X180070947Y-78310421D01*
X180070939Y-78310425D01*
X179989386Y-78357511D01*
X179989378Y-78357517D01*
X179905517Y-78441378D01*
X179905513Y-78441383D01*
X179870054Y-78502799D01*
X179846201Y-78544114D01*
X179815500Y-78658691D01*
X175501411Y-78658691D01*
X175546489Y-78613613D01*
X175605799Y-78510886D01*
X175636500Y-78396309D01*
X175636500Y-78277691D01*
X175605799Y-78163114D01*
X175546489Y-78060387D01*
X175462613Y-77976511D01*
X175359886Y-77917201D01*
X175245309Y-77886500D01*
X175245306Y-77886500D01*
X175126691Y-77886500D01*
X175035728Y-77910873D01*
X175035723Y-77910874D01*
X175012114Y-77917201D01*
X175012112Y-77917201D01*
X175012112Y-77917202D01*
X174990947Y-77929421D01*
X174990939Y-77929425D01*
X174909386Y-77976511D01*
X174909378Y-77976517D01*
X174825517Y-78060378D01*
X174825513Y-78060383D01*
X174825507Y-78060392D01*
X174785057Y-78130454D01*
X174785056Y-78130456D01*
X174778215Y-78142306D01*
X174766201Y-78163114D01*
X174735500Y-78277691D01*
X173096500Y-78277691D01*
X173065799Y-78163114D01*
X173006489Y-78060387D01*
X172922613Y-77976511D01*
X172819886Y-77917201D01*
X172705309Y-77886500D01*
X172705306Y-77886500D01*
X172586691Y-77886500D01*
X172495728Y-77910873D01*
X172495723Y-77910874D01*
X172472114Y-77917201D01*
X172472112Y-77917201D01*
X172472112Y-77917202D01*
X172450947Y-77929421D01*
X172450939Y-77929425D01*
X172369386Y-77976511D01*
X172369378Y-77976517D01*
X172285517Y-78060378D01*
X172285513Y-78060383D01*
X172285507Y-78060392D01*
X172245057Y-78130454D01*
X172245056Y-78130456D01*
X172238215Y-78142306D01*
X172226201Y-78163114D01*
X172195500Y-78277691D01*
X170810500Y-78277691D01*
X170779799Y-78163114D01*
X170720489Y-78060387D01*
X170636613Y-77976511D01*
X170533886Y-77917201D01*
X170419309Y-77886500D01*
X170419306Y-77886500D01*
X170300691Y-77886500D01*
X170209728Y-77910873D01*
X170209723Y-77910874D01*
X170186114Y-77917201D01*
X170186112Y-77917201D01*
X170186112Y-77917202D01*
X170164947Y-77929421D01*
X170164939Y-77929425D01*
X170083386Y-77976511D01*
X170083378Y-77976517D01*
X169999517Y-78060378D01*
X169999513Y-78060383D01*
X169999507Y-78060392D01*
X169959057Y-78130454D01*
X169959056Y-78130456D01*
X169952215Y-78142306D01*
X169940201Y-78163114D01*
X169909500Y-78277691D01*
X167282342Y-78277691D01*
X167244309Y-78267500D01*
X167244306Y-78267500D01*
X167125691Y-78267500D01*
X167034728Y-78291873D01*
X167034723Y-78291874D01*
X167011114Y-78298201D01*
X167011112Y-78298201D01*
X167011112Y-78298202D01*
X166989946Y-78310422D01*
X166989937Y-78310426D01*
X166908393Y-78357507D01*
X166908380Y-78357515D01*
X166908379Y-78357517D01*
X166904279Y-78361616D01*
X166882848Y-78377658D01*
X166876031Y-78382761D01*
X166862314Y-78390251D01*
X166794062Y-78405105D01*
X166792254Y-78404976D01*
X166734031Y-78385600D01*
X166727528Y-78381420D01*
X166706901Y-78364797D01*
X166699620Y-78357517D01*
X166699615Y-78357513D01*
X166699613Y-78357511D01*
X166596886Y-78298201D01*
X166482309Y-78267500D01*
X166482306Y-78267500D01*
X166363691Y-78267500D01*
X166272728Y-78291873D01*
X166272723Y-78291874D01*
X166249114Y-78298201D01*
X166249112Y-78298201D01*
X166249112Y-78298202D01*
X166227947Y-78310421D01*
X166227939Y-78310425D01*
X166146386Y-78357511D01*
X166146378Y-78357517D01*
X166062517Y-78441378D01*
X166062513Y-78441383D01*
X166027054Y-78502799D01*
X166003201Y-78544114D01*
X165972500Y-78658691D01*
X155562411Y-78658691D01*
X155607489Y-78613613D01*
X155666799Y-78510886D01*
X155697500Y-78396309D01*
X155697500Y-78380661D01*
X155701546Y-78349242D01*
X155702003Y-78347493D01*
X155705729Y-78334807D01*
X155706826Y-78329081D01*
X155707873Y-78325086D01*
X155723839Y-78298557D01*
X155737995Y-78271029D01*
X155740104Y-78268865D01*
X155866666Y-78142305D01*
X156955499Y-78142305D01*
X156955500Y-78142308D01*
X156955500Y-78142309D01*
X156986201Y-78256886D01*
X157045511Y-78359613D01*
X157129387Y-78443489D01*
X157232114Y-78502799D01*
X157346691Y-78533500D01*
X157346694Y-78533500D01*
X157465306Y-78533500D01*
X157465309Y-78533500D01*
X157579886Y-78502799D01*
X157682613Y-78443489D01*
X157686715Y-78439386D01*
X157714964Y-78418239D01*
X157728688Y-78410745D01*
X157796946Y-78395894D01*
X157798756Y-78396023D01*
X157856953Y-78415389D01*
X157863471Y-78419578D01*
X157884106Y-78436208D01*
X157891387Y-78443489D01*
X157994114Y-78502799D01*
X158108691Y-78533500D01*
X158108694Y-78533500D01*
X158227306Y-78533500D01*
X158227309Y-78533500D01*
X158341886Y-78502799D01*
X158444613Y-78443489D01*
X158448715Y-78439386D01*
X158476964Y-78418239D01*
X158490688Y-78410745D01*
X158558946Y-78395894D01*
X158560756Y-78396023D01*
X158618953Y-78415389D01*
X158625471Y-78419578D01*
X158646106Y-78436208D01*
X158653387Y-78443489D01*
X158756114Y-78502799D01*
X158870691Y-78533500D01*
X158870694Y-78533500D01*
X158989306Y-78533500D01*
X158989309Y-78533500D01*
X159103886Y-78502799D01*
X159206613Y-78443489D01*
X159210715Y-78439386D01*
X159238964Y-78418239D01*
X159252688Y-78410745D01*
X159320946Y-78395894D01*
X159322756Y-78396023D01*
X159380953Y-78415389D01*
X159387471Y-78419578D01*
X159408106Y-78436208D01*
X159415387Y-78443489D01*
X159518114Y-78502799D01*
X159632691Y-78533500D01*
X159632694Y-78533500D01*
X159751306Y-78533500D01*
X159751309Y-78533500D01*
X159865886Y-78502799D01*
X159968613Y-78443489D01*
X159972715Y-78439386D01*
X160000964Y-78418239D01*
X160014688Y-78410745D01*
X160082946Y-78395894D01*
X160084756Y-78396023D01*
X160142953Y-78415389D01*
X160149471Y-78419578D01*
X160170106Y-78436208D01*
X160177387Y-78443489D01*
X160280114Y-78502799D01*
X160394691Y-78533500D01*
X160394694Y-78533500D01*
X160513306Y-78533500D01*
X160513309Y-78533500D01*
X160627886Y-78502799D01*
X160730613Y-78443489D01*
X160734715Y-78439386D01*
X160762964Y-78418239D01*
X160776688Y-78410745D01*
X160844946Y-78395894D01*
X160846756Y-78396023D01*
X160904953Y-78415389D01*
X160911471Y-78419578D01*
X160932106Y-78436208D01*
X160939387Y-78443489D01*
X161042114Y-78502799D01*
X161156691Y-78533500D01*
X161156694Y-78533500D01*
X161275306Y-78533500D01*
X161275309Y-78533500D01*
X161389886Y-78502799D01*
X161492613Y-78443489D01*
X161576489Y-78359613D01*
X161635799Y-78256886D01*
X161666500Y-78142309D01*
X161666500Y-78023691D01*
X161635799Y-77909114D01*
X161576489Y-77806387D01*
X161492613Y-77722511D01*
X161389886Y-77663201D01*
X161275309Y-77632500D01*
X161275306Y-77632500D01*
X161156691Y-77632500D01*
X161065728Y-77656873D01*
X161065723Y-77656874D01*
X161042114Y-77663201D01*
X161042112Y-77663201D01*
X161042112Y-77663202D01*
X161020946Y-77675422D01*
X161020937Y-77675426D01*
X160939393Y-77722507D01*
X160939380Y-77722515D01*
X160939379Y-77722517D01*
X160935279Y-77726616D01*
X160913848Y-77742658D01*
X160907031Y-77747761D01*
X160893314Y-77755251D01*
X160825062Y-77770105D01*
X160823254Y-77769976D01*
X160765031Y-77750600D01*
X160758528Y-77746420D01*
X160737901Y-77729797D01*
X160730620Y-77722517D01*
X160730615Y-77722513D01*
X160730613Y-77722511D01*
X160627886Y-77663201D01*
X160513309Y-77632500D01*
X160513306Y-77632500D01*
X160394691Y-77632500D01*
X160303728Y-77656873D01*
X160303723Y-77656874D01*
X160280114Y-77663201D01*
X160280112Y-77663201D01*
X160280112Y-77663202D01*
X160258946Y-77675422D01*
X160258937Y-77675426D01*
X160177393Y-77722507D01*
X160177380Y-77722515D01*
X160177379Y-77722517D01*
X160173279Y-77726616D01*
X160151848Y-77742658D01*
X160145031Y-77747761D01*
X160131314Y-77755251D01*
X160063062Y-77770105D01*
X160061254Y-77769976D01*
X160003031Y-77750600D01*
X159996528Y-77746420D01*
X159975901Y-77729797D01*
X159968620Y-77722517D01*
X159968615Y-77722513D01*
X159968613Y-77722511D01*
X159865886Y-77663201D01*
X159751309Y-77632500D01*
X159751306Y-77632500D01*
X159632691Y-77632500D01*
X159541728Y-77656873D01*
X159541723Y-77656874D01*
X159518114Y-77663201D01*
X159518112Y-77663201D01*
X159518112Y-77663202D01*
X159496946Y-77675422D01*
X159496937Y-77675426D01*
X159415393Y-77722507D01*
X159415380Y-77722515D01*
X159415379Y-77722517D01*
X159411279Y-77726616D01*
X159389848Y-77742658D01*
X159383031Y-77747761D01*
X159369314Y-77755251D01*
X159301062Y-77770105D01*
X159299254Y-77769976D01*
X159241031Y-77750600D01*
X159234528Y-77746420D01*
X159213901Y-77729797D01*
X159206620Y-77722517D01*
X159206615Y-77722513D01*
X159206613Y-77722511D01*
X159103886Y-77663201D01*
X158989309Y-77632500D01*
X158989306Y-77632500D01*
X158870691Y-77632500D01*
X158779728Y-77656873D01*
X158779723Y-77656874D01*
X158756114Y-77663201D01*
X158756112Y-77663201D01*
X158756112Y-77663202D01*
X158734946Y-77675422D01*
X158734937Y-77675426D01*
X158653393Y-77722507D01*
X158653380Y-77722515D01*
X158653379Y-77722517D01*
X158649279Y-77726616D01*
X158627848Y-77742658D01*
X158621031Y-77747761D01*
X158607314Y-77755251D01*
X158539062Y-77770105D01*
X158537254Y-77769976D01*
X158479031Y-77750600D01*
X158472528Y-77746420D01*
X158451901Y-77729797D01*
X158444620Y-77722517D01*
X158444615Y-77722513D01*
X158444613Y-77722511D01*
X158341886Y-77663201D01*
X158227309Y-77632500D01*
X158227306Y-77632500D01*
X158108691Y-77632500D01*
X158017728Y-77656873D01*
X158017723Y-77656874D01*
X157994114Y-77663201D01*
X157994112Y-77663201D01*
X157994112Y-77663202D01*
X157972946Y-77675422D01*
X157972937Y-77675426D01*
X157891393Y-77722507D01*
X157891380Y-77722515D01*
X157891379Y-77722517D01*
X157887279Y-77726616D01*
X157865848Y-77742658D01*
X157859031Y-77747761D01*
X157845314Y-77755251D01*
X157777062Y-77770105D01*
X157775254Y-77769976D01*
X157717031Y-77750600D01*
X157710528Y-77746420D01*
X157689901Y-77729797D01*
X157682620Y-77722517D01*
X157682615Y-77722513D01*
X157682613Y-77722511D01*
X157579886Y-77663201D01*
X157465309Y-77632500D01*
X157465306Y-77632500D01*
X157346691Y-77632500D01*
X157255728Y-77656873D01*
X157255723Y-77656874D01*
X157232114Y-77663201D01*
X157232112Y-77663201D01*
X157232112Y-77663202D01*
X157210947Y-77675421D01*
X157210939Y-77675425D01*
X157129386Y-77722511D01*
X157129378Y-77722517D01*
X157045517Y-77806378D01*
X157045513Y-77806383D01*
X157032144Y-77829539D01*
X156986201Y-77909114D01*
X156955500Y-78023691D01*
X156955500Y-78023693D01*
X156955500Y-78142304D01*
X156955499Y-78142305D01*
X155866666Y-78142305D01*
X155868460Y-78140511D01*
X155871222Y-78135727D01*
X155908021Y-78071989D01*
X155928500Y-77995562D01*
X155928500Y-73705691D01*
X179815500Y-73705691D01*
X179815500Y-73824309D01*
X179846201Y-73938886D01*
X179905511Y-74041613D01*
X179989387Y-74125489D01*
X180092114Y-74184799D01*
X180206691Y-74215500D01*
X180206694Y-74215500D01*
X180325306Y-74215500D01*
X180325309Y-74215500D01*
X180439886Y-74184799D01*
X180542613Y-74125489D01*
X180626489Y-74041613D01*
X180685799Y-73938886D01*
X180716500Y-73824309D01*
X180716500Y-73705691D01*
X180685799Y-73591114D01*
X180626489Y-73488387D01*
X180542613Y-73404511D01*
X180439886Y-73345201D01*
X180325309Y-73314500D01*
X180325306Y-73314500D01*
X180206691Y-73314500D01*
X180115728Y-73338873D01*
X180115723Y-73338874D01*
X180092114Y-73345201D01*
X180092112Y-73345201D01*
X180092112Y-73345202D01*
X180070947Y-73357421D01*
X180070939Y-73357425D01*
X179989386Y-73404511D01*
X179989378Y-73404517D01*
X179905517Y-73488378D01*
X179905513Y-73488383D01*
X179905511Y-73488387D01*
X179846201Y-73591114D01*
X179815500Y-73705691D01*
X155928500Y-73705691D01*
X155928500Y-71165691D01*
X180069500Y-71165691D01*
X180069500Y-71284309D01*
X180100201Y-71398886D01*
X180159511Y-71501613D01*
X180243387Y-71585489D01*
X180346114Y-71644799D01*
X180460691Y-71675500D01*
X180460694Y-71675500D01*
X180579306Y-71675500D01*
X180579309Y-71675500D01*
X180693886Y-71644799D01*
X180796613Y-71585489D01*
X180880489Y-71501613D01*
X180939799Y-71398886D01*
X180970500Y-71284309D01*
X180970500Y-71165691D01*
X180939799Y-71051114D01*
X180880489Y-70948387D01*
X180796613Y-70864511D01*
X180693886Y-70805201D01*
X180579309Y-70774500D01*
X180579306Y-70774500D01*
X180460691Y-70774500D01*
X180369728Y-70798873D01*
X180369723Y-70798874D01*
X180346114Y-70805201D01*
X180346112Y-70805201D01*
X180346112Y-70805202D01*
X180324947Y-70817421D01*
X180324939Y-70817425D01*
X180243386Y-70864511D01*
X180243378Y-70864517D01*
X180159517Y-70948378D01*
X180159513Y-70948383D01*
X180159511Y-70948387D01*
X180100201Y-71051114D01*
X180069500Y-71165691D01*
X155928500Y-71165691D01*
X155928500Y-67857329D01*
X155933523Y-67822393D01*
X155937927Y-67807395D01*
X155939770Y-67804527D01*
X155975672Y-67748644D01*
X155975700Y-67748619D01*
X155975699Y-67748619D01*
X155977041Y-67747456D01*
X156031920Y-67719977D01*
X156039479Y-67718333D01*
X156065832Y-67715500D01*
X157508206Y-67715500D01*
X157536677Y-67719593D01*
X157543138Y-67720521D01*
X157568382Y-67727934D01*
X157621128Y-67759230D01*
X157637387Y-67775489D01*
X157740114Y-67834799D01*
X157854691Y-67865500D01*
X157854694Y-67865500D01*
X157973306Y-67865500D01*
X157973309Y-67865500D01*
X158087886Y-67834799D01*
X158190613Y-67775489D01*
X158274489Y-67691613D01*
X158333799Y-67588886D01*
X158364500Y-67474309D01*
X158364500Y-67355691D01*
X158333799Y-67241114D01*
X158274489Y-67138387D01*
X158190613Y-67054511D01*
X158087886Y-66995201D01*
X157973309Y-66964500D01*
X157973306Y-66964500D01*
X157854691Y-66964500D01*
X157763728Y-66988873D01*
X157763723Y-66988874D01*
X157740114Y-66995201D01*
X157740112Y-66995201D01*
X157740112Y-66995202D01*
X157718947Y-67007421D01*
X157718939Y-67007425D01*
X157637386Y-67054511D01*
X157637383Y-67054513D01*
X157626326Y-67065570D01*
X157626325Y-67065572D01*
X157626322Y-67065574D01*
X157598071Y-67086724D01*
X157574984Y-67099331D01*
X157515555Y-67114500D01*
X156033794Y-67114500D01*
X155998858Y-67109477D01*
X155973616Y-67102065D01*
X155920871Y-67070769D01*
X155904615Y-67054513D01*
X155904613Y-67054511D01*
X155801886Y-66995201D01*
X155687309Y-66964500D01*
X155687306Y-66964500D01*
X155568691Y-66964500D01*
X155477728Y-66988873D01*
X155477723Y-66988874D01*
X155454114Y-66995201D01*
X155454112Y-66995201D01*
X155454112Y-66995202D01*
X155432947Y-67007421D01*
X155432939Y-67007425D01*
X155351386Y-67054511D01*
X155351383Y-67054513D01*
X155340326Y-67065570D01*
X155340325Y-67065572D01*
X155340322Y-67065574D01*
X155312071Y-67086724D01*
X155288984Y-67099331D01*
X155229555Y-67114500D01*
X146804663Y-67114500D01*
X146769727Y-67109477D01*
X146744485Y-67102065D01*
X146691740Y-67070769D01*
X135680426Y-56059455D01*
X135680421Y-56059450D01*
X135659274Y-56031199D01*
X135646667Y-56008110D01*
X135631500Y-55948685D01*
X135631500Y-55925693D01*
X135631500Y-55925691D01*
X135600799Y-55811114D01*
X135541489Y-55708387D01*
X135457613Y-55624511D01*
X135354886Y-55565201D01*
X135240309Y-55534500D01*
X135240306Y-55534500D01*
X135121691Y-55534500D01*
X135030728Y-55558873D01*
X135030723Y-55558874D01*
X135007114Y-55565201D01*
X135007112Y-55565201D01*
X135007112Y-55565202D01*
X134985947Y-55577421D01*
X134985939Y-55577425D01*
X134904386Y-55624511D01*
X134904378Y-55624517D01*
X134820517Y-55708378D01*
X134820513Y-55708383D01*
X134820512Y-55708385D01*
X134820511Y-55708387D01*
X134786459Y-55767367D01*
X134761201Y-55811114D01*
X134730500Y-55925691D01*
X113111500Y-55925691D01*
X113111500Y-54803500D01*
X113131185Y-54736461D01*
X113183989Y-54690706D01*
X113235500Y-54679500D01*
X155235034Y-54679500D01*
X155302073Y-54699185D01*
G37*
%TD.AperFunction*%
%TD*%
M02*
