M48
; DRILL file KiCad 10.0.4-10.0.4~ubuntu24.04.1 date 2026-06-21T14:51:14
; FORMAT={-:-/ absolute / metric / decimal}
; #@! TF.CreationDate,2026-06-21T14:51:14+00:00
; #@! TF.GenerationSoftware,Kicad,Pcbnew,10.0.4-10.0.4~ubuntu24.04.1
; #@! TF.FileFunction,MixedPlating,1,4
FMAT,2
METRIC
; #@! TA.AperFunction,Plated,PTH,ComponentDrill
T1C0.200
; #@! TA.AperFunction,Plated,PTH,ViaDrill
T2C0.300
; #@! TA.AperFunction,Plated,PTH,ComponentDrill
T3C0.500
; #@! TA.AperFunction,Plated,PTH,ComponentDrill
T4C0.600
; #@! TA.AperFunction,Plated,PTH,ComponentDrill
T5C1.020
; #@! TA.AperFunction,Plated,PTH,ComponentDrill
T6C1.100
; #@! TA.AperFunction,Plated,PTH,ComponentDrill
T7C2.410
; #@! TA.AperFunction,Plated,PTH,ComponentDrill
T8C3.180
; #@! TA.AperFunction,NonPlated,NPTH,ComponentDrill
T9C0.650
%
G90
G05
T1
X151.492Y-60.485
X151.492Y-61.645
X151.492Y-72.677
X151.492Y-73.837
X152.072Y-61.065
X152.072Y-73.257
X152.652Y-60.485
X152.652Y-61.645
X152.652Y-72.677
X152.652Y-73.837
T2
X114.226Y-60.938
X114.988Y-60.938
X115.75Y-60.938
X116.512Y-60.938
X117.274Y-60.938
X117.528Y-77.702
X118.163Y-64.748
X119.306Y-58.398
X119.433Y-93.196
X119.433Y-102.346
X119.433Y-113.516
X119.433Y-122.66
X121.211Y-65.637
X124.132Y-55.985
X124.132Y-58.144
X124.132Y-91.799
X124.132Y-103.737
X124.132Y-110.341
X124.132Y-124.057
X126.542Y-111.23
X126.545Y-90.91
X126.545Y-104.626
X126.672Y-124.946
X126.799Y-97.139
X126.799Y-99.679
X126.799Y-117.453
X126.799Y-119.993
X128.069Y-94.218
X128.069Y-101.33
X128.196Y-114.532
X128.196Y-121.644
X128.45Y-63.351
X129.72Y-63.351
X131.371Y-58.144
X132.387Y-65.383
X134.165Y-132.312
X134.292Y-100.816
X135.181Y-55.985
X135.181Y-128.502
X136.578Y-130.28
X137.34Y-134.979
X138.229Y-70.336
X138.737Y-103.229
X139.118Y-130.28
X140.515Y-128.502
X140.515Y-132.312
X140.642Y-71.225
X140.769Y-72.622
X141.404Y-102.34
X141.658Y-106.277
X142.547Y-103.737
X142.547Y-108.817
X142.801Y-116.183
X143.436Y-82.782
X143.944Y-85.322
X144.452Y-132.439
X145.341Y-129.391
X146.23Y-92.434
X146.23Y-93.196
X146.23Y-94.212
X146.23Y-94.974
X146.357Y-86.211
X146.611Y-65.764
X146.611Y-77.956
X146.611Y-125.327
X146.865Y-56.747
X146.865Y-68.939
X147.373Y-65.764
X147.373Y-77.956
X147.627Y-56.747
X147.627Y-68.939
X147.881Y-129.391
X148.135Y-65.764
X148.135Y-77.956
X148.262Y-124.692
X148.643Y-81.639
X148.643Y-85.068
X148.897Y-65.764
X148.897Y-77.956
X149.151Y-125.327
X149.278Y-114.786
X150.167Y-123.93
X150.171Y-102.182
X150.421Y-129.391
X150.858Y-58.787
X150.858Y-70.979
X150.929Y-81.639
X150.929Y-85.195
X151.437Y-63.351
X151.564Y-75.543
X151.62Y-58.787
X151.62Y-70.979
X151.691Y-125.327
X152.961Y-129.391
X153.215Y-124.692
X153.469Y-62.97
X153.469Y-75.162
X155.247Y-66.145
X155.247Y-78.337
X155.628Y-55.223
X155.628Y-67.415
X156.263Y-79.988
X156.263Y-81.258
X157.152Y-79.353
X157.152Y-81.258
X157.406Y-65.891
X157.406Y-78.083
X157.914Y-55.223
X157.914Y-67.415
X158.041Y-84.433
X158.168Y-65.891
X158.168Y-78.083
X158.549Y-106.531
X158.93Y-65.891
X158.93Y-78.083
X159.565Y-84.433
X159.692Y-65.891
X159.692Y-78.083
X160.073Y-106.531
X160.454Y-65.891
X160.454Y-78.083
X161.216Y-65.891
X161.216Y-78.083
X162.867Y-103.102
X163.756Y-86.846
X163.756Y-88.37
X163.756Y-90.656
X163.756Y-92.18
X163.756Y-96.879
X163.756Y-98.403
X165.534Y-99.8
X165.534Y-104.626
X165.661Y-72.876
X166.042Y-90.656
X166.423Y-72.876
X166.423Y-78.718
X166.423Y-79.988
X166.423Y-81.258
X166.55Y-86.592
X166.55Y-88.37
X167.185Y-72.876
X167.185Y-78.718
X167.185Y-80.623
X167.312Y-99.419
X167.947Y-72.876
X168.201Y-81.258
X168.709Y-72.876
X169.719Y-81.258
X169.725Y-79.353
X170.36Y-71.225
X170.36Y-74.781
X170.36Y-78.337
X170.614Y-92.561
X170.989Y-87.103
X172.513Y-83.166
X172.513Y-87.103
X172.646Y-74.781
X172.646Y-78.337
X173.281Y-126.089
X173.281Y-127.232
X174.17Y-118.723
X174.678Y-87.1
X174.932Y-118.723
X175.186Y-74.527
X175.186Y-78.337
X175.186Y-79.353
X175.186Y-81.258
X175.694Y-118.723
X176.456Y-85.83
X176.71Y-73.765
X177.726Y-79.988
X177.726Y-81.258
X178.234Y-87.1
X180.266Y-73.765
X180.266Y-78.718
X180.52Y-71.225
X181.028Y-78.718
X181.028Y-79.988
X181.917Y-78.718
X181.917Y-80.623
X181.917Y-83.798
X182.298Y-74.908
X182.298Y-75.67
X182.552Y-84.56
X182.933Y-119.485
X182.933Y-120.628
X182.933Y-121.771
X183.822Y-83.798
X183.822Y-84.56
X184.076Y-73.765
X184.584Y-71.225
X184.838Y-82.401
X185.219Y-114.532
X185.346Y-86.465
X186.108Y-126.597
X186.108Y-127.994
X186.743Y-86.465
X186.87Y-126.597
X186.87Y-127.994
X186.997Y-117.072
X186.997Y-122.787
X187.632Y-126.597
X187.632Y-127.994
X187.759Y-117.072
X188.394Y-126.597
X188.394Y-127.994
X188.521Y-117.072
X189.156Y-126.597
X189.156Y-127.994
X189.283Y-80.75
X189.283Y-84.306
X189.918Y-125.962
X189.918Y-127.994
X190.68Y-85.703
X190.68Y-87.481
X190.68Y-125.962
X190.68Y-127.994
X191.315Y-116.31
X191.315Y-123.676
X191.442Y-125.962
X191.442Y-127.994
X192.204Y-125.962
X192.204Y-127.994
X192.966Y-125.962
X192.966Y-127.994
X193.601Y-116.31
X193.601Y-123.676
X193.728Y-125.962
X193.728Y-127.994
X194.49Y-127.994
X195.252Y-127.994
X196.014Y-123.676
X196.014Y-124.438
X196.014Y-125.2
X196.014Y-125.962
X196.014Y-127.994
X196.014Y-128.756
X196.014Y-129.518
X196.014Y-130.28
T3
X109.146Y-75.934
X109.146Y-77.184
X109.146Y-82.538
X109.146Y-83.788
X144.776Y-136.249
X146.026Y-136.249
X147.276Y-136.249
X148.526Y-136.249
X149.776Y-136.249
X151.026Y-136.249
X152.276Y-136.249
X153.526Y-136.249
T5
X113.591Y-65.788
X113.591Y-68.788
X156.517Y-125.962
X156.517Y-128.502
X161.597Y-125.962
X161.597Y-128.502
X161.597Y-131.042
T6
X108.511Y-90.148
X108.511Y-95.228
X108.511Y-100.308
X108.511Y-105.388
X108.511Y-110.468
X108.511Y-115.548
X108.511Y-120.628
X108.511Y-125.708
T7
X109.271Y-63.638
X109.271Y-70.938
T8
X109.776Y-58.144
X109.776Y-131.804
X195.506Y-55.604
X195.506Y-135.614
T9
X134.44Y-134.463
X140.23Y-134.463
T4
X133.02Y-133.413G85X133.02Y-134.513
G05
X133.02Y-137.743G85X133.02Y-138.543
G05
X141.66Y-133.413G85X141.66Y-134.513
G05
X141.66Y-137.743G85X141.66Y-138.543
G05
M30
