M48
; DRILL file KiCad 10.0.3-10.0.3~ubuntu24.04.1 date 2026-06-15T00:28:57
; FORMAT={-:-/ absolute / metric / decimal}
; #@! TF.CreationDate,2026-06-15T00:28:57+00:00
; #@! TF.GenerationSoftware,Kicad,Pcbnew,10.0.3-10.0.3~ubuntu24.04.1
; #@! TF.FileFunction,MixedPlating,1,4
FMAT,2
METRIC
; #@! TA.AperFunction,Plated,PTH,ComponentDrill
T1C0.200
; #@! TA.AperFunction,Plated,PTH,ViaDrill
T2C0.300
; #@! TA.AperFunction,Plated,PTH,ComponentDrill
T3C0.500
; #@! TA.AperFunction,Plated,PTH,ComponentDrill
T4C0.600
; #@! TA.AperFunction,Plated,PTH,ComponentDrill
T5C1.020
; #@! TA.AperFunction,Plated,PTH,ComponentDrill
T6C1.100
; #@! TA.AperFunction,Plated,PTH,ComponentDrill
T7C2.410
; #@! TA.AperFunction,Plated,PTH,ViaDrill
T8C3.180
; #@! TA.AperFunction,NonPlated,NPTH,ComponentDrill
T9C0.650
%
G90
G05
T1
X151.492Y-60.485
X151.492Y-61.645
X151.492Y-72.677
X151.492Y-73.837
X152.072Y-61.065
X152.072Y-73.257
X152.652Y-60.485
X152.652Y-61.645
X152.652Y-72.677
X152.652Y-73.837
T2
X114.226Y-60.938
X114.988Y-60.938
X115.75Y-60.938
X116.512Y-60.938
X117.274Y-60.938
X117.528Y-77.702
X118.163Y-64.748
X119.306Y-58.398
X119.433Y-93.196
X119.433Y-102.346
X119.433Y-113.516
X119.433Y-122.66
X121.211Y-65.637
X124.132Y-55.985
X124.132Y-58.144
X124.132Y-91.799
X124.132Y-103.737
X124.132Y-110.341
X124.132Y-124.057
X126.542Y-111.23
X126.545Y-90.91
X126.545Y-104.626
X126.672Y-124.946
X126.799Y-97.139
X126.799Y-99.679
X126.799Y-117.453
X126.799Y-119.993
X128.069Y-94.218
X128.069Y-101.33
X128.196Y-114.532
X128.196Y-121.644
X128.45Y-63.351
X129.72Y-63.351
X131.371Y-58.144
X132.387Y-65.383
X134.165Y-132.312
X134.292Y-100.816
X135.181Y-55.985
X135.181Y-128.502
X136.578Y-130.28
X137.34Y-134.979
X138.229Y-70.336
X138.737Y-103.229
X139.118Y-130.28
X140.515Y-128.502
X140.515Y-132.312
X140.642Y-71.225
X140.769Y-72.622
X141.404Y-102.34
X141.658Y-106.277
X142.547Y-103.737
X142.547Y-108.817
X142.801Y-116.183
X143.436Y-82.782
X143.944Y-85.322
X144.452Y-132.439
X145.341Y-129.391
X146.23Y-92.434
X146.23Y-93.196
X146.23Y-94.212
X146.23Y-94.974
X146.357Y-86.211
X146.611Y-65.764
X146.611Y-77.956
X146.611Y-125.327
X146.865Y-56.747
X146.865Y-68.939
X147.373Y-65.764
X147.373Y-77.956
X147.627Y-56.747
X147.627Y-68.939
X147.881Y-129.391
X148.135Y-65.764
X148.135Y-77.956
X148.262Y-124.692
X148.643Y-81.639
X148.897Y-65.764
X148.897Y-77.956
X149.151Y-125.327
X149.278Y-114.786
X150.167Y-123.93
X150.171Y-102.182
X150.421Y-129.391
X150.858Y-58.787
X150.858Y-70.979
X150.929Y-81.639
X151.437Y-63.351
X151.564Y-75.543
X151.62Y-58.787
X151.62Y-70.979
X151.691Y-125.327
X152.961Y-129.391
X153.215Y-124.692
X153.469Y-62.97
X153.469Y-75.162
X155.247Y-66.145
X155.247Y-78.337
X155.374Y-80.623
X155.628Y-55.223
X155.628Y-67.415
X156.009Y-79.988
X157.406Y-65.891
X157.406Y-78.083
X157.406Y-79.988
X157.914Y-55.223
X157.914Y-67.415
X157.914Y-80.623
X158.041Y-84.433
X158.168Y-65.891
X158.168Y-78.083
X158.549Y-106.531
X158.93Y-65.891
X158.93Y-78.083
X159.565Y-84.433
X159.692Y-65.891
X159.692Y-78.083
X160.073Y-106.531
X160.454Y-65.891
X160.454Y-78.083
X161.216Y-65.891
X161.216Y-78.083
X162.867Y-103.102
X163.756Y-86.846
X163.756Y-88.37
X163.756Y-90.656
X163.756Y-92.18
X163.756Y-96.879
X163.756Y-98.403
X165.534Y-99.8
X165.534Y-104.626
X166.042Y-90.656
X166.55Y-86.592
X166.55Y-88.37
X167.312Y-99.419
X170.614Y-92.561
X173.281Y-87.735
X173.281Y-88.878
X173.535Y-129.899
X173.535Y-132.185
X173.535Y-134.725
X174.17Y-80.369
X174.932Y-80.369
X175.694Y-80.369
X177.091Y-129.899
X177.091Y-132.185
X177.345Y-134.725
X178.996Y-125.2
X178.996Y-125.962
X178.996Y-126.724
X178.996Y-127.486
X178.996Y-128.248
X180.647Y-129.899
X182.298Y-124.819
X182.298Y-129.899
X183.06Y-124.819
X183.949Y-134.344
X184.203Y-117.329
X184.203Y-119.231
X184.203Y-122.787
X184.203Y-126.597
X185.219Y-76.178
X185.727Y-113.392
X185.727Y-117.329
X185.854Y-129.899
X186.108Y-88.243
X186.108Y-89.64
X186.743Y-123.041
X186.743Y-127.105
X186.87Y-88.243
X186.87Y-89.64
X186.997Y-78.718
X186.997Y-84.433
X187.251Y-128.502
X187.632Y-88.243
X187.632Y-89.64
X187.759Y-78.718
X188.013Y-132.439
X188.013Y-133.836
X188.394Y-88.243
X188.394Y-89.64
X188.521Y-78.718
X189.029Y-128.502
X189.156Y-88.243
X189.156Y-89.64
X189.918Y-87.608
X189.918Y-89.64
X190.553Y-116.437
X190.553Y-119.993
X190.68Y-87.608
X190.68Y-89.64
X191.315Y-77.956
X191.315Y-85.322
X191.442Y-87.608
X191.442Y-89.64
X191.823Y-118.215
X192.204Y-87.608
X192.204Y-89.64
X192.966Y-87.608
X192.966Y-89.64
X193.601Y-77.956
X193.601Y-85.322
X193.728Y-87.608
X193.728Y-89.64
X194.49Y-89.64
X195.252Y-89.64
X196.014Y-85.322
X196.014Y-86.084
X196.014Y-86.846
X196.014Y-87.608
X196.014Y-89.64
X196.014Y-90.402
X196.014Y-91.164
X196.014Y-91.926
T3
X109.146Y-75.934
X109.146Y-77.184
X109.146Y-82.538
X109.146Y-83.788
X144.776Y-136.249
X146.026Y-136.249
X147.276Y-136.249
X148.526Y-136.249
X149.776Y-136.249
X151.026Y-136.249
X152.276Y-136.249
X153.526Y-136.249
T5
X113.591Y-65.788
X113.591Y-68.788
X156.517Y-125.962
X156.517Y-128.502
X161.597Y-125.962
X161.597Y-128.502
X161.597Y-131.042
T6
X108.511Y-90.148
X108.511Y-95.228
X108.511Y-100.308
X108.511Y-105.388
X108.511Y-110.468
X108.511Y-115.548
X108.511Y-120.628
X108.511Y-125.708
T7
X109.271Y-63.638
X109.271Y-70.938
T8
X109.776Y-58.144
X109.776Y-131.804
X195.506Y-55.604
X195.506Y-135.614
T9
X134.44Y-134.463
X140.23Y-134.463
T4
X133.02Y-133.413G85X133.02Y-134.513
G05
X133.02Y-137.743G85X133.02Y-138.543
G05
X141.66Y-133.413G85X141.66Y-134.513
G05
X141.66Y-137.743G85X141.66Y-138.543
G05
M30
