%TF.GenerationSoftware,KiCad,Pcbnew,10.0.3-10.0.3~ubuntu24.04.1*%
%TF.CreationDate,2026-06-15T00:39:43+00:00*%
%TF.ProjectId,flight_computer,666c6967-6874-45f6-936f-6d7075746572,A*%
%TF.SameCoordinates,Original*%
%TF.FileFunction,Soldermask,Bot*%
%TF.FilePolarity,Negative*%
%FSLAX46Y46*%
G04 Gerber Fmt 4.6, Leading zero omitted, Abs format (unit mm)*
G04 Created by KiCad (PCBNEW 10.0.3-10.0.3~ubuntu24.04.1) date 2026-06-15 00:39:43*
%MOMM*%
%LPD*%
G01*
G04 APERTURE LIST*
%ADD10C,1.000000*%
%ADD11C,2.100000*%
%ADD12R,4.200000X1.350000*%
%ADD13C,1.620000*%
%ADD14C,3.010000*%
%ADD15C,0.650000*%
%ADD16O,1.000000X2.100000*%
%ADD17O,1.000000X1.800000*%
%ADD18C,2.020000*%
%ADD19C,6.350000*%
G04 APERTURE END LIST*
D10*
%TO.C,J2*%
X109146000Y-75934000D03*
X109146000Y-77184000D03*
%TD*%
D11*
%TO.C,J4*%
X108511000Y-120628000D03*
X108511000Y-125708000D03*
%TD*%
D10*
%TO.C,J3*%
X109146000Y-82538000D03*
X109146000Y-83788000D03*
%TD*%
D12*
%TO.C,J12*%
X198486000Y-91449000D03*
X198486000Y-85799000D03*
%TD*%
D13*
%TO.C,J1*%
X113591000Y-68788000D03*
X113591000Y-65788000D03*
D14*
X109271000Y-63638000D03*
X109271000Y-70938000D03*
%TD*%
D10*
%TO.C,J8*%
X144776000Y-136249000D03*
X146026000Y-136249000D03*
X147276000Y-136249000D03*
X148526000Y-136249000D03*
X149776000Y-136249000D03*
X151026000Y-136249000D03*
X152276000Y-136249000D03*
X153526000Y-136249000D03*
%TD*%
D11*
%TO.C,J5*%
X108511000Y-110468000D03*
X108511000Y-115548000D03*
%TD*%
D15*
%TO.C,J9*%
X134440000Y-134463000D03*
X140230000Y-134463000D03*
D16*
X133020000Y-133963000D03*
D17*
X133020000Y-138143000D03*
D16*
X141660000Y-133963000D03*
D17*
X141660000Y-138143000D03*
%TD*%
D18*
%TO.C,J11*%
X161597000Y-131042000D03*
X161597000Y-128502000D03*
X161597000Y-125962000D03*
%TD*%
D11*
%TO.C,J7*%
X108511000Y-90148000D03*
X108511000Y-95228000D03*
%TD*%
%TO.C,J6*%
X108511000Y-100308000D03*
X108511000Y-105388000D03*
%TD*%
D18*
%TO.C,J10*%
X156517000Y-125962000D03*
X156517000Y-128502000D03*
%TD*%
D19*
X195506000Y-135614000D03*
X195506000Y-55604000D03*
X109776000Y-131804000D03*
X109776000Y-58144000D03*
G36*
X200582573Y-93072427D02*
G01*
X200586000Y-93080700D01*
X200586000Y-140682300D01*
X200582573Y-140690573D01*
X200574300Y-140694000D01*
X104707700Y-140694000D01*
X104699427Y-140690573D01*
X104696000Y-140682300D01*
X104696000Y-128640692D01*
X104699427Y-128632419D01*
X104707693Y-128628992D01*
X112944293Y-128624007D01*
X112952568Y-128627429D01*
X112956000Y-128635700D01*
X112956000Y-136694000D01*
X143581154Y-136694000D01*
X143589427Y-136697427D01*
X144085998Y-137193999D01*
X144086000Y-137194000D01*
X154086000Y-137194000D01*
X154582573Y-136697427D01*
X154590846Y-136694000D01*
X192326000Y-136694000D01*
X192326000Y-132445700D01*
X192329427Y-132437427D01*
X192337700Y-132434000D01*
X196586000Y-132434000D01*
X196586000Y-93080700D01*
X196589427Y-93072427D01*
X196597700Y-93069000D01*
X200574300Y-93069000D01*
X200582573Y-93072427D01*
G37*
G36*
X200582573Y-50527427D02*
G01*
X200586000Y-50535700D01*
X200586000Y-84167300D01*
X200582573Y-84175573D01*
X200574300Y-84179000D01*
X196597700Y-84179000D01*
X196589427Y-84175573D01*
X196586000Y-84167300D01*
X196586000Y-58784000D01*
X192337700Y-58784000D01*
X192329427Y-58780573D01*
X192326000Y-58772300D01*
X192326000Y-54524000D01*
X112956000Y-54524000D01*
X112956000Y-61312300D01*
X112952573Y-61320573D01*
X112944300Y-61324000D01*
X108696000Y-61324000D01*
X108696000Y-65117300D01*
X108692573Y-65125573D01*
X108684300Y-65129000D01*
X104707700Y-65129000D01*
X104699427Y-65125573D01*
X104696000Y-65117300D01*
X104696000Y-50535700D01*
X104699427Y-50527427D01*
X104707700Y-50524000D01*
X200574300Y-50524000D01*
X200582573Y-50527427D01*
G37*
M02*
