%TF.GenerationSoftware,KiCad,Pcbnew,10.0.3-10.0.3~ubuntu24.04.1*%
%TF.CreationDate,2026-06-14T23:36:45+00:00*%
%TF.ProjectId,flight_computer,666c6967-6874-45f6-936f-6d7075746572,A*%
%TF.SameCoordinates,Original*%
%TF.FileFunction,Legend,Bot*%
%TF.FilePolarity,Positive*%
%FSLAX46Y46*%
G04 Gerber Fmt 4.6, Leading zero omitted, Abs format (unit mm)*
G04 Created by KiCad (PCBNEW 10.0.3-10.0.3~ubuntu24.04.1) date 2026-06-14 23:36:45*
%MOMM*%
%LPD*%
G01*
G04 APERTURE LIST*
%ADD10C,0.000000*%
G04 APERTURE END LIST*
D10*
%TO.C,G\u002A\u002A\u002A*%
G36*
X140883334Y-85497732D02*
G01*
X140887759Y-85515211D01*
X140892237Y-85547576D01*
X140896981Y-85597226D01*
X140902203Y-85666561D01*
X140908116Y-85757980D01*
X140914935Y-85873884D01*
X140922871Y-86016670D01*
X140938716Y-86283517D01*
X140956531Y-86532257D01*
X140976223Y-86755324D01*
X140998207Y-86954556D01*
X141022902Y-87131794D01*
X141050725Y-87288878D01*
X141082095Y-87427647D01*
X141117428Y-87549942D01*
X141157142Y-87657602D01*
X141201655Y-87752467D01*
X141251385Y-87836378D01*
X141306748Y-87911174D01*
X141368163Y-87978696D01*
X141373741Y-87984219D01*
X141444163Y-88046512D01*
X141524344Y-88103784D01*
X141616448Y-88156795D01*
X141722645Y-88206304D01*
X141845098Y-88253069D01*
X141985977Y-88297851D01*
X142147446Y-88341408D01*
X142331672Y-88384499D01*
X142540823Y-88427883D01*
X142777065Y-88472320D01*
X142778945Y-88472659D01*
X142881678Y-88491343D01*
X142974563Y-88508497D01*
X143053796Y-88523398D01*
X143115577Y-88535322D01*
X143156103Y-88543547D01*
X143171573Y-88547349D01*
X143173386Y-88549190D01*
X143172677Y-88553498D01*
X143162611Y-88558072D01*
X143140366Y-88563376D01*
X143103123Y-88569874D01*
X143048061Y-88578030D01*
X142972359Y-88588307D01*
X142873196Y-88601171D01*
X142747751Y-88617085D01*
X142685718Y-88625013D01*
X142467311Y-88654984D01*
X142275165Y-88685174D01*
X142106871Y-88716300D01*
X141960019Y-88749083D01*
X141832199Y-88784240D01*
X141721000Y-88822490D01*
X141624013Y-88864553D01*
X141538827Y-88911148D01*
X141463033Y-88962992D01*
X141394220Y-89020806D01*
X141342911Y-89071890D01*
X141285953Y-89139804D01*
X141234580Y-89215743D01*
X141188388Y-89301480D01*
X141146972Y-89398789D01*
X141109928Y-89509442D01*
X141076850Y-89635214D01*
X141047334Y-89777877D01*
X141020975Y-89939205D01*
X140997367Y-90120970D01*
X140976108Y-90324947D01*
X140956790Y-90552908D01*
X140939011Y-90806627D01*
X140922364Y-91087876D01*
X140920762Y-91116835D01*
X140914451Y-91226474D01*
X140908289Y-91326960D01*
X140902551Y-91414269D01*
X140897508Y-91484376D01*
X140893434Y-91533258D01*
X140890600Y-91556890D01*
X140882552Y-91593531D01*
X140872095Y-91556890D01*
X140871665Y-91555259D01*
X140866851Y-91524461D01*
X140861485Y-91471991D01*
X140856190Y-91404769D01*
X140851592Y-91329711D01*
X140844405Y-91198815D01*
X140827444Y-90925895D01*
X140808839Y-90671225D01*
X140788757Y-90436385D01*
X140767363Y-90222955D01*
X140744823Y-90032514D01*
X140721301Y-89866642D01*
X140696964Y-89726920D01*
X140671977Y-89614927D01*
X140640911Y-89505571D01*
X140587430Y-89358038D01*
X140523814Y-89228869D01*
X140447969Y-89116511D01*
X140357801Y-89019409D01*
X140251214Y-88936009D01*
X140126115Y-88864757D01*
X139980408Y-88804099D01*
X139812001Y-88752481D01*
X139618797Y-88708349D01*
X139398704Y-88670148D01*
X139356001Y-88663831D01*
X139283342Y-88653578D01*
X139197351Y-88641839D01*
X139102738Y-88629218D01*
X139004210Y-88616319D01*
X138906477Y-88603746D01*
X138814247Y-88592104D01*
X138732228Y-88581997D01*
X138665129Y-88574029D01*
X138617659Y-88568806D01*
X138594526Y-88566930D01*
X138588221Y-88565470D01*
X138593320Y-88553222D01*
X138605873Y-88547966D01*
X138643687Y-88537732D01*
X138701385Y-88524506D01*
X138773960Y-88509424D01*
X138856407Y-88493620D01*
X138961941Y-88473917D01*
X139196792Y-88427696D01*
X139405282Y-88382654D01*
X139589432Y-88337947D01*
X139751262Y-88292726D01*
X139892791Y-88246145D01*
X140016039Y-88197357D01*
X140123026Y-88145516D01*
X140215771Y-88089774D01*
X140296294Y-88029284D01*
X140366615Y-87963200D01*
X140428753Y-87890675D01*
X140484729Y-87810861D01*
X140517751Y-87755819D01*
X140557117Y-87678990D01*
X140593046Y-87594015D01*
X140625891Y-87498969D01*
X140656005Y-87391929D01*
X140683742Y-87270970D01*
X140709457Y-87134169D01*
X140733502Y-86979602D01*
X140756232Y-86805345D01*
X140778000Y-86609474D01*
X140799160Y-86390065D01*
X140820066Y-86145194D01*
X140841072Y-85872937D01*
X140847579Y-85787551D01*
X140855176Y-85694355D01*
X140862237Y-85614406D01*
X140868389Y-85551703D01*
X140873258Y-85510244D01*
X140876470Y-85494030D01*
X140878747Y-85492740D01*
X140883334Y-85497732D01*
G37*
G36*
X145491397Y-77312702D02*
G01*
X145503293Y-77328932D01*
X145503310Y-77330022D01*
X145504373Y-77354421D01*
X145506930Y-77403921D01*
X145510767Y-77474818D01*
X145515672Y-77563410D01*
X145521432Y-77665993D01*
X145527836Y-77778863D01*
X145534669Y-77898316D01*
X145541720Y-78020649D01*
X145548776Y-78142159D01*
X145555625Y-78259141D01*
X145562053Y-78367892D01*
X145567849Y-78464709D01*
X145572799Y-78545889D01*
X145576692Y-78607726D01*
X145586418Y-78753147D01*
X145610084Y-79068436D01*
X145635706Y-79356871D01*
X145663580Y-79620142D01*
X145694005Y-79859935D01*
X145727279Y-80077940D01*
X145763702Y-80275846D01*
X145803570Y-80455339D01*
X145847184Y-80618110D01*
X145894840Y-80765845D01*
X145946837Y-80900234D01*
X146003474Y-81022964D01*
X146049653Y-81106597D01*
X146149121Y-81252546D01*
X146266512Y-81391174D01*
X146395354Y-81515163D01*
X146529171Y-81617194D01*
X146597903Y-81660200D01*
X146739677Y-81736562D01*
X146901537Y-81809077D01*
X147085021Y-81878259D01*
X147291664Y-81944624D01*
X147523002Y-82008686D01*
X147780572Y-82070959D01*
X148065910Y-82131958D01*
X148113956Y-82141498D01*
X148191054Y-82156439D01*
X148283563Y-82174082D01*
X148387795Y-82193747D01*
X148500069Y-82214758D01*
X148616697Y-82236435D01*
X148733997Y-82258101D01*
X148848284Y-82279079D01*
X148955873Y-82298689D01*
X149053079Y-82316255D01*
X149136218Y-82331097D01*
X149201606Y-82342538D01*
X149245558Y-82349900D01*
X149264390Y-82352504D01*
X149266752Y-82354456D01*
X149269967Y-82373114D01*
X149269300Y-82376967D01*
X149248825Y-82392112D01*
X149200348Y-82402410D01*
X149194289Y-82403159D01*
X149154959Y-82407918D01*
X149092031Y-82415451D01*
X149009841Y-82425242D01*
X148912721Y-82436775D01*
X148805006Y-82449535D01*
X148691029Y-82463006D01*
X148458469Y-82491368D01*
X148176125Y-82528812D01*
X147919934Y-82566734D01*
X147688100Y-82605617D01*
X147478825Y-82645944D01*
X147290315Y-82688197D01*
X147120771Y-82732859D01*
X146968399Y-82780413D01*
X146831401Y-82831342D01*
X146707981Y-82886129D01*
X146596343Y-82945257D01*
X146494691Y-83009208D01*
X146401228Y-83078465D01*
X146340301Y-83129999D01*
X146248964Y-83219479D01*
X146165312Y-83318520D01*
X146088898Y-83428637D01*
X146019278Y-83551344D01*
X145956004Y-83688158D01*
X145898632Y-83840591D01*
X145846714Y-84010159D01*
X145799805Y-84198377D01*
X145757458Y-84406759D01*
X145719228Y-84636820D01*
X145684669Y-84890075D01*
X145653333Y-85168038D01*
X145624777Y-85472225D01*
X145598552Y-85804149D01*
X145594862Y-85857049D01*
X145589733Y-85934348D01*
X145583577Y-86029823D01*
X145576600Y-86140084D01*
X145569005Y-86261745D01*
X145560997Y-86391416D01*
X145552781Y-86525711D01*
X145544561Y-86661241D01*
X145536542Y-86794618D01*
X145528927Y-86922455D01*
X145521923Y-87041364D01*
X145515733Y-87147956D01*
X145510562Y-87238844D01*
X145506615Y-87310640D01*
X145504095Y-87359956D01*
X145503208Y-87383404D01*
X145500752Y-87388436D01*
X145481219Y-87394397D01*
X145471145Y-87393071D01*
X145459234Y-87382544D01*
X145458833Y-87361621D01*
X145456462Y-87305100D01*
X145452156Y-87224321D01*
X145446133Y-87122390D01*
X145438617Y-87002414D01*
X145429826Y-86867500D01*
X145419981Y-86720756D01*
X145409304Y-86565288D01*
X145398015Y-86404203D01*
X145386334Y-86240609D01*
X145374482Y-86077612D01*
X145362680Y-85918319D01*
X145351148Y-85765837D01*
X145340107Y-85623274D01*
X145329778Y-85493737D01*
X145320381Y-85380331D01*
X145312137Y-85286165D01*
X145305266Y-85214346D01*
X145282014Y-85002926D01*
X145245519Y-84723821D01*
X145204883Y-84471053D01*
X145159693Y-84242992D01*
X145109537Y-84038003D01*
X145054002Y-83854455D01*
X144992676Y-83690715D01*
X144925147Y-83545151D01*
X144851002Y-83416131D01*
X144821697Y-83371964D01*
X144730183Y-83252720D01*
X144626880Y-83144999D01*
X144509859Y-83047861D01*
X144377191Y-82960366D01*
X144226946Y-82881577D01*
X144057195Y-82810553D01*
X143866008Y-82746355D01*
X143651457Y-82688044D01*
X143411613Y-82634680D01*
X143144545Y-82585325D01*
X143141974Y-82584892D01*
X143086109Y-82576046D01*
X143009049Y-82564621D01*
X142914381Y-82551091D01*
X142805694Y-82535926D01*
X142686576Y-82519601D01*
X142560613Y-82502587D01*
X142431395Y-82485358D01*
X142302508Y-82468386D01*
X142177540Y-82452143D01*
X142060079Y-82437102D01*
X141953714Y-82423737D01*
X141862031Y-82412518D01*
X141788619Y-82403920D01*
X141737065Y-82398414D01*
X141710958Y-82396474D01*
X141695617Y-82392108D01*
X141692576Y-82376887D01*
X141706215Y-82358811D01*
X141732777Y-82346486D01*
X141733001Y-82346440D01*
X141758284Y-82341505D01*
X141808104Y-82332012D01*
X141878266Y-82318754D01*
X141964569Y-82302522D01*
X142062818Y-82284106D01*
X142168813Y-82264299D01*
X142225281Y-82253722D01*
X142527456Y-82195497D01*
X142802479Y-82139403D01*
X143052069Y-82084843D01*
X143277943Y-82031218D01*
X143481820Y-81977930D01*
X143665420Y-81924382D01*
X143830462Y-81869976D01*
X143978663Y-81814113D01*
X144111743Y-81756196D01*
X144231421Y-81695627D01*
X144339415Y-81631807D01*
X144437444Y-81564139D01*
X144527228Y-81492025D01*
X144610484Y-81414867D01*
X144631115Y-81394040D01*
X144718830Y-81295987D01*
X144799122Y-81188996D01*
X144872486Y-81071373D01*
X144939416Y-80941423D01*
X145000407Y-80797451D01*
X145055955Y-80637762D01*
X145106554Y-80460662D01*
X145152699Y-80264455D01*
X145194885Y-80047446D01*
X145233607Y-79807942D01*
X145269360Y-79544246D01*
X145302640Y-79254664D01*
X145333940Y-78937501D01*
X145338512Y-78886293D01*
X145345648Y-78802863D01*
X145354032Y-78701945D01*
X145363406Y-78586873D01*
X145373511Y-78460984D01*
X145384091Y-78327615D01*
X145394887Y-78190102D01*
X145405642Y-78051781D01*
X145416096Y-77915987D01*
X145425994Y-77786058D01*
X145435076Y-77665330D01*
X145443086Y-77557139D01*
X145449764Y-77464820D01*
X145454853Y-77391711D01*
X145458096Y-77341147D01*
X145459234Y-77316466D01*
X145461665Y-77313798D01*
X145481219Y-77310612D01*
X145491397Y-77312702D01*
G37*
G36*
X161564755Y-77318169D02*
G01*
X161596134Y-77449401D01*
X161633410Y-77605317D01*
X161676404Y-77785164D01*
X161724938Y-77988193D01*
X161778831Y-78213653D01*
X161837904Y-78460793D01*
X161901979Y-78728864D01*
X161970875Y-79017115D01*
X162044413Y-79324794D01*
X162122414Y-79651153D01*
X162204698Y-79995440D01*
X162291087Y-80356904D01*
X162381400Y-80734796D01*
X162475459Y-81128364D01*
X162573083Y-81536859D01*
X162674095Y-81959530D01*
X162778313Y-82395626D01*
X162885560Y-82844397D01*
X162995655Y-83305092D01*
X163108419Y-83776962D01*
X163223674Y-84259254D01*
X163341238Y-84751220D01*
X163460934Y-85252108D01*
X163582581Y-85761168D01*
X163706001Y-86277650D01*
X163831014Y-86800802D01*
X163848074Y-86872196D01*
X163972708Y-87393689D01*
X164095685Y-87908131D01*
X164216826Y-88414780D01*
X164335955Y-88912897D01*
X164452893Y-89401742D01*
X164567464Y-89880574D01*
X164679489Y-90348654D01*
X164788792Y-90805242D01*
X164895194Y-91249598D01*
X164998518Y-91680981D01*
X165098586Y-92098652D01*
X165195222Y-92501871D01*
X165288246Y-92889897D01*
X165377482Y-93261992D01*
X165462753Y-93617414D01*
X165543880Y-93955424D01*
X165620686Y-94275282D01*
X165692993Y-94576247D01*
X165760624Y-94857581D01*
X165823402Y-95118542D01*
X165881148Y-95358391D01*
X165933686Y-95576388D01*
X165980837Y-95771793D01*
X166022424Y-95943865D01*
X166058270Y-96091866D01*
X166088197Y-96215054D01*
X166112027Y-96312691D01*
X166129583Y-96384035D01*
X166140687Y-96428347D01*
X166145162Y-96444887D01*
X166148704Y-96451292D01*
X166166500Y-96481542D01*
X166198466Y-96535055D01*
X166243918Y-96610701D01*
X166302171Y-96707353D01*
X166372542Y-96823881D01*
X166454346Y-96959156D01*
X166546898Y-97112048D01*
X166649514Y-97281430D01*
X166761511Y-97466171D01*
X166882203Y-97665143D01*
X167010906Y-97877216D01*
X167146935Y-98101262D01*
X167289608Y-98336152D01*
X167438238Y-98580756D01*
X167592142Y-98833945D01*
X167750636Y-99094591D01*
X167913035Y-99361564D01*
X168007681Y-99517140D01*
X168167746Y-99780305D01*
X168323456Y-100036376D01*
X168474130Y-100284233D01*
X168619087Y-100522753D01*
X168757648Y-100750815D01*
X168889131Y-100967297D01*
X169012856Y-101171079D01*
X169128143Y-101361037D01*
X169234312Y-101536052D01*
X169330681Y-101695000D01*
X169416571Y-101836761D01*
X169491300Y-101960213D01*
X169554189Y-102064235D01*
X169604556Y-102147704D01*
X169641722Y-102209500D01*
X169665006Y-102248500D01*
X169673728Y-102263583D01*
X169675684Y-102271783D01*
X169682298Y-102306681D01*
X169692902Y-102366322D01*
X169707077Y-102448161D01*
X169724403Y-102549650D01*
X169744462Y-102668243D01*
X169766833Y-102801395D01*
X169791098Y-102946559D01*
X169816837Y-103101188D01*
X169843630Y-103262736D01*
X169871058Y-103428658D01*
X169898703Y-103596406D01*
X169926143Y-103763435D01*
X169952961Y-103927198D01*
X169978736Y-104085149D01*
X170003050Y-104234741D01*
X170017642Y-104324954D01*
X170025483Y-104373429D01*
X170045614Y-104498667D01*
X170063027Y-104607907D01*
X170063706Y-104612224D01*
X170077299Y-104698603D01*
X170088013Y-104768211D01*
X170094749Y-104814182D01*
X170097088Y-104833971D01*
X170096891Y-104835940D01*
X170085691Y-104844639D01*
X170054209Y-104847315D01*
X169998155Y-104844421D01*
X169994236Y-104844149D01*
X169957012Y-104842599D01*
X169893819Y-104840878D01*
X169807465Y-104839032D01*
X169700757Y-104837104D01*
X169576503Y-104835140D01*
X169437511Y-104833185D01*
X169286588Y-104831283D01*
X169126541Y-104829479D01*
X168960180Y-104827820D01*
X168021136Y-104819056D01*
X167982203Y-104877889D01*
X167969521Y-104896078D01*
X167899849Y-104976587D01*
X167808312Y-105059626D01*
X167700145Y-105141166D01*
X167580583Y-105217179D01*
X167454862Y-105283638D01*
X167434203Y-105293645D01*
X167386870Y-105318285D01*
X167353967Y-105337954D01*
X167341635Y-105349102D01*
X167341751Y-105349648D01*
X167350487Y-105367622D01*
X167371979Y-105407824D01*
X167404639Y-105467394D01*
X167446881Y-105543471D01*
X167497117Y-105633194D01*
X167553759Y-105733703D01*
X167615221Y-105842137D01*
X167672827Y-105943514D01*
X167738575Y-106059279D01*
X167801633Y-106170364D01*
X167859639Y-106272609D01*
X167910234Y-106361854D01*
X167951058Y-106433939D01*
X167979750Y-106484703D01*
X167986038Y-106495732D01*
X168007590Y-106533294D01*
X168020603Y-106555927D01*
X168043141Y-106595126D01*
X168092299Y-106680546D01*
X168154669Y-106788873D01*
X168229860Y-106919424D01*
X168317477Y-107071516D01*
X168417127Y-107244469D01*
X168528418Y-107437599D01*
X168650955Y-107650226D01*
X168784346Y-107881665D01*
X168928198Y-108131237D01*
X169082116Y-108398258D01*
X169245709Y-108682046D01*
X169418583Y-108981919D01*
X169600344Y-109297196D01*
X169790599Y-109627194D01*
X169988956Y-109971230D01*
X170195020Y-110328624D01*
X170408399Y-110698693D01*
X170628699Y-111080754D01*
X170855528Y-111474126D01*
X171088491Y-111878126D01*
X171327196Y-112292073D01*
X171571250Y-112715284D01*
X171820259Y-113147077D01*
X172073830Y-113586771D01*
X172331569Y-114033683D01*
X172593084Y-114487130D01*
X172857982Y-114946432D01*
X173045028Y-115270748D01*
X173306707Y-115724487D01*
X173564477Y-116171465D01*
X173817954Y-116611017D01*
X174066754Y-117042479D01*
X174310495Y-117465184D01*
X174548793Y-117878467D01*
X174781263Y-118281662D01*
X175007524Y-118674105D01*
X175227191Y-119055130D01*
X175439880Y-119424072D01*
X175645209Y-119780264D01*
X175842794Y-120123042D01*
X176032251Y-120451741D01*
X176213197Y-120765694D01*
X176385248Y-121064237D01*
X176548021Y-121346703D01*
X176701132Y-121612429D01*
X176844198Y-121860747D01*
X176976836Y-122090993D01*
X177098661Y-122302502D01*
X177209291Y-122494608D01*
X177308342Y-122666645D01*
X177395430Y-122817949D01*
X177470172Y-122947853D01*
X177532185Y-123055693D01*
X177581084Y-123140802D01*
X177616488Y-123202517D01*
X177638011Y-123240170D01*
X177645270Y-123253097D01*
X177645141Y-123253118D01*
X177627838Y-123253342D01*
X177581774Y-123253565D01*
X177507456Y-123253785D01*
X177405390Y-123254003D01*
X177276079Y-123254218D01*
X177120031Y-123254431D01*
X176937751Y-123254641D01*
X176729744Y-123254849D01*
X176496516Y-123255053D01*
X176238573Y-123255255D01*
X175956419Y-123255453D01*
X175650562Y-123255648D01*
X175321506Y-123255839D01*
X174969756Y-123256027D01*
X174595820Y-123256210D01*
X174200201Y-123256390D01*
X173783406Y-123256566D01*
X173345941Y-123256738D01*
X172888310Y-123256905D01*
X172411020Y-123257067D01*
X171914576Y-123257225D01*
X171399483Y-123257379D01*
X170866248Y-123257527D01*
X170315376Y-123257670D01*
X169747372Y-123257808D01*
X169162742Y-123257941D01*
X168561992Y-123258068D01*
X167945627Y-123258189D01*
X167314153Y-123258305D01*
X166668076Y-123258415D01*
X166007900Y-123258519D01*
X165334132Y-123258616D01*
X164647278Y-123258707D01*
X163947842Y-123258792D01*
X163236330Y-123258870D01*
X162513249Y-123258942D01*
X161779103Y-123259006D01*
X161034398Y-123259063D01*
X160279640Y-123259113D01*
X159515334Y-123259156D01*
X158741987Y-123259192D01*
X157960102Y-123259219D01*
X157170187Y-123259239D01*
X156372747Y-123259252D01*
X155568287Y-123259256D01*
X133491305Y-123259256D01*
X129359791Y-120749302D01*
X125228278Y-118239348D01*
X136794766Y-118235675D01*
X148361254Y-118232001D01*
X148361254Y-118096052D01*
X148361727Y-118051778D01*
X148370684Y-117923612D01*
X148874237Y-117923612D01*
X148874237Y-117968200D01*
X149061110Y-117968200D01*
X149247982Y-117968200D01*
X149248625Y-117847282D01*
X149248671Y-117841979D01*
X149251877Y-117771389D01*
X149258979Y-117701158D01*
X149268547Y-117645753D01*
X149272872Y-117628885D01*
X149302985Y-117540322D01*
X149344445Y-117448053D01*
X149391919Y-117362960D01*
X149440070Y-117295926D01*
X149495066Y-117231903D01*
X149430151Y-117241972D01*
X149320545Y-117265018D01*
X149200860Y-117309444D01*
X149102895Y-117371653D01*
X149024977Y-117452769D01*
X148965429Y-117553917D01*
X148943252Y-117609067D01*
X148916890Y-117691546D01*
X148894897Y-117778368D01*
X148879828Y-117859176D01*
X148874237Y-117923612D01*
X148370684Y-117923612D01*
X148375897Y-117849018D01*
X148408853Y-117653626D01*
X148459354Y-117471527D01*
X148526158Y-117308650D01*
X148550050Y-117262678D01*
X148590672Y-117197362D01*
X148639892Y-117135160D01*
X148705240Y-117065863D01*
X148718721Y-117052526D01*
X148827724Y-116959244D01*
X148945870Y-116884464D01*
X149077745Y-116826107D01*
X149227936Y-116782092D01*
X149401028Y-116750341D01*
X149414426Y-116748682D01*
X149479146Y-116743989D01*
X149564257Y-116741252D01*
X149662829Y-116740373D01*
X149767934Y-116741254D01*
X149872643Y-116743797D01*
X149970026Y-116747905D01*
X150053155Y-116753479D01*
X150115101Y-116760421D01*
X150176102Y-116769867D01*
X150124386Y-116661849D01*
X150057537Y-116502329D01*
X149993604Y-116301062D01*
X149940014Y-116073695D01*
X149896974Y-115820998D01*
X149891392Y-115768479D01*
X149886001Y-115682248D01*
X149882011Y-115574894D01*
X149879398Y-115450863D01*
X149878137Y-115314604D01*
X149878202Y-115170564D01*
X149879568Y-115023190D01*
X149882210Y-114876930D01*
X149886104Y-114736230D01*
X149891224Y-114605540D01*
X149897544Y-114489305D01*
X149905040Y-114391973D01*
X149910996Y-114329558D01*
X149922574Y-114213533D01*
X149935453Y-114089810D01*
X149949113Y-113962997D01*
X149963028Y-113837703D01*
X149976677Y-113718536D01*
X149989536Y-113610106D01*
X150001083Y-113517020D01*
X150010793Y-113443889D01*
X150018145Y-113395320D01*
X150019931Y-113383867D01*
X150026358Y-113322266D01*
X150031849Y-113237597D01*
X150036333Y-113134822D01*
X150039738Y-113018906D01*
X150041992Y-112894812D01*
X150043025Y-112767503D01*
X150042766Y-112641942D01*
X150041142Y-112523093D01*
X150038083Y-112415919D01*
X150033518Y-112325384D01*
X150009244Y-112022906D01*
X149973372Y-111689495D01*
X149928275Y-111353582D01*
X149874703Y-111018692D01*
X149813405Y-110688348D01*
X149745133Y-110366072D01*
X149670635Y-110055388D01*
X149590662Y-109759820D01*
X149505964Y-109482890D01*
X149417292Y-109228123D01*
X149325394Y-108999040D01*
X149303125Y-108948848D01*
X149269852Y-108877136D01*
X149236037Y-108807347D01*
X149204204Y-108744439D01*
X149176879Y-108693367D01*
X149156587Y-108659088D01*
X149145852Y-108646561D01*
X149143960Y-108649590D01*
X149134719Y-108673647D01*
X149120156Y-108716498D01*
X149102445Y-108771861D01*
X149102169Y-108772747D01*
X149026339Y-108975677D01*
X148930888Y-109164281D01*
X148817766Y-109336242D01*
X148688921Y-109489246D01*
X148546303Y-109620976D01*
X148391861Y-109729117D01*
X148227545Y-109811351D01*
X148101983Y-109854003D01*
X147928466Y-109886968D01*
X147753264Y-109891456D01*
X147578624Y-109867638D01*
X147406794Y-109815688D01*
X147240019Y-109735776D01*
X147207716Y-109716810D01*
X147045513Y-109605835D01*
X146909316Y-109482933D01*
X146797859Y-109346601D01*
X146709877Y-109195335D01*
X146644106Y-109027634D01*
X146635965Y-109000597D01*
X146624603Y-108955515D01*
X146617164Y-108909887D01*
X146612931Y-108856527D01*
X146611189Y-108788247D01*
X146611221Y-108697859D01*
X146611602Y-108659337D01*
X146614255Y-108564385D01*
X146619747Y-108488671D01*
X146628768Y-108424746D01*
X146642006Y-108365162D01*
X146671353Y-108252315D01*
X146617173Y-108186751D01*
X146592237Y-108155694D01*
X146503758Y-108024488D01*
X146441465Y-107889522D01*
X146403022Y-107744707D01*
X146386096Y-107583953D01*
X146385255Y-107547311D01*
X146888799Y-107547311D01*
X146888896Y-107566381D01*
X146891446Y-107625040D01*
X146896740Y-107671920D01*
X146903901Y-107698261D01*
X146910622Y-107706290D01*
X146921679Y-107706079D01*
X146938323Y-107690710D01*
X146963835Y-107656929D01*
X147001498Y-107601480D01*
X147101694Y-107459459D01*
X147269895Y-107249241D01*
X147459954Y-107040322D01*
X147667816Y-106837074D01*
X147889427Y-106643870D01*
X148037154Y-106522003D01*
X148225973Y-106364611D01*
X148394746Y-106221593D01*
X148545436Y-106091036D01*
X148680007Y-105971030D01*
X148800420Y-105859662D01*
X148908640Y-105755021D01*
X149006630Y-105655195D01*
X149096353Y-105558272D01*
X149179771Y-105462342D01*
X149258849Y-105365491D01*
X149335548Y-105265810D01*
X149411833Y-105161385D01*
X149470235Y-105077792D01*
X149545428Y-104961863D01*
X149606717Y-104854439D01*
X149658221Y-104748105D01*
X149704061Y-104635448D01*
X149774314Y-104436868D01*
X149840409Y-104216542D01*
X149890092Y-104003779D01*
X149925116Y-103790904D01*
X149947232Y-103570241D01*
X149953282Y-103492265D01*
X149961955Y-103410562D01*
X149972982Y-103349458D01*
X149988153Y-103303985D01*
X150009258Y-103269175D01*
X150038088Y-103240058D01*
X150076433Y-103211667D01*
X150085648Y-103205909D01*
X150149365Y-103183699D01*
X150222967Y-103180295D01*
X150296204Y-103195117D01*
X150358821Y-103227589D01*
X150376079Y-103241706D01*
X150411999Y-103281720D01*
X150436194Y-103330570D01*
X150449964Y-103393193D01*
X150454608Y-103474522D01*
X150451423Y-103579493D01*
X150439717Y-103732498D01*
X150411839Y-103948280D01*
X150369627Y-104165949D01*
X150311669Y-104392438D01*
X150236554Y-104634676D01*
X150187760Y-104773256D01*
X150122085Y-104935190D01*
X150049321Y-105086084D01*
X149965531Y-105233294D01*
X149866782Y-105384179D01*
X149749140Y-105546095D01*
X149716958Y-105588435D01*
X149638995Y-105688658D01*
X149562675Y-105782754D01*
X149485752Y-105872920D01*
X149405976Y-105961357D01*
X149321099Y-106050263D01*
X149228874Y-106141839D01*
X149127052Y-106238283D01*
X149013385Y-106341795D01*
X148885625Y-106454573D01*
X148741524Y-106578818D01*
X148578833Y-106716729D01*
X148395304Y-106870504D01*
X148360028Y-106899997D01*
X148200076Y-107035644D01*
X148060549Y-107157825D01*
X147938591Y-107269497D01*
X147831345Y-107373616D01*
X147735956Y-107473139D01*
X147649566Y-107571024D01*
X147569319Y-107670227D01*
X147492359Y-107773704D01*
X147415829Y-107884414D01*
X147355639Y-107978195D01*
X147256743Y-108155917D01*
X147182295Y-108326161D01*
X147132514Y-108487843D01*
X147107620Y-108639879D01*
X147107832Y-108781185D01*
X147133370Y-108910677D01*
X147184453Y-109027273D01*
X147219473Y-109078968D01*
X147296772Y-109163584D01*
X147391817Y-109242441D01*
X147497443Y-109310548D01*
X147606486Y-109362917D01*
X147711782Y-109394557D01*
X147762627Y-109401809D01*
X147883967Y-109398845D01*
X148004711Y-109368646D01*
X148122746Y-109312606D01*
X148235962Y-109232117D01*
X148342245Y-109128571D01*
X148439485Y-109003362D01*
X148525569Y-108857882D01*
X148577823Y-108746091D01*
X148642744Y-108556483D01*
X148678450Y-108365806D01*
X148684911Y-108174262D01*
X148662094Y-107982057D01*
X148661390Y-107978381D01*
X148650483Y-107903564D01*
X148642794Y-107818261D01*
X148639947Y-107740222D01*
X148644183Y-107644960D01*
X148672578Y-107481717D01*
X148727653Y-107330596D01*
X148809378Y-107191667D01*
X148917724Y-107065004D01*
X148960719Y-107023594D01*
X149016484Y-106973674D01*
X149076190Y-106924943D01*
X149142098Y-106876044D01*
X149216469Y-106825614D01*
X149301565Y-106772294D01*
X149399648Y-106714724D01*
X149512980Y-106651545D01*
X149643822Y-106581395D01*
X149794435Y-106502915D01*
X149967082Y-106414744D01*
X150164024Y-106315524D01*
X150308677Y-106242714D01*
X150454558Y-106168374D01*
X150580027Y-106103108D01*
X150688344Y-106045041D01*
X150782770Y-105992299D01*
X150866566Y-105943010D01*
X150942994Y-105895300D01*
X151015315Y-105847295D01*
X151086788Y-105797121D01*
X151160677Y-105742906D01*
X151294098Y-105638253D01*
X151474097Y-105476513D01*
X151625955Y-105311864D01*
X151750350Y-105143618D01*
X151794582Y-105074421D01*
X151853975Y-104978173D01*
X151913346Y-104878721D01*
X151969497Y-104781617D01*
X152019229Y-104692412D01*
X152059345Y-104616657D01*
X152086645Y-104559903D01*
X152111143Y-104502985D01*
X152141792Y-104426339D01*
X152163705Y-104359800D01*
X152178555Y-104295484D01*
X152188010Y-104225508D01*
X152193742Y-104141988D01*
X152197421Y-104037040D01*
X152198163Y-104003499D01*
X152198824Y-103895807D01*
X152197407Y-103782734D01*
X152194121Y-103675832D01*
X152189179Y-103586656D01*
X152184317Y-103513337D01*
X152181601Y-103430882D01*
X152184351Y-103368338D01*
X152193241Y-103320385D01*
X152208943Y-103281706D01*
X152232128Y-103246983D01*
X152236314Y-103241832D01*
X152294329Y-103193542D01*
X152364627Y-103166760D01*
X152440555Y-103161143D01*
X152515460Y-103176346D01*
X152582690Y-103212025D01*
X152635592Y-103267838D01*
X152645319Y-103283704D01*
X152659489Y-103315313D01*
X152669845Y-103355462D01*
X152677945Y-103411071D01*
X152685344Y-103489061D01*
X152689148Y-103541408D01*
X152694502Y-103647779D01*
X152697884Y-103763965D01*
X152699335Y-103884381D01*
X152698895Y-104003445D01*
X152696605Y-104115575D01*
X152692505Y-104215188D01*
X152686637Y-104296702D01*
X152679041Y-104354533D01*
X152661406Y-104434015D01*
X152620822Y-104569423D01*
X152564670Y-104713719D01*
X152491844Y-104869195D01*
X152401238Y-105038143D01*
X152291746Y-105222857D01*
X152162261Y-105425627D01*
X152134392Y-105466828D01*
X151996162Y-105645495D01*
X151832211Y-105821743D01*
X151645452Y-105993048D01*
X151438800Y-106156886D01*
X151215168Y-106310733D01*
X150977469Y-106452064D01*
X150955926Y-106463751D01*
X150898514Y-106494199D01*
X150820479Y-106535014D01*
X150725388Y-106584353D01*
X150616810Y-106640371D01*
X150498311Y-106701227D01*
X150373459Y-106765076D01*
X150245824Y-106830074D01*
X150078699Y-106915589D01*
X149906240Y-107005612D01*
X149757154Y-107085910D01*
X149629637Y-107157736D01*
X149521882Y-107222346D01*
X149432082Y-107280994D01*
X149358433Y-107334933D01*
X149299129Y-107385420D01*
X149252363Y-107433707D01*
X149216330Y-107481050D01*
X149189225Y-107528703D01*
X149169240Y-107577920D01*
X149166987Y-107584698D01*
X149143854Y-107681858D01*
X149139929Y-107779558D01*
X149154684Y-107889035D01*
X149162608Y-107924620D01*
X149176538Y-107961062D01*
X149199937Y-107987761D01*
X149240630Y-108016309D01*
X149244104Y-108018555D01*
X149345685Y-108099491D01*
X149446349Y-108208958D01*
X149545770Y-108346203D01*
X149643620Y-108510477D01*
X149739573Y-108701027D01*
X149833302Y-108917103D01*
X149924481Y-109157952D01*
X150012782Y-109422824D01*
X150097879Y-109710967D01*
X150179446Y-110021631D01*
X150257156Y-110354062D01*
X150269034Y-110408534D01*
X150361071Y-110879787D01*
X150439272Y-111375170D01*
X150503368Y-111893012D01*
X150508530Y-111941989D01*
X150516579Y-112025411D01*
X150522983Y-112104895D01*
X150527925Y-112185190D01*
X150531590Y-112271047D01*
X150534161Y-112367214D01*
X150535822Y-112478443D01*
X150536758Y-112609483D01*
X150537153Y-112765084D01*
X150537206Y-112836605D01*
X150537069Y-112972551D01*
X150536453Y-113085004D01*
X150535193Y-113177951D01*
X150533125Y-113255377D01*
X150530087Y-113321269D01*
X150525914Y-113379613D01*
X150520442Y-113434394D01*
X150513508Y-113489600D01*
X150504949Y-113549215D01*
X150491454Y-113643526D01*
X150466762Y-113836951D01*
X150443789Y-114043534D01*
X150423019Y-114257271D01*
X150404941Y-114472159D01*
X150390040Y-114682196D01*
X150378803Y-114881379D01*
X150371716Y-115063705D01*
X150369267Y-115223173D01*
X150369404Y-115260207D01*
X150379239Y-115537658D01*
X150404475Y-115794353D01*
X150444902Y-116029474D01*
X150500313Y-116242200D01*
X150570500Y-116431712D01*
X150655253Y-116597192D01*
X150754365Y-116737819D01*
X150761796Y-116746694D01*
X150806736Y-116796071D01*
X150851684Y-116835429D01*
X150901497Y-116866943D01*
X150961034Y-116892785D01*
X151035153Y-116915129D01*
X151128712Y-116936148D01*
X151246571Y-116958016D01*
X151318773Y-116970394D01*
X151392362Y-116982430D01*
X151451268Y-116991416D01*
X151490771Y-116996638D01*
X151506148Y-116997378D01*
X151504523Y-116989920D01*
X151490700Y-116963976D01*
X151467084Y-116926934D01*
X151386663Y-116791839D01*
X151304088Y-116608087D01*
X151237177Y-116402536D01*
X151186445Y-116177120D01*
X151152401Y-115933774D01*
X151135559Y-115674432D01*
X151134469Y-115628762D01*
X151134426Y-115458076D01*
X151139626Y-115268681D01*
X151149556Y-115068300D01*
X151163701Y-114864654D01*
X151181548Y-114665468D01*
X151202581Y-114478462D01*
X151226288Y-114311362D01*
X151226972Y-114307140D01*
X151241256Y-114226583D01*
X151260780Y-114127054D01*
X151284824Y-114011530D01*
X151312668Y-113882986D01*
X151343593Y-113744396D01*
X151376880Y-113598738D01*
X151411809Y-113448985D01*
X151447661Y-113298114D01*
X151483715Y-113149099D01*
X151519253Y-113004915D01*
X151553555Y-112868539D01*
X151585902Y-112742946D01*
X151615574Y-112631110D01*
X151641851Y-112536007D01*
X151664015Y-112460613D01*
X151681345Y-112407902D01*
X151693123Y-112380851D01*
X151726969Y-112342188D01*
X151788653Y-112300497D01*
X151858849Y-112275787D01*
X151927138Y-112272867D01*
X151952141Y-112277584D01*
X152031188Y-112308175D01*
X152091165Y-112357825D01*
X152129250Y-112423528D01*
X152142619Y-112502277D01*
X152141914Y-112511824D01*
X152135559Y-112552050D01*
X152123201Y-112615811D01*
X152105578Y-112699720D01*
X152083428Y-112800394D01*
X152057490Y-112914447D01*
X152028501Y-113038496D01*
X151997199Y-113169155D01*
X151992442Y-113188775D01*
X151941369Y-113400071D01*
X151896837Y-113585856D01*
X151858298Y-113748819D01*
X151825203Y-113891646D01*
X151797005Y-114017025D01*
X151773155Y-114127643D01*
X151753104Y-114226188D01*
X151736304Y-114315347D01*
X151722207Y-114397808D01*
X151710264Y-114476259D01*
X151699926Y-114553386D01*
X151690646Y-114631877D01*
X151681875Y-114714420D01*
X151675560Y-114777902D01*
X151652739Y-115044580D01*
X151638769Y-115286439D01*
X151633828Y-115506091D01*
X151638094Y-115706144D01*
X151651745Y-115889210D01*
X151674959Y-116057897D01*
X151707913Y-116214816D01*
X151750785Y-116362576D01*
X151803753Y-116503787D01*
X151829413Y-116557893D01*
X151902833Y-116672942D01*
X151998488Y-116785201D01*
X152111748Y-116890144D01*
X152237981Y-116983243D01*
X152372559Y-117059970D01*
X152430800Y-117090884D01*
X152489821Y-117129842D01*
X152525311Y-117164280D01*
X152544902Y-117201591D01*
X152552772Y-117231903D01*
X152562080Y-117267752D01*
X152565354Y-117337234D01*
X152553102Y-117396487D01*
X152543450Y-117415773D01*
X152499915Y-117469660D01*
X152440673Y-117515015D01*
X152375720Y-117543549D01*
X152367182Y-117545438D01*
X152319444Y-117550415D01*
X152248831Y-117552637D01*
X152160265Y-117552230D01*
X152058671Y-117549322D01*
X151948973Y-117544038D01*
X151836094Y-117536505D01*
X151724959Y-117526849D01*
X151680813Y-117521851D01*
X151601520Y-117511332D01*
X151503349Y-117497163D01*
X151391622Y-117480208D01*
X151271662Y-117461335D01*
X151148789Y-117441409D01*
X151028326Y-117421296D01*
X150915594Y-117401863D01*
X150815916Y-117383976D01*
X150734613Y-117368500D01*
X150677007Y-117356303D01*
X150549519Y-117336276D01*
X150407511Y-117338230D01*
X150259292Y-117366089D01*
X150212246Y-117379412D01*
X150069957Y-117432043D01*
X149953874Y-117496161D01*
X149864250Y-117571516D01*
X149801335Y-117657859D01*
X149765383Y-117754943D01*
X149756645Y-117862518D01*
X149760965Y-117960871D01*
X150193337Y-117961757D01*
X150220713Y-117961791D01*
X150297848Y-117961764D01*
X150401414Y-117961615D01*
X150529472Y-117961349D01*
X150680083Y-117960973D01*
X150851310Y-117960493D01*
X151041212Y-117959915D01*
X151247851Y-117959246D01*
X151469288Y-117958493D01*
X151703584Y-117957661D01*
X151948800Y-117956757D01*
X152202997Y-117955787D01*
X152464237Y-117954758D01*
X152730580Y-117953675D01*
X153000088Y-117952547D01*
X153061813Y-117952283D01*
X153369111Y-117950943D01*
X153648706Y-117949661D01*
X153901952Y-117948419D01*
X154130202Y-117947200D01*
X154334809Y-117945986D01*
X154517127Y-117944756D01*
X154678508Y-117943495D01*
X154820307Y-117942183D01*
X154943876Y-117940802D01*
X155050568Y-117939334D01*
X155141737Y-117937760D01*
X155218736Y-117936063D01*
X155282919Y-117934224D01*
X155335638Y-117932225D01*
X155378246Y-117930047D01*
X155412098Y-117927673D01*
X155438546Y-117925084D01*
X155458943Y-117922262D01*
X155474643Y-117919189D01*
X155479185Y-117918125D01*
X155606425Y-117879741D01*
X155712266Y-117830428D01*
X155795186Y-117771532D01*
X155853662Y-117704399D01*
X155886173Y-117630375D01*
X155891194Y-117550809D01*
X155872683Y-117470711D01*
X155825622Y-117375622D01*
X155754415Y-117286399D01*
X155661871Y-117205087D01*
X155550797Y-117133729D01*
X155424001Y-117074370D01*
X155284292Y-117029056D01*
X155134477Y-116999830D01*
X155113586Y-116996923D01*
X154973557Y-116969267D01*
X154855547Y-116929320D01*
X154754672Y-116875045D01*
X154666050Y-116804403D01*
X154615578Y-116751274D01*
X154563034Y-116671602D01*
X154533921Y-116583878D01*
X154524948Y-116480548D01*
X154529789Y-116401988D01*
X154553241Y-116311066D01*
X154599117Y-116230383D01*
X154670689Y-116152577D01*
X154700673Y-116126618D01*
X154770758Y-116078407D01*
X154850825Y-116040732D01*
X154945633Y-116011990D01*
X155059943Y-115990580D01*
X155198514Y-115974900D01*
X155270191Y-115967980D01*
X155419882Y-115948052D01*
X155547153Y-115921912D01*
X155656612Y-115888257D01*
X155752865Y-115845782D01*
X155840521Y-115793184D01*
X155926608Y-115721616D01*
X155998673Y-115632353D01*
X156056636Y-115523691D01*
X156101961Y-115392879D01*
X156136113Y-115237162D01*
X156143723Y-115196621D01*
X156164221Y-115120192D01*
X156191371Y-115064445D01*
X156228678Y-115023372D01*
X156279645Y-114990962D01*
X156326329Y-114972420D01*
X156405324Y-114964240D01*
X156488286Y-114984073D01*
X156576771Y-115032136D01*
X156686415Y-115101164D01*
X156822195Y-115169109D01*
X156956944Y-115214650D01*
X157097455Y-115239956D01*
X157250521Y-115247195D01*
X157293131Y-115246462D01*
X157425086Y-115236645D01*
X157545637Y-115213565D01*
X157665441Y-115174684D01*
X157795160Y-115117461D01*
X157933734Y-115040471D01*
X158103361Y-114918119D01*
X158261375Y-114771868D01*
X158406232Y-114603993D01*
X158536389Y-114416771D01*
X158650302Y-114212475D01*
X158746426Y-113993382D01*
X158823219Y-113761765D01*
X158879136Y-113519902D01*
X158881748Y-113505161D01*
X158891339Y-113439562D01*
X158898256Y-113367538D01*
X158902835Y-113283375D01*
X158905409Y-113181359D01*
X158906313Y-113055774D01*
X158906297Y-113018258D01*
X158905703Y-112928060D01*
X158904408Y-112849653D01*
X158902530Y-112787418D01*
X158900186Y-112745735D01*
X158897496Y-112728984D01*
X158897486Y-112728976D01*
X158883142Y-112734095D01*
X158844822Y-112751656D01*
X158784574Y-112780635D01*
X158704446Y-112820010D01*
X158606485Y-112868755D01*
X158492739Y-112925848D01*
X158365254Y-112990265D01*
X158226078Y-113060984D01*
X158077258Y-113136979D01*
X157920843Y-113217228D01*
X157769111Y-113295081D01*
X157617950Y-113372293D01*
X157475583Y-113444661D01*
X157344166Y-113511109D01*
X157225854Y-113570558D01*
X157122801Y-113621927D01*
X157037164Y-113664140D01*
X156971095Y-113696118D01*
X156926752Y-113716781D01*
X156906287Y-113725052D01*
X156882429Y-113728485D01*
X156810861Y-113721539D01*
X156740747Y-113692922D01*
X156682323Y-113646237D01*
X156671247Y-113631550D01*
X156644342Y-113588211D01*
X156607855Y-113523632D01*
X156563469Y-113441134D01*
X156512867Y-113344039D01*
X156457731Y-113235667D01*
X156399745Y-113119341D01*
X156340590Y-112998381D01*
X156281951Y-112876108D01*
X156225509Y-112755844D01*
X156172947Y-112640909D01*
X156117438Y-112516415D01*
X155852814Y-111884317D01*
X155616013Y-111249420D01*
X155405822Y-110608074D01*
X155221030Y-109956635D01*
X155060425Y-109291454D01*
X155039954Y-109198136D01*
X155008183Y-109049715D01*
X154977904Y-108903133D01*
X154948683Y-108755811D01*
X154920085Y-108605176D01*
X154891675Y-108448649D01*
X154863019Y-108283656D01*
X154833682Y-108107620D01*
X154803229Y-107917965D01*
X154771226Y-107712115D01*
X154737237Y-107487493D01*
X154700830Y-107241524D01*
X154661568Y-106971632D01*
X154619017Y-106675239D01*
X154591597Y-106483957D01*
X154551952Y-106210607D01*
X154515302Y-105962481D01*
X154481239Y-105737236D01*
X154449354Y-105532527D01*
X154419241Y-105346011D01*
X154390491Y-105175344D01*
X154362697Y-105018182D01*
X154335451Y-104872182D01*
X154308345Y-104735000D01*
X154280971Y-104604292D01*
X154252922Y-104477715D01*
X154223790Y-104352924D01*
X154193166Y-104227576D01*
X154179816Y-104174571D01*
X154157933Y-104090516D01*
X154135313Y-104007792D01*
X154110933Y-103923188D01*
X154083771Y-103833491D01*
X154052804Y-103735489D01*
X154017011Y-103625970D01*
X153975367Y-103501723D01*
X153926853Y-103359535D01*
X153870443Y-103196194D01*
X153805118Y-103008488D01*
X153794391Y-102977694D01*
X153744983Y-102834606D01*
X153695154Y-102688426D01*
X153646610Y-102544272D01*
X153601055Y-102407265D01*
X153560194Y-102282523D01*
X153525731Y-102175166D01*
X153499372Y-102090314D01*
X153487105Y-102049421D01*
X153423829Y-101828308D01*
X153362373Y-101597234D01*
X153304180Y-101362419D01*
X153250694Y-101130089D01*
X153203358Y-100906466D01*
X153163616Y-100697772D01*
X153132910Y-100510231D01*
X153120023Y-100394774D01*
X153111976Y-100221871D01*
X153113871Y-100034008D01*
X153125113Y-99838175D01*
X153145107Y-99641360D01*
X153173258Y-99450550D01*
X153208972Y-99272733D01*
X153251654Y-99114899D01*
X153253937Y-99107857D01*
X153277594Y-99044296D01*
X153313449Y-98958457D01*
X153359984Y-98853414D01*
X153415680Y-98732243D01*
X153479021Y-98598019D01*
X153548486Y-98453819D01*
X153622560Y-98302716D01*
X153699722Y-98147788D01*
X153778456Y-97992108D01*
X153857243Y-97838753D01*
X153934564Y-97690798D01*
X154008903Y-97551318D01*
X154078740Y-97423388D01*
X154142559Y-97310085D01*
X154184619Y-97237489D01*
X154270756Y-97093730D01*
X154350339Y-96969024D01*
X154427127Y-96858074D01*
X154504874Y-96755584D01*
X154587339Y-96656259D01*
X154678277Y-96554800D01*
X154807737Y-96414189D01*
X154988582Y-96215282D01*
X155153433Y-96030478D01*
X155305418Y-95856067D01*
X155447670Y-95688340D01*
X155583317Y-95523588D01*
X155715491Y-95358102D01*
X155847322Y-95188172D01*
X155981939Y-95010090D01*
X156025074Y-94952254D01*
X156138747Y-94798366D01*
X156236212Y-94663744D01*
X156319144Y-94545784D01*
X156389223Y-94441881D01*
X156448127Y-94349430D01*
X156497533Y-94265827D01*
X156539120Y-94188466D01*
X156574565Y-94114743D01*
X156605547Y-94042053D01*
X156656388Y-93911045D01*
X156712144Y-93751688D01*
X156753683Y-93609514D01*
X156782055Y-93480292D01*
X156798308Y-93359790D01*
X156803493Y-93243777D01*
X156803434Y-93230611D01*
X156796790Y-93121499D01*
X156777920Y-93033607D01*
X156745078Y-92961311D01*
X156696520Y-92898989D01*
X156621403Y-92839774D01*
X156530582Y-92802167D01*
X156428821Y-92787784D01*
X156318698Y-92795952D01*
X156202788Y-92825995D01*
X156083668Y-92877239D01*
X155963915Y-92949008D01*
X155846105Y-93040628D01*
X155732814Y-93151423D01*
X155698154Y-93190438D01*
X155635412Y-93268180D01*
X155573809Y-93354883D01*
X155511066Y-93454248D01*
X155444907Y-93569975D01*
X155373051Y-93705764D01*
X155293221Y-93865314D01*
X155095634Y-94279072D01*
X154810982Y-94917679D01*
X154548553Y-95562333D01*
X154304736Y-96221639D01*
X154269869Y-96311362D01*
X154234205Y-96379706D01*
X154195257Y-96427821D01*
X154149368Y-96460191D01*
X154092882Y-96481294D01*
X154076458Y-96484898D01*
X154005675Y-96486569D01*
X153934752Y-96470332D01*
X153876975Y-96438802D01*
X153831735Y-96389165D01*
X153797144Y-96321939D01*
X153784275Y-96252975D01*
X153784994Y-96242062D01*
X153794496Y-96194156D01*
X153814299Y-96122709D01*
X153843474Y-96030224D01*
X153881092Y-95919203D01*
X153926222Y-95792150D01*
X153977936Y-95651567D01*
X154035304Y-95499957D01*
X154097396Y-95339823D01*
X154163282Y-95173668D01*
X154232033Y-95003994D01*
X154302720Y-94833305D01*
X154374412Y-94664103D01*
X154433396Y-94528143D01*
X154509388Y-94357012D01*
X154587658Y-94184732D01*
X154666688Y-94014433D01*
X154744959Y-93849244D01*
X154820954Y-93692292D01*
X154893154Y-93546708D01*
X154960041Y-93415620D01*
X155020096Y-93302157D01*
X155071802Y-93209448D01*
X155113640Y-93140622D01*
X155174200Y-93052111D01*
X155260403Y-92937746D01*
X155348376Y-92832552D01*
X155431108Y-92745258D01*
X155497897Y-92680481D01*
X155444648Y-92606020D01*
X155442840Y-92603494D01*
X155385950Y-92527914D01*
X155338736Y-92475895D01*
X155297036Y-92445279D01*
X155256689Y-92433910D01*
X155213535Y-92439633D01*
X155163411Y-92460290D01*
X155160823Y-92461604D01*
X155103985Y-92499251D01*
X155037702Y-92556455D01*
X154967067Y-92627754D01*
X154897173Y-92707685D01*
X154833110Y-92790786D01*
X154779974Y-92871594D01*
X154765366Y-92896618D01*
X154696518Y-93021019D01*
X154621632Y-93165398D01*
X154543674Y-93323495D01*
X154465609Y-93489053D01*
X154390403Y-93655813D01*
X154321021Y-93817519D01*
X154260430Y-93967911D01*
X154237828Y-94030064D01*
X154206510Y-94125493D01*
X154176674Y-94225468D01*
X154152532Y-94316384D01*
X154109060Y-94479914D01*
X154046213Y-94684778D01*
X153973056Y-94897631D01*
X153892789Y-95109672D01*
X153808612Y-95312097D01*
X153723724Y-95496104D01*
X153669249Y-95599819D01*
X153604177Y-95701809D01*
X153536035Y-95782993D01*
X153460951Y-95847869D01*
X153375049Y-95900936D01*
X153362190Y-95907598D01*
X153245154Y-95961159D01*
X153105903Y-96013436D01*
X152943424Y-96064684D01*
X152756704Y-96115163D01*
X152544729Y-96165128D01*
X152306486Y-96214838D01*
X152040961Y-96264551D01*
X151747141Y-96314523D01*
X151626782Y-96334189D01*
X151397871Y-96371992D01*
X151172978Y-96409635D01*
X150954370Y-96446715D01*
X150744314Y-96482829D01*
X150545076Y-96517574D01*
X150358922Y-96550546D01*
X150188120Y-96581344D01*
X150034936Y-96609563D01*
X149901636Y-96634801D01*
X149790488Y-96656654D01*
X149703758Y-96674720D01*
X149643712Y-96688594D01*
X149568023Y-96710800D01*
X149467487Y-96748381D01*
X149372062Y-96792311D01*
X149289679Y-96838855D01*
X149228271Y-96884276D01*
X149211706Y-96899495D01*
X149191271Y-96921285D01*
X149177629Y-96944267D01*
X149170372Y-96973073D01*
X149169093Y-97012338D01*
X149173385Y-97066694D01*
X149182839Y-97140772D01*
X149197049Y-97239208D01*
X149219298Y-97382770D01*
X149254720Y-97581958D01*
X149292110Y-97759471D01*
X149331070Y-97913783D01*
X149371200Y-98043364D01*
X149412102Y-98146688D01*
X149453379Y-98222227D01*
X149508958Y-98294894D01*
X149613199Y-98401528D01*
X149740798Y-98505420D01*
X149888217Y-98604267D01*
X150051919Y-98695766D01*
X150228368Y-98777617D01*
X150414026Y-98847515D01*
X150459511Y-98862015D01*
X150536945Y-98884161D01*
X150609126Y-98902061D01*
X150664912Y-98912815D01*
X150691565Y-98917044D01*
X150781673Y-98941177D01*
X150848767Y-98978900D01*
X150896371Y-99032792D01*
X150928009Y-99105431D01*
X150934457Y-99147588D01*
X150931562Y-99203972D01*
X150918592Y-99276638D01*
X150894973Y-99368159D01*
X150860129Y-99481107D01*
X150813487Y-99618055D01*
X150802798Y-99648453D01*
X150769555Y-99743330D01*
X150735884Y-99839854D01*
X150705186Y-99928266D01*
X150680861Y-99998802D01*
X150652339Y-100072971D01*
X150610087Y-100169787D01*
X150556352Y-100284614D01*
X150493012Y-100413898D01*
X150421944Y-100554083D01*
X150345027Y-100701613D01*
X150264137Y-100852935D01*
X150181152Y-101004492D01*
X150097951Y-101152730D01*
X150016410Y-101294094D01*
X149938408Y-101425028D01*
X149865821Y-101541977D01*
X149863505Y-101545618D01*
X149795473Y-101655735D01*
X149733467Y-101763345D01*
X149674395Y-101874499D01*
X149615164Y-101995250D01*
X149552685Y-102131650D01*
X149483865Y-102289752D01*
X149413669Y-102457732D01*
X149328164Y-102672666D01*
X149248230Y-102885168D01*
X149174978Y-103091857D01*
X149109522Y-103289352D01*
X149052972Y-103474272D01*
X149006439Y-103643239D01*
X148971036Y-103792870D01*
X148947873Y-103919786D01*
X148944776Y-103940634D01*
X148925613Y-104052874D01*
X148902395Y-104159558D01*
X148873443Y-104265891D01*
X148837077Y-104377081D01*
X148791620Y-104498334D01*
X148735392Y-104634857D01*
X148666715Y-104791858D01*
X148637750Y-104855458D01*
X148574320Y-104988451D01*
X148503834Y-105129561D01*
X148429976Y-105271760D01*
X148356429Y-105408021D01*
X148286877Y-105531316D01*
X148225003Y-105634616D01*
X148202476Y-105668459D01*
X148158082Y-105730041D01*
X148101020Y-105805484D01*
X148034998Y-105889990D01*
X147963725Y-105978757D01*
X147890910Y-106066988D01*
X147732971Y-106256414D01*
X147579069Y-106443211D01*
X147443348Y-106610616D01*
X147324941Y-106759769D01*
X147222985Y-106891812D01*
X147136615Y-107007885D01*
X147064965Y-107109129D01*
X147007171Y-107196685D01*
X146962369Y-107271695D01*
X146929694Y-107335299D01*
X146911969Y-107376865D01*
X146897795Y-107424458D01*
X146890842Y-107477278D01*
X146888799Y-107547311D01*
X146385255Y-107547311D01*
X146384928Y-107533046D01*
X146387156Y-107458511D01*
X146395068Y-107385203D01*
X146409657Y-107311480D01*
X146431919Y-107235697D01*
X146462846Y-107156209D01*
X146503435Y-107071373D01*
X146554679Y-106979543D01*
X146617573Y-106879076D01*
X146693111Y-106768328D01*
X146782288Y-106645653D01*
X146886098Y-106509408D01*
X147005537Y-106357949D01*
X147141597Y-106189630D01*
X147295275Y-106002809D01*
X147467564Y-105795840D01*
X147471642Y-105790960D01*
X147573305Y-105667774D01*
X147659046Y-105559777D01*
X147732814Y-105460963D01*
X147798557Y-105365328D01*
X147860224Y-105266866D01*
X147921766Y-105159570D01*
X147987130Y-105037435D01*
X148060265Y-104894455D01*
X148107649Y-104799611D01*
X148190878Y-104627470D01*
X148260184Y-104475178D01*
X148316804Y-104339500D01*
X148361975Y-104217201D01*
X148396933Y-104105049D01*
X148422913Y-103999809D01*
X148441154Y-103898248D01*
X148454210Y-103817856D01*
X148494593Y-103622614D01*
X148550328Y-103405259D01*
X148620909Y-103167439D01*
X148705831Y-102910802D01*
X148804589Y-102636998D01*
X148916676Y-102347674D01*
X148965125Y-102228030D01*
X149063207Y-101995936D01*
X149155613Y-101791678D01*
X149242620Y-101614685D01*
X149324502Y-101464387D01*
X149401533Y-101340213D01*
X149433418Y-101291560D01*
X149499635Y-101185300D01*
X149574464Y-101059752D01*
X149655326Y-100919540D01*
X149739640Y-100769288D01*
X149824828Y-100613620D01*
X149908309Y-100457159D01*
X149987503Y-100304528D01*
X150059832Y-100160352D01*
X150079264Y-100119746D01*
X150115584Y-100039383D01*
X150154300Y-99949096D01*
X150193856Y-99852980D01*
X150232697Y-99755127D01*
X150269268Y-99659633D01*
X150302012Y-99570589D01*
X150329375Y-99492090D01*
X150349802Y-99428230D01*
X150361736Y-99383101D01*
X150363623Y-99360798D01*
X150359334Y-99355637D01*
X150333524Y-99341046D01*
X150293795Y-99326777D01*
X150184974Y-99291499D01*
X150026583Y-99228401D01*
X149849335Y-99145664D01*
X149694470Y-99064056D01*
X149492763Y-98939487D01*
X149318814Y-98807722D01*
X149172128Y-98668327D01*
X149052210Y-98520867D01*
X148958565Y-98364911D01*
X148927720Y-98295938D01*
X148886388Y-98180616D01*
X148845403Y-98041272D01*
X148805448Y-97880922D01*
X148767206Y-97702582D01*
X148731361Y-97509268D01*
X148698596Y-97303996D01*
X148669595Y-97089781D01*
X148669276Y-97087169D01*
X148662220Y-96955236D01*
X148676714Y-96839862D01*
X148714596Y-96735969D01*
X148777704Y-96638481D01*
X148867878Y-96542322D01*
X148916866Y-96499738D01*
X149049213Y-96406585D01*
X149202307Y-96324437D01*
X149370777Y-96255962D01*
X149549254Y-96203829D01*
X149625101Y-96187062D01*
X149730035Y-96165850D01*
X149863153Y-96140385D01*
X150024054Y-96110739D01*
X150212339Y-96076984D01*
X150427606Y-96039191D01*
X150669456Y-95997431D01*
X150937487Y-95951778D01*
X151231300Y-95902303D01*
X151441972Y-95866844D01*
X151656744Y-95830241D01*
X151846836Y-95797244D01*
X152014532Y-95767403D01*
X152162120Y-95740266D01*
X152291885Y-95715383D01*
X152406114Y-95692303D01*
X152507091Y-95670576D01*
X152597103Y-95649750D01*
X152678436Y-95629375D01*
X152753376Y-95609000D01*
X152824208Y-95588175D01*
X152845767Y-95581495D01*
X152938314Y-95550408D01*
X153023069Y-95518246D01*
X153094904Y-95487190D01*
X153148694Y-95459420D01*
X153179312Y-95437116D01*
X153180773Y-95435503D01*
X153214535Y-95388401D01*
X153254691Y-95316909D01*
X153299815Y-95224692D01*
X153348481Y-95115413D01*
X153399264Y-94992734D01*
X153450736Y-94860320D01*
X153501471Y-94721833D01*
X153550045Y-94580938D01*
X153595029Y-94441297D01*
X153634999Y-94306574D01*
X153668529Y-94180433D01*
X153718230Y-94005217D01*
X153788642Y-93801674D01*
X153878205Y-93576113D01*
X153986891Y-93328598D01*
X154114675Y-93059198D01*
X154114735Y-93059076D01*
X154194646Y-92898955D01*
X154266433Y-92762306D01*
X154332626Y-92645299D01*
X154395753Y-92544101D01*
X154458345Y-92454880D01*
X154522931Y-92373804D01*
X154592042Y-92297041D01*
X154668208Y-92220760D01*
X154699097Y-92191698D01*
X154811730Y-92097319D01*
X154919373Y-92027606D01*
X155026512Y-91980462D01*
X155137631Y-91953792D01*
X155257215Y-91945500D01*
X155296542Y-91945816D01*
X155352642Y-91948699D01*
X155397357Y-91956711D01*
X155442291Y-91972380D01*
X155499050Y-91998240D01*
X155551195Y-92025328D01*
X155652834Y-92094149D01*
X155744900Y-92181655D01*
X155833363Y-92293111D01*
X155911114Y-92402906D01*
X156031193Y-92361532D01*
X156091267Y-92342854D01*
X156237575Y-92311776D01*
X156385023Y-92298726D01*
X156522594Y-92304970D01*
X156637326Y-92325400D01*
X156791837Y-92374930D01*
X156928199Y-92446931D01*
X157045531Y-92540655D01*
X157142952Y-92655352D01*
X157219583Y-92790274D01*
X157274542Y-92944671D01*
X157276634Y-92952725D01*
X157296097Y-93061560D01*
X157305556Y-93188293D01*
X157305020Y-93324019D01*
X157294497Y-93459836D01*
X157273992Y-93586838D01*
X157247138Y-93701770D01*
X157175116Y-93947335D01*
X157079779Y-94207900D01*
X157055389Y-94268713D01*
X157025021Y-94342168D01*
X156997724Y-94403355D01*
X156970205Y-94458334D01*
X156939169Y-94513165D01*
X156901323Y-94573910D01*
X156853372Y-94646630D01*
X156792024Y-94737386D01*
X156786447Y-94745590D01*
X156605242Y-95006467D01*
X156420051Y-95261681D01*
X156228138Y-95514613D01*
X156026769Y-95768645D01*
X155813207Y-96027158D01*
X155584719Y-96293531D01*
X155338568Y-96571146D01*
X155072019Y-96863385D01*
X155007249Y-96935065D01*
X154936844Y-97017533D01*
X154870112Y-97101680D01*
X154805040Y-97190612D01*
X154739614Y-97287441D01*
X154671823Y-97395272D01*
X154599651Y-97517216D01*
X154521088Y-97656381D01*
X154434118Y-97815876D01*
X154336730Y-97998808D01*
X154332488Y-98006855D01*
X154275492Y-98116494D01*
X154214382Y-98236531D01*
X154150743Y-98363647D01*
X154086159Y-98494523D01*
X154022216Y-98625838D01*
X153960498Y-98754275D01*
X153902589Y-98876514D01*
X153850076Y-98989236D01*
X153804542Y-99089122D01*
X153767573Y-99172852D01*
X153740753Y-99237108D01*
X153725667Y-99278571D01*
X153717337Y-99307763D01*
X153689945Y-99424566D01*
X153665234Y-99560727D01*
X153644088Y-99708560D01*
X153627385Y-99860383D01*
X153616009Y-100008512D01*
X153610840Y-100145262D01*
X153612760Y-100262949D01*
X153616842Y-100313370D01*
X153626445Y-100396230D01*
X153639938Y-100493001D01*
X153656154Y-100595445D01*
X153673928Y-100695320D01*
X153704729Y-100852938D01*
X153772094Y-101166275D01*
X153846715Y-101472083D01*
X153930739Y-101778410D01*
X154026315Y-102093302D01*
X154135591Y-102424807D01*
X154160406Y-102497559D01*
X154236925Y-102722136D01*
X154304715Y-102921554D01*
X154364416Y-103097775D01*
X154416664Y-103252762D01*
X154462100Y-103388475D01*
X154501361Y-103506878D01*
X154535086Y-103609932D01*
X154563913Y-103699599D01*
X154588481Y-103777842D01*
X154609428Y-103846621D01*
X154627393Y-103907900D01*
X154643014Y-103963640D01*
X154656929Y-104015804D01*
X154669778Y-104066353D01*
X154674351Y-104084786D01*
X154707075Y-104219212D01*
X154737922Y-104351028D01*
X154767320Y-104482673D01*
X154795698Y-104616584D01*
X154823483Y-104755198D01*
X154851103Y-104900954D01*
X154878986Y-105056289D01*
X154907561Y-105223640D01*
X154937254Y-105405447D01*
X154968494Y-105604145D01*
X155001710Y-105822173D01*
X155037328Y-106061968D01*
X155075777Y-106325969D01*
X155117485Y-106616613D01*
X155140171Y-106775285D01*
X155176199Y-107025469D01*
X155209068Y-107250969D01*
X155239220Y-107454547D01*
X155267101Y-107638963D01*
X155293154Y-107806979D01*
X155317824Y-107961355D01*
X155341555Y-108104853D01*
X155364791Y-108240233D01*
X155387977Y-108370257D01*
X155411557Y-108497685D01*
X155435975Y-108625280D01*
X155461675Y-108755800D01*
X155544525Y-109151054D01*
X155683864Y-109738353D01*
X155839353Y-110306959D01*
X156012369Y-110861186D01*
X156204288Y-111405348D01*
X156416488Y-111943758D01*
X156650343Y-112480731D01*
X156675993Y-112536433D01*
X156712824Y-112615134D01*
X156753406Y-112700771D01*
X156795707Y-112789163D01*
X156837697Y-112876127D01*
X156877347Y-112957482D01*
X156912626Y-113029045D01*
X156941505Y-113086635D01*
X156961952Y-113126070D01*
X156971937Y-113143169D01*
X156972924Y-113142919D01*
X156992520Y-113133828D01*
X157035680Y-113112562D01*
X157100418Y-113080132D01*
X157184749Y-113037546D01*
X157286688Y-112985813D01*
X157404247Y-112925942D01*
X157535443Y-112858943D01*
X157678290Y-112785824D01*
X157830802Y-112707594D01*
X157990993Y-112625263D01*
X158025096Y-112607728D01*
X158185295Y-112525612D01*
X158338348Y-112447566D01*
X158482158Y-112374637D01*
X158614626Y-112307872D01*
X158733655Y-112248315D01*
X158837147Y-112197014D01*
X158923003Y-112155015D01*
X158989126Y-112123363D01*
X159033418Y-112103105D01*
X159053781Y-112095287D01*
X159072088Y-112093503D01*
X159139942Y-112102466D01*
X159208984Y-112130868D01*
X159269454Y-112173753D01*
X159311591Y-112226167D01*
X159313259Y-112229882D01*
X159322593Y-112260951D01*
X159335033Y-112313086D01*
X159349158Y-112380005D01*
X159363542Y-112455428D01*
X159377064Y-112541397D01*
X159393563Y-112690290D01*
X159404738Y-112852477D01*
X159410356Y-113019582D01*
X159410318Y-113055774D01*
X159410186Y-113183229D01*
X159403995Y-113335041D01*
X159391552Y-113466643D01*
X159372169Y-113594300D01*
X159313647Y-113864519D01*
X159233784Y-114122705D01*
X159133798Y-114367387D01*
X159014904Y-114597094D01*
X158878318Y-114810356D01*
X158725256Y-115005702D01*
X158556935Y-115181661D01*
X158374571Y-115336762D01*
X158179378Y-115469535D01*
X157972575Y-115578509D01*
X157755376Y-115662214D01*
X157528998Y-115719178D01*
X157518096Y-115721173D01*
X157447478Y-115731583D01*
X157374237Y-115737263D01*
X157289543Y-115738649D01*
X157184566Y-115736175D01*
X157129200Y-115733702D01*
X156996778Y-115722470D01*
X156880029Y-115703048D01*
X156769415Y-115673560D01*
X156655397Y-115632130D01*
X156565698Y-115595899D01*
X156557387Y-115627837D01*
X156540748Y-115673501D01*
X156511123Y-115736438D01*
X156473016Y-115808107D01*
X156430713Y-115880821D01*
X156388496Y-115946896D01*
X156350652Y-115998648D01*
X156311566Y-116043532D01*
X156188612Y-116154951D01*
X156041956Y-116250651D01*
X155872627Y-116330198D01*
X155681654Y-116393157D01*
X155470067Y-116439096D01*
X155238894Y-116467579D01*
X155218974Y-116469340D01*
X155167405Y-116475356D01*
X155131469Y-116481766D01*
X155117976Y-116487448D01*
X155119730Y-116489415D01*
X155141761Y-116497026D01*
X155183729Y-116506394D01*
X155238894Y-116515929D01*
X155259358Y-116519199D01*
X155437452Y-116559473D01*
X155611437Y-116619058D01*
X155776422Y-116695410D01*
X155927517Y-116785984D01*
X156059829Y-116888235D01*
X156168469Y-116999618D01*
X156197916Y-117036747D01*
X156287345Y-117175425D01*
X156349489Y-117319526D01*
X156383672Y-117467160D01*
X156389219Y-117616440D01*
X156385044Y-117662607D01*
X156353827Y-117805059D01*
X156296823Y-117937292D01*
X156215928Y-118055602D01*
X156113038Y-118156280D01*
X156027544Y-118224691D01*
X160726998Y-118228378D01*
X161023666Y-118228596D01*
X161387030Y-118228824D01*
X161741943Y-118229003D01*
X162087310Y-118229134D01*
X162422030Y-118229217D01*
X162745007Y-118229255D01*
X163055142Y-118229246D01*
X163351337Y-118229193D01*
X163632494Y-118229097D01*
X163897515Y-118228957D01*
X164145301Y-118228775D01*
X164374755Y-118228551D01*
X164584779Y-118228287D01*
X164774274Y-118227984D01*
X164942143Y-118227641D01*
X165087286Y-118227261D01*
X165208607Y-118226843D01*
X165305007Y-118226389D01*
X165375388Y-118225899D01*
X165418652Y-118225375D01*
X165433700Y-118224817D01*
X165433842Y-118223823D01*
X165435486Y-118201936D01*
X165438798Y-118152303D01*
X165443704Y-118076134D01*
X165450132Y-117974642D01*
X165458007Y-117849037D01*
X165467257Y-117700532D01*
X165477807Y-117530338D01*
X165489585Y-117339666D01*
X165502517Y-117129728D01*
X165516529Y-116901735D01*
X165531548Y-116656899D01*
X165547500Y-116396432D01*
X165564312Y-116121544D01*
X165581911Y-115833448D01*
X165600223Y-115533355D01*
X165619174Y-115222476D01*
X165638691Y-114902023D01*
X165658702Y-114573208D01*
X165679131Y-114237242D01*
X165699906Y-113895336D01*
X165720953Y-113548702D01*
X165742199Y-113198552D01*
X165763570Y-112846097D01*
X165784993Y-112492549D01*
X165806395Y-112139118D01*
X165827701Y-111787017D01*
X165848839Y-111437458D01*
X165869735Y-111091651D01*
X165890315Y-110750808D01*
X165910506Y-110416141D01*
X165930235Y-110088861D01*
X165949428Y-109770180D01*
X165968011Y-109461309D01*
X165985912Y-109163459D01*
X166003057Y-108877843D01*
X166019371Y-108605672D01*
X166034783Y-108348157D01*
X166049217Y-108106510D01*
X166062602Y-107881942D01*
X166074863Y-107675665D01*
X166085927Y-107488890D01*
X166095720Y-107322829D01*
X166104169Y-107178693D01*
X166111201Y-107057695D01*
X166116741Y-106961044D01*
X166117536Y-106946336D01*
X166120187Y-106891900D01*
X166123619Y-106816064D01*
X166126238Y-106755851D01*
X166620254Y-106755851D01*
X166757431Y-106753855D01*
X166786817Y-106753299D01*
X166849426Y-106751279D01*
X166900539Y-106748534D01*
X166931248Y-106745491D01*
X166976397Y-106736531D01*
X167058749Y-106716134D01*
X167146244Y-106690528D01*
X167232125Y-106662008D01*
X167309638Y-106632871D01*
X167372026Y-106605412D01*
X167412535Y-106581927D01*
X167446794Y-106555927D01*
X167157723Y-106043973D01*
X167136031Y-106005576D01*
X167073864Y-105895771D01*
X167016492Y-105794776D01*
X166965512Y-105705380D01*
X166922521Y-105630373D01*
X166889117Y-105572542D01*
X166866896Y-105534679D01*
X166857455Y-105519571D01*
X166844566Y-105514074D01*
X166815470Y-105516895D01*
X166815178Y-105516988D01*
X166791304Y-105535226D01*
X166783122Y-105573313D01*
X166781563Y-105619960D01*
X166765636Y-105579654D01*
X166753096Y-105557345D01*
X166723670Y-105540050D01*
X166687354Y-105550565D01*
X166684007Y-105556859D01*
X166678014Y-105589492D01*
X166672094Y-105649822D01*
X166666216Y-105738252D01*
X166660352Y-105855188D01*
X166654471Y-106001033D01*
X166654000Y-106013791D01*
X166649446Y-106133972D01*
X166644756Y-106252389D01*
X166640162Y-106363536D01*
X166635897Y-106461906D01*
X166632192Y-106541994D01*
X166629279Y-106598292D01*
X166620254Y-106755851D01*
X166126238Y-106755851D01*
X166127678Y-106722728D01*
X166132206Y-106615792D01*
X166137048Y-106499153D01*
X166142048Y-106376711D01*
X166147049Y-106252364D01*
X166151896Y-106130012D01*
X166156433Y-106013553D01*
X166160502Y-105906887D01*
X166163949Y-105813912D01*
X166166616Y-105738527D01*
X166168349Y-105684630D01*
X166168990Y-105656122D01*
X166168798Y-105644205D01*
X166164722Y-105629988D01*
X166150439Y-105623305D01*
X166119599Y-105622230D01*
X166065848Y-105624836D01*
X166003187Y-105626550D01*
X165885758Y-105621933D01*
X165763764Y-105608723D01*
X165643962Y-105588171D01*
X165533109Y-105561530D01*
X165437962Y-105530052D01*
X165365279Y-105494990D01*
X165316274Y-105464828D01*
X164400516Y-105943633D01*
X164293158Y-105999637D01*
X164144579Y-106076706D01*
X164005593Y-106148288D01*
X163878242Y-106213357D01*
X163764566Y-106270888D01*
X163666606Y-106319856D01*
X163586404Y-106359237D01*
X163525999Y-106388004D01*
X163487434Y-106405134D01*
X163472749Y-106409600D01*
X163467877Y-106397498D01*
X163454589Y-106359190D01*
X163433701Y-106296720D01*
X163405869Y-106212115D01*
X163371748Y-106107399D01*
X163331993Y-105984597D01*
X163287261Y-105845736D01*
X163238207Y-105692840D01*
X163185485Y-105527935D01*
X163129752Y-105353046D01*
X163071663Y-105170199D01*
X162682586Y-103943635D01*
X162688960Y-103861160D01*
X163190894Y-103861160D01*
X163191076Y-103863446D01*
X163197157Y-103890439D01*
X163211298Y-103942308D01*
X163232743Y-104016552D01*
X163260736Y-104110670D01*
X163294521Y-104222162D01*
X163333340Y-104348528D01*
X163376437Y-104487266D01*
X163423056Y-104635876D01*
X163472441Y-104791858D01*
X163484343Y-104829272D01*
X163533225Y-104982697D01*
X163579454Y-105127433D01*
X163622254Y-105261073D01*
X163660848Y-105381210D01*
X163694462Y-105485437D01*
X163722319Y-105571348D01*
X163743644Y-105636536D01*
X163757662Y-105678595D01*
X163763595Y-105695119D01*
X163765870Y-105695777D01*
X163789486Y-105688414D01*
X163837726Y-105667446D01*
X163909799Y-105633263D01*
X164004913Y-105586255D01*
X164122276Y-105526810D01*
X164261094Y-105455318D01*
X164420576Y-105372169D01*
X164445574Y-105359066D01*
X164571592Y-105292913D01*
X164689195Y-105231014D01*
X164795873Y-105174702D01*
X164889117Y-105125307D01*
X164966418Y-105084161D01*
X165025267Y-105052596D01*
X165063153Y-105031943D01*
X165077569Y-105023533D01*
X165077588Y-105023494D01*
X165074719Y-105007878D01*
X165065412Y-104965383D01*
X165050040Y-104897584D01*
X165028978Y-104806057D01*
X165002602Y-104692378D01*
X164971286Y-104558123D01*
X164935403Y-104404868D01*
X164895330Y-104234187D01*
X164851441Y-104047658D01*
X164804109Y-103846855D01*
X164753711Y-103633354D01*
X164700620Y-103408732D01*
X164645211Y-103174564D01*
X164587859Y-102932425D01*
X164528939Y-102683892D01*
X164468824Y-102430540D01*
X164407891Y-102173945D01*
X164346512Y-101915683D01*
X164285064Y-101657328D01*
X164223920Y-101400458D01*
X164163455Y-101146648D01*
X164104044Y-100897474D01*
X164046062Y-100654511D01*
X163989883Y-100419335D01*
X163935881Y-100193522D01*
X163884432Y-99978648D01*
X163835910Y-99776288D01*
X163790690Y-99588018D01*
X163749145Y-99415414D01*
X163711652Y-99260051D01*
X163678584Y-99123506D01*
X163650317Y-99007354D01*
X163627224Y-98913171D01*
X163609681Y-98842532D01*
X163598062Y-98797014D01*
X163592741Y-98778191D01*
X163590963Y-98789203D01*
X163587031Y-98827596D01*
X163581128Y-98891712D01*
X163573394Y-98979754D01*
X163563973Y-99089925D01*
X163553007Y-99220426D01*
X163540636Y-99369461D01*
X163527005Y-99535232D01*
X163512254Y-99715941D01*
X163496526Y-99909792D01*
X163479963Y-100114986D01*
X163462707Y-100329726D01*
X163444900Y-100552215D01*
X163426684Y-100780656D01*
X163408202Y-101013250D01*
X163389595Y-101248201D01*
X163371005Y-101483710D01*
X163352575Y-101717981D01*
X163334447Y-101949216D01*
X163316763Y-102175618D01*
X163299664Y-102395389D01*
X163283294Y-102606731D01*
X163267794Y-102807848D01*
X163253305Y-102996941D01*
X163239972Y-103172214D01*
X163227935Y-103331869D01*
X163217336Y-103474108D01*
X163208318Y-103597134D01*
X163201023Y-103699150D01*
X163195592Y-103778358D01*
X163192169Y-103832960D01*
X163190894Y-103861160D01*
X162688960Y-103861160D01*
X162945404Y-100542898D01*
X163208222Y-97142161D01*
X160952339Y-87706392D01*
X160898927Y-87482981D01*
X160773048Y-86956462D01*
X160648046Y-86433607D01*
X160524133Y-85915306D01*
X160401521Y-85402443D01*
X160280422Y-84895908D01*
X160161048Y-84396587D01*
X160043612Y-83905368D01*
X159928325Y-83423138D01*
X159815400Y-82950785D01*
X159705049Y-82489195D01*
X159597483Y-82039255D01*
X159492915Y-81601854D01*
X159391558Y-81177879D01*
X159293622Y-80768217D01*
X159199322Y-80373754D01*
X159108867Y-79995380D01*
X159022471Y-79633980D01*
X158940346Y-79290442D01*
X158862704Y-78965653D01*
X158789756Y-78660501D01*
X158721716Y-78375874D01*
X158686045Y-78226653D01*
X159197331Y-78226653D01*
X159209035Y-78277951D01*
X159211204Y-78287115D01*
X159219965Y-78323879D01*
X159235224Y-78387797D01*
X159256788Y-78478075D01*
X159284469Y-78593917D01*
X159318076Y-78734528D01*
X159357418Y-78899114D01*
X159402306Y-79086879D01*
X159452550Y-79297029D01*
X159507960Y-79528768D01*
X159568344Y-79781301D01*
X159633513Y-80053834D01*
X159703278Y-80345572D01*
X159777447Y-80655718D01*
X159855831Y-80983480D01*
X159938239Y-81328061D01*
X160024481Y-81688666D01*
X160114367Y-82064502D01*
X160207708Y-82454771D01*
X160304312Y-82858681D01*
X160403990Y-83275435D01*
X160506551Y-83704238D01*
X160611805Y-84144296D01*
X160719563Y-84594814D01*
X160829633Y-85054997D01*
X160941826Y-85524049D01*
X161055952Y-86001176D01*
X161171820Y-86485582D01*
X161289241Y-86976474D01*
X161408024Y-87473055D01*
X161527978Y-87974531D01*
X161648915Y-88480107D01*
X161770643Y-88988987D01*
X161892973Y-89500378D01*
X162015713Y-90013483D01*
X162138676Y-90527508D01*
X162261669Y-91041658D01*
X162384503Y-91555137D01*
X162506987Y-92067152D01*
X162628932Y-92576907D01*
X162750148Y-93083606D01*
X162870444Y-93586455D01*
X162989629Y-94084660D01*
X163107515Y-94577424D01*
X163223910Y-95063953D01*
X163338625Y-95543453D01*
X163451469Y-96015127D01*
X163562252Y-96478182D01*
X163670785Y-96931821D01*
X163776876Y-97375251D01*
X163880336Y-97807675D01*
X163980975Y-98228300D01*
X164078602Y-98636330D01*
X164173027Y-99030970D01*
X164264060Y-99411425D01*
X164351511Y-99776900D01*
X164435190Y-100126600D01*
X164514907Y-100459731D01*
X164590471Y-100775497D01*
X164661692Y-101073103D01*
X165607098Y-105023494D01*
X165618486Y-105071081D01*
X165692265Y-105094281D01*
X165697992Y-105095993D01*
X165761490Y-105108341D01*
X165851042Y-105117022D01*
X165963908Y-105121758D01*
X165995454Y-105122420D01*
X166077384Y-105123642D01*
X166141664Y-105123117D01*
X166197110Y-105120225D01*
X166252537Y-105114343D01*
X166316759Y-105104851D01*
X166398591Y-105091128D01*
X166532812Y-105068113D01*
X166461026Y-104904336D01*
X166455648Y-104891856D01*
X166447423Y-104871740D01*
X166438901Y-104849262D01*
X166429799Y-104823287D01*
X166419836Y-104792677D01*
X166408728Y-104756294D01*
X166396193Y-104713003D01*
X166381949Y-104661664D01*
X166365713Y-104601142D01*
X166347203Y-104530299D01*
X166326136Y-104447998D01*
X166302231Y-104353101D01*
X166275204Y-104244473D01*
X166244774Y-104120975D01*
X166210658Y-103981470D01*
X166172573Y-103824821D01*
X166130237Y-103649891D01*
X166083368Y-103455543D01*
X166031683Y-103240640D01*
X165974900Y-103004044D01*
X165912737Y-102744619D01*
X165844911Y-102461226D01*
X165771139Y-102152730D01*
X165691139Y-101817993D01*
X165604630Y-101455877D01*
X164820020Y-98171194D01*
X164747071Y-97500023D01*
X164734140Y-97380721D01*
X164720135Y-97250729D01*
X164707443Y-97132078D01*
X164696375Y-97027733D01*
X164687246Y-96940661D01*
X164680367Y-96873829D01*
X164676051Y-96830203D01*
X164674611Y-96812749D01*
X164679189Y-96821470D01*
X164693152Y-96854930D01*
X164715494Y-96910752D01*
X164745198Y-96986334D01*
X164781248Y-97079073D01*
X164822629Y-97186367D01*
X164868323Y-97305614D01*
X164917314Y-97434212D01*
X165159528Y-98071777D01*
X165948122Y-101369527D01*
X166020173Y-101670877D01*
X166101839Y-102012581D01*
X166177134Y-102327836D01*
X166246319Y-102617771D01*
X166309653Y-102883511D01*
X166367396Y-103126186D01*
X166419808Y-103346923D01*
X166467149Y-103546849D01*
X166509679Y-103727092D01*
X166547657Y-103888780D01*
X166581345Y-104033040D01*
X166611001Y-104161001D01*
X166636886Y-104273789D01*
X166659259Y-104372533D01*
X166678381Y-104458360D01*
X166694512Y-104532398D01*
X166707910Y-104595775D01*
X166718837Y-104649617D01*
X166727552Y-104695054D01*
X166734315Y-104733212D01*
X166739386Y-104765219D01*
X166743025Y-104792203D01*
X166745492Y-104815291D01*
X166747047Y-104835612D01*
X166751172Y-104898007D01*
X166755501Y-104954097D01*
X166759217Y-104992881D01*
X166761809Y-105008378D01*
X166761882Y-105008446D01*
X166779500Y-105007542D01*
X166818824Y-104997209D01*
X166874610Y-104979345D01*
X166941619Y-104955848D01*
X167014608Y-104928616D01*
X167088338Y-104899548D01*
X167157567Y-104870542D01*
X167217053Y-104843496D01*
X167227499Y-104838422D01*
X167304730Y-104798159D01*
X167380084Y-104754592D01*
X167448674Y-104710967D01*
X167505616Y-104670533D01*
X167546022Y-104636536D01*
X167565008Y-104612224D01*
X167564507Y-104608291D01*
X167558545Y-104579536D01*
X167546154Y-104523963D01*
X167527603Y-104442716D01*
X167503163Y-104336942D01*
X167473104Y-104207784D01*
X167437697Y-104056388D01*
X167397213Y-103883897D01*
X167351921Y-103691457D01*
X167302093Y-103480214D01*
X167247998Y-103251310D01*
X167189907Y-103005892D01*
X167128091Y-102745104D01*
X167062819Y-102470091D01*
X166994363Y-102181998D01*
X166922992Y-101881969D01*
X166848978Y-101571150D01*
X166772590Y-101250684D01*
X166694100Y-100921718D01*
X166613776Y-100585395D01*
X166595717Y-100509813D01*
X166534449Y-100253399D01*
X166466757Y-99970102D01*
X166392938Y-99661159D01*
X166313287Y-99327806D01*
X166228099Y-98971280D01*
X166137669Y-98592817D01*
X166042293Y-98193652D01*
X166008325Y-98051490D01*
X166525445Y-98051490D01*
X166526774Y-98064449D01*
X166526944Y-98065023D01*
X166531957Y-98085062D01*
X166543419Y-98132126D01*
X166561016Y-98204910D01*
X166584435Y-98302109D01*
X166613365Y-98422417D01*
X166647493Y-98564531D01*
X166686505Y-98727144D01*
X166730089Y-98908952D01*
X166777933Y-99108649D01*
X166829723Y-99324931D01*
X166885148Y-99556493D01*
X166943894Y-99802028D01*
X167005648Y-100060234D01*
X167070099Y-100329803D01*
X167136933Y-100609432D01*
X167205837Y-100897815D01*
X167276500Y-101193647D01*
X167286959Y-101237440D01*
X167357368Y-101532074D01*
X167425991Y-101818968D01*
X167492515Y-102096822D01*
X167556629Y-102364340D01*
X167618018Y-102620221D01*
X167676370Y-102863169D01*
X167731370Y-103091884D01*
X167782707Y-103305069D01*
X167830067Y-103501424D01*
X167873137Y-103679651D01*
X167911604Y-103838453D01*
X167945154Y-103976530D01*
X167973475Y-104092584D01*
X167996253Y-104185317D01*
X168013176Y-104253430D01*
X168023930Y-104295625D01*
X168028201Y-104310604D01*
X168029369Y-104311051D01*
X168051684Y-104313227D01*
X168099861Y-104315646D01*
X168171085Y-104318231D01*
X168262538Y-104320905D01*
X168371405Y-104323592D01*
X168494869Y-104326215D01*
X168630114Y-104328697D01*
X168774324Y-104330960D01*
X168869850Y-104332288D01*
X169033020Y-104334256D01*
X169169293Y-104335426D01*
X169280252Y-104335784D01*
X169367483Y-104335319D01*
X169432571Y-104334016D01*
X169477100Y-104331863D01*
X169502655Y-104328846D01*
X169510821Y-104324954D01*
X169510800Y-104324292D01*
X169508040Y-104302091D01*
X169500995Y-104254293D01*
X169490162Y-104183926D01*
X169476035Y-104094023D01*
X169459110Y-103987611D01*
X169439884Y-103867723D01*
X169418851Y-103737386D01*
X169396507Y-103599633D01*
X169373348Y-103457492D01*
X169349870Y-103313994D01*
X169326568Y-103172169D01*
X169303938Y-103035047D01*
X169282476Y-102905658D01*
X169262677Y-102787033D01*
X169245037Y-102682200D01*
X169230051Y-102594191D01*
X169218216Y-102526035D01*
X169210027Y-102480762D01*
X169205979Y-102461403D01*
X169205745Y-102460844D01*
X169195438Y-102442410D01*
X169170937Y-102400683D01*
X169133190Y-102337223D01*
X169083143Y-102253591D01*
X169021744Y-102151347D01*
X168949940Y-102032051D01*
X168868678Y-101897265D01*
X168778904Y-101748548D01*
X168681565Y-101587460D01*
X168577609Y-101415562D01*
X168467983Y-101234415D01*
X168353633Y-101045579D01*
X168235507Y-100850614D01*
X168114552Y-100651081D01*
X167991713Y-100448539D01*
X167867940Y-100244550D01*
X167744177Y-100040674D01*
X167621373Y-99838471D01*
X167500475Y-99639501D01*
X167382429Y-99445326D01*
X167268182Y-99257504D01*
X167158682Y-99077597D01*
X167054875Y-98907166D01*
X166957708Y-98747769D01*
X166868128Y-98600969D01*
X166787083Y-98468324D01*
X166715519Y-98351397D01*
X166654384Y-98251746D01*
X166604623Y-98170933D01*
X166567185Y-98110517D01*
X166543016Y-98072060D01*
X166533063Y-98057121D01*
X166525445Y-98051490D01*
X166008325Y-98051490D01*
X165942266Y-97775022D01*
X165837884Y-97338164D01*
X165729441Y-96884313D01*
X165617234Y-96414705D01*
X165501558Y-95930577D01*
X165382707Y-95433166D01*
X165260978Y-94923706D01*
X165136666Y-94403435D01*
X165010065Y-93873588D01*
X164881473Y-93335402D01*
X164751183Y-92790113D01*
X164619491Y-92238957D01*
X164486693Y-91683171D01*
X164353084Y-91123990D01*
X164218960Y-90562650D01*
X164084615Y-90000389D01*
X163950345Y-89438442D01*
X163816446Y-88878045D01*
X163683213Y-88320434D01*
X163550941Y-87766846D01*
X163419925Y-87218517D01*
X163327333Y-86831003D01*
X163205306Y-86320310D01*
X163085065Y-85817106D01*
X162966790Y-85322142D01*
X162850659Y-84836168D01*
X162736853Y-84359936D01*
X162625551Y-83894195D01*
X162516933Y-83439698D01*
X162411177Y-82997194D01*
X162308464Y-82567434D01*
X162208973Y-82151169D01*
X162112883Y-81749151D01*
X162020374Y-81362129D01*
X161931625Y-80990854D01*
X161846817Y-80636078D01*
X161766127Y-80298552D01*
X161689736Y-79979025D01*
X161617824Y-79678248D01*
X161550569Y-79396973D01*
X161488152Y-79135951D01*
X161430751Y-78895931D01*
X161378546Y-78677666D01*
X161331717Y-78481905D01*
X161290444Y-78309399D01*
X161254904Y-78160900D01*
X161225279Y-78037158D01*
X161201748Y-77938923D01*
X161184490Y-77866947D01*
X161173684Y-77821981D01*
X161169510Y-77804774D01*
X161155123Y-77749312D01*
X161115517Y-77777308D01*
X161051893Y-77817087D01*
X160959897Y-77865413D01*
X160850360Y-77916231D01*
X160728995Y-77967152D01*
X160601517Y-78015789D01*
X160473640Y-78059756D01*
X160351078Y-78096664D01*
X160238608Y-78126367D01*
X160041264Y-78170513D01*
X159853730Y-78200711D01*
X159666418Y-78218353D01*
X159469742Y-78224835D01*
X159197331Y-78226653D01*
X158686045Y-78226653D01*
X158658795Y-78112657D01*
X158601205Y-77871740D01*
X158549159Y-77654008D01*
X158502868Y-77460350D01*
X158462545Y-77291652D01*
X158428401Y-77148802D01*
X158400650Y-77032687D01*
X158379503Y-76944195D01*
X158375839Y-76928860D01*
X158305385Y-76632648D01*
X158241572Y-76361460D01*
X158183727Y-76112102D01*
X158131181Y-75881378D01*
X158083264Y-75666092D01*
X158039305Y-75463048D01*
X157998632Y-75269051D01*
X157960577Y-75080906D01*
X157924467Y-74895416D01*
X157889633Y-74709386D01*
X157855404Y-74519621D01*
X157821110Y-74322924D01*
X157786079Y-74116100D01*
X157756351Y-73934674D01*
X157699871Y-73565379D01*
X157649386Y-73198159D01*
X157604443Y-72828550D01*
X157564585Y-72452087D01*
X157529359Y-72064305D01*
X157498308Y-71660739D01*
X157470977Y-71236924D01*
X157446912Y-70788396D01*
X157442548Y-70675897D01*
X157439174Y-70536248D01*
X157436982Y-70378604D01*
X157435925Y-70207265D01*
X157435955Y-70026530D01*
X157436303Y-69965975D01*
X157888678Y-69965975D01*
X157893906Y-70385020D01*
X157908189Y-70821490D01*
X157931588Y-71277979D01*
X157964162Y-71757081D01*
X158005970Y-72261391D01*
X158014016Y-72349237D01*
X158052756Y-72729661D01*
X158098161Y-73111831D01*
X158150726Y-73498567D01*
X158210945Y-73892689D01*
X158279311Y-74297017D01*
X158356319Y-74714372D01*
X158442462Y-75147572D01*
X158538235Y-75599439D01*
X158644131Y-76072791D01*
X158760643Y-76570450D01*
X158761964Y-76575981D01*
X158803198Y-76748626D01*
X158842552Y-76913408D01*
X158879480Y-77068032D01*
X158913433Y-77210205D01*
X158943863Y-77337631D01*
X158970223Y-77448017D01*
X158991965Y-77539069D01*
X159008540Y-77608492D01*
X159019402Y-77653992D01*
X159024001Y-77673275D01*
X159041952Y-77701840D01*
X159086008Y-77727587D01*
X159156782Y-77748367D01*
X159255431Y-77764636D01*
X159328766Y-77771870D01*
X159523616Y-77774715D01*
X159737864Y-77756244D01*
X159971048Y-77716511D01*
X160222706Y-77655566D01*
X160334437Y-77622524D01*
X160486116Y-77570049D01*
X160629489Y-77511863D01*
X160760418Y-77449967D01*
X160874765Y-77386361D01*
X160968390Y-77323043D01*
X161037156Y-77262014D01*
X161071685Y-77224808D01*
X160820566Y-76172124D01*
X160776662Y-75988275D01*
X160728299Y-75786457D01*
X160685142Y-75607474D01*
X160646375Y-75448185D01*
X160611183Y-75305448D01*
X160578750Y-75176123D01*
X160548260Y-75057067D01*
X160518896Y-74945140D01*
X160489845Y-74837200D01*
X160460288Y-74730107D01*
X160429412Y-74620718D01*
X160396399Y-74505893D01*
X160360435Y-74382490D01*
X160320703Y-74247369D01*
X160302761Y-74186640D01*
X160211404Y-73881213D01*
X160124358Y-73597466D01*
X160040047Y-73331042D01*
X159956896Y-73077582D01*
X159873329Y-72832727D01*
X159787770Y-72592120D01*
X159698644Y-72351401D01*
X159604374Y-72106212D01*
X159503386Y-71852195D01*
X159394103Y-71584991D01*
X159274950Y-71300242D01*
X159144350Y-70993589D01*
X159133822Y-70969065D01*
X159013523Y-70692533D01*
X158899773Y-70438443D01*
X158790176Y-70201807D01*
X158682336Y-69977638D01*
X158573858Y-69760949D01*
X158462347Y-69546751D01*
X158345408Y-69330058D01*
X158333199Y-69307927D01*
X158294222Y-69238470D01*
X158249236Y-69159651D01*
X158200526Y-69075338D01*
X158150376Y-68989399D01*
X158101073Y-68905700D01*
X158054900Y-68828109D01*
X158014143Y-68760492D01*
X157981088Y-68706718D01*
X157958018Y-68670653D01*
X157947220Y-68656164D01*
X157943734Y-68659990D01*
X157937670Y-68686305D01*
X157931604Y-68732217D01*
X157926438Y-68791838D01*
X157905154Y-69169787D01*
X157892448Y-69561762D01*
X157888678Y-69965975D01*
X157436303Y-69965975D01*
X157437024Y-69840701D01*
X157439083Y-69654077D01*
X157442085Y-69470958D01*
X157445982Y-69295645D01*
X157450726Y-69132437D01*
X157456268Y-68985635D01*
X157462561Y-68859538D01*
X157469558Y-68758448D01*
X157474307Y-68703914D01*
X157484785Y-68592536D01*
X157497087Y-68470716D01*
X157510807Y-68341754D01*
X157525544Y-68208951D01*
X157540894Y-68075606D01*
X157556453Y-67945018D01*
X157571818Y-67820489D01*
X157586587Y-67705318D01*
X157600356Y-67602805D01*
X157612721Y-67516250D01*
X157623279Y-67448952D01*
X157631627Y-67404213D01*
X157637362Y-67385331D01*
X157646042Y-67392753D01*
X157669208Y-67421536D01*
X157704652Y-67469012D01*
X157750302Y-67532198D01*
X157804089Y-67608112D01*
X157863943Y-67693773D01*
X157927793Y-67786200D01*
X157993570Y-67882411D01*
X158059204Y-67979425D01*
X158122624Y-68074259D01*
X158181761Y-68163933D01*
X158234544Y-68245464D01*
X158404704Y-68518600D01*
X158603964Y-68857380D01*
X158800720Y-69213062D01*
X158995825Y-69587387D01*
X159190135Y-69982100D01*
X159384504Y-70398945D01*
X159579786Y-70839665D01*
X159776837Y-71306004D01*
X159976510Y-71799706D01*
X159986122Y-71824005D01*
X160138425Y-72220559D01*
X160285357Y-72625646D01*
X160427708Y-73041863D01*
X160566268Y-73471804D01*
X160701827Y-73918066D01*
X160835174Y-74383244D01*
X160967100Y-74869934D01*
X161098394Y-75380730D01*
X161229847Y-75918228D01*
X161251006Y-76006799D01*
X161291083Y-76174519D01*
X161329644Y-76335856D01*
X161366029Y-76488043D01*
X161399576Y-76628314D01*
X161429623Y-76753903D01*
X161455508Y-76862044D01*
X161476570Y-76949971D01*
X161492146Y-77014918D01*
X161501576Y-77054120D01*
X161501807Y-77055075D01*
X161507800Y-77080072D01*
X161520409Y-77132754D01*
X161539454Y-77212370D01*
X161542428Y-77224808D01*
X161564755Y-77318169D01*
G37*
%TD*%
M02*
