%TF.GenerationSoftware,KiCad,Pcbnew,10.0.4-10.0.4~ubuntu24.04.1*%
%TF.CreationDate,2026-06-21T14:51:14+00:00*%
%TF.ProjectId,flight_computer,666c6967-6874-45f6-936f-6d7075746572,A*%
%TF.SameCoordinates,Original*%
%TF.FileFunction,Soldermask,Top*%
%TF.FilePolarity,Negative*%
%FSLAX46Y46*%
G04 Gerber Fmt 4.6, Leading zero omitted, Abs format (unit mm)*
G04 Created by KiCad (PCBNEW 10.0.4-10.0.4~ubuntu24.04.1) date 2026-06-21 14:51:14*
%MOMM*%
%LPD*%
G01*
G04 APERTURE LIST*
G04 Aperture macros list*
%AMRoundRect*
0 Rectangle with rounded corners*
0 $1 Rounding radius*
0 $2 $3 $4 $5 $6 $7 $8 $9 X,Y pos of 4 corners*
0 Add a 4 corners polygon primitive as box body*
4,1,4,$2,$3,$4,$5,$6,$7,$8,$9,$2,$3,0*
0 Add four circle primitives for the rounded corners*
1,1,$1+$1,$2,$3*
1,1,$1+$1,$4,$5*
1,1,$1+$1,$6,$7*
1,1,$1+$1,$8,$9*
0 Add four rect primitives between the rounded corners*
20,1,$1+$1,$2,$3,$4,$5,0*
20,1,$1+$1,$4,$5,$6,$7,0*
20,1,$1+$1,$6,$7,$8,$9,0*
20,1,$1+$1,$8,$9,$2,$3,0*%
%AMFreePoly0*
4,1,17,-1.017500,2.250000,1.017500,2.250000,1.017500,-1.741250,1.005873,-1.849393,0.955269,-1.985068,0.868491,-2.100991,0.752568,-2.187769,0.616893,-2.238373,0.508750,-2.250000,-0.508750,-2.250000,-0.616893,-2.238373,-0.752568,-2.187769,-0.868491,-2.100991,-0.955269,-1.985068,-1.005873,-1.849393,-1.017500,-1.741250,-1.017500,2.250000,-1.017500,2.250000,$1*%
%AMFreePoly1*
4,1,20,0.454269,0.249486,0.423880,0.241344,0.396634,0.225613,0.374387,0.203366,0.358656,0.176120,0.350514,0.145731,0.350000,0.145667,0.350000,-0.125000,0.340485,-0.172835,0.313388,-0.213388,0.272835,-0.240485,0.225000,-0.250000,-0.225000,-0.250000,-0.272835,-0.240485,-0.313388,-0.213388,-0.340485,-0.172835,-0.350000,-0.125000,-0.350000,0.250000,0.470000,0.250000,0.454269,0.249486,
0.454269,0.249486,$1*%
%AMFreePoly2*
4,1,20,0.350000,-0.125000,0.340485,-0.172835,0.313388,-0.213388,0.272835,-0.240485,0.225000,-0.250000,-0.225000,-0.250000,-0.272835,-0.240485,-0.313388,-0.213388,-0.340485,-0.172835,-0.350000,-0.125000,-0.350000,0.145667,-0.350514,0.145731,-0.358656,0.176120,-0.374387,0.203366,-0.396634,0.225613,-0.423880,0.241344,-0.454269,0.249486,-0.470000,0.250000,0.350000,0.250000,0.350000,-0.125000,
0.350000,-0.125000,$1*%
%AMFreePoly3*
4,1,20,0.454263,0.249533,0.423862,0.241387,0.396605,0.225650,0.374350,0.203395,0.358613,0.176138,0.350467,0.145737,0.350000,0.145679,0.350000,-0.125000,0.340485,-0.172835,0.313388,-0.213388,0.272835,-0.240485,0.225000,-0.250000,-0.225000,-0.250000,-0.272835,-0.240485,-0.313388,-0.213388,-0.340485,-0.172835,-0.350000,-0.125000,-0.350000,0.250000,0.470000,0.250000,0.454263,0.249533,
0.454263,0.249533,$1*%
%AMFreePoly4*
4,1,20,0.350000,-0.125000,0.340485,-0.172835,0.313388,-0.213388,0.272835,-0.240485,0.225000,-0.250000,-0.225000,-0.250000,-0.272835,-0.240485,-0.313388,-0.213388,-0.340485,-0.172835,-0.350000,-0.125000,-0.350000,0.145679,-0.350467,0.145737,-0.358613,0.176138,-0.374350,0.203395,-0.396605,0.225650,-0.423862,0.241387,-0.454263,0.249533,-0.470000,0.250000,0.350000,0.250000,0.350000,-0.125000,
0.350000,-0.125000,$1*%
%AMFreePoly5*
4,1,29,-0.418991,2.348079,-0.382943,2.333147,-0.355353,2.305557,-0.340421,2.269509,-0.338500,2.250000,1.017500,2.250000,1.017500,-1.741250,1.005873,-1.849393,0.955269,-1.985068,0.868491,-2.100991,0.752568,-2.187769,0.616893,-2.238373,0.508750,-2.250000,-0.508750,-2.250000,-0.616893,-2.238373,-0.752568,-2.187769,-0.868491,-2.100991,-0.955269,-1.985068,-1.005873,-1.849393,-1.017500,-1.741250,
-1.017500,2.250000,-0.919500,2.250000,-0.917579,2.269509,-0.902647,2.305557,-0.875057,2.333147,-0.839009,2.348079,-0.819500,2.350000,-0.438500,2.350000,-0.418991,2.348079,-0.418991,2.348079,$1*%
%AMFreePoly6*
4,1,26,0.644134,0.821194,0.660355,0.810355,0.671194,0.794134,0.675000,0.775000,0.675000,-0.775000,0.671194,-0.794134,0.660355,-0.810355,0.644134,-0.821194,0.625000,-0.825000,-0.475000,-0.825000,-0.475470,-0.805348,-0.483138,-0.766799,-0.498179,-0.730487,-0.520015,-0.697807,-0.547807,-0.670015,-0.580487,-0.648179,-0.616799,-0.633138,-0.655348,-0.625470,-0.675000,-0.625000,-0.675000,0.775000,
-0.671194,0.794134,-0.660355,0.810355,-0.644134,0.821194,-0.625000,0.825000,0.625000,0.825000,0.644134,0.821194,0.644134,0.821194,$1*%
%AMFreePoly7*
4,1,97,0.507088,1.202947,0.627368,1.160859,0.729899,1.085188,0.805570,0.982657,0.847658,0.862377,0.855000,0.784084,0.855000,-0.732211,0.847547,-0.811688,0.805459,-0.931968,0.729788,-1.034499,0.627257,-1.110170,0.506977,-1.152258,0.428684,-1.159600,-1.290000,-1.159600,-1.330182,-1.151607,-1.364246,-1.128846,-1.387007,-1.094782,-1.395000,-1.054600,-1.395000,-0.844600,-1.387007,-0.804418,
-1.364246,-0.770354,-1.330182,-0.747593,-1.290000,-0.739600,-0.913000,-0.739600,-0.913000,-0.739100,-0.890996,-0.734723,-0.872341,-0.722259,-0.859877,-0.703604,-0.855500,-0.681600,-0.855000,-0.681600,-0.855000,-0.567600,-0.855500,-0.567600,-0.859877,-0.545596,-0.872341,-0.526941,-0.890996,-0.514477,-0.913000,-0.510100,-0.913000,-0.509600,-1.290000,-0.509600,-1.330182,-0.501607,-1.364246,-0.478846,
-1.387007,-0.444782,-1.395000,-0.404600,-1.395000,-0.194600,-1.387007,-0.154418,-1.364246,-0.120354,-1.330182,-0.097593,-1.290000,-0.089600,-0.913000,-0.089600,-0.913000,-0.089100,-0.890996,-0.084723,-0.872341,-0.072259,-0.859877,-0.053604,-0.855500,-0.031600,-0.855000,-0.031600,-0.855000,0.082400,-0.855500,0.082400,-0.859877,0.104404,-0.872341,0.123059,-0.890996,0.135523,-0.913000,0.139900,
-0.913000,0.140400,-1.290000,0.140400,-1.330182,0.148393,-1.364246,0.171154,-1.387007,0.205218,-1.395000,0.245400,-1.395000,0.455400,-1.387007,0.495582,-1.364246,0.529646,-1.330182,0.552407,-1.290000,0.560400,-0.913000,0.560400,-0.913000,0.560900,-0.890996,0.565277,-0.872341,0.577741,-0.859877,0.596396,-0.855500,0.618400,-0.855000,0.618400,-0.855000,0.732400,-0.855500,0.732400,
-0.859877,0.754404,-0.872341,0.773059,-0.890996,0.785523,-0.913000,0.789900,-0.913000,0.790400,-1.290000,0.790400,-1.330182,0.798393,-1.364246,0.821154,-1.387007,0.855218,-1.395000,0.895400,-1.395000,1.105400,-1.387007,1.145582,-1.364246,1.179646,-1.330182,1.202407,-1.290000,1.210400,0.427611,1.210400,0.507088,1.202947,0.507088,1.202947,$1*%
G04 Aperture macros list end*
%ADD10RoundRect,0.237500X-0.237500X0.262500X-0.237500X-0.262500X0.237500X-0.262500X0.237500X0.262500X0*%
%ADD11RoundRect,0.300000X1.050000X0.300000X-1.050000X0.300000X-1.050000X-0.300000X1.050000X-0.300000X0*%
%ADD12RoundRect,0.200000X-0.200000X-0.200000X0.200000X-0.200000X0.200000X0.200000X-0.200000X0.200000X0*%
%ADD13RoundRect,0.287500X-0.437500X-0.287500X0.437500X-0.287500X0.437500X0.287500X-0.437500X0.287500X0*%
%ADD14RoundRect,0.287500X0.437500X0.287500X-0.437500X0.287500X-0.437500X-0.287500X0.437500X-0.287500X0*%
%ADD15RoundRect,0.237500X0.237500X-0.262500X0.237500X0.262500X-0.237500X0.262500X-0.237500X-0.262500X0*%
%ADD16RoundRect,0.237500X-0.262500X-0.237500X0.262500X-0.237500X0.262500X0.237500X-0.262500X0.237500X0*%
%ADD17RoundRect,0.207000X0.105000X-0.350000X0.105000X0.350000X-0.105000X0.350000X-0.105000X-0.350000X0*%
%ADD18RoundRect,0.334500X2.167500X-2.092500X2.167500X2.092500X-2.167500X2.092500X-2.167500X-2.092500X0*%
%ADD19RoundRect,0.175000X-0.925000X-0.175000X0.925000X-0.175000X0.925000X0.175000X-0.925000X0.175000X0*%
%ADD20RoundRect,0.200000X-0.900000X-0.200000X0.900000X-0.200000X0.900000X0.200000X-0.900000X0.200000X0*%
%ADD21RoundRect,0.237500X0.262500X0.237500X-0.262500X0.237500X-0.262500X-0.237500X0.262500X-0.237500X0*%
%ADD22RoundRect,0.187500X0.087500X-0.162500X0.087500X0.162500X-0.087500X0.162500X-0.087500X-0.162500X0*%
%ADD23RoundRect,0.187500X0.162500X0.087500X-0.162500X0.087500X-0.162500X-0.087500X0.162500X-0.087500X0*%
%ADD24RoundRect,0.245000X-1.455000X0.245000X-1.455000X-0.245000X1.455000X-0.245000X1.455000X0.245000X0*%
%ADD25RoundRect,0.120000X0.250000X0.065000X-0.250000X0.065000X-0.250000X-0.065000X0.250000X-0.065000X0*%
%ADD26RoundRect,0.120000X-0.065000X0.250000X-0.065000X-0.250000X0.065000X-0.250000X0.065000X0.250000X0*%
%ADD27RoundRect,0.120000X0.065000X-0.250000X0.065000X0.250000X-0.065000X0.250000X-0.065000X-0.250000X0*%
%ADD28C,0.500000*%
%ADD29RoundRect,0.120000X0.790000X0.790000X-0.790000X0.790000X-0.790000X-0.790000X0.790000X-0.790000X0*%
%ADD30RoundRect,0.287500X-0.287500X0.437500X-0.287500X-0.437500X0.287500X-0.437500X0.287500X0.437500X0*%
%ADD31RoundRect,0.287500X0.287500X-0.437500X0.287500X0.437500X-0.287500X0.437500X-0.287500X-0.437500X0*%
%ADD32RoundRect,0.275000X0.275000X-0.375000X0.275000X0.375000X-0.275000X0.375000X-0.275000X-0.375000X0*%
%ADD33RoundRect,0.075000X0.525000X-0.075000X0.525000X0.075000X-0.525000X0.075000X-0.525000X-0.075000X0*%
%ADD34RoundRect,0.075000X0.075000X0.525000X-0.075000X0.525000X-0.075000X-0.525000X0.075000X-0.525000X0*%
%ADD35RoundRect,0.075000X-0.525000X0.075000X-0.525000X-0.075000X0.525000X-0.075000X0.525000X0.075000X0*%
%ADD36RoundRect,0.075000X-0.075000X-0.525000X0.075000X-0.525000X0.075000X0.525000X-0.075000X0.525000X0*%
%ADD37RoundRect,0.062500X-0.062500X0.112500X-0.062500X-0.112500X0.062500X-0.112500X0.062500X0.112500X0*%
%ADD38RoundRect,0.062500X-0.112500X-0.062500X0.112500X-0.062500X0.112500X0.062500X-0.112500X0.062500X0*%
%ADD39RoundRect,0.287500X-0.612500X-0.287500X0.612500X-0.287500X0.612500X0.287500X-0.612500X0.287500X0*%
%ADD40C,6.350000*%
%ADD41RoundRect,0.325000X0.325000X-0.375000X0.325000X0.375000X-0.325000X0.375000X-0.325000X-0.375000X0*%
%ADD42RoundRect,0.075000X0.075000X0.112500X-0.075000X0.112500X-0.075000X-0.112500X0.075000X-0.112500X0*%
%ADD43RoundRect,0.062500X0.062500X-0.112500X0.062500X0.112500X-0.062500X0.112500X-0.062500X-0.112500X0*%
%ADD44RoundRect,0.062500X0.112500X0.062500X-0.112500X0.062500X-0.112500X-0.062500X0.112500X-0.062500X0*%
%ADD45RoundRect,0.287500X-1.062500X0.287500X-1.062500X-0.287500X1.062500X-0.287500X1.062500X0.287500X0*%
%ADD46RoundRect,0.450000X1.350000X0.450000X-1.350000X0.450000X-1.350000X-0.450000X1.350000X-0.450000X0*%
%ADD47C,1.000000*%
%ADD48RoundRect,0.157500X0.257500X-0.157500X0.257500X0.157500X-0.257500X0.157500X-0.257500X-0.157500X0*%
%ADD49C,2.100000*%
%ADD50R,3.600000X1.270000*%
%ADD51R,4.200000X1.350000*%
%ADD52C,1.620000*%
%ADD53C,3.010000*%
%ADD54RoundRect,0.075000X0.075000X-0.150000X0.075000X0.150000X-0.075000X0.150000X-0.075000X-0.150000X0*%
%ADD55RoundRect,0.075000X-0.150000X-0.075000X0.150000X-0.075000X0.150000X0.075000X-0.150000X0.075000X0*%
%ADD56RoundRect,0.220000X-0.150000X0.625000X-0.150000X-0.625000X0.150000X-0.625000X0.150000X0.625000X0*%
%ADD57RoundRect,0.075000X0.075000X0.420000X-0.075000X0.420000X-0.075000X-0.420000X0.075000X-0.420000X0*%
%ADD58C,0.650000*%
%ADD59RoundRect,0.150000X-0.150000X-0.425000X0.150000X-0.425000X0.150000X0.425000X-0.150000X0.425000X0*%
%ADD60RoundRect,0.075000X-0.075000X-0.500000X0.075000X-0.500000X0.075000X0.500000X-0.075000X0.500000X0*%
%ADD61O,1.000000X2.100000*%
%ADD62O,1.000000X1.800000*%
%ADD63RoundRect,0.162500X-0.437500X0.162500X-0.437500X-0.162500X0.437500X-0.162500X0.437500X0.162500X0*%
%ADD64FreePoly0,90.000000*%
%ADD65FreePoly1,270.000000*%
%ADD66FreePoly2,270.000000*%
%ADD67FreePoly3,270.000000*%
%ADD68FreePoly4,270.000000*%
%ADD69FreePoly5,90.000000*%
%ADD70RoundRect,0.075000X0.075000X0.164000X-0.075000X0.164000X-0.075000X-0.164000X0.075000X-0.164000X0*%
%ADD71C,2.020000*%
%ADD72RoundRect,0.150000X0.150000X-0.400000X0.150000X0.400000X-0.150000X0.400000X-0.150000X-0.400000X0*%
%ADD73RoundRect,0.075000X0.255000X0.075000X-0.255000X0.075000X-0.255000X-0.075000X0.255000X-0.075000X0*%
%ADD74RoundRect,0.155000X-0.155000X0.155000X-0.155000X-0.155000X0.155000X-0.155000X0.155000X0.155000X0*%
%ADD75RoundRect,0.155000X0.155000X0.155000X-0.155000X0.155000X-0.155000X-0.155000X0.155000X-0.155000X0*%
%ADD76RoundRect,0.115000X0.235000X-0.010000X0.235000X0.010000X-0.235000X0.010000X-0.235000X-0.010000X0*%
%ADD77RoundRect,0.125000X0.225000X-0.000010X0.225000X0.000010X-0.225000X0.000010X-0.225000X-0.000010X0*%
%ADD78FreePoly6,90.000000*%
%ADD79RoundRect,0.300000X-1.050000X-0.300000X1.050000X-0.300000X1.050000X0.300000X-1.050000X0.300000X0*%
%ADD80FreePoly7,180.000000*%
%ADD81RoundRect,0.105000X0.245000X-0.105000X0.245000X0.105000X-0.245000X0.105000X-0.245000X-0.105000X0*%
%ADD82RoundRect,0.287500X0.287500X-0.612500X0.287500X0.612500X-0.287500X0.612500X-0.287500X-0.612500X0*%
%ADD83RoundRect,0.287500X-0.287500X0.612500X-0.287500X-0.612500X0.287500X-0.612500X0.287500X0.612500X0*%
%ADD84RoundRect,0.100000X0.100000X-0.675000X0.100000X0.675000X-0.100000X0.675000X-0.100000X-0.675000X0*%
G04 APERTURE END LIST*
D10*
%TO.C,R39*%
X125694000Y-122660000D03*
X124094000Y-122660000D03*
%TD*%
D11*
%TO.C,R37*%
X116893000Y-104287843D03*
X116893000Y-99387843D03*
%TD*%
D12*
%TO.C,D3*%
X120259000Y-113516000D03*
X121909000Y-113516000D03*
%TD*%
D13*
%TO.C,C42*%
X132387000Y-68179291D03*
D14*
X132387000Y-66379291D03*
%TD*%
D15*
%TO.C,R11*%
X120284000Y-124946000D03*
X121884000Y-124946000D03*
%TD*%
D16*
%TO.C,R26*%
X148643000Y-82490000D03*
X148643000Y-84090000D03*
%TD*%
D17*
%TO.C,U5*%
X145468000Y-113987000D03*
X146738000Y-113987000D03*
X148008000Y-113987000D03*
X149278000Y-113987000D03*
X149278000Y-106187000D03*
X148008000Y-106187000D03*
X146738000Y-106187000D03*
X145468000Y-106187000D03*
D18*
X147373000Y-110087000D03*
%TD*%
D15*
%TO.C,R34*%
X143652000Y-116183000D03*
X145252000Y-116183000D03*
%TD*%
D19*
%TO.C,U9*%
X174908000Y-119530000D03*
D20*
X174908000Y-120630000D03*
X174908000Y-121730000D03*
X174908000Y-122830000D03*
X174908000Y-123930000D03*
X174908000Y-125030000D03*
X174908000Y-126130000D03*
X174908000Y-127230000D03*
D19*
X174908000Y-128330000D03*
X184608000Y-128330000D03*
D20*
X184608000Y-127230000D03*
X184608000Y-126130000D03*
X184608000Y-125030000D03*
X184608000Y-123930000D03*
X184608000Y-122830000D03*
X184608000Y-121730000D03*
X184608000Y-120630000D03*
D19*
X184608000Y-119530000D03*
%TD*%
D10*
%TO.C,C2*%
X169763000Y-99419000D03*
X168163000Y-99419000D03*
%TD*%
D16*
%TO.C,R24*%
X128069000Y-98878843D03*
X128069000Y-100478843D03*
%TD*%
D21*
%TO.C,R16*%
X128196000Y-116983000D03*
X128196000Y-115383000D03*
%TD*%
D15*
%TO.C,R56*%
X203596000Y-100114000D03*
X205196000Y-100114000D03*
%TD*%
D13*
%TO.C,C35*%
X175186000Y-77332000D03*
D14*
X175186000Y-75532000D03*
%TD*%
D15*
%TO.C,R55*%
X203596000Y-97604000D03*
X205196000Y-97604000D03*
%TD*%
D22*
%TO.C,U8*%
X179909000Y-76978000D03*
X180409000Y-76978000D03*
X180909000Y-76978000D03*
X181409000Y-76978000D03*
D23*
X181447000Y-76424000D03*
X181447000Y-75924000D03*
D22*
X181409000Y-75378000D03*
X180909000Y-75378000D03*
X180409000Y-75378000D03*
X179909000Y-75378000D03*
D23*
X179847000Y-75924000D03*
X179847000Y-76424000D03*
%TD*%
D24*
%TO.C,L1*%
X159311000Y-62166000D03*
X159311000Y-64536000D03*
%TD*%
D15*
%TO.C,R51*%
X187467000Y-119485003D03*
X189067000Y-119485003D03*
%TD*%
D25*
%TO.C,U4*%
X153472000Y-74007000D03*
X153472000Y-73507000D03*
X153472000Y-73007000D03*
X153472000Y-72507000D03*
D26*
X152822000Y-71857000D03*
X152322000Y-71857000D03*
D27*
X151822000Y-71857000D03*
X151322000Y-71857000D03*
D25*
X150672000Y-72507000D03*
X150672000Y-73007000D03*
X150672000Y-73507000D03*
X150672000Y-74007000D03*
D27*
X151322000Y-74657000D03*
X151822000Y-74657000D03*
D26*
X152322000Y-74657000D03*
X152822000Y-74657000D03*
D28*
X152652000Y-73837000D03*
X152652000Y-72677000D03*
X152072000Y-73257000D03*
D29*
X152072000Y-73257000D03*
D28*
X151492000Y-73837000D03*
X151492000Y-72677000D03*
%TD*%
D21*
%TO.C,C43*%
X123497000Y-68079291D03*
X123497000Y-66479291D03*
%TD*%
D10*
%TO.C,R43*%
X130393000Y-58144000D03*
X128793000Y-58144000D03*
%TD*%
%TO.C,C21*%
X160111000Y-105642000D03*
X158511000Y-105642000D03*
%TD*%
D16*
%TO.C,R8*%
X144579000Y-73854000D03*
X144579000Y-75454000D03*
%TD*%
D30*
%TO.C,C31*%
X181652000Y-71225000D03*
D31*
X183452000Y-71225000D03*
%TD*%
D21*
%TO.C,R14*%
X157914000Y-69866000D03*
X157914000Y-68266000D03*
%TD*%
%TO.C,R9*%
X130482000Y-120793000D03*
X130482000Y-119193000D03*
%TD*%
D32*
%TO.C,Y1*%
X169863000Y-97140000D03*
X169863000Y-94840000D03*
X168063000Y-94840000D03*
X168063000Y-97140000D03*
%TD*%
D21*
%TO.C,C16*%
X142547000Y-102886000D03*
X142547000Y-101286000D03*
%TD*%
D33*
%TO.C,U1*%
X160457000Y-101482000D03*
X160457000Y-100982000D03*
X160457000Y-100482000D03*
X160457000Y-99982000D03*
X160457000Y-99482000D03*
X160457000Y-98982000D03*
X160457000Y-98482000D03*
X160457000Y-97982000D03*
X160457000Y-97482000D03*
X160457000Y-96982000D03*
X160457000Y-96482000D03*
X160457000Y-95982000D03*
X160457000Y-95482000D03*
X160457000Y-94982000D03*
X160457000Y-94482000D03*
X160457000Y-93982000D03*
X160457000Y-93482000D03*
X160457000Y-92982000D03*
X160457000Y-92482000D03*
X160457000Y-91982000D03*
X160457000Y-91482000D03*
X160457000Y-90982000D03*
X160457000Y-90482000D03*
X160457000Y-89982000D03*
X160457000Y-89482000D03*
D34*
X158707000Y-87732000D03*
X158207000Y-87732000D03*
X157707000Y-87732000D03*
X157207000Y-87732000D03*
X156707000Y-87732000D03*
X156207000Y-87732000D03*
X155707000Y-87732000D03*
X155207000Y-87732000D03*
X154707000Y-87732000D03*
X154207000Y-87732000D03*
X153707000Y-87732000D03*
X153207000Y-87732000D03*
X152707000Y-87732000D03*
X152207000Y-87732000D03*
X151707000Y-87732000D03*
X151207000Y-87732000D03*
X150707000Y-87732000D03*
X150207000Y-87732000D03*
X149707000Y-87732000D03*
X149207000Y-87732000D03*
X148707000Y-87732000D03*
X148207000Y-87732000D03*
X147707000Y-87732000D03*
X147207000Y-87732000D03*
X146707000Y-87732000D03*
D35*
X144957000Y-89482000D03*
X144957000Y-89982000D03*
X144957000Y-90482000D03*
X144957000Y-90982000D03*
X144957000Y-91482000D03*
X144957000Y-91982000D03*
X144957000Y-92482000D03*
X144957000Y-92982000D03*
X144957000Y-93482000D03*
X144957000Y-93982000D03*
X144957000Y-94482000D03*
X144957000Y-94982000D03*
X144957000Y-95482000D03*
X144957000Y-95982000D03*
X144957000Y-96482000D03*
X144957000Y-96982000D03*
X144957000Y-97482000D03*
X144957000Y-97982000D03*
X144957000Y-98482000D03*
X144957000Y-98982000D03*
X144957000Y-99482000D03*
X144957000Y-99982000D03*
X144957000Y-100482000D03*
X144957000Y-100982000D03*
X144957000Y-101482000D03*
D36*
X146707000Y-103232000D03*
X147207000Y-103232000D03*
X147707000Y-103232000D03*
X148207000Y-103232000D03*
X148707000Y-103232000D03*
X149207000Y-103232000D03*
X149707000Y-103232000D03*
X150207000Y-103232000D03*
X150707000Y-103232000D03*
X151207000Y-103232000D03*
X151707000Y-103232000D03*
X152207000Y-103232000D03*
X152707000Y-103232000D03*
X153207000Y-103232000D03*
X153707000Y-103232000D03*
X154207000Y-103232000D03*
X154707000Y-103232000D03*
X155207000Y-103232000D03*
X155707000Y-103232000D03*
X156207000Y-103232000D03*
X156707000Y-103232000D03*
X157207000Y-103232000D03*
X157707000Y-103232000D03*
X158207000Y-103232000D03*
X158707000Y-103232000D03*
%TD*%
D12*
%TO.C,D5*%
X120259000Y-93196000D03*
X121909000Y-93196000D03*
%TD*%
D10*
%TO.C,R41*%
X125694000Y-102345843D03*
X124094000Y-102345843D03*
%TD*%
D21*
%TO.C,C40*%
X170360000Y-73676000D03*
X170360000Y-72076000D03*
%TD*%
D37*
%TO.C,U14*%
X168185000Y-76006000D03*
X167685000Y-76006000D03*
X167185000Y-76006000D03*
X166685000Y-76006000D03*
X166185000Y-76006000D03*
D38*
X165960000Y-75281000D03*
X165960000Y-74781000D03*
X165960000Y-74281000D03*
D37*
X166185000Y-73556000D03*
X166685000Y-73556000D03*
X167185000Y-73556000D03*
X167685000Y-73556000D03*
X168185000Y-73556000D03*
D38*
X168410000Y-74281000D03*
X168410000Y-74781000D03*
X168410000Y-75281000D03*
%TD*%
D16*
%TO.C,R15*%
X130482000Y-115383000D03*
X130482000Y-116983000D03*
%TD*%
D21*
%TO.C,C32*%
X191315000Y-118874703D03*
X191315000Y-117274703D03*
%TD*%
%TO.C,C1*%
X165153000Y-92218000D03*
X165153000Y-90618000D03*
%TD*%
D10*
%TO.C,C4*%
X139791000Y-71225000D03*
X138191000Y-71225000D03*
%TD*%
D39*
%TO.C,C22*%
X165534000Y-100713000D03*
X165534000Y-103713000D03*
%TD*%
D16*
%TO.C,R7*%
X144579000Y-61662000D03*
X144579000Y-63262000D03*
%TD*%
D24*
%TO.C,L2*%
X159311000Y-74358000D03*
X159311000Y-76728000D03*
%TD*%
D15*
%TO.C,C20*%
X149494000Y-69828000D03*
X151094000Y-69828000D03*
%TD*%
D40*
%TO.C,MH2*%
X109776000Y-131804000D03*
%TD*%
D12*
%TO.C,D7*%
X124958000Y-55985000D03*
X126608000Y-55985000D03*
%TD*%
D41*
%TO.C,D1*%
X118163000Y-68679291D03*
X118163000Y-65879291D03*
%TD*%
D14*
%TO.C,C11*%
X165407000Y-86581000D03*
D13*
X165407000Y-88381000D03*
%TD*%
D42*
%TO.C,U12*%
X191053000Y-126978000D03*
X190553000Y-126690500D03*
X190053000Y-126690500D03*
X190053000Y-127265500D03*
X190553000Y-127265500D03*
%TD*%
D16*
%TO.C,R17*%
X155628000Y-56074000D03*
X155628000Y-57674000D03*
%TD*%
D43*
%TO.C,U15*%
X186981000Y-83208000D03*
X186481000Y-83208000D03*
X185981000Y-83208000D03*
X185481000Y-83208000D03*
X184981000Y-83208000D03*
D44*
X184756000Y-83933000D03*
X184756000Y-84433000D03*
X184756000Y-84933000D03*
D43*
X184981000Y-85658000D03*
X185481000Y-85658000D03*
X185981000Y-85658000D03*
X186481000Y-85658000D03*
X186981000Y-85658000D03*
D44*
X187206000Y-84933000D03*
X187206000Y-84433000D03*
X187206000Y-83933000D03*
%TD*%
D16*
%TO.C,R10*%
X128196000Y-119193000D03*
X128196000Y-120793000D03*
%TD*%
D45*
%TO.C,C14*%
X147754000Y-61724000D03*
X147754000Y-64724000D03*
%TD*%
D46*
%TO.C,C25*%
X115750000Y-59636000D03*
X115750000Y-55636000D03*
%TD*%
D15*
%TO.C,R57*%
X203596000Y-102624000D03*
X205196000Y-102624000D03*
%TD*%
D47*
%TO.C,J2*%
X109146000Y-75934000D03*
X109146000Y-77184000D03*
%TD*%
D15*
%TO.C,C30*%
X181498000Y-73765000D03*
X183098000Y-73765000D03*
%TD*%
D30*
%TO.C,C27*%
X168056983Y-87103000D03*
D31*
X169856983Y-87103000D03*
%TD*%
D16*
%TO.C,C26*%
X142547000Y-106239000D03*
X142547000Y-107839000D03*
%TD*%
D40*
%TO.C,MH4*%
X195506000Y-55604000D03*
%TD*%
D48*
%TO.C,D12*%
X147877468Y-132404812D03*
X147877468Y-130174812D03*
%TD*%
D49*
%TO.C,J4*%
X108511000Y-120628000D03*
X108511000Y-125708000D03*
%TD*%
D16*
%TO.C,R49*%
X134292000Y-98365000D03*
X134292000Y-99965000D03*
%TD*%
D21*
%TO.C,R31*%
X128069000Y-96668843D03*
X128069000Y-95068843D03*
%TD*%
D11*
%TO.C,R35*%
X116893000Y-124602000D03*
X116893000Y-119702000D03*
%TD*%
D12*
%TO.C,D4*%
X120259000Y-102345843D03*
X121909000Y-102345843D03*
%TD*%
D48*
%TO.C,D13*%
X146607468Y-128340812D03*
X146607468Y-126110812D03*
%TD*%
D47*
%TO.C,J3*%
X109146000Y-82538000D03*
X109146000Y-83788000D03*
%TD*%
D50*
%TO.C,J12*%
X198686000Y-126978000D03*
D51*
X198486000Y-129803000D03*
X198486000Y-124153000D03*
%TD*%
D52*
%TO.C,J1*%
X113591000Y-68788000D03*
X113591000Y-65788000D03*
D53*
X109271000Y-63638000D03*
X109271000Y-70938000D03*
%TD*%
D10*
%TO.C,C13*%
X146395000Y-85322000D03*
X144795000Y-85322000D03*
%TD*%
D21*
%TO.C,C36*%
X172648997Y-77486000D03*
X172648997Y-75886000D03*
%TD*%
D54*
%TO.C,U7*%
X169710983Y-82269000D03*
X169210983Y-82269000D03*
X168710983Y-82269000D03*
X168210983Y-82269000D03*
D55*
X167681983Y-82798000D03*
X167681983Y-83298000D03*
X167681983Y-83798000D03*
X167681983Y-84298000D03*
D54*
X168210983Y-84819000D03*
X168710983Y-84819000D03*
X169210983Y-84819000D03*
X169710983Y-84819000D03*
D55*
X170231983Y-84298000D03*
X170231983Y-83798000D03*
X170231983Y-83298000D03*
X170231983Y-82798000D03*
%TD*%
D15*
%TO.C,C12*%
X158003000Y-85322000D03*
X159603000Y-85322000D03*
%TD*%
D16*
%TO.C,R5*%
X140769000Y-73473000D03*
X140769000Y-75073000D03*
%TD*%
D21*
%TO.C,C10*%
X162867000Y-92218000D03*
X162867000Y-90618000D03*
%TD*%
D25*
%TO.C,U3*%
X153472000Y-61815000D03*
X153472000Y-61315000D03*
X153472000Y-60815000D03*
X153472000Y-60315000D03*
D26*
X152822000Y-59665000D03*
X152322000Y-59665000D03*
D27*
X151822000Y-59665000D03*
X151322000Y-59665000D03*
D25*
X150672000Y-60315000D03*
X150672000Y-60815000D03*
X150672000Y-61315000D03*
X150672000Y-61815000D03*
D27*
X151322000Y-62465000D03*
X151822000Y-62465000D03*
D26*
X152322000Y-62465000D03*
X152822000Y-62465000D03*
D28*
X152652000Y-61645000D03*
X152652000Y-60485000D03*
X152072000Y-61065000D03*
D29*
X152072000Y-61065000D03*
D28*
X151492000Y-61645000D03*
X151492000Y-60485000D03*
%TD*%
D21*
%TO.C,R48*%
X136578000Y-99965000D03*
X136578000Y-98365000D03*
%TD*%
D31*
%TO.C,C7*%
X146241000Y-82782000D03*
D30*
X144441000Y-82782000D03*
%TD*%
D16*
%TO.C,C39*%
X189283000Y-81728000D03*
X189283000Y-83328000D03*
%TD*%
D45*
%TO.C,C15*%
X147754000Y-73916000D03*
X147754000Y-76916000D03*
%TD*%
D16*
%TO.C,C8*%
X162867000Y-96841000D03*
X162867000Y-98441000D03*
%TD*%
D21*
%TO.C,R13*%
X157914000Y-57674000D03*
X157914000Y-56074000D03*
%TD*%
D16*
%TO.C,R19*%
X155628000Y-68266000D03*
X155628000Y-69866000D03*
%TD*%
D48*
%TO.C,D10*%
X150421000Y-132404812D03*
X150421000Y-130174812D03*
%TD*%
D10*
%TO.C,C29*%
X179288000Y-73765000D03*
X177688000Y-73765000D03*
%TD*%
D21*
%TO.C,C17*%
X147246000Y-59325000D03*
X147246000Y-57725000D03*
%TD*%
D10*
%TO.C,R45*%
X134203000Y-55985000D03*
X132603000Y-55985000D03*
%TD*%
D15*
%TO.C,C3*%
X168163000Y-92561000D03*
X169763000Y-92561000D03*
%TD*%
D14*
%TO.C,C38*%
X189537000Y-85692000D03*
D13*
X189537000Y-87492000D03*
%TD*%
D15*
%TO.C,R33*%
X124094000Y-90910000D03*
X125694000Y-90910000D03*
%TD*%
D10*
%TO.C,R42*%
X125694000Y-93196000D03*
X124094000Y-93196000D03*
%TD*%
D48*
%TO.C,D8*%
X152961000Y-132404812D03*
X152961000Y-130174812D03*
%TD*%
D15*
%TO.C,R3*%
X115077000Y-77702000D03*
X116677000Y-77702000D03*
%TD*%
%TO.C,R32*%
X120284000Y-90910000D03*
X121884000Y-90910000D03*
%TD*%
D21*
%TO.C,R20*%
X153342000Y-69866000D03*
X153342000Y-68266000D03*
%TD*%
%TO.C,R23*%
X130355000Y-100478843D03*
X130355000Y-98878843D03*
%TD*%
D47*
%TO.C,J8*%
X144776000Y-136249000D03*
X146026000Y-136249000D03*
X147276000Y-136249000D03*
X148526000Y-136249000D03*
X149776000Y-136249000D03*
X151026000Y-136249000D03*
X152276000Y-136249000D03*
X153526000Y-136249000D03*
%TD*%
D49*
%TO.C,J5*%
X108511000Y-110468000D03*
X108511000Y-115548000D03*
%TD*%
D21*
%TO.C,C37*%
X170360000Y-77486000D03*
X170360000Y-75886000D03*
%TD*%
%TO.C,C18*%
X147246000Y-71517000D03*
X147246000Y-69917000D03*
%TD*%
D56*
%TO.C,U16*%
X129720000Y-64579291D03*
X128450000Y-64579291D03*
X127180000Y-64579291D03*
X125910000Y-64579291D03*
X125910000Y-69979291D03*
X127180000Y-69979291D03*
X128450000Y-69979291D03*
X129720000Y-69979291D03*
%TD*%
D15*
%TO.C,R54*%
X203596000Y-95094000D03*
X205196000Y-95094000D03*
%TD*%
%TO.C,C34*%
X175656000Y-87100000D03*
X177256000Y-87100000D03*
%TD*%
D57*
%TO.C,U6*%
X138348000Y-129475000D03*
X137848000Y-129475000D03*
X137348000Y-129475000D03*
X137348000Y-131085000D03*
X137848000Y-131085000D03*
X138348000Y-131085000D03*
%TD*%
D58*
%TO.C,J9*%
X134440000Y-134463000D03*
X140230000Y-134463000D03*
D59*
X134140000Y-133388000D03*
X134940000Y-133388000D03*
D60*
X136090000Y-133388000D03*
X137090000Y-133388000D03*
X137590000Y-133388000D03*
X138590000Y-133388000D03*
D59*
X139740000Y-133388000D03*
X140540000Y-133388000D03*
X140540000Y-133388000D03*
X139740000Y-133388000D03*
D60*
X139090000Y-133388000D03*
X138090000Y-133388000D03*
X136590000Y-133388000D03*
X135590000Y-133388000D03*
D59*
X134940000Y-133388000D03*
X134140000Y-133388000D03*
D61*
X133020000Y-133963000D03*
D62*
X133020000Y-138143000D03*
D61*
X141660000Y-133963000D03*
D62*
X141660000Y-138143000D03*
%TD*%
D15*
%TO.C,R28*%
X124094000Y-104626000D03*
X125694000Y-104626000D03*
%TD*%
D10*
%TO.C,R2*%
X116677000Y-75416000D03*
X115077000Y-75416000D03*
%TD*%
D63*
%TO.C,Q4*%
X125814000Y-119993000D03*
X125814000Y-118723000D03*
X125814000Y-117453000D03*
X125814000Y-116183000D03*
D64*
X122314000Y-116875500D03*
D65*
X119814000Y-116208000D03*
D66*
X119814000Y-117543000D03*
D64*
X122314000Y-116875500D03*
X122314000Y-119300500D03*
D67*
X119814000Y-118633000D03*
D68*
X119814000Y-119968000D03*
D69*
X122314000Y-119300500D03*
%TD*%
D16*
%TO.C,R50*%
X191315000Y-121098003D03*
X191315000Y-122698003D03*
%TD*%
D70*
%TO.C,Q6*%
X187767000Y-122789503D03*
X188267000Y-122789503D03*
X188767000Y-122789503D03*
X188767000Y-121514503D03*
X188267000Y-121514503D03*
X187767000Y-121514503D03*
%TD*%
D71*
%TO.C,J11*%
X161597000Y-131042000D03*
X161597000Y-128502000D03*
X161597000Y-125962000D03*
%TD*%
D15*
%TO.C,R21*%
X120281460Y-111230000D03*
X121881460Y-111230000D03*
%TD*%
D16*
%TO.C,R25*%
X150929000Y-82490000D03*
X150929000Y-84090000D03*
%TD*%
D48*
%TO.C,D9*%
X151691000Y-128340812D03*
X151691000Y-126110812D03*
%TD*%
D72*
%TO.C,U13*%
X175216000Y-84771000D03*
X176466000Y-84771000D03*
X177716000Y-84771000D03*
X178966000Y-84771000D03*
X178966000Y-82571000D03*
X177716000Y-82571000D03*
X176466000Y-82571000D03*
X175216000Y-82571000D03*
%TD*%
D12*
%TO.C,D6*%
X124958000Y-58144000D03*
X126608000Y-58144000D03*
%TD*%
D21*
%TO.C,R46*%
X140515000Y-131080000D03*
X140515000Y-129480000D03*
%TD*%
D49*
%TO.C,J7*%
X108511000Y-90148000D03*
X108511000Y-95228000D03*
%TD*%
D15*
%TO.C,R58*%
X203596000Y-105134000D03*
X205196000Y-105134000D03*
%TD*%
D49*
%TO.C,J6*%
X108511000Y-100308000D03*
X108511000Y-105388000D03*
%TD*%
D73*
%TO.C,U11*%
X184361000Y-115182003D03*
X184361000Y-114532003D03*
X184361000Y-113882003D03*
X182521000Y-113882003D03*
X182521000Y-114532003D03*
X182521000Y-115182003D03*
%TD*%
D74*
%TO.C,L3*%
X194686000Y-124946000D03*
D75*
X193786000Y-124946000D03*
%TD*%
D76*
%TO.C,U10*%
X189183995Y-116172940D03*
X189183995Y-115672940D03*
X189183995Y-115172940D03*
X186333995Y-115172940D03*
X186333995Y-115672940D03*
D77*
X186333995Y-116172940D03*
D78*
X187758995Y-115672940D03*
%TD*%
D16*
%TO.C,C9*%
X162867000Y-86808000D03*
X162867000Y-88408000D03*
%TD*%
D21*
%TO.C,R47*%
X135181000Y-131080000D03*
X135181000Y-129480000D03*
%TD*%
%TO.C,R29*%
X119306000Y-57547000D03*
X119306000Y-55947000D03*
%TD*%
D14*
%TO.C,C28*%
X172512983Y-84298000D03*
D13*
X172512983Y-86098000D03*
%TD*%
D79*
%TO.C,R38*%
X116893000Y-91259843D03*
X116893000Y-96159843D03*
%TD*%
D80*
%TO.C,Q7*%
X127888990Y-73857464D03*
D81*
X125933990Y-74207864D03*
X125933990Y-74857864D03*
X125933990Y-72907864D03*
X125933990Y-73557864D03*
%TD*%
D16*
%TO.C,R30*%
X130355000Y-95068843D03*
X130355000Y-96668843D03*
%TD*%
D82*
%TO.C,R4*%
X135078000Y-68558000D03*
X138078000Y-68558000D03*
%TD*%
D48*
%TO.C,D11*%
X149147468Y-128340812D03*
X149147468Y-126110812D03*
%TD*%
D12*
%TO.C,D2*%
X120259000Y-122660000D03*
X121909000Y-122660000D03*
%TD*%
D14*
%TO.C,C5*%
X140007000Y-101440000D03*
D13*
X140007000Y-103240000D03*
%TD*%
D21*
%TO.C,R53*%
X193601000Y-122698000D03*
X193601000Y-121098000D03*
%TD*%
D40*
%TO.C,MH3*%
X109776000Y-58144000D03*
%TD*%
D15*
%TO.C,R27*%
X120284000Y-104626000D03*
X121884000Y-104626000D03*
%TD*%
D10*
%TO.C,R44*%
X130393000Y-55985000D03*
X128793000Y-55985000D03*
%TD*%
D83*
%TO.C,C23*%
X155223000Y-64875000D03*
X152223000Y-64875000D03*
%TD*%
D84*
%TO.C,U2*%
X136340000Y-77743000D03*
X136840000Y-77743000D03*
X137340000Y-77743000D03*
X137840000Y-77743000D03*
X138340000Y-77743000D03*
X138340000Y-73343000D03*
X137840000Y-73343000D03*
X137340000Y-73343000D03*
X136840000Y-73343000D03*
X136340000Y-73343000D03*
%TD*%
D15*
%TO.C,C33*%
X193055000Y-126978000D03*
X194655000Y-126978000D03*
%TD*%
D79*
%TO.C,R36*%
X116893000Y-111574000D03*
X116893000Y-116474000D03*
%TD*%
D10*
%TO.C,R40*%
X125694000Y-113516000D03*
X124094000Y-113516000D03*
%TD*%
D16*
%TO.C,C6*%
X162867000Y-100651000D03*
X162867000Y-102251000D03*
%TD*%
D15*
%TO.C,C19*%
X149494000Y-57636000D03*
X151094000Y-57636000D03*
%TD*%
D40*
%TO.C,MH1*%
X195506000Y-135614000D03*
%TD*%
D21*
%TO.C,R52*%
X193601000Y-118884562D03*
X193601000Y-117284562D03*
%TD*%
%TO.C,C41*%
X121211000Y-68079291D03*
X121211000Y-66479291D03*
%TD*%
%TO.C,R1*%
X155755000Y-107204000D03*
X155755000Y-105604000D03*
%TD*%
D48*
%TO.C,D14*%
X145337468Y-132404812D03*
X145337468Y-130174812D03*
%TD*%
D15*
%TO.C,R12*%
X124094000Y-124946000D03*
X125694000Y-124946000D03*
%TD*%
D83*
%TO.C,C24*%
X155223000Y-77067000D03*
X152223000Y-77067000D03*
%TD*%
D71*
%TO.C,J10*%
X156517000Y-125962000D03*
X156517000Y-128502000D03*
%TD*%
D63*
%TO.C,Q5*%
X125814000Y-99673000D03*
X125814000Y-98403000D03*
X125814000Y-97133000D03*
X125814000Y-95863000D03*
D64*
X122314000Y-96555500D03*
D65*
X119814000Y-95888000D03*
D66*
X119814000Y-97223000D03*
D64*
X122314000Y-96555500D03*
X122314000Y-98980500D03*
D67*
X119814000Y-98313000D03*
D68*
X119814000Y-99648000D03*
D69*
X122314000Y-98980500D03*
%TD*%
D15*
%TO.C,R22*%
X124091460Y-111230000D03*
X125691460Y-111230000D03*
%TD*%
D21*
%TO.C,R18*%
X153342000Y-57674000D03*
X153342000Y-56074000D03*
%TD*%
G36*
X112898976Y-128643719D02*
G01*
X112944763Y-128696495D01*
X112956000Y-128748075D01*
X112956000Y-136694000D01*
X133152000Y-136694000D01*
X133219039Y-136713685D01*
X133264794Y-136766489D01*
X133276000Y-136818000D01*
X133276000Y-140570000D01*
X133256315Y-140637039D01*
X133203511Y-140682794D01*
X133152000Y-140694000D01*
X104820000Y-140694000D01*
X104752961Y-140674315D01*
X104707206Y-140621511D01*
X104696000Y-140570000D01*
X104696000Y-128752924D01*
X104715685Y-128685885D01*
X104768489Y-128640130D01*
X104819925Y-128628924D01*
X112831925Y-128624075D01*
X112898976Y-128643719D01*
G37*
G36*
X200582573Y-50527427D02*
G01*
X200586000Y-50535700D01*
X200586000Y-122902300D01*
X200582573Y-122910573D01*
X200574300Y-122914000D01*
X196597700Y-122914000D01*
X196589427Y-122910573D01*
X196586000Y-122902300D01*
X196586000Y-58784000D01*
X192337700Y-58784000D01*
X192329427Y-58780573D01*
X192326000Y-58772300D01*
X192326000Y-54524000D01*
X112956000Y-54524000D01*
X112956000Y-61312300D01*
X112952573Y-61320573D01*
X112944300Y-61324000D01*
X108696000Y-61324000D01*
X108696000Y-65117300D01*
X108692573Y-65125573D01*
X108684300Y-65129000D01*
X104707700Y-65129000D01*
X104699427Y-65125573D01*
X104696000Y-65117300D01*
X104696000Y-50535700D01*
X104699427Y-50527427D01*
X104707700Y-50524000D01*
X200574300Y-50524000D01*
X200582573Y-50527427D01*
G37*
G36*
X200582573Y-131045427D02*
G01*
X200586000Y-131053700D01*
X200586000Y-140682300D01*
X200582573Y-140690573D01*
X200574300Y-140694000D01*
X155131700Y-140694000D01*
X155123427Y-140690573D01*
X155120000Y-140682300D01*
X155120000Y-136705700D01*
X155123427Y-136697427D01*
X155131700Y-136694000D01*
X192326000Y-136694000D01*
X192326000Y-132445700D01*
X192329427Y-132437427D01*
X192337700Y-132434000D01*
X196586000Y-132434000D01*
X196586000Y-131053700D01*
X196589427Y-131045427D01*
X196597700Y-131042000D01*
X200574300Y-131042000D01*
X200582573Y-131045427D01*
G37*
M02*
