%TF.GenerationSoftware,KiCad,Pcbnew,10.0.3-10.0.3~ubuntu24.04.1*%
%TF.CreationDate,2026-06-15T00:28:57+00:00*%
%TF.ProjectId,flight_computer,666c6967-6874-45f6-936f-6d7075746572,A*%
%TF.SameCoordinates,Original*%
%TF.FileFunction,Legend,Top*%
%TF.FilePolarity,Positive*%
%FSLAX46Y46*%
G04 Gerber Fmt 4.6, Leading zero omitted, Abs format (unit mm)*
G04 Created by KiCad (PCBNEW 10.0.3-10.0.3~ubuntu24.04.1) date 2026-06-15 00:28:57*
%MOMM*%
%LPD*%
G01*
G04 APERTURE LIST*
%ADD10C,0.000000*%
G04 APERTURE END LIST*
G36*
X123750000Y-55359183D02*
G01*
X125782000Y-55359183D01*
X125782000Y-55486183D01*
X123750000Y-55486183D01*
X123750000Y-55359183D01*
G37*
G36*
X123750000Y-56483817D02*
G01*
X125782000Y-56483817D01*
X125782000Y-56610817D01*
X123750000Y-56610817D01*
X123750000Y-56483817D01*
G37*
G36*
X123751000Y-57509000D02*
G01*
X125783000Y-57509000D01*
X125783000Y-57636000D01*
X123751000Y-57636000D01*
X123751000Y-57509000D01*
G37*
G36*
X123751000Y-58652000D02*
G01*
X125783000Y-58652000D01*
X125783000Y-58779000D01*
X123751000Y-58779000D01*
X123751000Y-58652000D01*
G37*
D10*
%TO.C,kibuzzard-6A2D86D8*%
G36*
X123750000Y-58777520D02*
G01*
X123633287Y-58777520D01*
X123149020Y-58777520D01*
X122146218Y-58777520D01*
X121649020Y-58777520D01*
X121006162Y-58777520D01*
X120566713Y-58777520D01*
X120450000Y-58777520D01*
X120450000Y-57924112D01*
X120644818Y-57924112D01*
X120784874Y-57924112D01*
X120812885Y-57833776D01*
X120889916Y-57772852D01*
X120942787Y-57756045D01*
X121003361Y-57750443D01*
X121104202Y-57771451D01*
X121172129Y-57829574D01*
X121196639Y-57915709D01*
X121172129Y-57995541D01*
X121104902Y-58049462D01*
X121006162Y-58068370D01*
X120937535Y-58068370D01*
X120937535Y-58174812D01*
X121006162Y-58174812D01*
X121067962Y-58180239D01*
X121121709Y-58196521D01*
X121200140Y-58258146D01*
X121228852Y-58349882D01*
X121200840Y-58447221D01*
X121122409Y-58513748D01*
X121068137Y-58531605D01*
X121006162Y-58537557D01*
X120946464Y-58531780D01*
X120893417Y-58514448D01*
X120816387Y-58449322D01*
X120789076Y-58354084D01*
X120649020Y-58354084D01*
X120660399Y-58438643D01*
X120694538Y-58513048D01*
X120748810Y-58574847D01*
X120820588Y-58621591D01*
X120907248Y-58651003D01*
X121006162Y-58660807D01*
X121107353Y-58651003D01*
X121132465Y-58642599D01*
X121504762Y-58642599D01*
X121649020Y-58642599D01*
X121649020Y-58467529D01*
X121504762Y-58467529D01*
X121504762Y-58642599D01*
X121132465Y-58642599D01*
X121195238Y-58621591D01*
X121267717Y-58575022D01*
X121322689Y-58513748D01*
X121357353Y-58440218D01*
X121368908Y-58356885D01*
X121356478Y-58277578D01*
X121319188Y-58207725D01*
X121262290Y-58153979D01*
X121191036Y-58122992D01*
X121191036Y-58120190D01*
X121250385Y-58085527D01*
X121296779Y-58034756D01*
X121326716Y-57973832D01*
X121334334Y-57924112D01*
X121784874Y-57924112D01*
X121924930Y-57924112D01*
X121952941Y-57833776D01*
X122029972Y-57772852D01*
X122082843Y-57756045D01*
X122143417Y-57750443D01*
X122244258Y-57771451D01*
X122312185Y-57829574D01*
X122336695Y-57915709D01*
X122312185Y-57995541D01*
X122244958Y-58049462D01*
X122146218Y-58068370D01*
X122077591Y-58068370D01*
X122077591Y-58174812D01*
X122146218Y-58174812D01*
X122208018Y-58180239D01*
X122261765Y-58196521D01*
X122340196Y-58258146D01*
X122368908Y-58349882D01*
X122340896Y-58447221D01*
X122262465Y-58513748D01*
X122208193Y-58531605D01*
X122146218Y-58537557D01*
X122086520Y-58531780D01*
X122033473Y-58514448D01*
X121956443Y-58449322D01*
X121929132Y-58354084D01*
X121789076Y-58354084D01*
X121800455Y-58438643D01*
X121834594Y-58513048D01*
X121888866Y-58574847D01*
X121960644Y-58621591D01*
X122047304Y-58651003D01*
X122146218Y-58660807D01*
X122247409Y-58651003D01*
X122335294Y-58621591D01*
X122407773Y-58575022D01*
X122462745Y-58513748D01*
X122497409Y-58440218D01*
X122508964Y-58356885D01*
X122496534Y-58277578D01*
X122459244Y-58207725D01*
X122402346Y-58153979D01*
X122331092Y-58122992D01*
X122331092Y-58120190D01*
X122390441Y-58085527D01*
X122436835Y-58034756D01*
X122466772Y-57973832D01*
X122476751Y-57908706D01*
X122466071Y-57830800D01*
X122434034Y-57762347D01*
X122383263Y-57705625D01*
X122316387Y-57662908D01*
X122255195Y-57642599D01*
X122630812Y-57642599D01*
X123035574Y-58642599D01*
X123149020Y-58642599D01*
X123555182Y-57642599D01*
X123405322Y-57642599D01*
X123092997Y-58415709D01*
X123090196Y-58415709D01*
X122779272Y-57642599D01*
X122630812Y-57642599D01*
X122255195Y-57642599D01*
X122235679Y-57636122D01*
X122143417Y-57627193D01*
X122044328Y-57636647D01*
X121957143Y-57665008D01*
X121884839Y-57710176D01*
X121830392Y-57770050D01*
X121796254Y-57842179D01*
X121784874Y-57924112D01*
X121334334Y-57924112D01*
X121336695Y-57908706D01*
X121326015Y-57830800D01*
X121293978Y-57762347D01*
X121243207Y-57705625D01*
X121176331Y-57662908D01*
X121095623Y-57636122D01*
X121003361Y-57627193D01*
X120904272Y-57636647D01*
X120817087Y-57665008D01*
X120744783Y-57710176D01*
X120690336Y-57770050D01*
X120656197Y-57842179D01*
X120644818Y-57924112D01*
X120450000Y-57924112D01*
X120450000Y-57510480D01*
X120566713Y-57510480D01*
X123633287Y-57510480D01*
X123750000Y-57510480D01*
X123750000Y-58777520D01*
G37*
%TO.C,kibuzzard-6A2D88D0*%
G36*
X114054392Y-115697216D02*
G01*
X114039371Y-115805549D01*
X113994308Y-115886571D01*
X113922389Y-115937097D01*
X113826801Y-115953938D01*
X113733034Y-115938235D01*
X113662936Y-115891123D01*
X113619238Y-115815791D01*
X113604672Y-115715423D01*
X113604672Y-115373126D01*
X114054392Y-115373126D01*
X114054392Y-115697216D01*
G37*
G36*
X114589686Y-110550017D02*
G01*
X114573072Y-110648336D01*
X114523230Y-110724807D01*
X114445166Y-110773966D01*
X114343888Y-110790353D01*
X114243520Y-110775332D01*
X114164546Y-110730269D01*
X114113338Y-110660171D01*
X114096269Y-110570045D01*
X114096269Y-110269625D01*
X114589686Y-110269625D01*
X114589686Y-110550017D01*
G37*
G36*
X114589686Y-112860521D02*
G01*
X114573300Y-112964075D01*
X114524140Y-113041683D01*
X114445849Y-113090160D01*
X114342067Y-113106319D01*
X114244431Y-113091526D01*
X114170008Y-113047146D01*
X114122897Y-112975910D01*
X114107193Y-112880549D01*
X114107193Y-112574667D01*
X114589686Y-112574667D01*
X114589686Y-112860521D01*
G37*
G36*
X114595148Y-115680829D02*
G01*
X114581721Y-115780969D01*
X114541437Y-115855619D01*
X114477939Y-115902048D01*
X114394868Y-115917524D01*
X114317032Y-115903186D01*
X114258314Y-115860171D01*
X114221444Y-115790756D01*
X114209154Y-115697216D01*
X114209154Y-115373126D01*
X114595148Y-115373126D01*
X114595148Y-115680829D01*
G37*
G36*
X114244203Y-113708980D02*
G01*
X114369378Y-113747216D01*
X114471111Y-113808665D01*
X114546899Y-113891053D01*
X114594011Y-113992104D01*
X114609714Y-114109541D01*
X114594011Y-114226978D01*
X114546899Y-114328028D01*
X114471111Y-114410644D01*
X114369378Y-114472776D01*
X114244203Y-114511694D01*
X114098090Y-114524667D01*
X113953114Y-114511694D01*
X113827711Y-114472776D01*
X113725296Y-114410644D01*
X113649280Y-114328028D01*
X113602169Y-114226978D01*
X113586465Y-114109541D01*
X113602169Y-113992104D01*
X113649280Y-113891053D01*
X113725296Y-113808665D01*
X113827711Y-113747216D01*
X113953114Y-113708980D01*
X114098090Y-113696235D01*
X114244203Y-113708980D01*
G37*
G36*
X115075214Y-108511455D02*
G01*
X115075214Y-117504545D01*
X115075214Y-117808000D01*
X113122786Y-117808000D01*
X113122786Y-117504545D01*
X113122786Y-117121025D01*
X113122786Y-116547496D01*
X113910555Y-116547496D01*
X113910555Y-117121025D01*
X114045289Y-117121025D01*
X114045289Y-116547496D01*
X113910555Y-116547496D01*
X113122786Y-116547496D01*
X113122786Y-115726347D01*
X113449910Y-115726347D01*
X113460835Y-115849474D01*
X113493608Y-115953028D01*
X113547092Y-116036099D01*
X113620148Y-116097776D01*
X113711412Y-116136011D01*
X113819518Y-116148756D01*
X113935817Y-116131687D01*
X114029812Y-116080479D01*
X114096496Y-115999229D01*
X114130863Y-115892034D01*
X114134504Y-115892034D01*
X114167505Y-115984436D01*
X114226451Y-116054078D01*
X114307246Y-116097776D01*
X114405793Y-116112342D01*
X114506843Y-116099597D01*
X114591507Y-116061361D01*
X114659102Y-115999457D01*
X114708944Y-115915703D01*
X114739669Y-115811011D01*
X114749910Y-115686291D01*
X114749910Y-115185591D01*
X113449910Y-115185591D01*
X113449910Y-115726347D01*
X113122786Y-115726347D01*
X113122786Y-115185591D01*
X113122786Y-114109541D01*
X113426241Y-114109541D01*
X113435446Y-114227888D01*
X113463060Y-114335311D01*
X113509084Y-114431810D01*
X113571798Y-114515968D01*
X113649482Y-114586369D01*
X113742137Y-114643014D01*
X113848448Y-114684486D01*
X113967098Y-114709369D01*
X114098090Y-114717664D01*
X114229182Y-114709369D01*
X114348136Y-114684486D01*
X114454952Y-114643014D01*
X114548113Y-114586369D01*
X114626101Y-114515968D01*
X114688916Y-114431810D01*
X114734940Y-114335311D01*
X114762554Y-114227888D01*
X114771759Y-114109541D01*
X114762554Y-113991294D01*
X114734940Y-113884175D01*
X114688916Y-113788182D01*
X114626101Y-113704530D01*
X114548113Y-113634432D01*
X114454952Y-113577888D01*
X114348136Y-113536416D01*
X114229182Y-113511533D01*
X114098090Y-113503238D01*
X113967098Y-113511533D01*
X113848448Y-113536416D01*
X113742137Y-113577888D01*
X113649482Y-113634432D01*
X113571798Y-113704530D01*
X113509084Y-113788182D01*
X113463060Y-113884175D01*
X113435446Y-113991294D01*
X113426241Y-114109541D01*
X113122786Y-114109541D01*
X113122786Y-113144555D01*
X113449910Y-113144555D01*
X113449910Y-113344835D01*
X113972459Y-113042594D01*
X114023440Y-113149334D01*
X114103552Y-113229218D01*
X114210064Y-113279061D01*
X114340246Y-113295675D01*
X114460187Y-113282702D01*
X114561465Y-113243784D01*
X114642487Y-113180742D01*
X114701661Y-113095395D01*
X114737848Y-112988427D01*
X114749910Y-112860521D01*
X114749910Y-112387132D01*
X113449910Y-112387132D01*
X113449910Y-112574667D01*
X113948790Y-112574667D01*
X113948790Y-112855059D01*
X113449910Y-113144555D01*
X113122786Y-113144555D01*
X113122786Y-112574667D01*
X113122786Y-111758980D01*
X113122786Y-111571445D01*
X113449910Y-111571445D01*
X113449910Y-111758980D01*
X113946969Y-111758980D01*
X114749910Y-112205059D01*
X114749910Y-112001137D01*
X114139966Y-111666123D01*
X114139966Y-111662482D01*
X114749910Y-111327468D01*
X114749910Y-111123546D01*
X113946969Y-111571445D01*
X113449910Y-111571445D01*
X113122786Y-111571445D01*
X113122786Y-110269625D01*
X113122786Y-110082090D01*
X113449910Y-110082090D01*
X113449910Y-110269625D01*
X113937866Y-110269625D01*
X113937866Y-110570045D01*
X113950383Y-110687027D01*
X113987936Y-110786711D01*
X114048475Y-110867506D01*
X114129952Y-110927818D01*
X114229410Y-110965370D01*
X114343888Y-110977888D01*
X114460642Y-110964915D01*
X114559644Y-110925997D01*
X114639756Y-110862954D01*
X114699840Y-110777608D01*
X114737393Y-110672461D01*
X114749910Y-110550017D01*
X114749910Y-110082090D01*
X113449910Y-110082090D01*
X113122786Y-110082090D01*
X113122786Y-109342874D01*
X113122786Y-109182650D01*
X113723020Y-109182650D01*
X113723020Y-109342874D01*
X114027081Y-109342874D01*
X114027081Y-109632370D01*
X114174560Y-109632370D01*
X114174560Y-109342874D01*
X114478622Y-109342874D01*
X114478622Y-109182650D01*
X114174560Y-109182650D01*
X114174560Y-108894975D01*
X114027081Y-108894975D01*
X114027081Y-109182650D01*
X113723020Y-109182650D01*
X113122786Y-109182650D01*
X113122786Y-108511455D01*
X113122786Y-108208000D01*
X115075214Y-108208000D01*
X115075214Y-108511455D01*
G37*
%TO.C,kibuzzard-6A2D888E*%
G36*
X114589686Y-90160829D02*
G01*
X114573072Y-90259148D01*
X114523230Y-90335619D01*
X114445166Y-90384779D01*
X114343888Y-90401165D01*
X114243520Y-90386144D01*
X114164546Y-90341081D01*
X114113338Y-90270983D01*
X114096269Y-90180857D01*
X114096269Y-89880437D01*
X114589686Y-89880437D01*
X114589686Y-90160829D01*
G37*
G36*
X114589686Y-92471333D02*
G01*
X114573300Y-92574887D01*
X114524140Y-92652496D01*
X114445849Y-92700973D01*
X114342067Y-92717132D01*
X114244431Y-92702338D01*
X114170008Y-92657958D01*
X114122897Y-92586722D01*
X114107193Y-92491361D01*
X114107193Y-92185479D01*
X114589686Y-92185479D01*
X114589686Y-92471333D01*
G37*
G36*
X114589686Y-95258868D02*
G01*
X114574665Y-95379719D01*
X114529602Y-95483728D01*
X114456773Y-95568392D01*
X114358454Y-95631207D01*
X114237831Y-95670125D01*
X114098090Y-95683098D01*
X113959942Y-95670125D01*
X113840457Y-95631207D01*
X113742820Y-95568392D01*
X113670218Y-95483728D01*
X113625155Y-95379719D01*
X113610134Y-95258868D01*
X113610134Y-94983938D01*
X114589686Y-94983938D01*
X114589686Y-95258868D01*
G37*
G36*
X114244203Y-93319793D02*
G01*
X114369378Y-93358028D01*
X114471111Y-93419478D01*
X114546899Y-93501866D01*
X114594011Y-93602916D01*
X114609714Y-93720353D01*
X114594011Y-93837790D01*
X114546899Y-93938840D01*
X114471111Y-94021456D01*
X114369378Y-94083588D01*
X114244203Y-94122506D01*
X114098090Y-94135479D01*
X113953114Y-94122506D01*
X113827711Y-94083588D01*
X113725296Y-94021456D01*
X113649280Y-93938840D01*
X113602169Y-93837790D01*
X113586465Y-93720353D01*
X113602169Y-93602916D01*
X113649280Y-93501866D01*
X113725296Y-93419478D01*
X113827711Y-93358028D01*
X113953114Y-93319793D01*
X114098090Y-93307048D01*
X114244203Y-93319793D01*
G37*
G36*
X115075214Y-88191455D02*
G01*
X115075214Y-97184545D01*
X115075214Y-97488000D01*
X113122786Y-97488000D01*
X113122786Y-97184545D01*
X113122786Y-96870213D01*
X113122786Y-96296683D01*
X113910555Y-96296683D01*
X113910555Y-96870213D01*
X114045289Y-96870213D01*
X114045289Y-96296683D01*
X113910555Y-96296683D01*
X113122786Y-96296683D01*
X113122786Y-95258868D01*
X113449910Y-95258868D01*
X113458812Y-95379542D01*
X113485516Y-95489089D01*
X113530022Y-95587510D01*
X113590713Y-95673286D01*
X113665970Y-95744902D01*
X113755793Y-95802356D01*
X113858765Y-95844334D01*
X113973471Y-95869520D01*
X114099910Y-95877916D01*
X114226350Y-95869520D01*
X114341056Y-95844334D01*
X114444028Y-95802356D01*
X114533851Y-95744902D01*
X114609107Y-95673286D01*
X114669798Y-95587510D01*
X114714305Y-95489089D01*
X114741009Y-95379542D01*
X114749910Y-95258868D01*
X114749910Y-94796403D01*
X113449910Y-94796403D01*
X113449910Y-95258868D01*
X113122786Y-95258868D01*
X113122786Y-94796403D01*
X113122786Y-93720353D01*
X113426241Y-93720353D01*
X113435446Y-93838700D01*
X113463060Y-93946123D01*
X113509084Y-94042622D01*
X113571798Y-94126780D01*
X113649482Y-94197181D01*
X113742137Y-94253826D01*
X113848448Y-94295298D01*
X113967098Y-94320182D01*
X114098090Y-94328476D01*
X114229182Y-94320182D01*
X114348136Y-94295298D01*
X114454952Y-94253826D01*
X114548113Y-94197181D01*
X114626101Y-94126780D01*
X114688916Y-94042622D01*
X114734940Y-93946123D01*
X114762554Y-93838700D01*
X114771759Y-93720353D01*
X114762554Y-93602107D01*
X114734940Y-93494987D01*
X114688916Y-93398994D01*
X114626101Y-93315342D01*
X114548113Y-93245244D01*
X114454952Y-93188700D01*
X114348136Y-93147228D01*
X114229182Y-93122345D01*
X114098090Y-93114050D01*
X113967098Y-93122345D01*
X113848448Y-93147228D01*
X113742137Y-93188700D01*
X113649482Y-93245244D01*
X113571798Y-93315342D01*
X113509084Y-93398994D01*
X113463060Y-93494987D01*
X113435446Y-93602107D01*
X113426241Y-93720353D01*
X113122786Y-93720353D01*
X113122786Y-92755367D01*
X113449910Y-92755367D01*
X113449910Y-92955647D01*
X113972459Y-92653406D01*
X114023440Y-92760146D01*
X114103552Y-92840031D01*
X114210064Y-92889873D01*
X114340246Y-92906487D01*
X114460187Y-92893515D01*
X114561465Y-92854597D01*
X114642487Y-92791554D01*
X114701661Y-92706207D01*
X114737848Y-92599239D01*
X114749910Y-92471333D01*
X114749910Y-91997944D01*
X113449910Y-91997944D01*
X113449910Y-92185479D01*
X113948790Y-92185479D01*
X113948790Y-92465871D01*
X113449910Y-92755367D01*
X113122786Y-92755367D01*
X113122786Y-92185479D01*
X113122786Y-91369793D01*
X113122786Y-91182258D01*
X113449910Y-91182258D01*
X113449910Y-91369793D01*
X113946969Y-91369793D01*
X114749910Y-91815871D01*
X114749910Y-91611950D01*
X114139966Y-91276936D01*
X114139966Y-91273294D01*
X114749910Y-90938280D01*
X114749910Y-90734359D01*
X113946969Y-91182258D01*
X113449910Y-91182258D01*
X113122786Y-91182258D01*
X113122786Y-89880437D01*
X113122786Y-89692902D01*
X113449910Y-89692902D01*
X113449910Y-89880437D01*
X113937866Y-89880437D01*
X113937866Y-90180857D01*
X113950383Y-90297839D01*
X113987936Y-90397524D01*
X114048475Y-90478319D01*
X114129952Y-90538630D01*
X114229410Y-90576183D01*
X114343888Y-90588700D01*
X114460642Y-90575728D01*
X114559644Y-90536810D01*
X114639756Y-90473767D01*
X114699840Y-90388420D01*
X114737393Y-90283273D01*
X114749910Y-90160829D01*
X114749910Y-89692902D01*
X113449910Y-89692902D01*
X113122786Y-89692902D01*
X113122786Y-88953686D01*
X113122786Y-88793462D01*
X113723020Y-88793462D01*
X113723020Y-88953686D01*
X114027081Y-88953686D01*
X114027081Y-89243182D01*
X114174560Y-89243182D01*
X114174560Y-88953686D01*
X114478622Y-88953686D01*
X114478622Y-88793462D01*
X114174560Y-88793462D01*
X114174560Y-88505787D01*
X114027081Y-88505787D01*
X114027081Y-88793462D01*
X113723020Y-88793462D01*
X113122786Y-88793462D01*
X113122786Y-88191455D01*
X113122786Y-87888000D01*
X115075214Y-87888000D01*
X115075214Y-88191455D01*
G37*
%TO.C,kibuzzard-6A2D86DB*%
G36*
X123750000Y-56610817D02*
G01*
X123633287Y-56610817D01*
X122571989Y-56610817D01*
X121576190Y-56610817D01*
X120566713Y-56610817D01*
X120450000Y-56610817D01*
X120450000Y-56187381D01*
X121221849Y-56187381D01*
X121233228Y-56271940D01*
X121267367Y-56346345D01*
X121321464Y-56408144D01*
X121392717Y-56454888D01*
X121478501Y-56484300D01*
X121576190Y-56494104D01*
X121674930Y-56482549D01*
X121761064Y-56447885D01*
X121832318Y-56392913D01*
X121886415Y-56320434D01*
X121920553Y-56232899D01*
X121931933Y-56132759D01*
X121921604Y-56039097D01*
X121890616Y-55956989D01*
X121841597Y-55888887D01*
X121777171Y-55837241D01*
X121699265Y-55804678D01*
X121609804Y-55793824D01*
X121552906Y-55800301D01*
X121494258Y-55819734D01*
X121440861Y-55849671D01*
X121399720Y-55887661D01*
X121396919Y-55886261D01*
X121424930Y-55599146D01*
X121881513Y-55599146D01*
X121881513Y-55475896D01*
X122053782Y-55475896D01*
X122458543Y-56475896D01*
X122571989Y-56475896D01*
X122978151Y-55475896D01*
X122828291Y-55475896D01*
X122515966Y-56249006D01*
X122513165Y-56249006D01*
X122202241Y-55475896D01*
X122053782Y-55475896D01*
X121881513Y-55475896D01*
X121304482Y-55475896D01*
X121248459Y-56024916D01*
X121381513Y-56037521D01*
X121434734Y-55970294D01*
X121505462Y-55924076D01*
X121581793Y-55907269D01*
X121639916Y-55914447D01*
X121691036Y-55935980D01*
X121765266Y-56015112D01*
X121785224Y-56069384D01*
X121791877Y-56131359D01*
X121785049Y-56197360D01*
X121764566Y-56255308D01*
X121731828Y-56303452D01*
X121688235Y-56340042D01*
X121635714Y-56363151D01*
X121576190Y-56370854D01*
X121466246Y-56347045D01*
X121390616Y-56281919D01*
X121361905Y-56187381D01*
X121221849Y-56187381D01*
X120450000Y-56187381D01*
X120450000Y-55359183D01*
X120566713Y-55359183D01*
X123633287Y-55359183D01*
X123750000Y-55359183D01*
X123750000Y-56610817D01*
G37*
%TO.C,kibuzzard-6A2D89E8*%
G36*
X150687467Y-133487335D02*
G01*
X150791476Y-133532398D01*
X150876140Y-133605227D01*
X150938955Y-133703546D01*
X150977873Y-133824169D01*
X150990846Y-133963910D01*
X150977873Y-134102058D01*
X150938955Y-134221543D01*
X150876140Y-134319180D01*
X150791476Y-134391782D01*
X150687467Y-134436845D01*
X150566616Y-134451866D01*
X150291686Y-134451866D01*
X150291686Y-133472314D01*
X150566616Y-133472314D01*
X150687467Y-133487335D01*
G37*
G36*
X155001000Y-134939214D02*
G01*
X154697545Y-134939214D01*
X150104151Y-134939214D01*
X149565216Y-134939214D01*
X147655272Y-134939214D01*
X143604455Y-134939214D01*
X143301000Y-134939214D01*
X143301000Y-134176936D01*
X147116336Y-134176936D01*
X147132268Y-134309394D01*
X147180062Y-134422734D01*
X147258125Y-134514225D01*
X147364866Y-134581137D01*
X147498006Y-134622104D01*
X147655272Y-134635759D01*
X147792282Y-134624152D01*
X147908353Y-134589331D01*
X148001438Y-134532433D01*
X148069487Y-134454597D01*
X148111137Y-134357870D01*
X148125020Y-134244303D01*
X148093157Y-134102286D01*
X148006672Y-134004877D01*
X147883773Y-133939331D01*
X147742667Y-133892902D01*
X147601560Y-133854667D01*
X147478661Y-133811880D01*
X147391266Y-133750885D01*
X147358493Y-133659849D01*
X147392176Y-133546964D01*
X147486854Y-133475045D01*
X147633423Y-133450465D01*
X147716266Y-133458203D01*
X147786364Y-133481417D01*
X147883773Y-133569723D01*
X147917457Y-133709008D01*
X148104992Y-133709008D01*
X148090881Y-133587247D01*
X148048549Y-133484148D01*
X147979817Y-133401305D01*
X147886504Y-133340311D01*
X147799277Y-133312090D01*
X148270678Y-133312090D01*
X148627541Y-134612090D01*
X148826000Y-134612090D01*
X149095468Y-133617972D01*
X149099109Y-133617972D01*
X149368577Y-134612090D01*
X149565216Y-134612090D01*
X150104151Y-134612090D01*
X150566616Y-134612090D01*
X150687290Y-134603188D01*
X150796837Y-134576484D01*
X150895258Y-134531978D01*
X150981034Y-134471287D01*
X151052650Y-134396030D01*
X151110104Y-134306207D01*
X151152082Y-134203235D01*
X151177268Y-134088529D01*
X151185664Y-133962090D01*
X151177268Y-133835650D01*
X151152082Y-133720944D01*
X151110104Y-133617972D01*
X151052650Y-133528149D01*
X150981034Y-133452893D01*
X150895258Y-133392202D01*
X150796837Y-133347695D01*
X150687290Y-133320991D01*
X150566616Y-133312090D01*
X150104151Y-133312090D01*
X150104151Y-134612090D01*
X149565216Y-134612090D01*
X149922078Y-133312090D01*
X149725440Y-133312090D01*
X149454151Y-134309849D01*
X149450510Y-134309849D01*
X149179221Y-133312090D01*
X149013535Y-133312090D01*
X148744067Y-134309849D01*
X148740426Y-134309849D01*
X148469137Y-133312090D01*
X148270678Y-133312090D01*
X147799277Y-133312090D01*
X147770433Y-133302758D01*
X147633423Y-133290241D01*
X147498234Y-133301393D01*
X147383983Y-133334849D01*
X147292492Y-133389243D01*
X147225580Y-133463210D01*
X147184613Y-133555612D01*
X147170958Y-133665311D01*
X147178924Y-133744057D01*
X147202821Y-133809148D01*
X147290216Y-133907468D01*
X147414025Y-133973014D01*
X147554221Y-134017622D01*
X147694417Y-134055857D01*
X147818227Y-134099555D01*
X147905622Y-134160549D01*
X147937485Y-134251585D01*
X147903801Y-134372664D01*
X147809123Y-134449134D01*
X147741074Y-134468935D01*
X147658913Y-134475535D01*
X147555814Y-134466659D01*
X147468647Y-134440031D01*
X147398549Y-134396561D01*
X147346658Y-134337160D01*
X147314568Y-134263420D01*
X147303871Y-134176936D01*
X147116336Y-134176936D01*
X143301000Y-134176936D01*
X143301000Y-132986786D01*
X143604455Y-132986786D01*
X154697545Y-132986786D01*
X155001000Y-132986786D01*
X155001000Y-134939214D01*
G37*
%TO.C,kibuzzard-6A2D8820*%
G36*
X111479884Y-83610479D02*
G01*
X111467279Y-83690136D01*
X111429464Y-83749835D01*
X111369240Y-83787125D01*
X111289408Y-83799555D01*
X111214303Y-83788175D01*
X111157055Y-83754036D01*
X111120816Y-83699239D01*
X111108736Y-83625885D01*
X111108736Y-83390591D01*
X111479884Y-83390591D01*
X111479884Y-83610479D01*
G37*
G36*
X112647018Y-81749134D02*
G01*
X112634238Y-81824765D01*
X112595897Y-81883588D01*
X112535848Y-81921403D01*
X112457942Y-81934008D01*
X112380736Y-81922454D01*
X112319987Y-81887790D01*
X112280596Y-81833868D01*
X112267466Y-81764541D01*
X112267466Y-81533448D01*
X112647018Y-81533448D01*
X112647018Y-81749134D01*
G37*
G36*
X112647018Y-83526445D02*
G01*
X112634413Y-83606102D01*
X112596598Y-83665801D01*
X112536373Y-83703091D01*
X112456542Y-83715521D01*
X112381437Y-83704141D01*
X112324189Y-83670003D01*
X112287949Y-83615206D01*
X112275869Y-83541852D01*
X112275869Y-83306557D01*
X112647018Y-83306557D01*
X112647018Y-83526445D01*
G37*
G36*
X112381261Y-84179106D02*
G01*
X112477550Y-84208518D01*
X112555806Y-84255787D01*
X112614105Y-84319162D01*
X112650344Y-84396894D01*
X112662424Y-84487230D01*
X112650344Y-84577566D01*
X112614105Y-84655297D01*
X112555806Y-84718847D01*
X112477550Y-84766641D01*
X112381261Y-84796578D01*
X112268866Y-84806557D01*
X112157347Y-84796578D01*
X112060883Y-84766641D01*
X111982102Y-84718847D01*
X111923628Y-84655297D01*
X111887389Y-84577566D01*
X111875309Y-84487230D01*
X111887389Y-84396894D01*
X111923628Y-84319162D01*
X111982102Y-84255787D01*
X112060883Y-84208518D01*
X112157347Y-84179106D01*
X112268866Y-84169303D01*
X112381261Y-84179106D01*
G37*
G36*
X112903787Y-81179713D02*
G01*
X112903787Y-85146287D01*
X112903787Y-85263000D01*
X110468213Y-85263000D01*
X110468213Y-85146287D01*
X110468213Y-84718322D01*
X110468213Y-84123084D01*
X110603134Y-84123084D01*
X110603134Y-84718322D01*
X110726383Y-84718322D01*
X110726383Y-84487230D01*
X111752060Y-84487230D01*
X111759140Y-84578266D01*
X111780382Y-84660899D01*
X111815785Y-84735129D01*
X111864027Y-84799866D01*
X111923784Y-84854021D01*
X111995057Y-84897594D01*
X112076834Y-84929495D01*
X112168104Y-84948636D01*
X112268866Y-84955017D01*
X112369707Y-84948636D01*
X112461210Y-84929495D01*
X112543376Y-84897594D01*
X112615038Y-84854021D01*
X112675029Y-84799866D01*
X112723348Y-84735129D01*
X112758751Y-84660899D01*
X112779993Y-84578266D01*
X112787074Y-84487230D01*
X112779993Y-84396271D01*
X112758751Y-84313871D01*
X112723348Y-84240031D01*
X112675029Y-84175683D01*
X112615038Y-84121761D01*
X112543376Y-84078266D01*
X112461210Y-84046364D01*
X112369707Y-84027223D01*
X112268866Y-84020843D01*
X112168104Y-84027223D01*
X112076834Y-84046364D01*
X111995057Y-84078266D01*
X111923784Y-84121761D01*
X111864027Y-84175683D01*
X111815785Y-84240031D01*
X111780382Y-84313871D01*
X111759140Y-84396271D01*
X111752060Y-84487230D01*
X110726383Y-84487230D01*
X110726383Y-84267342D01*
X111603134Y-84267342D01*
X111603134Y-84123084D01*
X110603134Y-84123084D01*
X110468213Y-84123084D01*
X110468213Y-83828966D01*
X110603134Y-83828966D01*
X110603134Y-83983028D01*
X111005094Y-83750535D01*
X111044310Y-83832643D01*
X111105935Y-83894092D01*
X111187867Y-83932433D01*
X111288007Y-83945213D01*
X111380269Y-83935234D01*
X111458176Y-83905297D01*
X111520500Y-83856803D01*
X111566019Y-83791151D01*
X111581654Y-83744933D01*
X111770267Y-83744933D01*
X111770267Y-83898994D01*
X112172228Y-83666501D01*
X112211444Y-83748609D01*
X112273068Y-83810059D01*
X112355001Y-83848399D01*
X112455141Y-83861179D01*
X112547403Y-83851200D01*
X112625309Y-83821263D01*
X112687634Y-83772769D01*
X112733152Y-83707118D01*
X112760988Y-83624835D01*
X112770267Y-83526445D01*
X112770267Y-83162300D01*
X111770267Y-83162300D01*
X111770267Y-83306557D01*
X112154021Y-83306557D01*
X112154021Y-83522244D01*
X111770267Y-83744933D01*
X111581654Y-83744933D01*
X111593855Y-83708868D01*
X111603134Y-83610479D01*
X111603134Y-83306557D01*
X111603134Y-83246333D01*
X110603134Y-83246333D01*
X110603134Y-83390591D01*
X110986887Y-83390591D01*
X110986887Y-83606277D01*
X110603134Y-83828966D01*
X110468213Y-83828966D01*
X110468213Y-83390591D01*
X110468213Y-82809359D01*
X110468213Y-82663700D01*
X110603134Y-82663700D01*
X110603134Y-82809359D01*
X111479884Y-82809359D01*
X111479884Y-83120283D01*
X111603134Y-83120283D01*
X111603134Y-82679106D01*
X111603134Y-82534849D01*
X111770267Y-82534849D01*
X111770267Y-82679106D01*
X112152620Y-82679106D01*
X112770267Y-83022244D01*
X112770267Y-82865381D01*
X112301079Y-82607678D01*
X112301079Y-82604877D01*
X112770267Y-82347174D01*
X112770267Y-82190311D01*
X112152620Y-82534849D01*
X111770267Y-82534849D01*
X111603134Y-82534849D01*
X111603134Y-82351375D01*
X111479884Y-82351375D01*
X111479884Y-82663700D01*
X110603134Y-82663700D01*
X110468213Y-82663700D01*
X110468213Y-81831768D01*
X110584926Y-81831768D01*
X110595781Y-81937510D01*
X110628344Y-82030647D01*
X110680865Y-82108903D01*
X110751593Y-82170003D01*
X110838077Y-82211845D01*
X110937867Y-82232328D01*
X110937867Y-82082468D01*
X110873267Y-82068812D01*
X110816719Y-82041852D01*
X110770325Y-82003161D01*
X110736187Y-81954317D01*
X110715178Y-81896718D01*
X110708176Y-81831768D01*
X110720430Y-81742832D01*
X110757195Y-81666501D01*
X110816194Y-81604352D01*
X110895150Y-81557958D01*
X110991614Y-81529071D01*
X111103134Y-81519443D01*
X111215528Y-81529071D01*
X111311817Y-81557958D01*
X111390073Y-81604001D01*
X111448372Y-81665101D01*
X111484611Y-81739681D01*
X111496691Y-81826165D01*
X111489513Y-81894092D01*
X111467979Y-81955017D01*
X111433491Y-82007188D01*
X111387447Y-82048854D01*
X111331075Y-82078266D01*
X111265599Y-82093672D01*
X111265599Y-82243532D01*
X111366439Y-82221298D01*
X111453274Y-82177006D01*
X111524002Y-82112755D01*
X111576523Y-82030647D01*
X111609086Y-81932608D01*
X111619940Y-81820563D01*
X111612860Y-81733106D01*
X111591618Y-81653741D01*
X111556215Y-81582468D01*
X111518177Y-81533448D01*
X111507973Y-81520298D01*
X111448216Y-81468244D01*
X111376943Y-81426305D01*
X111295166Y-81395571D01*
X111263585Y-81389190D01*
X111770267Y-81389190D01*
X111770267Y-81533448D01*
X112145617Y-81533448D01*
X112145617Y-81764541D01*
X112155246Y-81854527D01*
X112184133Y-81931207D01*
X112230701Y-81993357D01*
X112293376Y-82039751D01*
X112369882Y-82068637D01*
X112457942Y-82078266D01*
X112547753Y-82068287D01*
X112623908Y-82038350D01*
X112685533Y-81989856D01*
X112731752Y-81924204D01*
X112760638Y-81843322D01*
X112770267Y-81749134D01*
X112770267Y-81389190D01*
X111770267Y-81389190D01*
X111263585Y-81389190D01*
X111203896Y-81377130D01*
X111103134Y-81370983D01*
X111002293Y-81377208D01*
X110910790Y-81395882D01*
X110828624Y-81427006D01*
X110756962Y-81469645D01*
X110696971Y-81522866D01*
X110648652Y-81586669D01*
X110613249Y-81659965D01*
X110592007Y-81741665D01*
X110584926Y-81831768D01*
X110468213Y-81831768D01*
X110468213Y-81179713D01*
X110468213Y-81063000D01*
X112903787Y-81063000D01*
X112903787Y-81179713D01*
G37*
%TO.C,kibuzzard-6A2D8804*%
G36*
X111488288Y-77124826D02*
G01*
X111475683Y-77204483D01*
X111437867Y-77264182D01*
X111377643Y-77301472D01*
X111297811Y-77313902D01*
X111222706Y-77302522D01*
X111165458Y-77268384D01*
X111129219Y-77213587D01*
X111117139Y-77140232D01*
X111117139Y-76904938D01*
X111488288Y-76904938D01*
X111488288Y-77124826D01*
G37*
G36*
X112655421Y-75263482D02*
G01*
X112642641Y-75339112D01*
X112604301Y-75397936D01*
X112544252Y-75435751D01*
X112466345Y-75448356D01*
X112389140Y-75436801D01*
X112328390Y-75402137D01*
X112289000Y-75348216D01*
X112275869Y-75278888D01*
X112275869Y-75047796D01*
X112655421Y-75047796D01*
X112655421Y-75263482D01*
G37*
G36*
X112655421Y-77479168D02*
G01*
X112642816Y-77558825D01*
X112605001Y-77618524D01*
X112544777Y-77655814D01*
X112464945Y-77668244D01*
X112389840Y-77656864D01*
X112332592Y-77622725D01*
X112296352Y-77567929D01*
X112284273Y-77494574D01*
X112284273Y-77259280D01*
X112655421Y-77259280D01*
X112655421Y-77479168D01*
G37*
G36*
X112895384Y-74575713D02*
G01*
X112895384Y-78542287D01*
X112895384Y-78659000D01*
X110476616Y-78659000D01*
X110476616Y-78542287D01*
X110476616Y-78232669D01*
X110476616Y-77637431D01*
X110611537Y-77637431D01*
X110611537Y-78232669D01*
X110734786Y-78232669D01*
X110734786Y-77781689D01*
X111611537Y-77781689D01*
X111611537Y-77697655D01*
X111778670Y-77697655D01*
X111778670Y-77851717D01*
X112180631Y-77619224D01*
X112219847Y-77701332D01*
X112281472Y-77762782D01*
X112363404Y-77801122D01*
X112463544Y-77813902D01*
X112555806Y-77803923D01*
X112633712Y-77773986D01*
X112696037Y-77725492D01*
X112741556Y-77659840D01*
X112769392Y-77577557D01*
X112778670Y-77479168D01*
X112778670Y-77115022D01*
X111778670Y-77115022D01*
X111778670Y-77259280D01*
X112162424Y-77259280D01*
X112162424Y-77474966D01*
X111778670Y-77697655D01*
X111611537Y-77697655D01*
X111611537Y-77637431D01*
X110611537Y-77637431D01*
X110476616Y-77637431D01*
X110476616Y-77343314D01*
X110611537Y-77343314D01*
X110611537Y-77497375D01*
X111013498Y-77264882D01*
X111052713Y-77346990D01*
X111114338Y-77408440D01*
X111196271Y-77446780D01*
X111296411Y-77459560D01*
X111388673Y-77449581D01*
X111466579Y-77419644D01*
X111528904Y-77371150D01*
X111574422Y-77305499D01*
X111590058Y-77259280D01*
X111602258Y-77223216D01*
X111611537Y-77124826D01*
X111611537Y-76760681D01*
X110611537Y-76760681D01*
X110611537Y-76904938D01*
X110995290Y-76904938D01*
X110995290Y-77120625D01*
X110611537Y-77343314D01*
X110476616Y-77343314D01*
X110476616Y-76904938D01*
X110476616Y-76700457D01*
X110476616Y-76323706D01*
X110476616Y-76178048D01*
X110611537Y-76178048D01*
X110611537Y-76323706D01*
X111488288Y-76323706D01*
X111488288Y-76634630D01*
X111611537Y-76634630D01*
X111611537Y-75979168D01*
X111778670Y-75979168D01*
X111778670Y-76131829D01*
X112543376Y-76339112D01*
X112543376Y-76341913D01*
X111778670Y-76549196D01*
X111778670Y-76700457D01*
X112778670Y-76974966D01*
X112778670Y-76823706D01*
X112011163Y-76615022D01*
X112011163Y-76612221D01*
X112778670Y-76403538D01*
X112778670Y-76276087D01*
X112011163Y-76068804D01*
X112011163Y-76066003D01*
X112778670Y-75857319D01*
X112778670Y-75704658D01*
X111778670Y-75979168D01*
X111611537Y-75979168D01*
X111611537Y-75865723D01*
X111488288Y-75865723D01*
X111488288Y-76178048D01*
X110611537Y-76178048D01*
X110476616Y-76178048D01*
X110476616Y-75346115D01*
X110593330Y-75346115D01*
X110604184Y-75451857D01*
X110636747Y-75544994D01*
X110689268Y-75623251D01*
X110759996Y-75684350D01*
X110846481Y-75726192D01*
X110946271Y-75746675D01*
X110946271Y-75596815D01*
X110881670Y-75583160D01*
X110825122Y-75556199D01*
X110778729Y-75517508D01*
X110744590Y-75468664D01*
X110723582Y-75411066D01*
X110716579Y-75346115D01*
X110728834Y-75257179D01*
X110765599Y-75180849D01*
X110824597Y-75118699D01*
X110903554Y-75072305D01*
X111000017Y-75043419D01*
X111111537Y-75033790D01*
X111223932Y-75043419D01*
X111320220Y-75072305D01*
X111398477Y-75118349D01*
X111456775Y-75179448D01*
X111493014Y-75254028D01*
X111505094Y-75340513D01*
X111497916Y-75408440D01*
X111476383Y-75469364D01*
X111441894Y-75521535D01*
X111395851Y-75563202D01*
X111339478Y-75592613D01*
X111274002Y-75608020D01*
X111274002Y-75757880D01*
X111374842Y-75735646D01*
X111461677Y-75691353D01*
X111532405Y-75627102D01*
X111584926Y-75544994D01*
X111617489Y-75446955D01*
X111628344Y-75334910D01*
X111621263Y-75247453D01*
X111600021Y-75168088D01*
X111564618Y-75096815D01*
X111526580Y-75047796D01*
X111516377Y-75034646D01*
X111456619Y-74982592D01*
X111385346Y-74940653D01*
X111303569Y-74909918D01*
X111271992Y-74903538D01*
X111778670Y-74903538D01*
X111778670Y-75047796D01*
X112154021Y-75047796D01*
X112154021Y-75278888D01*
X112163649Y-75368874D01*
X112192536Y-75445555D01*
X112239105Y-75507704D01*
X112301780Y-75554098D01*
X112378285Y-75582985D01*
X112466345Y-75592613D01*
X112556156Y-75582634D01*
X112632312Y-75552697D01*
X112693937Y-75504203D01*
X112740155Y-75438552D01*
X112769042Y-75357669D01*
X112778670Y-75263482D01*
X112778670Y-74903538D01*
X111778670Y-74903538D01*
X111271992Y-74903538D01*
X111212299Y-74891477D01*
X111111537Y-74885331D01*
X111010697Y-74891555D01*
X110919193Y-74910229D01*
X110837027Y-74941353D01*
X110765365Y-74983992D01*
X110705374Y-75037214D01*
X110657055Y-75101017D01*
X110621652Y-75174313D01*
X110600410Y-75256012D01*
X110593330Y-75346115D01*
X110476616Y-75346115D01*
X110476616Y-74575713D01*
X110476616Y-74459000D01*
X112895384Y-74459000D01*
X112895384Y-74575713D01*
G37*
%TO.C,kibuzzard-6A2D88AE*%
G36*
X116239776Y-64794513D02*
G01*
X116223162Y-64892832D01*
X116173319Y-64969303D01*
X116095256Y-65018462D01*
X115993978Y-65034849D01*
X115893610Y-65019828D01*
X115814636Y-64974765D01*
X115763428Y-64904667D01*
X115746359Y-64814541D01*
X115746359Y-64514120D01*
X116239776Y-64514120D01*
X116239776Y-64794513D01*
G37*
G36*
X116239776Y-67674905D02*
G01*
X116223389Y-67778459D01*
X116174230Y-67856067D01*
X116095938Y-67904544D01*
X115992157Y-67920703D01*
X115894520Y-67905910D01*
X115820098Y-67861529D01*
X115772987Y-67790293D01*
X115757283Y-67694933D01*
X115757283Y-67389050D01*
X116239776Y-67389050D01*
X116239776Y-67674905D01*
G37*
G36*
X116551727Y-62639727D02*
G01*
X116551727Y-71936273D01*
X116551727Y-72088000D01*
X114948273Y-72088000D01*
X114948273Y-71936273D01*
X114948273Y-70977706D01*
X114948273Y-70817482D01*
X115373109Y-70817482D01*
X115373109Y-70977706D01*
X115677171Y-70977706D01*
X115677171Y-71267202D01*
X115824650Y-71267202D01*
X115824650Y-70977706D01*
X116128711Y-70977706D01*
X116128711Y-70817482D01*
X115824650Y-70817482D01*
X115824650Y-70529807D01*
X115677171Y-70529807D01*
X115677171Y-70817482D01*
X115373109Y-70817482D01*
X114948273Y-70817482D01*
X114948273Y-70080087D01*
X114948273Y-69020423D01*
X115100000Y-69020423D01*
X115100000Y-69207958D01*
X116090476Y-69207958D01*
X116090476Y-69211599D01*
X115100000Y-69890731D01*
X115100000Y-70080087D01*
X116400000Y-70080087D01*
X116400000Y-69890731D01*
X115409524Y-69890731D01*
X115409524Y-69887090D01*
X116400000Y-69207958D01*
X116400000Y-69020423D01*
X115100000Y-69020423D01*
X114948273Y-69020423D01*
X114948273Y-68801936D01*
X114948273Y-68614401D01*
X115100000Y-68614401D01*
X115100000Y-68801936D01*
X116400000Y-68801936D01*
X116400000Y-68614401D01*
X115100000Y-68614401D01*
X114948273Y-68614401D01*
X114948273Y-67958938D01*
X115100000Y-67958938D01*
X115100000Y-68159218D01*
X115622549Y-67856978D01*
X115673529Y-67963718D01*
X115753641Y-68043602D01*
X115860154Y-68093445D01*
X115990336Y-68110059D01*
X116110277Y-68097086D01*
X116211555Y-68058168D01*
X116292577Y-67995125D01*
X116351751Y-67909779D01*
X116387938Y-67802811D01*
X116400000Y-67674905D01*
X116400000Y-67201515D01*
X115100000Y-67201515D01*
X115100000Y-67389050D01*
X115598880Y-67389050D01*
X115598880Y-67669443D01*
X115100000Y-67958938D01*
X114948273Y-67958938D01*
X114948273Y-67389050D01*
X114948273Y-66662580D01*
X114948273Y-65724905D01*
X115100000Y-65724905D01*
X115100000Y-65923364D01*
X116094118Y-66192832D01*
X116094118Y-66196473D01*
X115100000Y-66465941D01*
X115100000Y-66662580D01*
X116400000Y-67019443D01*
X116400000Y-66822804D01*
X115402241Y-66551515D01*
X115402241Y-66547874D01*
X116400000Y-66276585D01*
X116400000Y-66110899D01*
X115402241Y-65841431D01*
X115402241Y-65837790D01*
X116400000Y-65566501D01*
X116400000Y-65368042D01*
X115100000Y-65724905D01*
X114948273Y-65724905D01*
X114948273Y-64514120D01*
X114948273Y-64326585D01*
X115100000Y-64326585D01*
X115100000Y-64514120D01*
X115587955Y-64514120D01*
X115587955Y-64814541D01*
X115600473Y-64931522D01*
X115638025Y-65031207D01*
X115698564Y-65112002D01*
X115780042Y-65172314D01*
X115879499Y-65209866D01*
X115993978Y-65222384D01*
X116110732Y-65209411D01*
X116209734Y-65170493D01*
X116289846Y-65107450D01*
X116349930Y-65022104D01*
X116387482Y-64916957D01*
X116400000Y-64794513D01*
X116400000Y-64326585D01*
X115100000Y-64326585D01*
X114948273Y-64326585D01*
X114948273Y-63882328D01*
X114948273Y-63308798D01*
X115560644Y-63308798D01*
X115560644Y-63882328D01*
X115695378Y-63882328D01*
X115695378Y-63308798D01*
X115560644Y-63308798D01*
X114948273Y-63308798D01*
X114948273Y-62639727D01*
X114948273Y-62488000D01*
X116551727Y-62488000D01*
X116551727Y-62639727D01*
G37*
%TO.C,kibuzzard-6A2DBB13*%
G36*
X163811167Y-130257427D02*
G01*
X163856335Y-130290515D01*
X163884696Y-130343912D01*
X163894150Y-130415866D01*
X163894150Y-130665165D01*
X163597231Y-130665165D01*
X163597231Y-130428471D01*
X163607560Y-130351440D01*
X163638548Y-130294017D01*
X163687392Y-130258303D01*
X163751293Y-130246398D01*
X163811167Y-130257427D01*
G37*
G36*
X164260397Y-130230466D02*
G01*
X164314318Y-130266706D01*
X164347932Y-130324654D01*
X164359136Y-130401860D01*
X164359136Y-130665165D01*
X164013198Y-130665165D01*
X164013198Y-130415866D01*
X164024752Y-130332532D01*
X164059416Y-130270207D01*
X164114738Y-130231342D01*
X164188268Y-130218387D01*
X164260397Y-130230466D01*
G37*
G36*
X164086727Y-126343912D02*
G01*
X164182666Y-126367546D01*
X164262497Y-126405011D01*
X164322722Y-126454381D01*
X164360537Y-126513730D01*
X164373142Y-126581132D01*
X164360537Y-126648534D01*
X164322722Y-126707882D01*
X164262497Y-126757252D01*
X164182666Y-126794717D01*
X164086727Y-126818352D01*
X163978184Y-126826230D01*
X163869815Y-126818352D01*
X163774402Y-126794717D01*
X163695095Y-126757252D01*
X163635046Y-126707882D01*
X163597231Y-126648534D01*
X163584626Y-126581132D01*
X163597231Y-126513730D01*
X163635046Y-126454381D01*
X163695095Y-126405011D01*
X163774402Y-126367546D01*
X163869815Y-126343912D01*
X163978184Y-126336034D01*
X164086727Y-126343912D01*
G37*
G36*
X164091104Y-128110718D02*
G01*
X164187567Y-128140655D01*
X164266349Y-128188450D01*
X164324822Y-128252000D01*
X164361062Y-128329731D01*
X164373142Y-128420067D01*
X164361062Y-128510403D01*
X164324822Y-128588134D01*
X164266349Y-128651510D01*
X164187567Y-128698779D01*
X164091104Y-128728190D01*
X163979584Y-128737994D01*
X163867189Y-128728190D01*
X163770901Y-128698779D01*
X163692645Y-128651510D01*
X163634346Y-128588134D01*
X163598107Y-128510403D01*
X163586027Y-128420067D01*
X163598107Y-128329731D01*
X163634346Y-128252000D01*
X163692645Y-128188450D01*
X163770901Y-128140655D01*
X163867189Y-128110718D01*
X163979584Y-128100739D01*
X164091104Y-128110718D01*
G37*
G36*
X164091104Y-129176545D02*
G01*
X164187567Y-129206482D01*
X164266349Y-129254276D01*
X164324822Y-129317826D01*
X164361062Y-129395557D01*
X164373142Y-129485894D01*
X164361062Y-129576230D01*
X164324822Y-129653961D01*
X164266349Y-129717336D01*
X164187567Y-129764605D01*
X164091104Y-129794017D01*
X163979584Y-129803821D01*
X163867189Y-129794017D01*
X163770901Y-129764605D01*
X163692645Y-129717336D01*
X163634346Y-129653961D01*
X163598107Y-129576230D01*
X163586027Y-129485894D01*
X163598107Y-129395557D01*
X163634346Y-129317826D01*
X163692645Y-129254276D01*
X163770901Y-129206482D01*
X163867189Y-129176545D01*
X163979584Y-129166566D01*
X164091104Y-129176545D01*
G37*
G36*
X164613104Y-127386454D02*
G01*
X164613104Y-128420067D01*
X164613104Y-129485894D01*
X164613104Y-130809423D01*
X164613104Y-132185287D01*
X164613104Y-132302000D01*
X163344664Y-132302000D01*
X163344664Y-132185287D01*
X163344664Y-130424269D01*
X163478184Y-130424269D01*
X163478184Y-130809423D01*
X164478184Y-130809423D01*
X164478184Y-130393457D01*
X164469780Y-130298744D01*
X164444570Y-130219087D01*
X164403429Y-130155186D01*
X164347231Y-130107742D01*
X164277028Y-130078331D01*
X164193870Y-130068527D01*
X164104409Y-130081657D01*
X164032105Y-130121048D01*
X163980810Y-130183548D01*
X163954374Y-130266006D01*
X163951573Y-130266006D01*
X163926188Y-130194927D01*
X163880845Y-130141356D01*
X163818695Y-130107742D01*
X163742890Y-130096538D01*
X163665159Y-130106342D01*
X163600032Y-130135754D01*
X163548037Y-130183373D01*
X163509696Y-130247798D01*
X163486062Y-130328331D01*
X163478184Y-130424269D01*
X163344664Y-130424269D01*
X163344664Y-129485894D01*
X163461377Y-129485894D01*
X163468458Y-129576852D01*
X163489699Y-129659252D01*
X163525102Y-129733092D01*
X163573422Y-129797440D01*
X163633412Y-129851362D01*
X163705074Y-129894857D01*
X163787241Y-129926759D01*
X163878744Y-129945900D01*
X163979584Y-129952280D01*
X164080347Y-129945900D01*
X164171617Y-129926759D01*
X164253394Y-129894857D01*
X164324667Y-129851362D01*
X164384424Y-129797440D01*
X164432666Y-129733092D01*
X164468069Y-129659252D01*
X164489310Y-129576852D01*
X164496391Y-129485894D01*
X164489310Y-129394857D01*
X164468069Y-129312224D01*
X164432666Y-129237994D01*
X164384424Y-129173257D01*
X164324667Y-129119102D01*
X164253394Y-129075529D01*
X164171617Y-129043628D01*
X164080347Y-129024487D01*
X163979584Y-129018106D01*
X163878744Y-129024487D01*
X163787241Y-129043628D01*
X163705074Y-129075529D01*
X163633412Y-129119102D01*
X163573422Y-129173257D01*
X163525102Y-129237994D01*
X163489699Y-129312224D01*
X163468458Y-129394857D01*
X163461377Y-129485894D01*
X163344664Y-129485894D01*
X163344664Y-128420067D01*
X163461377Y-128420067D01*
X163468458Y-128511026D01*
X163489699Y-128593425D01*
X163525102Y-128667266D01*
X163573422Y-128731614D01*
X163633412Y-128785536D01*
X163705074Y-128829031D01*
X163787241Y-128860932D01*
X163878744Y-128880073D01*
X163979584Y-128886454D01*
X164080347Y-128880073D01*
X164171617Y-128860932D01*
X164253394Y-128829031D01*
X164324667Y-128785536D01*
X164384424Y-128731614D01*
X164432666Y-128667266D01*
X164468069Y-128593425D01*
X164489310Y-128511026D01*
X164496391Y-128420067D01*
X164489310Y-128329031D01*
X164468069Y-128246398D01*
X164432666Y-128172168D01*
X164384424Y-128107431D01*
X164324667Y-128053276D01*
X164253394Y-128009703D01*
X164171617Y-127977801D01*
X164080347Y-127958660D01*
X163979584Y-127952280D01*
X163878744Y-127958660D01*
X163787241Y-127977801D01*
X163705074Y-128009703D01*
X163633412Y-128053276D01*
X163573422Y-128107431D01*
X163525102Y-128172168D01*
X163489699Y-128246398D01*
X163468458Y-128329031D01*
X163461377Y-128420067D01*
X163344664Y-128420067D01*
X163344664Y-127075529D01*
X163478184Y-127075529D01*
X163478184Y-127844437D01*
X163601433Y-127844437D01*
X163601433Y-127532112D01*
X164478184Y-127532112D01*
X164478184Y-127386454D01*
X163601433Y-127386454D01*
X163601433Y-127075529D01*
X163478184Y-127075529D01*
X163344664Y-127075529D01*
X163344664Y-126581132D01*
X163461377Y-126581132D01*
X163477834Y-126688099D01*
X163527203Y-126782112D01*
X163576690Y-126836189D01*
X163637381Y-126881707D01*
X163709276Y-126918667D01*
X163790820Y-126945900D01*
X163880456Y-126962240D01*
X163978184Y-126967686D01*
X164075211Y-126962240D01*
X164164614Y-126945900D01*
X164246391Y-126918667D01*
X164318753Y-126881707D01*
X164379911Y-126836189D01*
X164429864Y-126782112D01*
X164479759Y-126688099D01*
X164496391Y-126581132D01*
X164479759Y-126474164D01*
X164429864Y-126380151D01*
X164379911Y-126326074D01*
X164318753Y-126280556D01*
X164246391Y-126243597D01*
X164164614Y-126216364D01*
X164075211Y-126200024D01*
X163978184Y-126194577D01*
X163880456Y-126200024D01*
X163790820Y-126216364D01*
X163709276Y-126243597D01*
X163637381Y-126280556D01*
X163576690Y-126326074D01*
X163527203Y-126380151D01*
X163477834Y-126474164D01*
X163461377Y-126581132D01*
X163344664Y-126581132D01*
X163344664Y-124818713D01*
X163344664Y-124702000D01*
X164613104Y-124702000D01*
X164613104Y-124818713D01*
X164613104Y-126581132D01*
X164613104Y-127386454D01*
G37*
%TO.C,kibuzzard-6A2D8A19*%
G36*
X158818130Y-128690859D02*
G01*
X158875378Y-128724997D01*
X158911618Y-128779794D01*
X158923697Y-128853148D01*
X158923697Y-129088443D01*
X158552549Y-129088443D01*
X158552549Y-128868555D01*
X158565154Y-128788898D01*
X158602969Y-128729199D01*
X158663193Y-128691909D01*
X158743025Y-128679479D01*
X158818130Y-128690859D01*
G37*
G36*
X159564220Y-126106650D02*
G01*
X159564220Y-127214493D01*
X159564220Y-127749507D01*
X159564220Y-129088443D01*
X159564220Y-129615287D01*
X159564220Y-129732000D01*
X158295780Y-129732000D01*
X158295780Y-129615287D01*
X158295780Y-128868555D01*
X158429300Y-128868555D01*
X158429300Y-129232700D01*
X159429300Y-129232700D01*
X159429300Y-129088443D01*
X159045546Y-129088443D01*
X159045546Y-128872756D01*
X159429300Y-128650067D01*
X159429300Y-128496006D01*
X159027339Y-128728499D01*
X158988123Y-128646391D01*
X158926499Y-128584941D01*
X158844566Y-128546601D01*
X158744426Y-128533821D01*
X158652164Y-128543800D01*
X158574258Y-128573737D01*
X158511933Y-128622231D01*
X158466415Y-128687882D01*
X158438578Y-128770165D01*
X158429300Y-128868555D01*
X158295780Y-128868555D01*
X158295780Y-127749507D01*
X158429300Y-127749507D01*
X158429300Y-128355950D01*
X159429300Y-128355950D01*
X159429300Y-127749507D01*
X159306050Y-127749507D01*
X159306050Y-128211692D01*
X158975518Y-128211692D01*
X158975518Y-127778919D01*
X158852269Y-127778919D01*
X158852269Y-128211692D01*
X158552549Y-128211692D01*
X158552549Y-127749507D01*
X158429300Y-127749507D01*
X158295780Y-127749507D01*
X158295780Y-127231300D01*
X158412493Y-127231300D01*
X158421071Y-127335291D01*
X158446807Y-127423176D01*
X158488648Y-127493555D01*
X158545546Y-127545025D01*
X158616625Y-127576538D01*
X158701008Y-127587042D01*
X158761583Y-127580915D01*
X158811653Y-127562532D01*
X158887283Y-127495305D01*
X158937703Y-127400067D01*
X158972017Y-127292224D01*
X159001429Y-127184381D01*
X159035042Y-127089143D01*
X159081961Y-127021916D01*
X159151989Y-126997406D01*
X159245126Y-127023317D01*
X159303950Y-127096146D01*
X159319181Y-127148492D01*
X159324258Y-127211692D01*
X159317430Y-127290999D01*
X159296947Y-127358050D01*
X159263508Y-127411972D01*
X159217815Y-127451888D01*
X159161092Y-127476573D01*
X159094566Y-127484801D01*
X159094566Y-127629059D01*
X159196457Y-127616804D01*
X159283641Y-127580039D01*
X159354020Y-127519990D01*
X159405490Y-127437882D01*
X159437003Y-127335466D01*
X159447507Y-127214493D01*
X159438578Y-127109101D01*
X159411793Y-127019815D01*
X159368025Y-126948211D01*
X159308151Y-126895866D01*
X159233746Y-126863828D01*
X159146387Y-126853148D01*
X159037143Y-126877658D01*
X158962213Y-126944185D01*
X158911793Y-127038723D01*
X158876078Y-127147266D01*
X158846667Y-127255810D01*
X158813754Y-127350347D01*
X158766835Y-127417574D01*
X158696807Y-127442784D01*
X158609972Y-127416874D01*
X158554650Y-127344045D01*
X158535742Y-127231300D01*
X158541695Y-127167574D01*
X158559552Y-127113653D01*
X158627479Y-127038723D01*
X158734622Y-127012812D01*
X158734622Y-126868555D01*
X158640959Y-126879409D01*
X158561653Y-126911972D01*
X158497927Y-126964843D01*
X158451008Y-127036622D01*
X158422122Y-127125908D01*
X158412493Y-127231300D01*
X158295780Y-127231300D01*
X158295780Y-126106650D01*
X158429300Y-126106650D01*
X158429300Y-126713092D01*
X159429300Y-126713092D01*
X159429300Y-126106650D01*
X159306050Y-126106650D01*
X159306050Y-126568835D01*
X158975518Y-126568835D01*
X158975518Y-126136062D01*
X158852269Y-126136062D01*
X158852269Y-126568835D01*
X158552549Y-126568835D01*
X158552549Y-126106650D01*
X158429300Y-126106650D01*
X158295780Y-126106650D01*
X158295780Y-125231300D01*
X158429300Y-125231300D01*
X158429300Y-126000207D01*
X158552549Y-126000207D01*
X158552549Y-125687882D01*
X159429300Y-125687882D01*
X159429300Y-125542224D01*
X158552549Y-125542224D01*
X158552549Y-125231300D01*
X158429300Y-125231300D01*
X158295780Y-125231300D01*
X158295780Y-124848713D01*
X158295780Y-124732000D01*
X159564220Y-124732000D01*
X159564220Y-124848713D01*
X159564220Y-125542224D01*
X159564220Y-126106650D01*
G37*
%TO.C,kibuzzard-6A2D88D5*%
G36*
X114491367Y-125805325D02*
G01*
X113961535Y-126007426D01*
X113961535Y-125603224D01*
X114491367Y-125805325D01*
G37*
G36*
X114589686Y-120619891D02*
G01*
X114573072Y-120718210D01*
X114523230Y-120794681D01*
X114445166Y-120843840D01*
X114343888Y-120860227D01*
X114243520Y-120845206D01*
X114164546Y-120800143D01*
X114113338Y-120730045D01*
X114096269Y-120639919D01*
X114096269Y-120339499D01*
X114589686Y-120339499D01*
X114589686Y-120619891D01*
G37*
G36*
X114589686Y-122930395D02*
G01*
X114573300Y-123033949D01*
X114524140Y-123111557D01*
X114445849Y-123160034D01*
X114342067Y-123176193D01*
X114244431Y-123161400D01*
X114170008Y-123117020D01*
X114122897Y-123045784D01*
X114107193Y-122950423D01*
X114107193Y-122644541D01*
X114589686Y-122644541D01*
X114589686Y-122930395D01*
G37*
G36*
X114244203Y-123778854D02*
G01*
X114369378Y-123817090D01*
X114471111Y-123878539D01*
X114546899Y-123960927D01*
X114594011Y-124061978D01*
X114609714Y-124179415D01*
X114594011Y-124296852D01*
X114546899Y-124397902D01*
X114471111Y-124480518D01*
X114369378Y-124542650D01*
X114244203Y-124581568D01*
X114098090Y-124594541D01*
X113953114Y-124581568D01*
X113827711Y-124542650D01*
X113725296Y-124480518D01*
X113649280Y-124397902D01*
X113602169Y-124296852D01*
X113586465Y-124179415D01*
X113602169Y-124061978D01*
X113649280Y-123960927D01*
X113725296Y-123878539D01*
X113827711Y-123817090D01*
X113953114Y-123778854D01*
X114098090Y-123766109D01*
X114244203Y-123778854D01*
G37*
G36*
X115075214Y-118671455D02*
G01*
X115075214Y-127664545D01*
X115075214Y-127968000D01*
X113122786Y-127968000D01*
X113122786Y-127664545D01*
X113122786Y-127371151D01*
X113122786Y-126797622D01*
X113910555Y-126797622D01*
X113910555Y-127371151D01*
X114045289Y-127371151D01*
X114045289Y-126797622D01*
X113910555Y-126797622D01*
X113122786Y-126797622D01*
X113122786Y-126391599D01*
X113122786Y-125219050D01*
X113449910Y-125219050D01*
X113449910Y-125410227D01*
X113812235Y-125548602D01*
X113812235Y-126062048D01*
X113449910Y-126200423D01*
X113449910Y-126391599D01*
X114749910Y-125901824D01*
X114749910Y-125708826D01*
X113449910Y-125219050D01*
X113122786Y-125219050D01*
X113122786Y-124179415D01*
X113426241Y-124179415D01*
X113435446Y-124297762D01*
X113463060Y-124405185D01*
X113509084Y-124501683D01*
X113571798Y-124585842D01*
X113649482Y-124656243D01*
X113742137Y-124712888D01*
X113848448Y-124754360D01*
X113967098Y-124779243D01*
X114098090Y-124787538D01*
X114229182Y-124779243D01*
X114348136Y-124754360D01*
X114454952Y-124712888D01*
X114548113Y-124656243D01*
X114626101Y-124585842D01*
X114688916Y-124501683D01*
X114734940Y-124405185D01*
X114762554Y-124297762D01*
X114771759Y-124179415D01*
X114762554Y-124061168D01*
X114734940Y-123954049D01*
X114688916Y-123858056D01*
X114626101Y-123774404D01*
X114548113Y-123704306D01*
X114454952Y-123647762D01*
X114348136Y-123606290D01*
X114229182Y-123581406D01*
X114098090Y-123573112D01*
X113967098Y-123581406D01*
X113848448Y-123606290D01*
X113742137Y-123647762D01*
X113649482Y-123704306D01*
X113571798Y-123774404D01*
X113509084Y-123858056D01*
X113463060Y-123954049D01*
X113435446Y-124061168D01*
X113426241Y-124179415D01*
X113122786Y-124179415D01*
X113122786Y-123214429D01*
X113449910Y-123214429D01*
X113449910Y-123414709D01*
X113972459Y-123112468D01*
X114023440Y-123219208D01*
X114103552Y-123299092D01*
X114210064Y-123348935D01*
X114340246Y-123365549D01*
X114460187Y-123352576D01*
X114561465Y-123313658D01*
X114642487Y-123250616D01*
X114701661Y-123165269D01*
X114737848Y-123058301D01*
X114749910Y-122930395D01*
X114749910Y-122457006D01*
X113449910Y-122457006D01*
X113449910Y-122644541D01*
X113948790Y-122644541D01*
X113948790Y-122924933D01*
X113449910Y-123214429D01*
X113122786Y-123214429D01*
X113122786Y-122644541D01*
X113122786Y-121828854D01*
X113122786Y-121641319D01*
X113449910Y-121641319D01*
X113449910Y-121828854D01*
X113946969Y-121828854D01*
X114749910Y-122274933D01*
X114749910Y-122071011D01*
X114139966Y-121735997D01*
X114139966Y-121732356D01*
X114749910Y-121397342D01*
X114749910Y-121193420D01*
X113946969Y-121641319D01*
X113449910Y-121641319D01*
X113122786Y-121641319D01*
X113122786Y-120339499D01*
X113122786Y-120151964D01*
X113449910Y-120151964D01*
X113449910Y-120339499D01*
X113937866Y-120339499D01*
X113937866Y-120639919D01*
X113950383Y-120756901D01*
X113987936Y-120856585D01*
X114048475Y-120937380D01*
X114129952Y-120997692D01*
X114229410Y-121035244D01*
X114343888Y-121047762D01*
X114460642Y-121034789D01*
X114559644Y-120995871D01*
X114639756Y-120932828D01*
X114699840Y-120847482D01*
X114737393Y-120742335D01*
X114749910Y-120619891D01*
X114749910Y-120151964D01*
X113449910Y-120151964D01*
X113122786Y-120151964D01*
X113122786Y-119412748D01*
X113122786Y-119252524D01*
X113723020Y-119252524D01*
X113723020Y-119412748D01*
X114027081Y-119412748D01*
X114027081Y-119702244D01*
X114174560Y-119702244D01*
X114174560Y-119412748D01*
X114478622Y-119412748D01*
X114478622Y-119252524D01*
X114174560Y-119252524D01*
X114174560Y-118964849D01*
X114027081Y-118964849D01*
X114027081Y-119252524D01*
X113723020Y-119252524D01*
X113122786Y-119252524D01*
X113122786Y-118671455D01*
X113122786Y-118368000D01*
X115075214Y-118368000D01*
X115075214Y-118671455D01*
G37*
%TO.C,kibuzzard-6A2D88CA*%
G36*
X114592967Y-100304705D02*
G01*
X114576353Y-100403025D01*
X114526511Y-100479495D01*
X114448447Y-100528655D01*
X114347169Y-100545041D01*
X114246801Y-100530020D01*
X114167827Y-100484957D01*
X114116619Y-100414859D01*
X114099550Y-100324733D01*
X114099550Y-100024313D01*
X114592967Y-100024313D01*
X114592967Y-100304705D01*
G37*
G36*
X114592967Y-102615210D02*
G01*
X114576581Y-102718763D01*
X114527421Y-102796372D01*
X114449130Y-102844849D01*
X114345348Y-102861008D01*
X114247712Y-102846214D01*
X114173289Y-102801834D01*
X114126178Y-102730598D01*
X114110474Y-102635238D01*
X114110474Y-102329355D01*
X114592967Y-102329355D01*
X114592967Y-102615210D01*
G37*
G36*
X114247484Y-103463669D02*
G01*
X114372659Y-103501904D01*
X114474392Y-103563354D01*
X114550180Y-103645742D01*
X114597292Y-103746792D01*
X114612995Y-103864229D01*
X114597292Y-103981666D01*
X114550180Y-104082717D01*
X114474392Y-104165332D01*
X114372659Y-104227464D01*
X114247484Y-104266382D01*
X114101371Y-104279355D01*
X113956395Y-104266382D01*
X113830992Y-104227464D01*
X113728577Y-104165332D01*
X113652561Y-104082717D01*
X113605450Y-103981666D01*
X113589746Y-103864229D01*
X113605450Y-103746792D01*
X113652561Y-103645742D01*
X113728577Y-103563354D01*
X113830992Y-103501904D01*
X113956395Y-103463669D01*
X114101371Y-103450924D01*
X114247484Y-103463669D01*
G37*
G36*
X115078495Y-98349897D02*
G01*
X115078495Y-107342987D01*
X115078495Y-107646442D01*
X113126067Y-107646442D01*
X113126067Y-107342987D01*
X113126067Y-107043221D01*
X113126067Y-106469691D01*
X113913836Y-106469691D01*
X113913836Y-107043221D01*
X114048570Y-107043221D01*
X114048570Y-106469691D01*
X113913836Y-106469691D01*
X113126067Y-106469691D01*
X113126067Y-105515630D01*
X113429522Y-105515630D01*
X113443633Y-105653095D01*
X113485964Y-105774173D01*
X113554242Y-105875906D01*
X113646189Y-105955336D01*
X113758619Y-106009730D01*
X113888345Y-106036358D01*
X113888345Y-105841540D01*
X113804364Y-105823788D01*
X113730852Y-105788739D01*
X113670541Y-105738441D01*
X113626161Y-105674943D01*
X113598850Y-105600066D01*
X113589746Y-105515630D01*
X113605677Y-105400013D01*
X113653471Y-105300784D01*
X113730170Y-105219989D01*
X113832813Y-105159677D01*
X113958216Y-105122125D01*
X114103191Y-105109607D01*
X114249305Y-105122125D01*
X114374480Y-105159677D01*
X114476213Y-105219534D01*
X114552001Y-105298963D01*
X114599112Y-105395917D01*
X114614816Y-105508347D01*
X114605485Y-105596652D01*
X114577491Y-105675854D01*
X114532656Y-105743676D01*
X114472799Y-105797843D01*
X114399515Y-105836078D01*
X114314396Y-105856106D01*
X114314396Y-106050924D01*
X114445488Y-106022020D01*
X114558373Y-105964439D01*
X114650320Y-105880913D01*
X114718598Y-105774173D01*
X114760929Y-105646722D01*
X114775040Y-105501064D01*
X114765835Y-105387369D01*
X114738221Y-105284195D01*
X114692197Y-105191540D01*
X114629483Y-105110720D01*
X114551799Y-105043050D01*
X114459144Y-104988529D01*
X114352833Y-104948574D01*
X114234183Y-104924601D01*
X114103191Y-104916610D01*
X113972099Y-104924702D01*
X113853145Y-104948979D01*
X113746329Y-104989439D01*
X113653168Y-105044870D01*
X113575180Y-105114058D01*
X113512365Y-105197002D01*
X113466341Y-105292287D01*
X113438727Y-105398496D01*
X113429522Y-105515630D01*
X113126067Y-105515630D01*
X113126067Y-103864229D01*
X113429522Y-103864229D01*
X113438727Y-103982576D01*
X113466341Y-104089999D01*
X113512365Y-104186498D01*
X113575079Y-104270656D01*
X113652763Y-104341058D01*
X113745418Y-104397703D01*
X113851729Y-104439175D01*
X113970379Y-104464058D01*
X114101371Y-104472352D01*
X114232463Y-104464058D01*
X114351417Y-104439175D01*
X114458233Y-104397703D01*
X114551394Y-104341058D01*
X114629382Y-104270656D01*
X114692197Y-104186498D01*
X114738221Y-104089999D01*
X114765835Y-103982576D01*
X114775040Y-103864229D01*
X114765835Y-103745983D01*
X114738221Y-103638863D01*
X114692197Y-103542871D01*
X114629382Y-103459218D01*
X114551394Y-103389120D01*
X114458233Y-103332576D01*
X114351417Y-103291104D01*
X114232463Y-103266221D01*
X114101371Y-103257927D01*
X113970379Y-103266221D01*
X113851729Y-103291104D01*
X113745418Y-103332576D01*
X113652763Y-103389120D01*
X113575079Y-103459218D01*
X113512365Y-103542871D01*
X113466341Y-103638863D01*
X113438727Y-103745983D01*
X113429522Y-103864229D01*
X113126067Y-103864229D01*
X113126067Y-102899243D01*
X113453191Y-102899243D01*
X113453191Y-103099523D01*
X113975740Y-102797282D01*
X114026721Y-102904023D01*
X114106833Y-102983907D01*
X114213345Y-103033749D01*
X114343527Y-103050364D01*
X114463468Y-103037391D01*
X114564746Y-102998473D01*
X114645768Y-102935430D01*
X114704942Y-102850083D01*
X114741129Y-102743116D01*
X114753191Y-102615210D01*
X114753191Y-102141820D01*
X113453191Y-102141820D01*
X113453191Y-102329355D01*
X113952071Y-102329355D01*
X113952071Y-102609747D01*
X113453191Y-102899243D01*
X113126067Y-102899243D01*
X113126067Y-102329355D01*
X113126067Y-101513669D01*
X113126067Y-101326134D01*
X113453191Y-101326134D01*
X113453191Y-101513669D01*
X113950250Y-101513669D01*
X114753191Y-101959747D01*
X114753191Y-101755826D01*
X114143247Y-101420812D01*
X114143247Y-101417170D01*
X114753191Y-101082156D01*
X114753191Y-100878235D01*
X113950250Y-101326134D01*
X113453191Y-101326134D01*
X113126067Y-101326134D01*
X113126067Y-100024313D01*
X113126067Y-99836778D01*
X113453191Y-99836778D01*
X113453191Y-100024313D01*
X113941147Y-100024313D01*
X113941147Y-100324733D01*
X113953664Y-100441715D01*
X113991217Y-100541400D01*
X114051756Y-100622195D01*
X114133233Y-100682506D01*
X114232691Y-100720059D01*
X114347169Y-100732576D01*
X114463923Y-100719604D01*
X114562925Y-100680686D01*
X114643037Y-100617643D01*
X114703121Y-100532296D01*
X114740674Y-100427149D01*
X114753191Y-100304705D01*
X114753191Y-99836778D01*
X113453191Y-99836778D01*
X113126067Y-99836778D01*
X113126067Y-99097562D01*
X113126067Y-98937338D01*
X113726301Y-98937338D01*
X113726301Y-99097562D01*
X114030362Y-99097562D01*
X114030362Y-99387058D01*
X114177841Y-99387058D01*
X114177841Y-99097562D01*
X114481903Y-99097562D01*
X114481903Y-98937338D01*
X114177841Y-98937338D01*
X114177841Y-98649663D01*
X114030362Y-98649663D01*
X114030362Y-98937338D01*
X113726301Y-98937338D01*
X113126067Y-98937338D01*
X113126067Y-98349897D01*
X113126067Y-98046442D01*
X115078495Y-98046442D01*
X115078495Y-98349897D01*
G37*
%TD*%
M02*
